<?xml version="1.0" encoding="utf-8"?>
<!-- Generator: Adobe Illustrator 27.3.1, SVG Export Plug-In . SVG Version: 6.00 Build 0)  -->
<svg version="1.1" id="Layer_1" xmlns="http://www.w3.org/2000/svg" xmlns:xlink="http://www.w3.org/1999/xlink" x="0px" y="0px"
	 viewBox="0 0 28.35 28.35" style="enable-background:new 0 0 28.35 28.35;" xml:space="preserve">
<style type="text/css">
	.st0{fill-rule:evenodd;clip-rule:evenodd;fill:#FFFFFF;}
	.st1{fill-rule:evenodd;clip-rule:evenodd;fill:#EB212B;}
	.st2{fill-rule:evenodd;clip-rule:evenodd;fill:#313C7D;}
</style>
<circle class="st0" cx="13.94" cy="14.17" r="12.78"/>
<g>
	<path class="st1" d="M24.53,15.83l-1.03,1.49c-0.14,0.2-0.36,0.38-0.62,0.4v0.05h1.14c0.3,0,0.53-0.2,0.68-0.42l1.06-1.52H24.53
		L24.53,15.83z"/>
	<path class="st2" d="M14.11,17.01h0.56l-0.29-0.54L14.11,17.01L14.11,17.01z M15.1,17.77l-0.22-0.39h-0.97l-0.2,0.39h-0.48L14.2,16
		h0.44l1.09,1.77H15.1L15.1,17.77z M3.73,17.01h0.58l-0.3-0.54L3.73,17.01L3.73,17.01z M4.75,17.77l-0.23-0.39H3.54l-0.21,0.39H2.83
		L3.82,16h0.45l1.12,1.77H4.75L4.75,17.77z M7.64,16.81c0.21,0,0.3-0.1,0.3-0.22c0-0.12-0.09-0.21-0.3-0.21H7.09v0.44H7.64
		L7.64,16.81z M8.05,17.1l0.72,0.67H8.22c-0.12,0-0.2-0.04-0.27-0.1L7.46,17.2c-0.01-0.01-0.02-0.01-0.04-0.01H7.09v0.59H6.57v-1.78
		h1.12c0.58,0,0.83,0.26,0.83,0.55C8.52,16.88,8.22,17.04,8.05,17.1L8.05,17.1z M12.09,16.81c0.21,0,0.3-0.1,0.3-0.22
		c0-0.12-0.09-0.21-0.3-0.21h-0.55v0.44H12.09L12.09,16.81z M12.5,17.1l0.72,0.67h-0.55c-0.12,0-0.2-0.04-0.27-0.1l-0.49-0.47
		c-0.01-0.01-0.02-0.01-0.04-0.01h-0.33v0.59h-0.52v-1.78h1.12c0.58,0,0.83,0.26,0.83,0.55C12.97,16.88,12.67,17.04,12.5,17.1
		L12.5,17.1z M20.54,17.77v-1.78h1.8v0.38h-1.28v0.31h1.26v0.38h-1.26v0.33h1.27v0.38H20.54L20.54,17.77z M8.97,17.77v-1.78h1.73
		v0.38H9.49v0.44h1.19v0.38H9.49v0.57H8.97L8.97,17.77z M20.23,16.57c-0.23-0.12-0.5-0.21-0.85-0.21c-0.42,0-0.73,0.22-0.73,0.52
		c0,0.31,0.32,0.53,0.73,0.53c0.34,0,0.6-0.09,0.87-0.24v0.44c-0.23,0.12-0.54,0.2-0.89,0.2c-0.71,0-1.27-0.36-1.27-0.93
		c0-0.56,0.57-0.91,1.27-0.91c0.33,0,0.63,0.06,0.88,0.16V16.57L20.23,16.57z M17.52,17.77l-1.25-1.05v1.05h-0.44v-1.78h0.37
		l1.23,1.04v-1.04h0.44v1.78H17.52L17.52,17.77z M6.08,17.77H5.57v-1.78h0.52V17.77L6.08,17.77z"/>
	<path class="st1" d="M14.86,6l-3.67,6.16c-0.48,0.81-1.27,1.59-2.21,1.67v0.19h4.08c1.08,0,1.87-0.82,2.41-1.72L19.23,6H14.86
		L14.86,6z"/>
</g>
</svg>
