<?xml version="1.0" encoding="UTF-8"?>
<svg xmlns="http://www.w3.org/2000/svg" viewBox="0 0 262.17 107.64">
  <defs>
    <style>
      .cls-1 {
        fill: #1b2a3d;
      }

      .cls-2 {
        fill: #ee6f4d;
      }
    </style>
  </defs>
  <g id="Layer_1" data-name="Layer 1">
    <g>
      <path class="cls-1" d="m191.91.18c-.85,2.12-1.61,3.99-2.35,5.86-3.11,7.87-6.2,15.74-9.31,23.61-4.34,10.99-8.69,21.98-13.05,32.96-.41,1.04-.95,2.03-1.37,3.07-2.31,5.72-11.06,8.79-17.11,3.67-1.46-1.24-2.72-3-3.45-4.78-4.67-11.49-9.16-23.04-13.71-34.57-1.12-2.85-2.22-5.72-3.34-8.58-.1-.26-.28-.49-.57-.99-.36.72-.66,1.22-.87,1.77-3.72,9.41-7.44,18.81-11.15,28.23-1.81,4.59-3.58,9.2-5.41,13.78-1.96,4.9-5.91,7.73-10.71,7.75-4.78.02-8.8-2.78-10.72-7.55-3.18-7.93-6.33-15.87-9.48-23.8-3.78-9.52-7.56-19.03-11.31-28.56-1.52-3.85-2.94-7.74-4.54-11.96,2.07.35,3.95.56,5.77,1,6.25,1.52,10.93,5.25,14.09,10.72,1.5,2.6,2.43,5.54,3.54,8.36,4.08,10.34,8.13,20.69,12.2,31.04.08.21.24.4.49.78.25-.57.44-.96.6-1.37,3.43-8.76,6.84-17.54,10.29-26.29,2.23-5.67,4.51-11.32,6.8-16.97,1.68-4.16,5.93-7.15,10.3-7.03,4.81.14,8.51,2.28,10.46,6.79,1.77,4.11,3.31,8.32,4.97,12.49,3.23,8.14,6.46,16.27,9.7,24.4.9,2.27,1.82,4.54,2.74,6.8.1.26.29.48.57.93.29-.64.51-1.09.7-1.56,3.51-8.91,7-17.83,10.53-26.74,1.46-3.7,2.78-7.48,4.55-11.03,3.59-7.18,9.72-10.89,17.6-11.91.77-.1,1.54-.19,2.58-.31Z"/>
      <path class="cls-1" d="m64.81,14.69c-.84.08-1.52.2-2.19.2-8.21.01-16.41-.01-24.62.03-2.03.01-4.09.06-6.09.39-8.21,1.32-16.06,9.32-17.23,18.27-1.43,11,7.04,22.92,18.99,23.74,1.74.12,3.49.24,5.24.24,10.37.02,20.74.01,31.12.01,1.86,0,2,.19,1.67,2.03-1.38,7.66-7.03,12.34-14.89,12.34-6.58,0-13.16,0-19.74,0-18.2,0-33.85-12.94-36.6-30.84-1.89-12.26,2.2-22.73,11.25-31.24C18.68,3.31,27.08.32,36.57.24c7.12-.05,14.25,0,21.37-.03.93,0,1.31.26,1.66,1.18,1.51,4.04,3.16,8.02,4.76,12.03.13.34.25.68.46,1.26Z"/>
      <path class="cls-1" d="m190.51,14.37c1.4-3.63,2.68-6.91,3.93-10.19.41-1.08.73-2.2,1.18-3.27.14-.33.59-.7.93-.74,1.07-.14,2.16-.16,3.24-.16,20.29,0,40.57,0,60.86,0,.48,0,.97,0,1.52,0-.21,4.89-2.06,8.77-5.83,11.63-2.72,2.05-5.85,2.82-9.26,2.77-5.29-.08-10.58,0-15.87-.04-1.12,0-1.48.3-1.47,1.48.05,12.83.02,25.66.04,38.49,0,3.6-.08,7.16-2.08,10.34-2.89,4.57-7.12,6.76-12.63,7.04,0-.55,0-.99,0-1.43,0-17.94.01-35.87.01-53.81,0-2.07,0-2.07-2.16-2.08-6.75-.01-13.5-.02-20.24-.03-.61,0-1.22,0-2.16,0Z"/>
    </g>
  </g>
  <g id="Layer_2" data-name="Layer 2">
    <path class="cls-2" d="m143.01,107.64s10.23-26.34,25.1-28.82,44.32,7.13,61.06-11c.15.15-6.35,20.77-20.46,28.67s-39.52-9.92-65.7,11.16Z"/>
  </g>
</svg>