<?xml version="1.0" encoding="utf-8"?>
<!-- Generator: Adobe Illustrator 27.3.1, SVG Export Plug-In . SVG Version: 6.00 Build 0)  -->
<svg version="1.1" id="Layer_1" xmlns="http://www.w3.org/2000/svg" xmlns:xlink="http://www.w3.org/1999/xlink" x="0px" y="0px"
	 viewBox="0 0 28.35 28.35" style="enable-background:new 0 0 28.35 28.35;" xml:space="preserve">
<style type="text/css">
	.st0{fill-rule:evenodd;clip-rule:evenodd;fill:#FFFFFF;}
	.st1{fill-rule:evenodd;clip-rule:evenodd;fill:#E03A3E;}
</style>
<g>
	<circle class="st0" cx="14.17" cy="14.17" r="13.54"/>
	<g>
		<path class="st1" d="M15.38,6.72c-0.06,0.06-0.25,0.36-0.25,0.73c0,0.09,0,2.2,0,2.28c0,0.16-0.1,0.39-0.18,0.47
			c-0.06,0.06-0.41,0.38-0.44,0.41l0.2,0c0.06-0.06,0.74-0.66,0.81-0.74c0.09-0.1,0.31-0.37,0.31-0.79c0-0.1,0-2.1,0-2.19
			c0-0.33,0.15-0.51,0.23-0.6c0.08-0.09,0.35-0.31,0.39-0.36l-0.21-0.01C16.2,5.97,15.45,6.65,15.38,6.72L15.38,6.72z"/>
		<path class="st1" d="M13.71,15.01l0.83,0.72h0.55c0.56,0,1.08-0.24,1.42-0.58c0.34-0.34,0.47-0.8,0.47-1.22c0-0.31,0-1.13,0-1.19
			c0-0.4-0.25-0.63-0.32-0.7c-0.04-0.04-0.28-0.27-0.28-0.27v0.91c0,0,0.27,0.27,0.32,0.33c0.25,0.26,0.24,0.74-0.53,1.49
			c-0.14,0.13-0.52,0.5-1.06,0.5C15.03,15.01,13.71,15.01,13.71,15.01L13.71,15.01z"/>
		<path class="st1" d="M16.01,10.15c-0.09,0.1-0.18,0.34-0.18,0.55c0,0.12,0,0.45,0,0.45s0.37,0,0.46,0c0.18,0,0.41-0.16,0.46-0.25
			c0-0.01,0-0.45,0-0.45s0.12,0.17,0.24,0.26c0.05-0.06,0.46-0.56,0.81-0.57c0.58,0,0.45,0.73,0.21,0.96
			c-0.08,0.08-0.42,0.39-0.52,0.49c-0.27,0.26-0.74,0.14-0.74-0.54c0,0-0.5,0.48-0.58,0.54c-0.08,0.06-0.34,0.34-0.34,0.34
			s0,1.07,0,1.18c0,0.57-0.19,0.76-0.34,0.93c-0.06,0.07-0.7,0.65-0.78,0.71l-0.21,0c0,0,0.37-0.34,0.45-0.42
			c0.09-0.09,0.18-0.27,0.18-0.57c0-0.08-0.01-1.86-0.01-1.86s-2.78,0-2.9,0c-1.01,0-1.23-1.12-1.23-1.42c0-0.09,0-0.98,0-1.12
			c0-0.18-0.12-0.5-0.31-0.59h0.28c0.03,0.01,0.21,0.09,0.21,0.77c0,0-0.01,0.8-0.01,0.84c0,0.35,0.28,0.75,0.68,0.75
			c0.08,0,3.29,0,3.29,0c0-0.09,0.09-0.42,0.25-0.6c0.09-0.1,0.79-0.75,0.88-0.81l0.21,0C16.43,9.76,16.09,10.06,16.01,10.15
			L16.01,10.15z M17.09,10.82c0,0,0.19,0.25,0.28,0.33c0.35,0.28,0.52-0.02,0.28-0.35C17.56,10.67,17.2,10.7,17.09,10.82
			L17.09,10.82z"/>
		<path class="st1" d="M13.57,12.94c0,0.16-0.51,0.58-0.54,0.61c-0.04-0.17-0.16-0.36-0.54-0.74l0.55-0.55
			C13.41,12.63,13.57,12.7,13.57,12.94L13.57,12.94z"/>
		<path class="st1" d="M14.53,6.58c0.11,0.11,0.35,0.41,0.21,0.56c-0.13,0.13-0.32,0.33-0.32,0.33c-0.01-0.07-0.19-0.25-0.19-0.25
			s0,0.54,0,0.6c-0.01,0.24-0.1,0.31-0.1,0.31s0.45,0.44,0.45,1.01c0,0.28,0,0.53,0,0.59c0,0.12-0.03,0.21-0.11,0.3
			c-0.04,0.04-0.45,0.46-0.52,0.52c-0.12,0.11-0.25,0.13-0.34,0.13c-0.07,0-1.5,0-1.54,0c-0.24,0-0.49-0.19-0.49-0.38
			c0-0.05,0-0.57,0-0.57c0.08,0.09,0.16,0.2,0.35,0.2c0.15,0,0.31-0.12,0.35-0.16c0.04-0.04,1.17-1.22,1.17-1.22
			s-0.53-0.49-0.87-0.72c-0.17-0.11-0.39,0.03-0.43,0.18c-0.11,0.47,0,1.17,0,1.17s-0.34-0.34-0.43-0.42
			c-0.17-0.17-0.16-0.56,0.04-0.76c0.03-0.03,0.34-0.38,0.74-0.38c0.06,0,0.55,0,0.62,0c0.41,0,0.86,0.41,0.86,0.41
			s0.07-0.07,0.07-0.14c0-0.21-0.01-0.78-0.01-0.78c-0.31-0.31-0.35-0.63-0.2-0.78c0.28-0.28,0.38-0.38,0.38-0.38
			S14.21,6.25,14.53,6.58L14.53,6.58z M12.6,9.67c-0.15,0.16-0.18,0.2-0.32,0.28c0.01,0,1.68,0,1.74,0c0.47,0,0.38-0.29,0.29-0.44
			c-0.17-0.3-0.72-0.86-0.72-0.86S12.63,9.64,12.6,9.67L12.6,9.67z"/>
		<path class="st1" d="M10.62,11.25h-0.28c0,0,0.31,0.17,0.31,0.6c0,0.11,0,1.29,0,1.39c0,0.9,0.74,1.73,1.65,1.73
			c0.15,0,0.65,0,0.75,0c0.45,0,0.61-0.11,0.89-0.35c0.1-0.09,0.23-0.24,0.28-0.29c0.16-0.18,0.33-0.32,0.33-0.78
			c0-0.11,0-0.39,0-0.45c0-0.39-0.23-0.55-0.34-0.66c-0.07-0.07-0.26-0.25-0.26-0.25v0.93c0,0,0.19,0.2,0.27,0.27
			c0.39,0.31,0.08,0.85-0.28,0.85c-0.07,0-1.56,0-1.66,0c-0.61,0.02-1.43-0.53-1.43-1.44c0-0.12,0-0.67,0-0.75
			C10.83,11.25,10.62,11.25,10.62,11.25L10.62,11.25z"/>
		<path class="st1" d="M12.43,12.94c0,0.16-0.51,0.58-0.54,0.61c-0.04-0.17-0.16-0.36-0.54-0.74l0.55-0.55
			C12.28,12.63,12.43,12.71,12.43,12.94L12.43,12.94z"/>
		<path class="st1" d="M6.63,19.1c-0.09,0-0.79,0-0.89,0c-0.28,0-0.26-0.23-0.28-0.43v-1.27c0,0,0.19,0,0.41,0
			c0.25,0,0.55-0.04,0.85,0.13c0,0-0.21-0.52-0.85-0.52H5.46c0,0,0-0.07,0-0.25V16.6c0,0,0-0.36-0.09-0.46c0,0,0.55,0,0.59,0
			c0.51,0,0.9-0.01,1.31,0.26c0,0-0.08-0.67-1.06-0.67c-0.57,0-1.83,0-1.91,0c0,0,0.33,0.28,0.32,0.86l0.01,2.32
			c0,0.58,0.23,0.6,0.23,0.6c0.02,0,0.14,0,0.65,0c0.09,0,0.19,0,0.3,0c0.28,0,0.64,0,0.93,0c0.43,0,0.58-0.31,0.58-0.47l0.01-0.22
			C7.33,18.82,7.19,19.1,6.63,19.1L6.63,19.1z"/>
		<path class="st1" d="M11.66,18.9v-1.62c0-0.63-0.51-0.8-0.9-0.8c-0.51,0-0.66,0.42-0.72,0.57c-0.11-0.4-0.51-0.57-0.83-0.57
			c-0.61,0-0.77,0.58-0.77,0.58S8.42,16.5,7.93,16.5l-0.48,0c0,0,0.28,0.11,0.28,0.6l0,1.8c0,0.6,0.24,0.61,0.24,0.61h0.79
			c-0.02-0.01-0.31-0.22-0.31-0.61v-1.6c0.01-0.07,0.13-0.31,0.47-0.31c0.19,0,0.41,0.2,0.4,0.43l0,1.49c0,0.6,0.24,0.61,0.24,0.61
			h0.8c0,0-0.31-0.21-0.31-0.61l0-1.6c0.03-0.09,0.13-0.31,0.44-0.31c0.24,0,0.44,0.2,0.44,0.43c0,0,0,1.36,0,1.48
			c0,0.61,0.24,0.6,0.24,0.6c0.42,0,0.8,0,0.8,0S11.66,19.3,11.66,18.9L11.66,18.9z"/>
		<path class="st1" d="M13.05,18.9c0,0.4,0.31,0.61,0.31,0.61s-0.38,0-0.79,0c0,0-0.24,0-0.24-0.6v0l0-1.81
			c0-0.48-0.28-0.6-0.28-0.6h0.48c0.17,0,0.52,0,0.52,0.67L13.05,18.9L13.05,18.9L13.05,18.9z"/>
		<path class="st1" d="M15.5,16.72c0,0-0.08-0.22-0.41-0.22c-0.5,0-0.62,0.59-0.62,0.59c-0.04-0.47-0.17-0.61-0.52-0.61l-0.48,0
			c0,0,0.28,0.11,0.28,0.6l0,1.8c0,0.6,0.24,0.61,0.24,0.61h0.79c-0.02-0.01-0.31-0.22-0.31-0.61l0-1.48
			c0.02-0.13,0.09-0.24,0.19-0.31c0.26-0.17,0.62-0.13,0.82,0.12C15.5,17.23,15.5,16.92,15.5,16.72L15.5,16.72z"/>
		<path class="st1" d="M19.21,16.83c0.27,0,0.47,0.12,0.47,0.12l0-0.45h-0.67l0-0.69c0,0-0.18,0.3-0.54,0.6
			c-0.23,0.19-0.7,0.41-0.7,0.41l0.5,0.01l0,2.09c0,0.58,0.24,0.58,0.24,0.58c0.44,0,0.79,0,0.79,0s-0.31-0.21-0.31-0.59l0-2.09
			C19.22,16.83,19.08,16.83,19.21,16.83L19.21,16.83z"/>
		<path class="st1" d="M21.62,17.74c-0.45,0.47-0.8,0.39-1.08,0.74c0,0,0.04,0.46,0.4,0.63c0.12,0.06,0.61,0.23,0.93-0.32l0,0.49
			c0,0-0.2,0.24-0.85,0.24c-0.78,0-1.32-0.61-1.32-1.45c0-0.82,0.44-1.58,1.26-1.58C21.77,16.48,22.21,17.13,21.62,17.74
			L21.62,17.74z M21.14,17.55c0.13-0.24,0.24-0.86-0.22-0.83c-0.52,0.04-0.42,1.43-0.42,1.43C20.67,17.96,20.93,17.92,21.14,17.55
			L21.14,17.55z"/>
		<path class="st1" d="M12.68,16.25c0.2,0,0.37-0.16,0.37-0.36s-0.17-0.36-0.37-0.36c-0.2,0-0.37,0.16-0.37,0.36
			S12.48,16.25,12.68,16.25L12.68,16.25z"/>
		<path class="st1" d="M16.33,19.17c-0.18,0-0.31-0.19-0.31-0.38c0-0.75,0.62-0.86,0.78-1.06l0,1.27
			C16.72,19.06,16.65,19.17,16.33,19.17L16.33,19.17z M16.79,17.44c-0.19,0.32-1.62,0.39-1.4,1.51c0.09,0.44,0.38,0.57,0.75,0.57
			c0.36,0,0.57-0.19,0.67-0.36c0.05,0.34,0.22,0.35,0.22,0.35c0.42,0,0.79,0,0.79,0s-0.31-0.21-0.31-0.6v-1.69
			c0-0.4-0.45-0.72-0.93-0.72c-0.46,0-0.75,0.22-0.75,0.22c0,0.14,0,0.52,0,0.52s0.16-0.42,0.58-0.42c0.4,0,0.43,0.2,0.43,0.3
			C16.86,17.13,16.9,17.26,16.79,17.44L16.79,17.44z"/>
		<path class="st1" d="M23.38,18.69c0,0.21-0.19,0.49-0.59,0.49c-0.41,0-0.58-0.42-0.58-0.42v0.54c0,0,0.3,0.21,0.76,0.21
			c0.54,0,1.09-0.41,1.08-0.99c0-0.2-0.08-0.37-0.19-0.52c-0.18-0.25-0.52-0.42-0.78-0.58c-0.15-0.09-0.23-0.25-0.23-0.31
			c0-0.1,0.04-0.3,0.45-0.3c0.39,0,0.56,0.42,0.56,0.42l0-0.5c0,0-0.3-0.24-0.76-0.24c-0.48,0-0.91,0.31-0.9,0.72
			c0.01,0.36,0.16,0.59,0.45,0.8c0.11,0.09,0.25,0.17,0.41,0.26C23.3,18.38,23.38,18.54,23.38,18.69L23.38,18.69z"/>
	</g>
</g>
</svg>
