<svg width="19" height="18" viewBox="0 0 19 18" fill="none" xmlns="http://www.w3.org/2000/svg">
<path d="M18.3779 9C18.3779 4.02948 14.402 0 9.49756 0C4.59311 0 0.617188 4.02948 0.617188 9C0.617188 13.2206 3.48413 16.7623 7.35241 17.735V11.7504H5.52128V9H7.35241V7.81488C7.35241 4.75164 8.72035 3.3318 11.6878 3.3318C12.2505 3.3318 13.2213 3.44376 13.6184 3.55536V6.04836C13.4088 6.02604 13.0447 6.01488 12.5925 6.01488C11.1365 6.01488 10.5739 6.57396 10.5739 8.02728V9H13.4745L12.9762 11.7504H10.5739V17.9341C14.9703 17.3959 18.3779 13.6015 18.3779 9Z" fill="#8C8C8C"/>
</svg>
