<?xml version="1.0" encoding="utf-8"?>
<!-- Generator: Adobe Illustrator 27.3.1, SVG Export Plug-In . SVG Version: 6.00 Build 0)  -->
<svg version="1.1" id="Layer_1" xmlns="http://www.w3.org/2000/svg" xmlns:xlink="http://www.w3.org/1999/xlink" x="0px" y="0px"
	 viewBox="0 0 607 602" style="enable-background:new 0 0 607 602;" xml:space="preserve">
<style type="text/css">
	.st0{fill:#E70013;}
	.st1{fill:#FFFFFF;}
</style>
<g>
	<path class="st0" d="M302.63,12c-156.3,0-283,126.7-283,283s126.7,283,283,283s283-126.7,283-283S458.93,12,302.63,12z M302.63,495
		c-110.46,0-200-89.54-200-200s89.54-200,200-200s200,89.54,200,200S413.09,495,302.63,495z"/>
	<path class="st1" d="M302.63,95c-110.46,0-200,89.54-200,200s89.54,200,200,200s200-89.54,200-200S413.09,95,302.63,95z
		 M423.9,383.28C396.62,420.69,352.47,445,302.63,445c-82.84,0-150-67.16-150-150s67.16-150,150-150
		c49.84,0,93.99,24.31,121.27,61.72c23.81,21.93,38.73,53.36,38.73,88.28S447.71,361.36,423.9,383.28z"/>
	<path class="st0" d="M222.63,295c0-66.27,53.73-120,120-120c31.35,0,59.89,12.03,81.27,31.72C396.62,169.31,352.47,145,302.63,145
		c-82.84,0-150,67.16-150,150s67.16,150,150,150c49.84,0,93.99-24.31,121.27-61.72C402.52,402.97,373.99,415,342.63,415
		C276.36,415,222.63,361.27,222.63,295z"/>
	<path class="st1" d="M423.9,206.72c18.06,24.77,28.73,55.28,28.73,88.28s-10.67,63.51-28.73,88.28
		c23.81-21.93,38.73-53.36,38.73-88.28S447.71,228.64,423.9,206.72z"/>
	<path class="st1" d="M423.9,206.72C402.52,187.03,373.99,175,342.63,175c-66.27,0-120,53.73-120,120s53.73,120,120,120
		c31.35,0,59.89-12.03,81.27-31.72c18.06-24.77,28.73-55.28,28.73-88.28S441.97,231.49,423.9,206.72z M314.83,380.6v-65.39
		L252.63,295l62.2-20.21V209.4l38.43,52.9l62.18-20.2L377.01,295l38.42,52.9l-62.17-20.2L314.83,380.6z"/>
	<polygon class="st0" points="314.83,380.6 353.26,327.7 314.83,315.21 	"/>
	<polygon class="st0" points="252.63,295 314.83,315.21 314.83,274.79 	"/>
	<polygon class="st0" points="377.01,295 353.26,327.7 415.43,347.9 	"/>
	<polygon class="st0" points="314.83,209.4 314.83,274.79 353.26,262.3 	"/>
	<polygon class="st0" points="353.26,262.3 314.83,274.79 314.83,315.21 353.26,327.7 377.01,295 	"/>
	<polygon class="st0" points="415.44,242.1 353.26,262.3 377.01,295 	"/>
</g>
</svg>
