<svg width="18" height="18" viewBox="0 0 18 18" fill="none" xmlns="http://www.w3.org/2000/svg">
<path d="M5.43682 0.0623787C4.49209 0.10744 3.84649 0.261009 3.28271 0.484873C2.69901 0.715586 2.20423 1.02453 1.71194 1.52561C1.21894 2.02669 0.916245 2.52921 0.690376 3.12149C0.471621 3.69431 0.32365 4.34896 0.281678 5.30714C0.240416 6.26713 0.230813 6.57318 0.235437 9.0173C0.240061 11.4611 0.250732 11.7675 0.295906 12.7278C0.341079 13.6853 0.491896 14.3389 0.712785 14.9106C0.940788 15.5022 1.24527 16.0036 1.74004 16.5029C2.23447 17.0021 2.73031 17.3086 3.31508 17.5378C3.87993 17.7592 4.52588 17.9099 5.47097 17.952C6.4182 17.9942 6.72054 18.0036 9.13147 17.9989C11.5435 17.9942 11.8458 17.9834 12.793 17.938C13.7378 17.8922 14.3827 17.739 14.9472 17.5155C15.5309 17.2841 16.0256 16.9758 16.5179 16.4744C17.0102 15.9733 17.3129 15.4708 17.5388 14.8781C17.7575 14.3057 17.9062 13.651 17.9475 12.6939C17.9887 11.7332 17.9987 11.4268 17.9941 8.98306C17.9894 6.5393 17.9784 6.23288 17.9336 5.27326C17.8888 4.31507 17.7373 3.66151 17.5167 3.08941C17.2887 2.49785 16.9842 1.99677 16.4898 1.49713C15.9954 0.99821 15.4996 0.690712 14.9148 0.462522C14.3496 0.240821 13.704 0.0897759 12.7589 0.0483196C11.8117 0.00578183 11.5093 -0.00359091 9.09768 0.00109546C6.6864 0.00578182 6.38405 0.016236 5.43682 0.0623787ZM5.54069 16.3316C4.67492 16.2934 4.20468 16.1478 3.89131 16.0256C3.47657 15.863 3.18027 15.6676 2.86868 15.3544C2.5578 15.0396 2.36465 14.7404 2.20245 14.3208C2.0808 14.0032 1.93426 13.5274 1.89371 12.65C1.8496 11.7015 1.83964 11.4167 1.83537 9.0137C1.8311 6.61139 1.83964 6.32661 1.88055 5.37744C1.91754 4.50073 2.06231 4.02344 2.18253 3.70621C2.34295 3.28516 2.53503 2.98559 2.84485 2.6698C3.15537 2.35401 3.4506 2.15899 3.86463 1.9946C4.17765 1.87059 4.64717 1.72352 5.51259 1.6817C6.44914 1.63664 6.72979 1.62726 9.10017 1.62258C11.4713 1.61789 11.7519 1.62654 12.6888 1.668C13.5539 1.70621 14.0248 1.85149 14.3375 1.97406C14.7526 2.13664 15.0489 2.33058 15.3601 2.64529C15.6714 2.95999 15.8645 3.25848 16.0263 3.67917C16.1487 3.99568 16.2938 4.47189 16.3347 5.34896C16.3792 6.29813 16.3895 6.58256 16.3938 8.98522C16.3984 11.3882 16.3899 11.673 16.3486 12.6218C16.3109 13.4993 16.1672 13.9762 16.0466 14.2938C15.8862 14.7141 15.6941 15.014 15.384 15.3298C15.0738 15.6445 14.7786 15.8407 14.3642 16.005C14.0519 16.1287 13.5816 16.2761 12.7166 16.3179C11.78 16.3626 11.4994 16.3727 9.12827 16.3771C6.75789 16.3817 6.47724 16.3727 5.54069 16.3316ZM12.7799 4.1889C12.7809 4.78479 13.2594 5.26749 13.8473 5.26641C14.4357 5.26533 14.9119 4.78083 14.9109 4.18494C14.9098 3.58905 14.4314 3.10599 13.8431 3.10707C13.2547 3.10816 12.7788 3.59301 12.7799 4.1889ZM4.55505 9.00865C4.56003 11.5609 6.6053 13.6254 9.12329 13.6204C11.6413 13.6153 13.6794 11.5429 13.6748 8.99063C13.6698 6.43908 11.6242 4.37347 9.10586 4.37852C6.58787 4.38357 4.55007 6.45674 4.55505 9.00865ZM6.15463 9.00541C6.15178 7.34896 7.47462 6.00325 9.10906 6.00036C10.7435 5.99712 12.0717 7.33742 12.0749 8.99423C12.0781 10.651 10.7552 11.9964 9.12044 11.9996C7.48565 12.0029 6.15783 10.6622 6.15463 9.00541Z" fill="#8C8C8C"/>
</svg>
