<?xml version="1.0" encoding="UTF-8"?>
<svg id="Layer_1" data-name="Layer 1" xmlns="http://www.w3.org/2000/svg" viewBox="0 0 135.13 32.74">
  <defs>
    <style>
      .cls-1 {
        fill: #347eff;
      }
    </style>
  </defs>
  <g>
    <path class="cls-1" d="m12.94,24.18c0,3.8-2.52,4.32-4.3,4.32s-4.25-1.34-4.25-4.32v-6.48H0v6.48c0,3.98,2.82,8.55,8.73,8.55s8.55-4.76,8.55-8.55h17.49v-4.32H12.94s0,4.32,0,4.32Z"/>
    <path class="cls-1" d="m17.33,2.51c-3.61,0-6.53,2.91-6.53,6.5s2.92,6.5,6.53,6.5c.77,0,1.49-.14,2.17-.37v2.56h4.35v-6.53h10.93v-4.32h-11.3c-.89-2.52-3.32-4.33-6.16-4.33h.01Zm0,8.65c-1.19,0-2.17-.97-2.17-2.17s.97-2.17,2.17-2.17,2.17.97,2.17,2.17-.97,2.17-2.17,2.17Z"/>
    <path class="cls-1" d="m32.61,17.67c1.19,0,2.17-.97,2.17-2.17s-.97-2.17-2.17-2.17-2.17.97-2.17,2.17.97,2.17,2.17,2.17Z"/>
    <path class="cls-1" d="m32.61,4.33c1.19,0,2.17-.97,2.17-2.17s-.97-2.17-2.17-2.17-2.17.97-2.17,2.17.97,2.17,2.17,2.17Z"/>
    <path class="cls-1" d="m28.27,4.33c1.19,0,2.17-.97,2.17-2.17s-.97-2.17-2.17-2.17-2.17.97-2.17,2.17.97,2.17,2.17,2.17Z"/>
  </g>
  <g>
    <path d="m50.49,21.32c-.79,0-1.43-.17-1.93-.51-.49-.34-.84-.8-1.06-1.39-.22-.59-.32-1.28-.32-2.07v-4.72h-1.42v-2.07l1.56-.13.3-2.86h2.17v2.86h2.5v2.2h-2.5v4.7c0,.6.12,1.05.36,1.35s.58.43,1.03.43c.17,0,.34-.03.52-.08.18-.05.34-.1.47-.15l.45,2.03c-.28.09-.59.18-.94.27-.35.09-.75.13-1.19.13h0Z"/>
    <path d="m57.37,21.32c-1.09,0-1.88-.37-2.37-1.13-.49-.75-.74-1.8-.74-3.13v-6.6h2.62v6.27c0,.82.12,1.39.34,1.72.23.33.6.5,1.09.5.4,0,.76-.11,1.07-.31s.62-.55.96-1.01v-7.15h2.64v10.6h-2.15l-.2-1.53h-.07c-.43.54-.9.97-1.4,1.3-.5.33-1.09.48-1.79.48h0Z"/>
    <path d="m65.8,21.06v-10.6h2.15l.2,1.4h.05c.45-.45.93-.84,1.45-1.17.53-.33,1.14-.5,1.82-.5,1.08,0,1.87.37,2.37,1.13.5.75.74,1.8.74,3.13v6.6h-2.64v-6.27c0-.82-.11-1.39-.33-1.72-.22-.33-.58-.5-1.08-.5-.4,0-.76.1-1.07.3-.3.2-.65.5-1.02.89v7.29h-2.65v.02h0Z"/>
    <path d="m78.64,8.73c-.47,0-.84-.13-1.11-.41-.27-.28-.41-.64-.41-1.11s.14-.82.41-1.1.65-.42,1.11-.42.81.14,1.09.42c.29.28.43.65.43,1.1s-.14.83-.43,1.11-.66.41-1.09.41Zm-1.33,12.33v-10.6h2.64v10.6h-2.64Z"/>
    <path d="m85.64,21.32c-.67,0-1.35-.14-2.03-.42-.69-.28-1.29-.63-1.78-1.06l1.2-1.76c.45.35.88.64,1.32.84.44.2.89.31,1.37.31.5,0,.87-.11,1.1-.31.24-.2.35-.48.35-.81,0-.27-.1-.49-.3-.67s-.47-.34-.79-.5c-.32-.14-.66-.28-1.01-.43-.42-.18-.83-.39-1.24-.65-.41-.25-.76-.58-1.03-.97-.28-.4-.41-.9-.41-1.49,0-.63.15-1.19.46-1.68s.75-.87,1.3-1.14c.55-.28,1.22-.42,1.98-.42s1.38.13,1.95.4,1.06.57,1.46.9l-1.18,1.68c-.36-.28-.71-.5-1.07-.66-.35-.16-.71-.25-1.08-.25-.47,0-.81.1-1.03.28s-.32.43-.32.74c0,.25.09.46.27.64.18.17.42.32.74.44.31.12.64.26.98.4.34.12.66.28,1,.44.33.17.63.37.91.61s.5.53.66.88c.16.34.24.76.24,1.26,0,.62-.15,1.18-.45,1.69-.3.51-.76.91-1.35,1.21-.61.33-1.35.48-2.22.48h0Z"/>
    <path d="m92.98,8.73c-.47,0-.84-.13-1.11-.41-.27-.28-.41-.64-.41-1.11s.14-.82.41-1.1.65-.42,1.11-.42.81.14,1.09.42c.28.28.43.65.43,1.1s-.14.83-.43,1.11c-.29.28-.65.41-1.09.41Zm-1.33,12.33v-10.6h2.64v10.6h-2.64Z"/>
    <path d="m99.57,21.32c-.59,0-1.1-.13-1.55-.41-.45-.28-.8-.65-1.04-1.13-.24-.48-.37-1.02-.37-1.63,0-1.13.46-1.99,1.38-2.62.93-.63,2.39-1.05,4.4-1.28,0-.35-.07-.66-.18-.94-.11-.28-.29-.49-.53-.66-.24-.16-.58-.25-1-.25-.47,0-.93.1-1.38.28s-.92.43-1.38.74l-.93-1.85c.39-.27.82-.5,1.26-.7.45-.2.91-.37,1.4-.51s1-.2,1.53-.2c.85,0,1.56.18,2.14.53.57.35,1.01.88,1.29,1.57.29.69.43,1.55.43,2.57v6.19h-2.15l-.18-1.14h-.09c-.43.41-.9.74-1.4,1-.5.28-1.05.42-1.64.42h0Zm.88-2.18c.37,0,.71-.09,1.02-.28.3-.19.61-.43.93-.76v-2.12c-.82.1-1.46.25-1.94.43-.48.19-.82.42-1.03.67-.2.26-.3.55-.3.86,0,.42.13.72.37.9.24.19.56.28.96.28h0Z"/>
    <path d="m111,21.3c-.68,0-1.23-.14-1.63-.43-.4-.28-.7-.68-.87-1.21-.18-.51-.26-1.12-.26-1.8v-5.7h-1.45v-1.3l1.55-.1.18-2.9h1.36v2.9h2.66v1.4h-2.66v5.75c0,.62.11,1.1.34,1.45.22.34.61.52,1.18.52.18,0,.37-.03.57-.09.2-.06.39-.12.54-.2l.32,1.3c-.28.1-.57.19-.88.27s-.61.12-.92.12h0Z"/>
    <path d="m114.72,21.06v-10.28h1.35l.16,1.87h.03c.34-.66.75-1.18,1.23-1.56.49-.38,1-.58,1.54-.58.23,0,.42.02.58.04.16.03.31.09.45.18l-.3,1.5c-.17-.05-.32-.09-.45-.12-.14-.03-.3-.04-.5-.04-.39,0-.82.18-1.28.54-.45.36-.84.97-1.17,1.84v6.6h-1.64s0,0,0,0Z"/>
    <path d="m122.73,8.72c-.32,0-.58-.11-.78-.31-.2-.2-.29-.49-.29-.84s.1-.61.29-.82c.19-.2.45-.3.78-.3s.59.1.79.3c.2.2.3.47.3.82s-.1.64-.3.84c-.2.2-.46.31-.79.31Zm-.82,12.4v-10.28h1.65v10.28h-1.65Z"/>
    <path d="m126.62,25.39v-14.62h1.35l.16,1.2h.03c.45-.39.93-.74,1.46-1.02.53-.29,1.08-.43,1.64-.43.84,0,1.55.22,2.13.66.58.43,1.02,1.05,1.31,1.83.29.78.44,1.7.44,2.76,0,1.17-.2,2.17-.6,3-.4.82-.93,1.45-1.56,1.9-.64.44-1.33.66-2.08.66-.45,0-.89-.11-1.35-.31-.45-.2-.91-.51-1.35-.88l.05,1.8v3.48h-1.64v-.03h0Zm4.02-5.55c.54,0,1.02-.16,1.45-.48.43-.32.76-.79,1-1.4.24-.61.36-1.34.36-2.19,0-.75-.08-1.43-.26-1.99-.18-.58-.45-1.02-.82-1.34-.37-.32-.87-.47-1.5-.47-.4,0-.82.12-1.24.36-.42.24-.87.59-1.34,1.04v5.41c.43.39.86.66,1.28.82.39.15.76.23,1.08.23Z"/>
  </g>
</svg>