<?xml version="1.0" encoding="utf-8"?>
<!-- Generator: Adobe Illustrator 24.0.0, SVG Export Plug-In . SVG Version: 6.00 Build 0)  -->
<svg version="1.1" id="aecb9f96-34f9-4826-8ae9-78c2ae06a302"
	 xmlns="http://www.w3.org/2000/svg" xmlns:xlink="http://www.w3.org/1999/xlink" x="0px" y="0px" viewBox="0 0 100.1 37.4"
	 style="enable-background:new 0 0 100.1 37.4;" xml:space="preserve">
<style type="text/css">
	.st0{clip-path:url(#SVGID_2_);}
	.st1{clip-path:url(#SVGID_4_);}
	.st2{fill:#93C3D8;}
	.st3{fill:#357FFF;}
</style>
<g>
	<defs>
		<rect id="SVGID_1_" x="-49.7" y="-349.1" width="363.4" height="121.7"/>
	</defs>
	<clipPath id="SVGID_2_">
		<use xlink:href="#SVGID_1_"  style="overflow:visible;"/>
	</clipPath>
	<g class="st0">
		<g>
			<defs>
				<path id="SVGID_3_" d="M-43.8-363.6h631.6c3.7,0,6.7,3,6.7,6.6v203c0,3.7-3,6.6-6.7,6.6H-43.8c-3.7,0-6.6-3-6.6-6.6v-203
					C-50.5-360.7-47.5-363.6-43.8-363.6z"/>
			</defs>
			<clipPath id="SVGID_4_">
				<use xlink:href="#SVGID_3_"  style="overflow:visible;"/>
			</clipPath>
			<g class="st1">
				<path class="st2" d="M23.9-278.8c-2,1.1-6-0.1-7.5-1.1c-0.4-0.2-0.9-0.1-1.1,0.3c-0.3,0.5-0.8,0.5-2.1-0.1s-1.8-0.6-2,0
					c-0.2,0.5-0.7,0.7-1.3,0.7c-0.6,0-1.3,0.3-1.8,0.7c-0.6,0.6-1,0.6-1.9,0c-1.6-1-3.3-0.9-11.4,0.4c-6.8,1.1-10.8,2.5-10.8,3.8
					c0,0.3-0.4,0.5-0.9,0.3c-0.4-0.2-0.9-0.1-1.2,0.2c-0.3,0.4-0.8,0.6-1.3,0.6c-0.9,0.3-1.8,0.8-2.4,1.5c-0.6,0.7-1.4,1.2-2.2,1.6
					c-1.5,0.1-3.7-0.2-4.2-0.6c-0.2-0.2-2-0.2-3.9,0c-3.8,0.5-6-0.4-6.6-2.5c-0.4-1.2-1.2-1.5-2.4-0.7c-0.9,1.1-1.6,2.4-2.1,3.7
					c-2,4.9-3.4,6.5-7.2,8.3s-7.2,4.9-7.2,6.4c-0.2,1-0.7,2-1.3,2.8c-1.1,1.4-1.4,2.6-1.4,5.7c0,2.3-0.3,4.2-0.7,4.6
					c-0.4,0.4-0.7,0.9-0.8,1.4c-0.5,1-1.3,1.8-2.2,2.4c-1.2,1-2.7,2.3-3.4,2.9c-1.4,1.3-4.8,2.8-6.2,2.8s-2.2,1-3.7,4.3
					c-0.8,1.6-1.6,2.9-1.9,2.9c-1.6,0-4.9,4.9-4.9,7.4c0,1.4-1.6,3.9-4,6.1c-1.2,1.4-2.1,3.1-2.7,4.8c-0.7,2-1.8,4-2.4,4.3
					c-0.8,0.8-1.3,1.9-1.4,3c-0.2,1.3-0.6,2.9-0.7,3.7c-0.2,1-0.1,1.3,0.5,1.1c0.4-0.1,1.4,0.4,2.2,1.2c1.4,1.5,1.8,3.1,0.8,3.1
					s-1.3,3-0.4,4.4c1.3,1.8,1.1,7-0.3,10.7c-0.6,1.5-1,3-1.2,4.6c0,1.8-3,6.8-4,6.8c-0.4,0-0.8,0.2-0.8,0.6s0.4,0.6,0.9,0.6
					s1.2,0.7,1.6,1.6c0.3,0.9,0.7,1.8,1.2,2.7c0.3,0.6,0.3,1.1-0.1,1.4s-0.6,1.6-0.6,3.2c0.1,2.4,0.4,3.1,1.8,4.6
					c2,1.9,2.3,2.9,0.8,2.4c-0.8-0.3-0.9-0.1-0.5,1.1c0.7,2.1,1.1,2.4,2.4,1.3c0.8-0.7,1-1,0.5-1.2c-0.9-0.3-1.1-2-0.2-2
					c0.3,0,0.8,0.8,1.2,1.8s0.9,1.8,1.2,1.8s0.7,0.4,0.7,0.9c0,0.5,0.4,0.9,0.9,0.9c0.5,0,0.9,0.2,0.9,0.5c0.9,1.3,1.9,2.5,3,3.7
					c1.9,2.1,3,3.8,3.1,4.8c0.1,2.5,0.4,3.9,1.2,4.3c0.3,0.3,0.5,0.7,0.3,1.2c-0.2,0.4-0.2,0.7,0.2,0.7s0.5,0.4,0.4,0.7
					c-0.1,0.4,0.7,1.2,2.2,1.9c2.5,1,4.6,2.7,11.9,9.2s9.1,7.1,14.6,4.5c5.8-2.8,14.9-3,20-0.5c0.9,0.3,1.9,0.1,2.7-0.4
					c5.5-2.8,9.7-4.5,10.9-4.5c0.7,0,1.3-0.3,1.7-0.8c0.4-1.2,5.3-2.2,10.9-2.3c3.5-0.1,4.5,0.1,5.6,1c1.5,1.4,3.6,5.2,3.6,6.6
					c0.2,0.9,0.6,1.7,1.3,2.3c1,1,1.8,1.2,3.4,0.9c1.1-0.2,3.2-0.5,4.5-0.6s3.3-0.4,4.3-0.5c1.6-0.2,2,0,2.2,1.1
					c0.2,0.8,0.8,1.4,1.6,1.7c0.7,0.2,1.2,0.7,1.2,1.2c0.1,0.6,0.4,1.1,0.8,1.5c1.1,1,0.6,6.8-0.9,9.8c-0.8,1.5-0.9,2.3-0.4,2.4
					s0.5,0.7,0.2,1.4c-0.4,1.3-0.6,2.6-0.7,3.9c-0.3,2.6-1.1,3.9-2.1,3.3c-0.8-0.5-0.5,1.2,0.4,3.1c0.5,1,1.3,2.8,1.9,4.2
					c0.8,1.7,1.9,3.2,3.2,4.6c4.3,4.2,9.6,12.1,9.6,14.3c0,0.6,0.2,1.2,0.6,1.6c0.3,0.2,0.5,0.6,0.3,0.9c0,0,0,0,0,0
					c-0.2,0.3,0.3,2,1.2,3.7s1.9,4.6,2.6,6.4c1.1,3.1,1.1,3.3-0.1,4s-1.1,1,0.8,5.8c1.3,3.4,1.9,5.9,1.9,7.7c-0.1,3.1-1.1,6-2.1,6
					s-3.9,5.1-4.3,7.9c-0.5,3.6-2,9-2.5,9c-0.8,0-0.4,11.1,0.4,13.1c0.2,0.8,0.6,1.5,1.2,2c0.6,0,3.2,5.4,5.8,11.8
					c0.8,1.8,1.6,3.5,2.6,5.1c1.3,2.2,1.6,3.5,1.7,6.9c0.1,2.4,0.3,4.8,0.8,7.2c0.4,1.6,1.1,5.4,1.6,8.4c1.2,6.2,2,8.1,5.1,11.6
					c1.6,1.9,2.9,4.2,3.6,6.6c1.4,4.5,3.4,8.8,4.3,9.3c0.6,1,0.9,2,0.9,3.1c0.4,2.3,0.2,2.8-0.6,2.8c-0.5,0-0.9,0.3-1.2,0.7
					c-0.2,0.8,0.7,2.9,1.6,3.6c0.4,0.6,0.5,1.3,0.2,1.9c-0.4,2,0.5,3.5,1.3,2.2c0.4-0.6,0.6-0.7,0.6-0.2c0,0.4,0.4,0.8,0.8,0.8
					c0.8,0.2,1.4,0.6,1.9,1.2c1.3,1.5,2.5,1.5,4,0.2c1-0.8,2.3-1.1,3.6-1c1.4,0.1,2.7-0.2,3.9-0.8c1.8-1.2,6.1-1.4,9.4-0.7
					c1.6,0.4,2.6,0.4,3.1-0.1c0.7-0.4,1.5-0.6,2.2-0.5c0.8,0.1,1.3-0.1,1.3-0.5s1-0.8,2.5-1c3.2-0.4,9.3-4.3,12.7-8.2
					c1.1-1.3,2.3-2.5,3.6-3.6c2.2-2.2,6.4-8.1,6.4-9.1c0-0.8,4-4.9,4.8-4.9s1.8-2.2,3.3-6.9c1.1-3.4,1.3-7.8,0.4-7.2
					s-0.6-0.8,0.8-2.4c1.7-1.4,3.5-2.5,5.6-3.2c3.1-1.2,4.6-2.2,5.6-3.7c0.9-1.3,1.1-2.2,0.8-2.6s-0.4-1.1,0.1-2.2
					c0.8-1.9,0.7-6.8-0.1-7.5c-0.3-0.3-0.5-0.8-0.6-1.2c0-0.4,0.3-0.2,0.6,0.2c0.5,0.7,0.6,0.7,0.6-0.5c0-0.7-0.3-1.3-0.7-1.2
					s-0.7-0.7-0.8-1.9s-0.4-2.2-0.8-2.3s-0.7-0.9-0.7-1.6c0-1.6,5.4-7.6,6.9-7.6c0.5,0,1-0.2,1-0.5c0.2-0.7,0.6-1.4,1.1-1.9
					c1.9-2.8,4.6-4.9,7.8-6.1c1.3-0.5,2.6-1,3.8-1.8c0.4-0.4,0.8-0.7,1.3-1c1.6-0.8,5.6-6.3,6.4-8.8c0.5-1.5,0.6-3.2,0.1-4.7
					c-0.4-1.4-0.7-6-0.6-10.4c0.2-10.1,0.2-9.6-1.4-10.4c-1.1-0.5-1.7-1.6-2.4-4.8c-1.3-5.2-1.3-6,0.2-6.4c0.7-0.2,1.2-0.7,1.2-1
					s-0.4-0.6-0.9-0.4c-1.2,0.4-1.9-1.3-1.1-2.6c0.5-0.8,0.2-1.5-1.1-3.1c-0.8-0.8-1.4-1.9-1.8-3c0-1.3,2-6.9,2.6-7.3
					s3.4-6.8,3.9-8.9c0.3-0.8,0.8-1.5,1.6-2c2.5-1.7,4.6-4,6.2-6.6c2.6-5.1,10.7-13.9,15.7-17c3.3-2,12.8-12.5,12.9-14.1
					c0.6-1.3,1.3-2.6,2.1-3.8c0.9-1.3,1.7-2.8,2.1-4.3c0-1.2,3.7-9.1,4.4-9.4c0.3-0.2,0.4-0.5,0.4-0.8c0.4-1.3,0.9-2.5,1.5-3.6
					c0.8-1.6,1.3-3.3,1.5-5.1c0-1.6,0.3-2.2,1.2-2.4c1.3-0.4,1.6-1.1,0.6-1.5c-0.5-0.2-0.8-3.4-0.5-5.6c0.3-1.7-2.2-2.4-3.6-1
					s-6.5,3.2-7.8,2.7c-0.8-0.1-1.6,0-2.4,0.4c-0.9,0.4-1.8,0.6-2.8,0.4c-1.1-0.2-2.2,0.2-3,0.9c-1,0.8-2.4,1.2-3.7,1
					c-1.3-0.2-2.7,0.1-3.9,0.8c-3.1,1.9-5.4,1.1-7.8-2.6c-0.6-0.9-1.5-1.6-2.5-2l-1.4-0.4l1.4-0.7c2.3-1.1,2-2.9-0.8-5.9
					c-1.2-1.3-2.4-2.6-3.5-4c-0.5-0.7-1.1-1.3-1.5-1.3s-1.1-0.9-1.6-1.8c-0.5-0.9-1.2-1.7-2.1-2.2c-0.7-0.3-1.3-0.7-1.9-1.2
					c-0.4-0.4-1-0.5-1.6-0.4c-0.5,0.2-0.9-0.2-1.1-1.2s-0.1-1.6,0.5-1.6s0.7-0.1-0.1-0.9c-1.1-1.2-1.4-1.1-1.8,0.4
					c-0.4,1.4-0.4,1.4-1.3,0.2c-0.7-1.1-1.2-2.3-1.5-3.6c-1.7-6.9-2.5-8.7-5.5-11c-3.4-2.6-4.2-4.6-4.4-10.4c0-1.7-0.3-3.4-0.9-5.1
					c-0.5-0.7-0.8-1.6-0.9-2.5c0-0.8-0.2-1.5-0.4-1.5c-1-0.7-2-1.4-2.9-2.3c-2.8-2.5-4.5-6.8-2.6-6.8c0.7,0,0.5-0.4-0.7-1.4
					c-1.3-1.5-2.4-3.2-3.3-4.9c-1-2-2.4-4.6-3.1-5.9c-0.6-0.9-1-1.9-1.3-3c-0.2-0.8-0.5-1.6-1-2.2c-0.6-0.8-1-1.7-1.2-2.6
					c-0.6-1.3-1.3-2.5-2.3-3.6c-1-1.1-1.7-2.4-2.1-3.8c0-0.6-0.2-1.3-0.6-1.8c-0.4-0.2-0.8-2.2-1-4.5c-0.1-1.8-0.5-3.6-1.1-5.2
					c-1.6-2.1-8.7-1.4-11.4,1.1c-0.7,0.6-1.6,1-2.5,0.9c-0.7-0.1-2.4-0.6-3.9-0.9c-1.3-0.3-2.6-0.7-3.9-1.2c-2.2-1-6.2-1.8-7.7-1.4
					c-1.1,0.2-1.6,0-1.9-1s-0.9-1.3-2.3-1.3c-3.2,0-6.3-1.1-6.6-2.4c-0.2-0.7-0.8-1.2-1.5-1.2c-0.6,0-1.2-0.2-1.6-0.6
					c-0.9-1.4-6.6-0.1-9.3,2.2c-1.8,1.5-2.4,4.1-1.3,6.2c1,1.6-1.4,4.8-3.6,4.9c-1.2-0.4-2.3-0.9-3.3-1.7c-2.6-1.8-5.6-2.9-8.7-3.1
					c-2.2,0-4-1.6-4.5-3.7c-0.2-1.1-1-2-2-2.5c-1.2-0.5-2.3-1-3.4-1.6c-1.6-0.6-3.3-0.9-5-0.9c-1.9,0.1-3.8-0.3-5.6-1.1
					c-2.4-1.2-6.6-2.9-7.3-4.2C27.4-264.2,25.1-279.4,23.9-278.8z M137.9-85.6c0.5,0.7,0.5,1.3,0.1,1.7c-0.3,0.4-0.4,0.8-0.2,1.3
					c0.4,0.7-0.9,3.7-1.6,3.7c-0.3,0-0.5,0.3-0.5,0.7c-0.1,0.6-0.5,1.1-1,1.5c-1,0.8-1,0.9,0,1.7c1.5,1.2,0.6,1.6-2.6,1
					c-1.1-0.3-2.3-0.3-3.4,0.1c-1.1,1-1.4-0.4-1.1-4.7c0.6-6.4,0.7-6.6,3.1-7.4c1-0.3,1.9-0.7,2.8-1.2C134.2-88,137-87,137.9-85.6z
					 M117.1-62.5c0,0.9,0.3,1.8,0.7,2c0.4,0.3,0.5,0.9,0.3,1.3c-0.2,0.7,0,1.5,0.3,2.2c0.6,1,0.6,1.3,0,1.5
					c-1.2,0.4-0.7,2.5,0.8,3.1s2.2,1.8,2.2,3.7c0.3,1.5,0.8,2.9,1.5,4.2c1.9,3.7,1.9,3.7,0,2.9c-1-0.4-1.4-1-1.2-1.6
					c0.1-0.8-0.1-1.5-0.6-2.1c-0.4-0.6-0.8-1.4-0.9-2.1c-0.3-1.1-1-2.2-1.8-3c-0.9-0.9-1.5-1.9-1.9-3.1c0-0.5-0.1-1.9-0.2-2.8
					s-0.3-4-0.4-6.6c-0.2-4.3-0.1-4.6,0.5-3C116.7-64.8,116.9-63.7,117.1-62.5z M138.8-34.9c0.5,1.3,0.8,2.6,0.9,3.9
					c0,1.2,0.3,2.4,0.8,3.4c0.9,0.9,1,3.3,0.1,3.8s-0.4,8.9,0.5,9.2c0.4,0.1,0.6,0.4,0.7,0.8c0,0.4-0.2,0.4-0.6,0.2
					s-0.6-0.1-0.6,0.2c0,0.4-0.3,0.7-0.7,0.7c-0.4,0-0.5-0.5-0.2-1.2c0.2-0.7,0.2-1.4-0.2-2c-0.6-0.8-1.5-5.4-1.4-7.4
					c0.4-7.2,0.3-9.2-0.4-10.5c-0.4-0.6-0.6-1.3-0.8-2C137-36.6,138.2-36,138.8-34.9z"/>
			</g>
		</g>
	</g>
</g>
<g id="b511ef80-614b-44ba-a9f5-0d4277361c02">
	<path id="fd2a441d-6b04-4dc6-8d28-bd5648b74cf9" class="st2" d="M27.9,5.4c0.1,0.5,0.6,0.5,0.8,0.9c0.1,0.9,0.2,1.9,0.2,2.8
		c0.2,0.5,0.5,1,1,1.2c0,0.3,0,1.2-0.5,1.1c-0.9,0-1.8,0-2.7,0c-0.1,0.5-0.5,0.8-1,0.7c-0.4,0-1,0.1-0.8,0.7s0.2,0.9-0.3,1
		c-0.5,0.3-1.1,0.5-1.7,0.7c-0.5,0.9-1.6,1.4-2.6,1.3c0,0.6-0.4,0.8-0.8,0.6c-0.4-0.1-0.9,0-1.2,0.3c-0.6,0.5-1.3,0.9-2,1.3
		c-0.1,0.7,0,1.4-0.1,2.1c-2.7,0-5.5,0.1-8.2,0.1c0.2-0.8,1.1-0.8,1.7-1c1.4-0.3,2.3-1.5,3.4-2.3c0.6-0.7,1.5-1.4,1.3-2.5
		c-0.5-0.6-0.6-1.5-0.1-2.2c0.4-0.5,1-1,0.8-1.8c0.1-0.6,0.7-0.8,1-1.2c1-1.1,2.8-0.9,3.7-2.3c0.6-1,1.1-2,1.4-3
		c0.4-0.2,0.8-0.4,1.1,0.2c0.3,0.5,0.9,0.9,1.5,1c1,0,2,0.2,2.8-0.5c0.2,0.4,0.6,0.7,1,0.6C27.6,5.4,27.8,5.4,27.9,5.4z"/>
	<path id="b2dc1c61-2d25-4783-b7c4-3109e69d371a" class="st2" d="M16.1,21c0-1-0.1-2.1,0-3c1-0.4,1.9-1.5,2.8-1.8
		c0.4,0.1,0.8,0.4,1.3,0.3c0-0.6-0.1-1.2,0.9-0.6c0.8-0.1,1.4-0.7,1.8-1.4c0.8-0.2,1.5-0.5,2.2-0.9c0.1-0.4-0.3-0.9,0.1-1.2
		s1.4-0.1,1.6-0.8c0.2-0.3,1,0,1.4-0.1l1.6,0.1c0.1-0.4,0.5-1.1,0-1.3c-0.6-0.4-0.9-1.1-0.8-1.8c0,0.1,0-1.5-0.2-2.2
		c-0.2-0.1-1.1-0.7-0.7-0.8c0.6,0,1.3-0.3,1.6-0.8c0.4-0.4,1-0.3,1.4-0.6s0.8,0.5,1.1,0c0.6-0.9,1.7-1.4,2.8-1.3
		c0.8-0.1,1.6,0.1,2.3-0.4c0.5,0.3,1.1,0.2,1.5-0.2c0.6-0.1,1.2-0.1,1.7,0c0.7,0.3,1.5,0.3,2.3,0.1c0.5,0.1,0.7-0.7,1.1-0.6
		s1,0.7,1.4,0.2c0.3-0.3,0.7-0.3,1,0c0.1,0.1,0.1,0.1,0.1,0.2c0.5,0.2,1-0.1,1.5-0.1c0.3,0.2-0.6,0.5-0.5,0.9
		c-0.1,1.1,0.1,2.2,0,3.3c-0.2,0.7-1,0.9-1.3,1.5c-0.2,0.6,0.3,1.3,0.5,1.9c0.7,0,0.8,0.9,1.2,1.4c0.3,0.3,0.8,0.4,1,0.9
		c0.3,1.1,0.6,2.3,1,3.4c-0.5,0.3-0.3,0.8,0,1.2c0.5,0.9,0.7,1.9,0.5,3c0.2,0.6-0.1,1.1-0.2,1.7c0.2,0.5,0.6,1.2,0.2,1.8
		c-0.2,0.3-1,0.4-0.7,0.9c0.6,0.6,1,1.4,1.2,2.2c0.3,0.3,0.4,1.1,1,0.8c0.5-0.1,1.1,0.3,1.6,0.4c0.4,0.4,0.6,1.1,0.9,1.6
		c-1.3,0.8-2.7,1.6-4,2.4c-1.6,0.9-3.2,2-4.6,3.1c-0.9,0.8-1.8,1.7-2.8,2.5c-1.5,0.3-3.1,0.7-4.6,1c-0.3-0.6,0.2-1.2-0.2-1.7
		s-1.1,0-1.5-0.6s-0.7,0.2-1-0.2s-0.8-0.8-1.2-1.1c0.1-0.5-0.2-0.8-0.6-1c-3.4-2.1-6.5-4.6-9.7-6.9c-2-1.4-3.9-2.6-6-3.9
		C17.2,21.7,16.7,21.4,16.1,21z"/>
	<path id="bbda0fb2-0fa5-4544-948f-89647924d38c" class="st3" d="M53.1,9.3c0,0.5,0,1,0,1.5c-0.2,0.4-0.7,0.5-1,0.8
		c-0.5,0.4-1,0.8-1.4,1.2c-0.2,0.5,0.3,1,0,1.5c-0.3,0.5-0.7,0.7-1,1c-0.4-1.2-0.7-2.4-1.1-3.5c-0.2-0.5-0.7-0.5-1-0.9
		c-0.3-0.5-0.5-1.4-1.2-1.4c-0.2-0.6-0.7-1.3-0.5-2C46.2,7,46.9,6.7,47.1,6c0.1-1.1-0.2-2.3,0-3.4c0.2-0.4,0.6-0.7,0.8-1
		c0.6-0.2,1-0.9,1.8-0.8c0.4,0,1,0.2,1,0.7c0.1,0.5,0.7,0.4,1,0.1s0.9-0.3,0.5,0.3c-0.2,0.5-1,0.7-0.9,1.4c0.1,0.4,0.5,0.8,0.9,0.9
		c0.2,0.5,0.4,0.9,0,1.3C52,6.1,51.3,6.3,51,6.8c-0.3,0.3-0.8,0.7-0.3,1c0.5,0.3,0.8,0.9,1.3,0.8c0.5-0.5,0.6,0.3,0.9,0.6L53.1,9.3z
		"/>
</g>
<path id="a7a2edeb-f9af-4fdb-b230-48602061579a" class="st2" d="M94.5,12.9c0.4,1.2,0.9,2.4,1.4,3.5c-0.6,0.7-0.9,1.6-1,2.5
	c0,0.4-0.2,1.1-0.7,0.7c-0.5-0.7-1.3-1.1-1.5-2c-0.1-0.5-0.7-0.6-0.7-1.2s-0.3-1.1-0.7-0.6s0.1,0.9,0.2,1.4c0.3,1,1.1,1.6,1.5,2.4
	c0.2,0.9,0.8,1.6,1,2.5c0.6,1,1.1,2,1.6,3c0.3,0.8,0.9,1.5,1.6,2.1c0.2,0.4-0.7,0.4-0.2,1c0.1,0.7,0.4,1.2,1,1.6
	c0.4,0.2,0.7,0.5,1,0.9c0.4,0.3,0.6,0.9-0.1,0.7c-6.8,0-13.7,0-20.6,0c-0.6,0.2-0.8,0-0.7-0.6c0-3.5-0.1-7,0-10.4c0-1.1,0-2.2,0-3.3
	c-0.3-0.6-0.5-1.3-0.4-2c0.2-0.4,0.6-0.8,0.3-1.3s-0.2-1,0.3-1.2c0.2-0.3,0.7,0.1,1.1-0.1c1.2-0.2,2.3,0.3,3.4,0.5
	c0.5-0.1,0.6,0.6,1.1,0.5c0.6,0,1.1,0.2,1.7,0.4c0.7,0.3,1-0.6,1.6-0.7c0.6-0.3,1.2-0.4,1.8-0.6c0.5,0,1,0,1.5,0.1
	c0.1,0.5,0.6,0.9,1,0.6c0.4,0,0.8,0.5,1.2,0s0.7,0.2,1.2,0.1C93.8,13.3,94.2,13.2,94.5,12.9z"/>
<path id="bfaf1376-78ea-4deb-90ba-8112302d0e35" class="st2" d="M77.8,31.6c-0.1,1.2,0,2.5,0,3.7c-0.3,0.2-0.9,0-1.3,0.1
	c-0.6-0.2-0.5,0.5-0.5,0.9c-0.4-0.1-0.8-0.3-1.2-0.6c-3.4-1.9-6.8-3.7-10.3-5.4l-3.2-1.7c-0.8,0.3-1.6,0.6-2.4,1.1
	c-0.4,0.1-0.8,0.8-1.2,0.3c-0.5-0.5-1.1-0.9-1.7-1.1c-0.7-0.2-1.5-0.4-2.2-0.6c-0.3-0.5-0.5-1.2-0.9-1.5c-0.6-0.2-1.2-0.6-1.8-0.2
	c-0.5-0.5-0.8-1.1-0.9-1.7l-1.1-1.6c0.2-0.5,1-0.4,0.9-1.1c0.1-0.6-0.5-1.2-0.2-1.8s-0.1-1.1,0.1-1.7c0.1-0.8-0.1-1.7-0.5-2.4
	c-0.3-0.4-0.4-0.8,0.1-1.1s1.3-0.7,1.2-1.4c-0.1-0.4-0.4-1,0.1-1.3c0.6-0.6,1.4-1.1,2.1-1.5c0.1-0.5,0-1,0.1-1.4s0.8,0.3,1.1,0.3
	c0.6,0.3,1.4,0.4,2.1,0.2c0.6,0,1.2,0.1,1.8,0.3c0.4,0.4,1,0.6,1.6,0.6c0.6,0.3,0.4,1.1,0.9,1.5c0.4,0.5,1,0.8,1.6,0.8
	c1.3,0,2.5,0.5,3.5,1.2c0.6,0.4,1.2,0.9,1.8,0.5s1.3-0.8,1.4-1.6c-0.5-0.7-0.4-1.7,0.2-2.2c0.8-0.6,1.7-1,2.6-1.2
	c0.9-0.1,1.7,0.2,2.4,0.7c-0.1,0.6,0.4,0.8,0.8,0.7c0.6,0,1.1,0.5,1.7,0.4c0.4,0,1.2-0.1,1.2,0.5c0.6,0.4-0.4,0.6-0.3,1
	s0.4,1.1,0,1.5c-0.5,0.6-0.1,1.5,0.1,2.2c0.1,0.8,0.1,1.7,0.1,2.6c0,3.1,0,6.2,0,9.3C77.7,29.7,77.8,30.6,77.8,31.6z"/>
<path id="ba32b51a-ff46-4b49-98ec-2deffee9dff1" class="st2" d="M0.7,32.6c0.1-0.8,0.4-1.5,1-2.1c0.5-0.9,0.9-1.7,1.2-2.7
	c0.3-0.9,1.5-1.2,1.8-2.1c0-1,0.3-2,1-2.8c0.6-0.5,1.4-0.7,1.6-1.5c0.2-0.4,0.3-1,0.7-1.2c2.7-0.1,5.4,0,8.1,0c0,1,0,2.1,0,3.1
	c-0.1,0.4-0.8,0.1-1.2,0.2c-1.6,0-3.1-0.1-4.7,0c-0.2,0.3-0.1,0.9-0.2,1.4c0,1.1-0.1,2.3-0.1,3.5c-0.7,0.5-1.7,0.5-2.1,1.4
	c0,1,0.2,2,0.2,3C5.6,32.6,3.2,32.6,0.7,32.6z"/>
</svg>
