<?xml version="1.0" encoding="utf-8"?>
<!-- Generator: Adobe Illustrator 24.0.0, SVG Export Plug-In . SVG Version: 6.00 Build 0)  -->
<svg version="1.1" id="bb605bfa-acde-4af0-aefd-a4c513da9d9c"
	 xmlns="http://www.w3.org/2000/svg" xmlns:xlink="http://www.w3.org/1999/xlink" x="0px" y="0px" viewBox="0 0 108 44.5"
	 style="enable-background:new 0 0 108 44.5;" xml:space="preserve">
<style type="text/css">
	.st0{fill:none;stroke:#656565;stroke-width:0.29;stroke-miterlimit:1;}
	.st1{fill:#357FFF;}
</style>
<g id="fd708691-47f8-4b0c-846b-dc7f5fd4b953">
	<g id="adba6c41-62cd-4770-8d2a-796e34ce1ced">
		<path id="f9157843-f112-4d33-b085-433031a8eb1a" class="st0" d="M51.4,2.5c-1,0,0,0.1,0.1-0.6"/>
	</g>
	<path id="bec9810a-b182-43b6-851f-3d3aa4d9aed6" class="st0" d="M67.1,18.2c-0.1-0.6-0.5-1.2-1.1-1.4c-1-0.4-0.4-0.4-0.6-1
		c-0.7-0.4,0.5-1,0-1.4c0.4-0.6-0.5-1.3,0.4-1.5l-0.6-0.8c-0.7-0.1-0.7-0.9-1.3-1.1c-0.2,0.2-1.7-1-2.1-1.2L61,9.4l-0.2-0.1
		c-0.5-0.3-1-0.7-1.5-1.1c-0.7,0-1.2-0.7-1.8-0.4S56.7,6.9,56,6.8c-0.4-0.2-1.1-0.9-1.1-1.2c0.8,0,1,0,0.2-0.3
		c-0.5-0.3-1.1-0.8-0.8-1.5c-0.4-0.5-0.9-0.8-1.5-1c-0.2,0.5-0.5,0.9-0.9,1.3c-0.4,0.5-0.8-0.5-0.9-0.9c-0.5-0.8-0.2-0.7,0.5-0.8"/>
	<path id="a5c3871c-5980-4676-8698-882a9f602041" class="st0" d="M39.2,19.8c-0.6-0.1-1.4-0.7-1-1.4c0.3-0.9,0.3-1.9-0.1-2.7
		c-0.6-0.3-0.6-1.1,0.2-0.9s1.5-0.4,2.1-0.9c0.5,0.6,1.2,1.2,1.2,2c-0.6,0.6-0.3,1.4-0.2,2.1c-0.1,0.5-0.3,1.7-0.9,1.2
		C39.8,18.9,39.6,19.4,39.2,19.8z M54.3,25.8c-0.7,0-1.3-0.3-1.8-0.8c-1.4-0.3-2.5-1.3-3.9-1.4c-0.8-0.3-0.2-1.5,0.5-1.4
		c0.6,0.5,1.1-0.6,1.6-0.1c1,0.8,2.3,0.3,3.4,0.1c0.4,0,1.5-0.7,1.5,0c-0.4,0.6-1.1,1.5-0.7,2.3c0.6,0.4-0.1,1-0.5,1.3
		C54.4,25.6,54.3,25.8,54.3,25.8L54.3,25.8z"/>
	<path id="a40ef8f2-d76f-4ae3-8dc6-2e3d61ef2648" class="st0" d="M78.4,30.5c0.2-0.7-0.9-0.7-1.3-0.7c-0.6,0-1.1-0.1-1.7-0.2
		c-0.1-0.5,0.5-1.1,0.6-0.9c0.2,0.6,1-0.2,1,0.3c-0.2,0.1,0.6,0.6,0.9,0.4c0.5-0.2,1.1-0.1,1.6,0.1c0.4,0.3,1.4-0.2,1.4,0.2
		c0,0.7,0.8-0.1,1.1,0c0.6-0.7,0.2,1-0.3,0.5C80.6,30.4,79.5,30.5,78.4,30.5z"/>
	<path id="a99bde58-efb5-4714-b62d-c9e262c1e7a4" class="st0" d="M40.5,9c0.2,0.6,0.1,1.1,0.3,1.7c0.1,0.7-0.4,1.2-0.4,1.9
		s-0.6,1.1-1,0.5c-1,0,0.2-0.7-0.8-0.7c0.7-0.7-0.6-0.2,0.1-0.9c-0.5-0.3,0-0.6-0.2-1c0.3-0.5,1-0.5,1.3-0.8
		C40.7,10.2,40,9.1,40.5,9z M51.1,1.6c0.2,0.1,0.6,0.2,0.4,0.5c-0.4-0.8-0.9,0-1.5-0.4c-0.2,0.4-0.9,0.4-1.4,0.7s-0.8-0.1-1.1,0.6
		c0.3,0.2,0.8,0.7,0.7,1.2c-0.7,0.1-0.5,1-0.2,1.5c0.5,0.7,1.1,1.1,1.9,1.4c0.6,0.3,1.5,0.6,1.5,1.5c0.3,0.9,0.9,1.8,1.7,2.4
		c0.5,0.3,0.7,0.8,1.3,0.9c0.8,0.3,1.7,0.3,2.5,0.1c1,0.2-0.1,0.6-0.3,1.1c0.8,0.4,1.6,0.7,2.5,1c1,0.4,1.9,0.9,2.9,1.4
		c0.2,0.6,1,0.6,1.2,1.3c-0.1,0.5-0.3,1.3-0.9,0.6c-0.6-0.2-0.3-1.2-1.2-1.1c-0.5,0.1-1.1-0.2-1.3-0.6c-0.7-0.2-0.8,0.8-1.4,1.1
		c0,0.5-0.5,1.2,0.4,1.3c0.6,0.3,1.2,0.4,0.9,1.2c0.5,0.8-0.5,0.6-1,0.7c-0.9,0.1,0,1.2-0.7,1.4s-0.6,1.4-1.4,1.2
		c-0.6,0.2-0.8-1-0.2-1c0.6-0.5-0.2-1.1,0.7-1.1s0-0.8,0-1.3c0-0.7-0.7-1.2-0.7-1.9c-0.2-0.9-0.9,0.2-1.4-0.5
		c-0.8-0.2-0.5-0.4-0.6-1.1c-0.3-0.7-1.2-0.1-1.5-0.2c0.8-0.3-0.2-0.9-0.6-0.4c-0.4-0.1-0.5-1.1-1-1.2c-0.8-0.3-1.7-0.2-2.5-0.7
		c-1-0.8-2.1-1.5-3-2.4c-1.4-0.6-2.5-1.8-2.9-3.3c-0.5-1-1.5-1.7-2.7-1.9c-0.7-0.4-1.5-0.3-2.1,0.3c-0.7,0.4-1.2,1-2,1H36
		c-0.8,0.7-1.7,1.2-2.5,1.9c-1,0.2-2.1,0.7-3-0.1C30,8,29.3,7.9,28.8,8.1c-0.7,0-1.4-0.8-2.1-0.3s-1.7,0.9-1.8,1.9l0.2,1.2
		c0,0.5,0.5,1.2-0.3,1.4c-0.7,0.5-1.6,0.5-2.1,1.3c-1.1,0.1-2.1,0.4-3.1,0.9c-0.6,0.4,0.5,0.9-0.6,0.9c-0.6,0.2-0.7,1-1.2,1.4
		c-0.5,0.5-1,1.1-1.2,1.8c0.2,0.7,0.4,1.5,1.2,1.6c0.5,0.5-0.7,0.6-1,0.9c-0.4,0.4-0.8,0.8-1.1,1.3c-0.5,0.5,0.2,1.3-0.7,1.2
		c-1-0.2-1.9,0.5-2.2,1.5c-0.3,0.5-0.8,0.9-1.3,0.5c-0.6,0-1,0.6-1.6,0.2c-1.1,0.1-2.3,0-3.4,0.1c-0.5,0.5-1.1,0.8-1.8,0.8
		c-0.2,0.3-0.4,0.6-0.7,0.9c-0.7,0.4-1.3-0.3-1.8-0.7"/>
</g>
<g id="f718f02c-dfdd-4c99-9074-c250e87bcb73">
	<g id="ae64bcbe-af6c-4855-a3a2-1ec02a58f3e6">
		<path id="b7dd32d7-dc96-42af-91b1-c477ac464641" class="st0" d="M101.8,40.5c1-1.1,1.6-2.5,1.7-3.9c0.4,0-0.1-1.7,0.6-1.2
			c0.1-0.6,0.7-1.1,0.6-1.7c0.7,0,0.2-1.1,0.8-1.4c0.2-0.2,0.7-0.2,0.4-0.6c-0.2-0.4-0.3-0.9-0.1-1.3c0.5-0.6-0.7-1-0.3-1.5
			c0.1-0.3,0.2-1.1,0.8-0.9c0-0.6,0.1-1.2,0.2-1.8c-0.3-0.9-0.8-0.3-1.3-0.1c-0.1,0.4-0.6,0.6-0.9,0.4c-0.1,0-0.1,0-0.2-0.1
			c-0.6-0.4-1.5-0.8-2.1-0.1c-0.6,0.3-0.8,0.8-1.1,1.1c-0.4-0.4-1.1,0.3-1.6,0.3c-1.1,0.1-2.1-0.3-2.8-1.1c-0.8-0.6-1.8-1-2.9-1.1
			c-0.8-0.2-0.9,0.6-0.9,1.2c0,1-0.8,0.2-1.3,0.5c-0.7,0.3-1.7,0.3-2-0.6s-0.6-0.5-1.2-0.6c-0.4-0.4-1-0.5-1.4-0.1
			c-0.1,0.1-0.1,0.1-0.2,0.2c-0.9,0.2,0.3-1-0.4-0.9c-0.5-0.1-1.3,0.2-1.6-0.2c0.5-0.2,0.9-0.8-0.1-0.9c-0.7-0.1,0-1-0.3-1.5
			c-0.6,0-1-0.8-1.6-0.5c-0.7,0-0.1-1.6,0.4-0.7c0.6,0.3,1-0.3,0.4-0.7c-1-0.4,0.9-0.4,0.3-0.9c-0.7-0.1-0.1-0.5-0.7-0.9
			c-0.7,0,1.2-0.8,0.3-0.8c-0.6,0.1-1.3,0.2-1.9,0.3c0.3-0.4-0.1-2,0.3-2.2s0.5-1.1-0.4-1.1c0-0.8-1-0.3-1.5-0.5
			c-0.6,0.1-1-0.6-1.5-0.1s-0.8-0.7-1.3,0.2c-0.4,0.6-1.2,0-1.5,0.3c0.2,0.7,0.7,0.7,1.2,1.1c0.8,0.6-0.1,0.3-0.4-0.1
			c-0.5-0.4-1.2,0.2-0.4,0.5s-0.3,0.6-0.5-0.1c-0.5-0.4-1.2-0.2-0.5,0.3c0.8,0.3,0.4,0.5-0.2,0.3c0-0.5-0.6-0.9-1.1-1.1
			s0.3-1.1-0.5-0.5c-0.5,0.1-0.2,0.7-0.4,1.3c0.3,0.5,0.8,0.8,0.9,1.4c0.3,0.2,1.3,0.9,0.7,1.2c0,0-0.5-1.1-1-0.4
			c0.6,0.5,0.3,1.1-0.4,1.1c-0.1,0.1,1,0.3,1.2,0.6c0.5,0.1,0.9,0.4,1.3,0.8c0.3,0,1.4,0.3,0.9,0.7c0.1,0.3,0.4,1.6-0.2,1
			c-0.4-0.3-0.7-1.1-1.3-0.7c-0.8,0.2-0.9,0.2-0.5,0.8c0.1,0.6,1,0.1,0.8,0.7c-0.5,0.2-1,0.5-1.1-0.1c-0.7-0.2-1-0.2-0.6,0.6
			c0.4,0.5,0.6,1.1,0.7,1.7c-0.2,0.1-1.1-0.7-1.3,0.2c-0.3,0.2-0.6-1-1.1-1.1c-0.3,0.8-1,0.4-1.1-0.2c0.5-0.6,0-1.2-0.5-1.5
			s0-1.3,0.4-1.3c0.6,0.3,1-0.6,1.6,0c0.7,0.2,1.4,1,2,0.3c0.7-0.4-0.7-0.3-0.9-0.6c-1.1-0.5-2.3-0.5-3.5-0.1
			c-0.4-0.2-0.7-0.9-1.1-1.3c0.5,0,1.4-0.5,0.5-0.6c-0.7,0.4-1.3-0.5-1.9-0.8c-0.1-0.1-0.2-0.3-0.2-0.4"/>
	</g>
</g>
<g id="b4a4012f-d491-4f7f-8239-c24b7e277e31">
	<path id="a7e34500-bf68-4d1f-ae83-cb9d30ffed45" class="st0" d="M0.8,32.6c0.8-1.3,1.4-2.7,1.9-4.1c0.5-0.3,1.1-0.5,1.4,0.2
		c0.5,0.7,1.2,1.2,2,1.3c1.3,0,2.7,0.3,3.8-0.6c0.2,0.6,0.8,0.9,1.4,0.9c0.2,0,0.4,0,0.6,0h0.2c0.8,0.1,1.6-0.4,1.9-1.2
		c0.5-0.6,1.3-0.5,1.9-0.9s1,0.6,1.5-0.1c0.9-1.2,2.2-1.8,3.7-1.8c1.1-0.1,2.2,0.1,3.1-0.5c0.7,0.3,1.4,0.2,2-0.2
		c0.8-0.1,1.6-0.1,2.3,0c1,0.4,2.1,0.5,3,0.1c0.6,0.1,1-0.9,1.5-0.8s1.3,1,1.9,0.3c0.4-0.4,1-0.3,1.4,0.1c0.1,0.1,0.1,0.1,0.1,0.2
		c0.6,0.3,1.7-0.1,2.3-0.1"/>
	<path id="e5105ff4-66e8-4961-bb87-5d7a532497ad" class="st1" d="M45.7,35.4c-0.1,0.7-0.1,1.3-0.1,2c-0.2,0.5-1,0.6-1.4,1
		c-0.7,0.5-1.3,1-1.9,1.6c-0.3,0.7,0.5,1.3,0.1,2c-0.2,0.7-1,0.9-1.4,1.3c-0.6-1.5-1-3.1-1.5-4.6c-0.2-0.7-0.9-0.7-1.3-1.2
		c-0.5-0.7-0.6-1.8-1.6-1.8c-0.3-0.8-0.9-1.7-0.6-2.6c0.6-0.7,1.5-1,1.8-2c0.1-1.5-0.2-3,0-4.5c0.2-0.5,0.8-0.9,1-1.3
		c0.8-0.3,1.4-1.2,2.3-1c0.6,0,1.2,0.2,1.3,1s0.9,0.5,1.3,0.1c0.5-0.6,1.2-0.5,0.7,0.3c-0.3,0.7-1.3,0.9-1.1,1.8
		c0.2,0.6,0.6,1,1.2,1.2c0.2,0.6,0.5,1.2,0,1.7c-0.4,0.7-1.2,0.9-1.6,1.5c-0.4,0.3-1,0.9-0.4,1.4s1,1.1,1.7,1
		c0.7-0.7,0.8,0.4,1.2,0.7C45.4,35.2,45.6,35.3,45.7,35.4z"/>
</g>
<path id="bb047227-3a50-4802-a237-ada8a6badf00" class="st0" d="M45.4,35.6c0.2-0.5,1.3,0.3,1.8,0.4c0.9,0.4,1.8,0.6,2.8,0.3
	c0.8,0,1.7,0.1,2.5,0.4c0.6,0.5,1.3,0.8,2.1,0.8c0.8,0.4,0.6,1.5,1.2,2.1c0.5,0.7,1.3,1.1,2.2,1.1c1.8,0,3.5,0.6,4.9,1.7
	c0.7,0.5,1.6,1.2,2.5,0.7s1.8-1,1.9-2.1c-0.5-0.9-0.6-2.3,0.3-3c1-0.8,2.2-1.4,3.5-1.7c1.2-0.1,2.3,0.2,3.3,0.9
	c-0.1,0.8,0.5,1,1.1,1c0.8,0,1.4,0.6,2.2,0.5c0.6,0,1.6-0.2,1.5,0.7c-0.1,0.4,1.2,0.8,1.7,0.5c1.6-0.2,3,0.5,4.6,0.6
	c0.7-0.1,0.8,0.8,1.4,0.6c0.8,0,1.5,0.2,2.2,0.6c0.9,0.4,1.4-0.8,2.2-1c0.8-0.4,1.7-0.5,2.5-0.8c0.7,0,1.3,0,2,0.2
	c0.1,0.6,0.8,1.2,1.4,0.8c0.5,0,1.1,0.7,1.6,0.1c0.4-0.4,1,0.3,1.6,0.2c0.6-0.1,1.1-0.3,1.5-0.6"/>
</svg>
