<?xml version="1.0" encoding="utf-8"?>
<!-- Generator: Adobe Illustrator 24.0.0, SVG Export Plug-In . SVG Version: 6.00 Build 0)  -->
<svg version="1.1" id="bb43e756-bed3-4e53-8d57-c5457c896d9d"
	 xmlns="http://www.w3.org/2000/svg" xmlns:xlink="http://www.w3.org/1999/xlink" x="0px" y="0px" viewBox="0 0 58.8 71.5"
	 style="enable-background:new 0 0 58.8 71.5;" xml:space="preserve">
<style type="text/css">
	.st0{fill:#93C3D8;}
	.st1{fill:#357FFF;}
</style>
<path class="st0" d="M23,2.5c-0.5,0.1-1,0.1-1.4-0.2c-0.1,0-0.2,0-0.2,0.1c0,0.1-0.1,0.1-0.4,0s-0.3-0.1-0.4,0
	c0,0.1-0.1,0.1-0.2,0.1c-0.1,0-0.2,0.1-0.3,0.1c-0.1,0.1-0.2,0.1-0.4,0s-0.6-0.2-2.1,0.1c-1.2,0.2-2,0.5-2,0.7
	c0,0.1-0.1,0.1-0.2,0.1c-0.1-0.1-0.2-0.1-0.2,0c-0.1,0.1-0.1,0.1-0.2,0.1c-0.2,0-0.3,0.1-0.4,0.3c-0.1,0.1-0.3,0.2-0.4,0.3
	c-0.2,0-0.5,0-0.7-0.1c-0.2-0.1-0.5-0.1-0.7,0c-0.7,0.1-1.1-0.1-1.2-0.5c-0.1-0.2-0.2-0.3-0.4-0.1c-0.2,0.2-0.3,0.4-0.4,0.7
	c-0.2,0.7-0.7,1.2-1.3,1.5C8.9,5.9,8.2,6.5,8.2,6.8c0,0.2-0.1,0.3-0.2,0.5c-0.2,0.3-0.3,0.6-0.2,1c0,0.3,0,0.6-0.1,0.8
	C7.5,9.1,7.5,9.2,7.5,9.3C7.4,9.5,7.2,9.7,7.1,9.8l-0.6,0.5c-0.3,0.3-0.7,0.4-1.1,0.5c-0.2,0-0.4,0.2-0.7,0.8
	c-0.1,0.2-0.2,0.4-0.3,0.5c-0.3,0-0.9,0.9-0.9,1.4c-0.1,0.4-0.4,0.8-0.7,1.1c-0.2,0.3-0.4,0.6-0.5,0.9C2.1,15.7,2,16,1.8,16.2
	c-0.1,0.2-0.2,0.3-0.3,0.5c0,0.2-0.1,0.5-0.1,0.7s0,0.2,0.1,0.2s0.3,0.1,0.4,0.2s0.3,0.6,0.1,0.6S1.8,19,2,19.2
	c0.2,0.6,0.2,1.3-0.1,2c-0.1,0.3-0.2,0.6-0.2,0.9c0,0.3-0.5,1.2-0.7,1.2s-0.1,0-0.1,0.1s0.1,0.1,0.2,0.1s0.2,0.1,0.3,0.3
	c0.1,0.2,0.1,0.3,0.2,0.5c0.1,0.1,0.1,0.2,0,0.2c-0.1,0.2-0.1,0.4-0.1,0.6c0,0.3,0.1,0.6,0.3,0.8c0.4,0.4,0.4,0.5,0.1,0.4
	s-0.2,0-0.1,0.2C1.9,27,1.9,27,2.2,26.8s0.2-0.2,0.1-0.2s-0.2-0.4,0-0.4s0.2,0.1,0.2,0.3s0.2,0.3,0.2,0.3s0.1,0.1,0.1,0.2
	c0,0.1,0.1,0.2,0.2,0.2c0.1,0,0.2,0,0.2,0.1c0.2,0.2,0.3,0.5,0.5,0.7c0.3,0.2,0.5,0.5,0.6,0.9c0,0.5,0.1,0.7,0.2,0.8
	c0.1,0.1,0.1,0.1,0,0.2c0,0.1,0,0.1,0,0.1s0.1,0.1,0.1,0.1s0.1,0.2,0.4,0.3c0.8,0.4,1.5,1,2.2,1.7c1.3,1.2,1.6,1.3,2.6,0.8
	c1.1-0.5,2.4-0.5,3.6-0.1c0.2,0,0.3,0,0.5-0.1c0.6-0.4,1.3-0.6,2-0.8c0.1,0,0.2-0.1,0.3-0.1c0.1-0.2,1-0.4,2-0.4c0.6,0,0.8,0,1,0.2
	c0.3,0.3,0.5,0.7,0.6,1.2c0,0.2,0.1,0.3,0.2,0.4c0.2,0.2,0.4,0.2,0.6,0.2c0.2,0,0.6-0.1,0.8-0.1l0.8-0.1c0.3,0,0.4,0,0.4,0.2
	c0,0.1,0.2,0.3,0.3,0.3c0.1,0,0.2,0.1,0.2,0.2c0,0.1,0.1,0.2,0.1,0.3c0.2,0.2,0.1,1.2-0.2,1.8c-0.1,0.3-0.2,0.4-0.1,0.4
	s0.1,0.1,0,0.3C23,36.8,23,37,23,37.2c0,0.5-0.2,0.7-0.4,0.6s-0.1,0.2,0.1,0.6c0.1,0.2,0.2,0.5,0.4,0.8c0.2,0.3,0.4,0.6,0.6,0.8
	c0.8,0.7,1.4,1.6,1.8,2.6c0,0.1,0,0.2,0.1,0.3c0.1,0,0.1,0.1,0,0.2c0,0.2,0.1,0.5,0.2,0.7c0.1,0.3,0.4,0.8,0.5,1.2
	c0.2,0.6,0.2,0.6,0,0.7s-0.2,0.2,0.1,1c0.2,0.4,0.3,0.9,0.3,1.4c0,0.6-0.2,1.1-0.4,1.1s-0.7,0.9-0.8,1.4c-0.1,0.6-0.2,1.1-0.5,1.6
	c-0.1,0.8-0.1,1.6,0.1,2.4c0,0.1,0.1,0.3,0.2,0.4c0.4,0.7,0.8,1.4,1,2.1c0.1,0.3,0.3,0.6,0.5,0.9c0.2,0.4,0.3,0.8,0.3,1.2
	c0,0.4,0.1,0.9,0.1,1.3c0.1,0.3,0.2,1,0.3,1.5c0.1,0.8,0.4,1.5,0.9,2.1c0.3,0.4,0.5,0.8,0.6,1.2c0.2,0.6,0.4,1.2,0.8,1.7
	c0.1,0.2,0.2,0.4,0.2,0.6c0.1,0.4,0,0.5-0.1,0.5c-0.1,0-0.2,0.1-0.2,0.1c0,0.2,0.1,0.5,0.3,0.6c0,0.1,0,0.2,0,0.3
	c-0.1,0.4,0.1,0.6,0.2,0.4s0.1-0.1,0.1,0c0,0.1,0.1,0.1,0.1,0.1c0.1,0,0.3,0.1,0.4,0.2c0.1,0.2,0.4,0.3,0.6,0.1c0,0,0.1-0.1,0.1-0.1
	c0.2-0.1,0.4-0.2,0.7-0.2c0.2,0,0.5,0,0.7-0.2c0.5-0.2,1.1-0.3,1.7-0.1c0.3,0.1,0.5,0.1,0.6,0c0.1-0.1,0.3-0.1,0.4-0.1
	c0.2,0,0.2,0,0.2-0.1s0.2-0.2,0.5-0.2c0.9-0.3,1.7-0.8,2.3-1.5c0.1-0.1,0.4-0.4,0.7-0.7c0.5-0.5,0.9-1,1.2-1.7
	c0.2-0.4,0.5-0.7,0.9-0.9c0.1,0,0.3-0.4,0.6-1.3c0.2-0.6,0.2-1.4,0.1-1.3s-0.1-0.1,0.2-0.4c0.3-0.2,0.6-0.4,1-0.6
	c0.4-0.1,0.7-0.3,1-0.7c0.2-0.2,0.2-0.4,0.1-0.5s-0.1-0.2,0-0.4c0.1-0.4,0.1-0.9,0-1.4c-0.1-0.1-0.1-0.1-0.1-0.2c0-0.1,0,0,0.1,0
	s0.1,0.1,0.1-0.1s-0.1-0.2-0.1-0.2s-0.1-0.1-0.1-0.3s-0.1-0.4-0.2-0.4s-0.1-0.2-0.1-0.3c0.3-0.6,0.7-1.1,1.2-1.4
	c0.1,0,0.2,0,0.2-0.1c0-0.1,0.1-0.2,0.2-0.3c0.3-0.5,0.8-0.9,1.4-1.1c0.2-0.1,0.5-0.2,0.7-0.3c0.1-0.1,0.1-0.1,0.2-0.2
	c0.5-0.4,0.9-0.9,1.1-1.5c0.1-0.3,0.1-0.6,0-0.9c-0.1-0.6-0.1-1.3,0-1.9c0-1.8,0-1.8-0.3-1.9s-0.3-0.3-0.4-0.9c-0.2-1-0.2-1.1,0-1.2
	s0.2-0.1,0.2-0.2s-0.1-0.1-0.2-0.1s-0.3-0.2-0.2-0.5s0-0.3-0.2-0.6c-0.2-0.1-0.3-0.3-0.3-0.5c0.1-0.5,0.2-0.9,0.5-1.3
	c0.3-0.5,0.5-1,0.7-1.6c0-0.1,0.1-0.3,0.3-0.4c0.5-0.3,0.8-0.7,1.1-1.2c0.7-1.2,1.7-2.3,2.8-3.1c0.9-0.7,1.7-1.6,2.3-2.5
	c0.1-0.2,0.2-0.5,0.4-0.7c0.2-0.2,0.3-0.5,0.4-0.8c0.2-0.6,0.5-1.2,0.9-1.7c0.1,0,0.1-0.1,0.1-0.1c0.1-0.2,0.2-0.4,0.3-0.7
	c0.2-0.3,0.3-0.6,0.3-0.9c0-0.3,0-0.4,0.2-0.4s0.3-0.2,0.1-0.3c-0.1-0.3-0.2-0.7-0.1-1c0-0.3-0.4-0.4-0.7-0.2
	c-0.4,0.3-0.9,0.5-1.4,0.5c-0.1,0-0.3,0-0.4,0.1c-0.2,0.1-0.3,0.1-0.5,0.1c-0.2,0-0.4,0-0.5,0.2c-0.2,0.1-0.4,0.2-0.7,0.2
	c-0.2,0-0.5,0-0.7,0.1c-0.6,0.4-1,0.2-1.4-0.5c-0.1-0.2-0.3-0.3-0.5-0.4l-0.3-0.1l0.2-0.1c0.4-0.2,0.4-0.5-0.2-1.1
	c-0.2-0.2-0.4-0.5-0.6-0.7c-0.1-0.1-0.2-0.2-0.3-0.2s-0.2-0.1-0.3-0.3c-0.1-0.2-0.2-0.3-0.4-0.4c-0.1-0.1-0.3-0.1-0.4-0.2
	c-0.1-0.1-0.2-0.1-0.3-0.1c-0.1,0-0.2,0-0.2-0.2s0-0.3,0.1-0.3s0.1,0,0-0.2s-0.2-0.2-0.3,0.1s-0.1,0.2-0.2,0
	c-0.1-0.2-0.2-0.4-0.3-0.7c-0.3-1.2-0.5-1.6-1-2S46,19.1,46,18c0-0.3-0.1-0.6-0.2-0.9c-0.1-0.1-0.2-0.3-0.2-0.5c0-0.1,0-0.3-0.1-0.3
	c-0.2-0.1-0.4-0.2-0.6-0.4c-0.5-0.5-0.8-1.2-0.5-1.2c0.1,0,0.1-0.1-0.1-0.3c-0.2-0.3-0.4-0.6-0.6-0.9c-0.2-0.4-0.4-0.8-0.5-1.1
	c-0.1-0.2-0.2-0.4-0.2-0.6c0-0.1-0.1-0.3-0.2-0.4c-0.1-0.1-0.2-0.3-0.2-0.5c-0.1-0.2-0.2-0.5-0.4-0.7c-0.2-0.2-0.3-0.4-0.4-0.7
	c0-0.1,0-0.2-0.1-0.3c-0.1-0.3-0.2-0.5-0.2-0.8c0-0.3-0.1-0.7-0.2-1c-0.3-0.4-1.6-0.2-2.1,0.2C39.1,8,39,8,38.8,8
	c-0.1,0-0.4-0.1-0.7-0.2c-0.2-0.1-0.5-0.1-0.7-0.2c-0.4-0.2-0.9-0.3-1.4-0.2c-0.2,0-0.3,0-0.3-0.2S35.5,7,35.3,7
	c-0.6,0-1.1-0.2-1.2-0.4c0-0.1-0.1-0.2-0.3-0.2c-0.1,0-0.2,0-0.3-0.1c-0.2-0.3-1.2,0-1.7,0.4c-0.3,0.3-0.4,0.7-0.2,1.1
	c0.2,0.3-0.3,0.9-0.6,0.9c-0.2-0.1-0.4-0.2-0.6-0.3c-0.5-0.3-1-0.5-1.6-0.6c-0.4,0-0.7-0.3-0.8-0.7c0-0.2-0.2-0.4-0.4-0.4
	c-0.2-0.1-0.4-0.2-0.6-0.3c-0.3-0.1-0.6-0.2-0.9-0.2c-0.3,0-0.7-0.1-1-0.2c-0.5-0.2-0.9-0.4-1.3-0.8C23.6,5.1,23.2,2.3,23,2.5z
	 M43.7,37.5c0.1,0.1,0.1,0.2,0,0.3c0,0.1,0,0.2,0,0.2c0.1,0.1-0.2,0.7-0.3,0.7s-0.1,0.1-0.1,0.1c0,0.1-0.1,0.2-0.2,0.3
	c-0.2,0.1-0.2,0.2,0,0.3s0.1,0.3-0.5,0.2c-0.2-0.1-0.4-0.1-0.6,0c-0.2,0.2-0.3-0.1-0.2-0.8c0.1-1.2,0.1-1.2,0.6-1.3
	c0.2,0,0.4-0.1,0.5-0.2C43,37,43.5,37.2,43.7,37.5L43.7,37.5z M39.9,41.6c0,0.1,0,0.3,0.1,0.4c0.1,0.1,0.1,0.2,0.1,0.2
	c-0.1,0.1-0.1,0.3,0,0.4c0.1,0.2,0.1,0.2,0,0.3s-0.1,0.5,0.1,0.6c0.3,0.1,0.4,0.4,0.4,0.7c0,0.3,0.1,0.5,0.3,0.8
	c0.3,0.7,0.3,0.7,0,0.5c-0.2-0.1-0.3-0.2-0.2-0.3c0-0.1,0-0.3-0.1-0.4c-0.1-0.1-0.1-0.2-0.2-0.4c-0.1-0.2-0.2-0.4-0.3-0.5
	c-0.2-0.2-0.3-0.3-0.3-0.6c0-0.1,0-0.3,0-0.5s-0.1-0.7-0.1-1.2c0-0.8,0-0.8,0.1-0.5C39.8,41.2,39.9,41.4,39.9,41.6L39.9,41.6z
	 M43.8,46.6c0.1,0.2,0.1,0.5,0.2,0.7c0,0.2,0.1,0.4,0.2,0.6c0.2,0.2,0.2,0.6,0,0.7c-0.1,0.6-0.1,1.1,0.1,1.7c0.1,0,0.1,0.1,0.1,0.1
	c0,0.1,0,0.1-0.1,0s-0.1,0-0.1,0c0,0.1-0.1,0.1-0.1,0.1c-0.1,0-0.1-0.1,0-0.2c0.1-0.1,0.1-0.2,0-0.4c-0.2-0.4-0.3-0.9-0.2-1.3
	c0.1-1.3,0.1-1.7-0.1-1.9c-0.1-0.1-0.1-0.2-0.2-0.4C43.5,46.3,43.7,46.4,43.8,46.6L43.8,46.6z"/>
<polygon class="st1" points="24.8,5.8 24.8,5.9 24.8,5.9 24.8,6 24.8,6 24.7,6.1 24.7,6.2 24.7,6.3 24.7,6.3 24.8,6.3 24.8,6.4 
	24.8,6.4 24.8,6.5 24.8,6.5 24.8,6.5 24.8,6.5 24.7,6.6 24.5,6.7 24.3,6.8 24.3,6.8 24.2,6.9 24.2,6.9 24.2,6.9 24.2,6.9 24.1,6.9 
	24.1,6.9 24.1,6.9 24.1,6.9 24.1,6.9 24.1,7 24.1,7 24,7.1 24,7.1 24,7.1 24,7.1 24,7.1 24,7.1 23.9,7.1 23.8,7.2 23.8,7.3 
	23.7,7.3 23.7,7.3 23.7,7.4 23.7,7.4 23.8,7.6 23.8,7.7 23.8,7.7 23.8,7.7 23.8,7.8 23.8,7.8 23.8,7.8 23.8,7.9 23.8,7.9 23.8,8 
	23.7,8.1 23.6,8.2 23.5,8.3 23.5,8.3 23.5,8.4 23.4,8.4 23.3,8.4 23.2,8.4 23.2,8.2 23.2,8.1 23.2,8.1 23.2,8 23.1,7.9 23.1,7.8 
	23.1,7.7 23.1,7.6 23.1,7.5 23,7.4 23,7.3 23,7.2 23,7.1 23,7 22.9,6.9 22.9,6.9 22.9,6.8 22.9,6.8 22.9,6.8 22.8,6.7 22.6,6.6 
	22.5,6.5 22.4,6.4 22.4,6.4 22.4,6.4 22.4,6.4 22.4,6.3 22.4,6.2 22.3,6.1 22.3,6 22.2,5.9 22.2,5.9 22.2,5.9 22.1,5.9 22.1,5.9 
	22.1,5.9 22,5.8 22,5.8 22,5.8 21.9,5.8 21.9,5.8 21.9,5.7 21.9,5.6 21.9,5.6 21.9,5.6 21.8,5.5 21.8,5.4 21.8,5.4 21.8,5.3 
	21.8,5.3 21.8,5.3 21.7,5.2 21.7,5.2 21.8,5.1 21.8,5 21.8,5 21.8,5 21.8,4.9 21.8,4.9 21.9,4.9 21.9,4.9 21.9,4.9 21.9,4.9 22,4.9 
	22,4.8 22,4.7 22,4.7 22,4.7 22.1,4.7 22.1,4.6 22.2,4.6 22.2,4.6 22.2,4.6 22.2,4.6 22.3,4.6 22.3,4.5 22.3,4.5 22.3,4.5 22.3,4.5 
	22.3,4.5 22.3,4.5 22.3,4.4 22.3,4.4 22.3,4.4 22.3,4.4 22.3,4.4 22.3,4.4 22.3,4.3 22.3,4.3 22.3,4.2 22.3,4.2 22.4,4.1 22.4,4.1 
	22.4,4 22.5,4 22.5,4 22.4,3.9 22.4,3.9 22.4,3.9 22.4,3.9 22.4,3.8 22.4,3.8 22.4,3.8 22.4,3.7 22.4,3.7 22.4,3.6 22.4,3.6 
	22.4,3.5 22.3,3.5 22.3,3.4 22.3,3.4 22.3,3.3 22.3,3.3 22.3,3.3 22.3,3.2 22.4,3.1 22.4,3.1 22.4,3.1 22.4,3.1 22.4,3.1 22.4,3.1 
	22.4,3 22.4,2.9 22.4,2.9 22.4,2.9 22.4,2.9 22.4,2.8 22.4,2.8 22.4,2.8 22.4,2.8 22.4,2.8 22.3,2.8 22.2,2.8 22.2,2.8 22.3,2.8 
	22.3,2.7 22.3,2.7 22.3,2.7 22.4,2.6 22.5,2.6 22.5,2.6 22.5,2.6 22.5,2.5 22.4,2.5 22.4,2.5 22.5,2.5 22.5,2.5 22.5,2.5 22.5,2.5 
	22.6,2.5 22.6,2.5 22.6,2.5 22.6,2.4 22.6,2.4 22.6,2.4 22.6,2.4 22.6,2.4 22.6,2.3 22.7,2.3 22.7,2.3 22.8,2.3 22.8,2.3 22.8,2.3 
	22.8,2.3 22.8,2.3 22.9,2.2 22.9,2.2 22.9,2.2 22.9,2.2 22.9,2.2 22.9,2.2 22.9,2.2 23,2.1 23,2.1 23,2.1 23,2.1 23.1,2.1 23.2,2.1 
	23.2,2 23.2,2 23.2,2 23.2,2 23.2,2 23.2,2 23.2,2 23.3,2 23.3,2 23.3,2 23.3,2 23.3,2 23.4,2 23.4,2 23.4,2 23.4,2 23.4,2 23.4,2 
	23.5,2 23.5,2 23.5,2 23.5,2 23.5,2 23.5,2 23.5,2 23.5,2.1 23.5,2.1 23.5,2.1 23.5,2.1 23.5,2.1 23.5,2.1 23.5,2.2 23.5,2.2 
	23.5,2.2 23.5,2.2 23.5,2.2 23.6,2.2 23.6,2.1 23.6,2.1 23.6,2.1 23.5,2.1 23.5,2.1 23.5,2.1 23.5,2.1 23.5,2.1 23.5,2.1 23.5,2.1 
	23.5,2.1 23.5,2.1 23.5,2.1 23.5,2.1 23.6,2.1 23.6,2.1 23.7,2 23.7,2.1 23.7,2.1 23.8,2.1 23.8,2.1 23.8,2.1 23.8,2.1 23.8,2.1 
	23.8,2.2 23.8,2.2 23.8,2.1 23.8,2.1 23.8,2.1 23.7,2.2 23.7,2.2 23.8,2.2 23.8,2.2 23.8,2.2 23.8,2.2 23.8,2.2 23.8,2.2 23.8,2.2 
	23.8,2.2 23.8,2.2 23.8,2.3 23.8,2.3 23.8,2.4 23.9,2.4 23.9,2.4 23.9,2.4 23.9,2.4 23.9,2.4 23.9,2.5 23.9,2.5 23.9,2.5 23.9,2.5 
	23.8,2.5 23.9,2.5 23.8,2.5 23.8,2.5 23.8,2.5 23.8,2.5 23.8,2.5 23.8,2.5 23.8,2.5 23.8,2.5 23.8,2.5 23.8,2.5 23.8,2.5 23.8,2.5 
	23.9,2.5 23.9,2.5 23.9,2.6 23.9,2.6 24,2.6 24,2.6 24,2.5 24,2.5 24,2.5 24,2.5 24,2.5 24.1,2.4 24.1,2.4 24.1,2.4 24.1,2.4 
	24.2,2.4 24.2,2.4 24.2,2.4 24.2,2.3 24.3,2.3 24.3,2.3 24.3,2.3 24.3,2.3 24.3,2.3 24.3,2.3 24.3,2.3 24.3,2.3 24.3,2.3 24.3,2.2 
	24.4,2.2 24.4,2.2 24.4,2.2 24.4,2.2 24.4,2.2 24.4,2.2 24.4,2.3 24.4,2.3 24.4,2.3 24.4,2.3 24.4,2.3 24.4,2.3 24.5,2.3 24.5,2.3 
	24.5,2.3 24.5,2.4 24.5,2.4 24.5,2.4 24.5,2.4 24.5,2.4 24.5,2.4 24.5,2.4 24.5,2.4 24.5,2.4 24.5,2.5 24.5,2.5 24.4,2.5 24.4,2.5 
	24.4,2.6 24.3,2.7 24.3,2.8 24.2,2.8 24.2,2.8 24.1,2.9 24.1,2.9 24,2.9 24,2.9 24,3 24,3 24,3 24,3.1 24,3.1 24,3.2 24,3.2 24,3.2 
	24,3.2 24,3.2 24,3.2 24,3.3 24,3.3 24.1,3.3 24.1,3.3 24.1,3.3 24.1,3.4 24.1,3.4 24.2,3.4 24.2,3.4 24.2,3.5 24.2,3.5 24.2,3.4 
	24.2,3.4 24.3,3.5 24.3,3.5 24.3,3.5 24.3,3.5 24.3,3.5 24.3,3.5 24.3,3.5 24.4,3.6 24.4,3.6 24.4,3.6 24.4,3.6 24.4,3.6 24.4,3.6 
	24.4,3.7 24.4,3.7 24.4,3.7 24.4,3.7 24.5,3.7 24.4,3.7 24.4,3.8 24.4,3.8 24.4,3.8 24.4,3.8 24.4,3.9 24.4,3.9 24.5,3.9 24.5,3.9 
	24.5,3.9 24.5,4 24.5,4 24.5,4 24.5,4 24.5,4 24.4,4 24.4,4.1 24.4,4.1 24.4,4.1 24.4,4.1 24.4,4.1 24.4,4.2 24.4,4.2 24.3,4.2 
	24.3,4.2 24.3,4.2 24.3,4.3 24.3,4.3 24.3,4.3 24.3,4.3 24.3,4.3 24.3,4.3 24.3,4.4 24.3,4.4 24.2,4.4 24.2,4.4 24.2,4.4 24.2,4.4 
	24.2,4.5 24.2,4.5 24.2,4.5 24.1,4.5 24.1,4.5 24.1,4.5 24.1,4.5 24.1,4.5 24.1,4.5 24.1,4.6 24.1,4.6 24.1,4.6 24.1,4.6 24.1,4.6 
	24,4.6 24,4.6 23.9,4.7 23.9,4.7 23.9,4.7 23.9,4.7 23.9,4.7 23.9,4.7 23.9,4.7 23.9,4.7 23.8,4.7 23.8,4.8 23.8,4.8 23.8,4.8 
	23.8,4.8 23.7,4.8 23.7,4.8 23.7,4.8 23.7,4.9 23.7,4.9 23.6,4.9 23.6,4.9 23.6,4.9 23.6,4.9 23.6,4.9 23.6,5 23.6,5 23.6,5 
	23.7,5.1 23.7,5.1 23.7,5.1 23.7,5.1 23.8,5.2 23.8,5.2 23.8,5.2 23.9,5.4 23.9,5.4 24,5.4 24,5.4 24,5.4 24.1,5.4 24.1,5.4 
	24.2,5.4 24.2,5.3 24.2,5.4 24.2,5.4 24.2,5.5 24.2,5.5 24.1,5.5 24.1,5.5 24.1,5.5 24.2,5.5 24.2,5.6 24.2,5.6 24.2,5.6 24.3,5.5 
	24.3,5.5 24.3,5.5 24.3,5.5 24.3,5.5 24.3,5.5 24.3,5.4 24.3,5.4 24.3,5.4 24.4,5.4 24.4,5.4 24.4,5.4 24.4,5.4 24.4,5.4 24.4,5.4 
	24.4,5.4 24.4,5.4 24.5,5.4 24.5,5.5 24.5,5.5 24.5,5.6 24.5,5.6 24.5,5.6 24.5,5.7 24.5,5.7 24.5,5.7 24.5,5.7 24.5,5.7 24.5,5.7 
	24.6,5.7 24.6,5.7 24.6,5.7 24.6,5.7 24.6,5.7 24.5,5.7 24.5,5.7 24.5,5.7 24.5,5.8 24.5,5.8 24.5,5.8 24.5,5.8 24.5,5.8 24.5,5.8 
	24.6,5.8 24.6,5.8 24.7,5.8 24.7,5.8 24.7,5.8 24.7,5.8 24.7,5.8 24.7,5.8 24.7,5.8 24.7,5.8 24.7,5.8 24.7,5.8 24.8,5.8 24.8,5.8 
	"/>
</svg>
