<?xml version="1.0" encoding="utf-8"?>
<!-- Generator: Adobe Illustrator 27.3.1, SVG Export Plug-In . SVG Version: 6.00 Build 0)  -->
<svg version="1.1" id="Layer_1" xmlns="http://www.w3.org/2000/svg" xmlns:xlink="http://www.w3.org/1999/xlink" x="0px" y="0px"
	 viewBox="0 0 28.35 28.35" style="enable-background:new 0 0 28.35 28.35;" xml:space="preserve">
<style type="text/css">
	.st0{fill-rule:evenodd;clip-rule:evenodd;fill:#FFFFFF;}
	.st1{fill:#515A68;}
	.st2{fill:#5C0632;}
</style>
<g>
	<circle class="st0" cx="14.01" cy="14.17" r="13.14"/>
	<g id="g851" transform="matrix(0.19488325,0,0,0.19488325,11.238751,-50.963878)">
		<g id="g108" transform="matrix(0.49897532,0,0,0.49897532,85.175158,225.42598)">
			<path id="path105" class="st1" d="M-189.59,235.27c-0.48,1.63-1.64,4.23-3.65,8.73l-2.31,5.14c0.28-0.04,0.56-0.12,0.9-0.12
				c0.32,0,0.7,0.08,0.96,0.12c0.32-1.14,0.96-2.79,1.59-4.32c0.8-0.04,1.6-0.08,2.39-0.08c0.86,0,1.7,0.04,2.56,0.08l0.83,2.11
				l0.84,2.21c0.36-0.02,0.92-0.12,1.47-0.12c0.56,0,1.26,0.1,1.56,0.12c-0.9-1.93-2.21-4.94-2.97-6.68
				c-0.72-1.67-1.91-4.46-2.87-7.19c-0.22,0.06-0.42,0.1-0.64,0.1C-189.17,235.37-189.37,235.33-189.59,235.27z M-140.21,235.27
				c-0.48,1.63-1.63,4.23-3.65,8.73l-2.31,5.14c0.28-0.04,0.56-0.12,0.9-0.12c0.32,0,0.7,0.08,0.96,0.12
				c0.32-1.14,0.96-2.79,1.59-4.32c0.8-0.04,1.59-0.08,2.39-0.08c0.86,0,1.69,0.04,2.55,0.08l0.84,2.11l0.84,2.21
				c0.36-0.02,0.92-0.12,1.48-0.12c0.56,0,1.26,0.1,1.55,0.12c-0.9-1.93-2.21-4.94-2.97-6.68c-0.72-1.67-1.91-4.46-2.87-7.19
				c-0.22,0.06-0.42,0.1-0.64,0.1C-139.79,235.37-139.99,235.33-140.21,235.27z M-117.34,235.31c-3.61,0-4.65,2.23-4.65,3.98
				c0,1.66,0.58,2.67,2.51,3.53c0.56,0.24,1.5,0.6,2.05,0.84c0.38,0.16,1.64,0.71,1.64,2.29c0,1.44-1.04,2.49-2.61,2.49
				c-1.18,0-2.17-0.3-3.09-2.29h-0.28c-0.1,0.96-0.12,1.21-0.46,2.25c0.72,0.36,2.01,1.02,3.73,1.02c3.65,0,5.06-2.33,5.06-4.36
				c0-0.56-0.14-1.74-0.97-2.63c-0.58-0.64-1.18-0.86-2.71-1.45c-1.75-0.68-2.77-1.08-2.77-2.53c0-1.18,0.78-2.15,2.35-2.15
				c1.25,0,2.32,0.6,2.61,1.74h0.28c0.18-0.76,0.22-0.92,0.62-1.89C-115.01,235.69-115.89,235.31-117.34,235.31z M-180.9,235.47
				c0.2,1.93,0.2,3.35,0.2,4.61c0,3.41,0,6.7-0.22,9.07c0.44-0.02,1-0.12,1.43-0.12c0.46,0,0.94,0.1,1.4,0.12
				c-0.16-1.61-0.2-3.77-0.2-6.74c0-2.01,0-5.46,0.22-6.94c-0.48,0.06-0.98,0.12-1.42,0.12
				C-179.79,235.59-180.53,235.51-180.9,235.47z M-174.71,235.47c0.14,2.57,0.14,2.85,0.14,5.46c0,3.84-0.02,4.29-0.18,8.21
				c0.44-0.06,0.92-0.12,1.37-0.12c0.5,0,0.94,0.08,1.34,0.12c0-0.52-0.08-3.09-0.08-3.67v-2.83h0.48c1.08,1.51,2.31,3.27,3.33,4.84
				c0.3,0.46,0.74,1.2,1.04,1.65c0.6-0.08,0.84-0.12,1.62-0.12c0.72,0,1.21,0.06,1.77,0.12c-1.25-1.57-1.8-2.27-3.37-4.48
				c-0.3-0.42-0.74-1.08-1.04-1.5l-0.56-0.8c1.82-0.34,3.47-1.48,3.47-3.69c0-0.84-0.32-1.65-0.92-2.23
				c-0.86-0.82-1.83-0.98-3.13-0.98c-0.46,0-2.77,0.1-3.29,0.1C-173.73,235.57-174.25,235.51-174.71,235.47z M-164.27,235.47
				c0.82,2.15,1.51,4.06,2.05,5.58c0.92,2.59,1.51,4.39,2.23,6.58l0.5,1.52c0.28-0.06,0.6-0.12,0.82-0.12
				c0.22,0,0.42,0.04,0.76,0.12c0.32-1.04,0.7-2.31,0.98-3.13c0.77-2.27,0.87-2.59,1.89-5.42l0.6-1.65c0.22,0.64,0.6,1.65,0.82,2.29
				c0.22,0.62,1.24,3.67,1.48,4.35c0.32,0.9,0.4,1.15,1.14,3.57c0.18-0.02,0.55-0.12,0.86-0.12c0.28,0,0.5,0.06,0.8,0.12
				c0.76-2.37,0.84-2.61,1.95-5.8c1.1-3.11,1.77-4.88,2.97-7.87c-0.3,0.08-0.6,0.12-0.9,0.12c-0.38,0-0.7-0.06-0.92-0.12
				c-0.72,2.59-1.07,3.85-1.65,5.56c-0.94,2.79-1.06,3.11-1.63,4.62c-0.64-1.71-1.26-3.45-1.84-5.2c-0.32-0.96-1.54-4.94-1.55-4.98
				c-0.28,0.06-0.48,0.12-0.88,0.12c-0.36,0-0.62-0.08-0.88-0.12c-0.6,2.43-2.71,8.29-2.91,8.83l-0.5,1.29l-0.38-1.12
				c-0.93-2.77-2.23-6.66-2.85-9.01c-0.5,0.08-0.94,0.12-1.39,0.12C-163.19,235.59-163.87,235.51-164.27,235.47z M-135.11,235.47
				c1.04,1.73,2.73,4.48,3.75,6.24l1.18,2.03c0,1.24-0.06,3.85-0.12,5.4c0.38-0.04,0.94-0.12,1.33-0.12c0.46,0,0.92,0.08,1.38,0.12
				c-0.08-1.85-0.14-2.93-0.14-4.61v-0.74c0-0.18,0.12-0.4,0.26-0.64c0.84-1.43,1.62-2.93,2.51-4.36c0.3-0.48,1.75-2.79,2.05-3.33
				c-0.22,0.08-0.44,0.12-0.84,0.12c-0.44,0-0.84-0.06-1.16-0.12c-1.43,3.15-1.75,3.83-3.45,6.74c-1.69-2.97-2.45-4.54-3.49-6.74
				c-0.58,0.1-1.16,0.12-1.63,0.12C-133.92,235.59-134.38,235.55-135.11,235.47z M-170.7,236.45c0.66,0,1.32,0.1,1.85,0.5
				c0.7,0.52,0.84,1.23,0.84,2.07c0,1.29-0.74,2.75-2.73,2.75c-0.52,0-1-0.04-1.38-0.06v-5.16
				C-171.82,236.53-171.08,236.45-170.7,236.45z M-189.61,238.68l1.87,4.9c-0.62,0.04-1.21,0.08-1.83,0.08
				c-0.7,0-1.37-0.06-2.07-0.08L-189.61,238.68z M-140.23,238.68l1.88,4.9c-0.62,0.04-1.22,0.08-1.84,0.08
				c-0.7,0-1.37-0.06-2.07-0.08L-140.23,238.68z"/>
			<path id="path133" class="st2" d="M-173.74,187.02c-1.44,4.91-4.9,12.68-10.94,26.19l-6.94,15.43c0.84-0.12,1.68-0.36,2.69-0.36
				c0.96,0,2.1,0.24,2.87,0.36c0.96-3.41,2.87-8.37,4.78-12.98c2.39-0.12,4.78-0.24,7.17-0.24c2.57,0,5.08,0.12,7.66,0.24l2.51,6.34
				l2.51,6.64c1.08-0.06,2.75-0.36,4.42-0.36c1.68,0,3.77,0.3,4.67,0.36c-2.69-5.8-6.64-14.83-8.91-20.03
				c-2.15-5.02-5.74-13.39-8.61-21.59c-0.66,0.18-1.26,0.3-1.91,0.3C-172.49,187.32-173.09,187.2-173.74,187.02z M-107.17,187.02
				c-1.43,4.91-4.9,12.68-10.94,26.19l-6.93,15.43c0.84-0.12,1.68-0.36,2.69-0.36c0.96,0,2.09,0.24,2.87,0.36
				c0.96-3.41,2.87-8.37,4.78-12.98c2.39-0.12,4.78-0.24,7.18-0.24c2.57,0,5.08,0.12,7.65,0.24l2.51,6.34l2.51,6.64
				c1.08-0.06,2.75-0.36,4.43-0.36c1.67,0,3.77,0.3,4.66,0.36c-2.69-5.8-6.64-14.83-8.91-20.03c-2.15-5.02-5.74-13.39-8.61-21.59
				c-0.66,0.18-1.26,0.3-1.91,0.3C-105.92,187.32-106.51,187.2-107.17,187.02z M-218.2,187.14c-12.08,0-22.48,6.7-22.48,21.88
				c0,3.23,0.72,9.33,5.74,14.41c5.2,5.26,11.36,6.04,16.56,6.04c0.66,0,1.31,0,1.97-0.06l13.69,10.7c1.79-1.26,4.61-2.81,6.64-3.71
				l-13.51-8.37c8.31-2.93,13.51-10.35,13.51-20.45C-196.08,193.24-207.02,187.14-218.2,187.14z M-154.81,187.62
				c0.18,0.72,0.3,1.49,0.3,2.21c0,0.72-0.12,1.49-0.3,2.21c3.05-0.3,8.79-0.42,9.33-0.42h2.99c0.06,2.33,0.12,4.43,0.12,6.64
				l0.06,16.68c0,4.55-0.36,9.15-0.6,13.69c2.15-0.24,3.05-0.36,4.07-0.36c0.72,0,2.63,0.18,4.37,0.36
				c-0.18-1.67-0.42-3.65-0.42-8.19v-22.12c0-2.27,0.06-4.54,0.12-6.7c4.13,0,8.37,0.06,11.9,0.42c-0.18-0.96-0.3-1.49-0.3-2.15
				c0-0.48,0.12-1.26,0.3-2.27c-5.74,0.3-11,0.36-15.97,0.36C-143.45,187.97-150.08,187.91-154.81,187.62z M-79.26,187.62
				c0.42,7.71,0.42,8.55,0.42,16.38c0,11.54-0.06,12.86-0.54,24.64c1.31-0.18,2.75-0.36,4.12-0.36c1.49,0,2.81,0.24,4.01,0.36
				c0-1.56-0.24-9.27-0.24-11v-8.49h1.44c3.23,4.54,6.94,9.81,9.99,14.53c0.9,1.38,2.21,3.59,3.11,4.96
				c1.8-0.24,2.51-0.36,4.84-0.36c2.15,0,3.65,0.18,5.32,0.36c-3.77-4.72-5.38-6.82-10.1-13.45c-0.9-1.26-2.21-3.23-3.11-4.49
				l-1.67-2.39c5.44-1.02,10.4-4.42,10.4-11.06c0-2.51-0.96-4.96-2.75-6.7c-2.57-2.45-5.5-2.93-9.39-2.93c-1.38,0-8.31,0.3-9.87,0.3
				C-76.34,187.91-77.89,187.73-79.26,187.62z M-218.32,190.18c9.81,0,14.05,8.13,14.05,16.8c0,4.96-0.6,9.63-3.05,13.4
				c-2.45,3.76-6.52,6.04-10.94,6.04c-11.06,0-14.23-10.53-14.23-17.1C-232.5,194.25-224.42,190.18-218.32,190.18z M-67.25,190.55
				c1.97,0,3.94,0.3,5.56,1.49c2.09,1.56,2.51,3.71,2.51,6.22c0,3.89-2.21,8.25-8.19,8.25c-1.56,0-2.99-0.12-4.13-0.18v-15.49
				C-70.59,190.79-68.38,190.55-67.25,190.55z M-173.8,197.24l5.62,14.71c-1.86,0.12-3.65,0.24-5.51,0.24
				c-2.09,0-4.12-0.18-6.21-0.24L-173.8,197.24z M-107.23,197.24l5.62,14.71c-1.85,0.12-3.65,0.24-5.5,0.24
				c-2.09,0-4.13-0.18-6.22-0.24L-107.23,197.24z M-61.33,235.47c-0.89,0-1.13,0.39-1.13,1.1s0.32,0.96,1.13,0.96
				c0.82,0,1.4-0.31,1.4-0.96C-59.94,235.93-60.32,235.47-61.33,235.47z M-58.17,235.47c-0.89,0-1.13,0.39-1.13,1.1
				s0.3,0.96,1.13,0.96c0.81,0,1.39-0.31,1.39-0.96C-56.79,235.93-57.17,235.47-58.17,235.47z M-107.76,235.66
				c-0.9,0-1.13,0.39-1.13,1.1c0,0.72,0.31,0.97,1.13,0.97c0.81,0,1.39-0.32,1.39-0.97C-106.38,236.11-106.76,235.66-107.76,235.66z
				 M-104.72,235.66c-0.9,0-1.14,0.39-1.14,1.1c0,0.72,0.31,0.97,1.14,0.97c0.82,0,1.38-0.32,1.38-0.97
				C-103.35,236.11-103.72,235.66-104.72,235.66z M-82.12,235.74c0,0-1.38,0.97-2.4,1.74c-1.01,0.77,0,1.29,0,1.29v8.22h-2.9
				l-0.06-7.06c0,0-2.02,1.48-2.6,1.92c-0.56,0.45-0.25,0.84,0.38,0.84c0,0-0.12,5.21-0.12,6.44c0,1.24-1.02,2.65-3.17,2.01
				c0,0-0.68,0.13-0.11,0.65c0.56,0.51,1.25,0.9,2.01,0.9c0.76,0,3.54-0.53,3.54-3.56h36.5v-13.15c0,0-2.15,1.42-2.59,1.8
				c-0.44,0.39-0.32,0.85,0.26,0.78v8.42h-3.15v-7.64c0,0-0.65,0.25-1.53,0.64c-0.88,0.4-4.04,1.69-4.04,3.42v2.01h3.23v1.57h-7.66
				c0.01-0.37,0.01-0.91,0.01-1.71c0-2.51-2.14-3.87-4.04-3.87h-8.85c-1.55,0-2.3,0.38-2.72,0.8L-82.12,235.74z M-46.86,236
				c0,0-2.15,1.42-2.59,1.81c-0.44,0.39-0.31,0.85,0.25,0.78v10.57h2.34V236z M-102.38,237.15c0,0-2.6,2.39-2.84,2.71
				c-0.25,0.34,0.62,0.65,0.62,0.65l-0.15,0.93c0,0-1.04,0.54-2.29,1.39c-1.25,0.84-2.18,1.91-2.18,2.65c0,0.74-0.31,3.66-0.31,3.66
				H-93v-7.81c0,0-1.49,0.86-2.44,1.7c-0.94,0.83,0.19,1.15,0.19,1.15v2.81h-7.13L-102.38,237.15z M-58.87,242.44v1.29h-1.52
				C-60.38,242.9-58.87,242.44-58.87,242.44z M-80.29,243.66h9.67c2.09,0,1.77,1.1,1.77,1.81c0,0.38-0.02,1.01-0.04,1.51h-13.23
				v-2.33C-81.77,243.77-81.19,243.66-80.29,243.66z M-104.66,243.86v3.13h-2.46c0,0-0.33-1.51,0.56-2.09
				C-105.67,244.31-104.66,243.86-104.66,243.86z M-100.12,249.99c-0.89,0-1.13,0.38-1.13,1.1c0,0.71,0.31,0.97,1.13,0.97
				c0.81,0,1.39-0.32,1.39-0.97C-98.73,250.43-99.1,249.99-100.12,249.99z M-96.96,249.99c-0.89,0-1.13,0.38-1.13,1.1
				c0,0.71,0.32,0.97,1.13,0.97c0.83,0,1.39-0.32,1.39-0.97C-95.56,250.43-95.94,249.99-96.96,249.99z"/>
		</g>
	</g>
</g>
</svg>
