<svg width="89" height="24" viewBox="0 0 89 24" fill="none" xmlns="http://www.w3.org/2000/svg">
<path d="M4.54845 11.98C3.94672 11.9827 3.45968 11.8557 3.08034 11.6189C2.70773 11.3756 2.43576 11.0486 2.2714 10.6182C2.10693 10.1944 2.0231 9.69957 2.02641 9.13395L2.0264 5.74008L0.942014 5.74084L0.941702 4.25443L2.13352 4.15661L2.36796 2.10195L4.02752 2.10443L4.02441 4.16311L5.92865 4.16342L5.92743 5.74198L4.02319 5.74167L4.02335 9.1227C4.02235 9.55681 4.11588 9.88071 4.29739 10.0878C4.47889 10.2948 4.74152 10.398 5.07862 10.4039C5.20421 10.4061 5.33693 10.3822 5.47632 10.3517C5.6157 10.3212 5.72883 10.2772 5.83516 10.2462L6.17986 11.7058C5.96719 11.7679 5.72802 11.8295 5.46236 11.8973C5.19669 11.965 4.88568 11.9793 4.54845 11.98Z" fill="#8E9297"/>
<path d="M9.79184 11.9788C8.95875 11.9775 8.36174 11.7108 7.98771 11.1715C7.61368 10.6322 7.42852 9.87903 7.42553 8.91863L7.42302 4.16293L9.41981 4.16452L9.41997 8.67705C9.42281 9.26909 9.50823 9.67832 9.68255 9.91814C9.85698 10.1514 10.1325 10.2746 10.516 10.2747C10.8268 10.2735 11.0992 10.1994 11.3332 10.0521C11.5672 9.90492 11.8095 9.65894 12.0667 9.32136L12.0645 4.17126L14.0745 4.17309L14.0728 11.8032L12.4331 11.8011L12.2805 10.7L12.2277 10.6991C11.8969 11.088 11.5408 11.4041 11.1598 11.6409C10.779 11.8645 10.3207 11.9814 9.79184 11.9788Z" fill="#8E9297"/>
<path d="M16.2285 11.7881L16.2302 4.15798L17.8699 4.16011L18.0175 5.16924L18.0571 5.16993C18.3935 4.84031 18.762 4.56383 19.1695 4.32753C19.5703 4.09112 20.0286 3.97405 20.551 3.96996C21.3841 3.97127 21.9811 4.23828 22.3551 4.77757C22.7292 5.31686 22.9143 6.06971 22.9173 7.03011L22.9198 11.7858L20.9098 11.784L20.9096 7.27178C20.9068 6.67974 20.8281 6.27031 20.6538 6.03049C20.4859 5.79735 20.2104 5.67416 19.8269 5.67407C19.5161 5.67526 19.2439 5.74295 19.0099 5.89017C18.7759 6.03739 18.5209 6.25018 18.2383 6.52812L18.2389 11.7704L16.2285 11.7881Z" fill="#8E9297"/>
<path d="M26.0179 2.92035C25.6608 2.92073 25.3782 2.82346 25.17 2.6291C24.9619 2.43473 24.8541 2.16994 24.8534 1.83447C24.8525 1.50557 24.9563 1.24429 25.1714 1.04411C25.3798 0.843826 25.6659 0.743564 26.023 0.743186C26.3602 0.742464 26.6361 0.845715 26.8575 1.04031C27.0788 1.24149 27.1866 1.50643 27.1875 1.82875C27.1882 2.16422 27.0777 2.43213 26.8561 2.62561C26.6344 2.82567 26.3551 2.91963 26.0179 2.92035ZM25.0093 11.7891L25.0109 4.15899L27.0209 4.16113L27.0193 11.7913L25.0093 11.7891Z" fill="#8E9297"/>
<path d="M31.36 11.9786C30.8509 11.9763 30.3303 11.8818 29.8049 11.6753C29.2795 11.4755 28.8278 11.2176 28.443 10.9149L29.3645 9.64814C29.7038 9.90399 30.0374 10.1074 30.3719 10.2579C30.7065 10.4084 31.0557 10.48 31.4194 10.4797C31.8029 10.4798 32.0818 10.4058 32.2629 10.2576C32.4375 10.1094 32.5269 9.91352 32.531 9.67679C32.5344 9.4861 32.4512 9.3268 32.3015 9.19265C32.1452 9.05838 31.9423 8.94302 31.6994 8.84014C31.45 8.73715 31.1939 8.63423 30.9312 8.531C30.6095 8.40044 30.2948 8.25015 29.9807 8.06709C29.6665 7.88404 29.4061 7.64943 29.1929 7.36289C28.9798 7.07634 28.8802 6.71934 28.8745 6.29169C28.8759 5.83786 28.9953 5.4388 29.2328 5.08773C29.4704 4.73666 29.7991 4.46592 30.2259 4.26284C30.6526 4.05977 31.1568 3.96328 31.7387 3.96023C32.2941 3.9633 32.7883 4.05732 33.2213 4.24902C33.6544 4.44071 34.0274 4.65797 34.3405 4.90021L33.4399 6.11435C33.1657 5.91226 32.8974 5.75651 32.6217 5.6399C32.3527 5.52341 32.076 5.46598 31.7917 5.46104C31.4347 5.46142 31.1757 5.52933 31.008 5.66455C30.8403 5.79977 30.7644 5.97577 30.7606 6.19276C30.7574 6.37688 30.8276 6.52309 30.9642 6.65044C31.101 6.77122 31.2908 6.87958 31.5272 6.96919C31.7637 7.05881 32.0133 7.15518 32.2826 7.25852C32.5388 7.34848 32.7882 7.45819 33.0439 7.58103C33.293 7.70376 33.5284 7.85249 33.737 8.02055C33.9455 8.19519 34.1138 8.40215 34.235 8.65421C34.3562 8.90627 34.4172 9.20308 34.4176 9.55828C34.4163 10.0055 34.3034 10.4116 34.0656 10.7758C33.8344 11.1402 33.4921 11.43 33.0387 11.6457C32.5851 11.8747 32.0277 11.9836 31.36 11.9786Z" fill="#8E9297"/>
<path d="M36.9606 2.91962C36.6035 2.92 36.3209 2.82305 36.1127 2.62868C35.9045 2.43432 35.7968 2.16921 35.7961 1.83374C35.7952 1.50484 35.899 1.24356 36.1141 1.04338C36.3226 0.843095 36.6087 0.742833 36.9658 0.742455C37.303 0.741733 37.5854 0.845098 37.8002 1.03958C38.0215 1.24075 38.1292 1.50601 38.1302 1.82834C38.1309 2.16381 38.0204 2.4314 37.7988 2.62488C37.5771 2.82494 37.2978 2.9189 36.9606 2.91962ZM35.9454 11.7883L35.947 4.15814L37.9571 4.16028L37.9554 11.7904L35.9454 11.7883Z" fill="#8E9297"/>
<path d="M41.9853 11.9786C41.5357 11.9774 41.1407 11.8787 40.8002 11.6886C40.4599 11.4919 40.1935 11.2242 40.0078 10.8789C39.8221 10.5337 39.7297 10.144 39.7241 9.70974C39.7251 8.9007 40.0734 8.26845 40.7755 7.82021C41.4777 7.37196 42.5939 7.06263 44.1308 6.89856C44.1221 6.64188 44.0796 6.41749 43.9904 6.22519C43.9079 6.033 43.7718 5.87265 43.5887 5.75765C43.399 5.64253 43.1489 5.57899 42.8315 5.58005C42.4745 5.58043 42.1228 5.6469 41.7766 5.7856C41.4303 5.92429 41.0768 6.10223 40.7225 6.31972L40.012 4.98542C40.3129 4.79331 40.6332 4.62783 40.9729 4.48244C41.3127 4.33705 41.6652 4.21815 42.0438 4.11948C42.4157 4.02727 42.8067 3.97486 43.21 3.97529C43.8581 3.97338 44.3981 4.10118 44.8365 4.35875C45.275 4.61632 45.6056 4.99037 45.8217 5.48745C46.0444 5.98464 46.1525 6.60486 46.1528 7.34157L46.154 11.7947L44.5077 11.7924L44.37 10.9743L44.3039 10.9731C43.9748 11.2634 43.6201 11.5071 43.2398 11.6978C42.8465 11.8818 42.4348 11.9798 41.9853 11.9786ZM42.6608 10.4118C42.9451 10.4101 43.2041 10.3424 43.4312 10.2148C43.6649 10.0807 43.8995 9.90068 44.1352 9.6614L44.1355 8.13517C43.5126 8.20987 43.0216 8.31317 42.6555 8.45153C42.2894 8.58988 42.0287 8.74979 41.8734 8.93127C41.718 9.11933 41.6418 9.32204 41.6377 9.55219C41.639 9.85479 41.7345 10.0668 41.9172 10.2081C42.1132 10.343 42.3566 10.4131 42.6608 10.4118Z" fill="#8E9297"/>
<path d="M50.7069 11.9654C50.1846 11.9629 49.7697 11.8639 49.4625 11.6612C49.1553 11.4585 48.929 11.165 48.7967 10.7943C48.6643 10.4237 48.5993 9.98846 48.6012 9.50174L48.6004 5.40384L47.4895 5.40446L47.4862 4.46368L48.6643 4.3987L48.8 2.31599L49.8381 2.3141L49.8412 4.39923L51.8645 4.4016L51.8666 5.40788L49.8434 5.40583L49.8434 9.54965C49.8422 9.99691 49.9287 10.3405 50.0962 10.5934C50.2637 10.8462 50.5657 10.9697 50.9954 10.9706C51.1342 10.973 51.28 10.9495 51.4328 10.9127C51.5856 10.8693 51.7252 10.8257 51.8452 10.7686L52.0933 11.7069C51.8804 11.7821 51.6611 11.8441 51.4221 11.8992C51.1833 11.9411 50.9448 11.9696 50.7069 11.9654Z" fill="#8E9297"/>
<path d="M53.5464 11.7915L53.544 4.39157L54.5689 4.38978L54.6906 5.74019L54.7171 5.74065C54.97 5.27145 55.2873 4.89546 55.6558 4.61902C56.0244 4.34258 56.4169 4.20458 56.8268 4.20512C56.9987 4.20811 57.1505 4.21735 57.2692 4.23914C57.3944 4.26105 57.5061 4.30242 57.6173 4.37013L57.3868 5.44495C57.2618 5.40989 57.1434 5.3816 57.0447 5.35358C56.9459 5.33213 56.8137 5.32323 56.6617 5.32059C56.3575 5.32189 56.038 5.44797 55.6895 5.71161C55.3411 5.97524 55.0425 6.41079 54.8001 7.03803L54.8026 11.7937L53.5464 11.7915Z" fill="#8E9297"/>
<path d="M59.4884 2.87027C59.2437 2.8726 59.0466 2.79677 58.8907 2.64278C58.7412 2.49547 58.6654 2.29014 58.6632 2.04015C58.6609 1.79674 58.737 1.60079 58.8917 1.45219C59.0397 1.31005 59.2394 1.23452 59.4906 1.23231C59.7353 1.22998 59.939 1.30591 60.0952 1.44675C60.2513 1.59417 60.3273 1.78634 60.3295 2.03633C60.3316 2.29289 60.2553 2.49527 60.094 2.64376C59.9327 2.79224 59.7331 2.86794 59.4884 2.87027ZM58.8557 11.7915L58.8534 4.39157L60.1162 4.39391L60.1186 11.7939L58.8557 11.7915Z" fill="#8E9297"/>
<path d="M62.6227 14.9092L62.6221 4.39161L63.6471 4.38949L63.7708 5.24694L63.7973 5.24739C64.1329 4.9638 64.5074 4.7201 64.9145 4.5101C65.3215 4.30011 65.7398 4.1957 66.1695 4.19659C66.8109 4.19457 67.3504 4.35517 67.7945 4.66546C68.2387 4.97575 68.5681 5.41574 68.7963 5.9788C69.0178 6.54175 69.1319 7.20135 69.1318 7.96436C69.1302 8.80627 68.9787 9.52722 68.6774 10.1206C68.3694 10.7138 67.9714 11.1674 67.4832 11.4812C66.995 11.795 66.4699 11.9502 65.9012 11.9535C65.564 11.9542 65.2216 11.8759 64.8737 11.7317C64.5259 11.5809 64.1857 11.3712 63.8467 11.0956L63.8901 12.3923L63.8925 14.8985L62.6227 14.9092ZM65.688 10.9172C66.098 10.9177 66.4637 10.7991 66.7918 10.568C67.1132 10.3368 67.3704 9.99931 67.5499 9.56172C67.7295 9.12413 67.8247 8.59931 67.8222 7.98755C67.8252 7.44165 67.7541 6.96703 67.6226 6.55035C67.491 6.13367 67.2851 5.81424 66.9981 5.58561C66.7178 5.3571 66.3297 5.24529 65.8471 5.24348C65.5363 5.24466 65.2174 5.33116 64.897 5.5032C64.57 5.67512 64.235 5.92578 63.8788 6.25506L63.8766 10.149C64.2022 10.4309 64.5294 10.6274 64.8514 10.7382C65.1732 10.8622 65.4499 10.9196 65.688 10.9172Z" fill="#8E9297"/>
<path d="M55.7777 21.4359C55.4277 21.4359 55.0287 21.2539 54.6997 20.9459H54.6787L54.6157 21.3379H54.1117V15.7729H54.7487V17.2919L54.7207 17.9779C55.0707 17.6769 55.4907 17.4459 55.9177 17.4459C56.8977 17.4459 57.4297 18.2089 57.4297 19.3779C57.4297 20.6799 56.6527 21.4359 55.7777 21.4359ZM55.6797 20.8969C56.3027 20.8969 56.7717 20.3299 56.7717 19.3919C56.7717 18.5449 56.4847 17.9779 55.7637 17.9779C55.4417 17.9779 55.1057 18.1599 54.7487 18.5029V20.5049C55.0777 20.7919 55.4277 20.8969 55.6797 20.8969ZM58.447 22.9829C58.272 22.9829 58.125 22.9549 58.006 22.9059L58.132 22.3949C58.202 22.4229 58.314 22.4509 58.419 22.4509C58.846 22.4509 59.119 22.1009 59.28 21.6319L59.364 21.3449L57.838 17.5369H58.496L59.273 19.6509C59.392 19.9869 59.518 20.3719 59.644 20.7219H59.679C59.784 20.3719 59.896 19.9939 59.994 19.6509L60.68 17.5369H61.303L59.868 21.6599C59.602 22.4089 59.21 22.9829 58.447 22.9829ZM62.9838 21.3379L64.7198 16.2069H65.4478L67.1838 21.3379H66.5048L65.6018 18.4679C65.4198 17.8939 65.2588 17.3339 65.0908 16.7389H65.0628C64.8948 17.3339 64.7338 17.8939 64.5448 18.4679L63.6418 21.3379H62.9838ZM63.8938 19.7699V19.2589H66.2598V19.7699H63.8938ZM68.9325 21.4359C68.1205 21.4359 67.8545 20.9249 67.8545 20.1689V18.0549H67.2875V17.5789L67.8825 17.5369L67.9525 16.4659H68.4915V17.5369H69.5205V18.0549H68.4915V20.1829C68.4915 20.6449 68.6385 20.9179 69.0795 20.9179C69.2125 20.9179 69.3875 20.8619 69.5065 20.8129L69.6325 21.2889C69.4225 21.3659 69.1705 21.4359 68.9325 21.4359ZM71.0532 21.4359C70.5702 21.4359 70.3812 21.1279 70.3812 20.5819V15.7729H71.0182V20.6239C71.0182 20.8269 71.1022 20.9039 71.2002 20.9039C71.2282 20.9039 71.2562 20.9039 71.3332 20.8899L71.4172 21.3799C71.3262 21.4079 71.2282 21.4359 71.0532 21.4359ZM73.2455 21.4359C72.6085 21.4359 72.1325 21.0369 72.1325 20.3509C72.1325 19.5249 72.8465 19.1119 74.4635 18.9299C74.4635 18.4399 74.3095 17.9709 73.6865 17.9709C73.2385 17.9709 72.8395 18.1809 72.5455 18.3839L72.2935 17.9359C72.6435 17.7119 73.1755 17.4459 73.7845 17.4459C74.7155 17.4459 75.1075 18.0619 75.1075 19.0069V21.3379H74.5825L74.5265 20.8899H74.4985C74.1415 21.1909 73.7145 21.4359 73.2455 21.4359ZM73.4205 20.9179C73.7915 20.9179 74.0995 20.7429 74.4635 20.4139V19.3569C73.1825 19.5039 72.7555 19.8189 72.7555 20.3089C72.7555 20.7429 73.0495 20.9179 73.4205 20.9179ZM76.3148 21.3379V17.5369H76.8328L76.8958 18.0899H76.9168C77.2738 17.7329 77.6658 17.4459 78.1908 17.4459C78.9888 17.4459 79.3528 17.9639 79.3528 18.9299V21.3379H78.7088V19.0139C78.7088 18.2999 78.4918 17.9989 77.9878 17.9989C77.6028 17.9989 77.3298 18.2019 76.9518 18.5799V21.3379H76.3148ZM81.7773 21.4359C80.9653 21.4359 80.6993 20.9249 80.6993 20.1689V18.0549H80.1323V17.5789L80.7273 17.5369L80.7973 16.4659H81.3363V17.5369H82.3653V18.0549H81.3363V20.1829C81.3363 20.6449 81.4833 20.9179 81.9243 20.9179C82.0573 20.9179 82.2323 20.8619 82.3513 20.8129L82.4773 21.2889C82.2673 21.3659 82.0153 21.4359 81.7773 21.4359ZM83.2259 21.3379V17.5369H83.8629V21.3379H83.2259ZM83.5479 16.7529C83.2959 16.7529 83.1209 16.5919 83.1209 16.3259C83.1209 16.0809 83.2959 15.9199 83.5479 15.9199C83.7929 15.9199 83.9749 16.0809 83.9749 16.3259C83.9749 16.5919 83.7929 16.7529 83.5479 16.7529ZM86.1477 21.4359C85.6087 21.4359 85.0837 21.2049 84.7267 20.9109L85.0417 20.4839C85.3707 20.7499 85.7067 20.9389 86.1617 20.9389C86.6657 20.9389 86.9177 20.6729 86.9177 20.3369C86.9177 19.9519 86.4627 19.7769 86.0427 19.6229C85.5177 19.4199 84.9367 19.1679 84.9367 18.5169C84.9367 17.9149 85.4197 17.4459 86.2457 17.4459C86.7147 17.4459 87.1347 17.6349 87.4287 17.8729L87.1207 18.2789C86.8617 18.0899 86.5887 17.9429 86.2527 17.9429C85.7697 17.9429 85.5527 18.1949 85.5527 18.4889C85.5527 18.8529 85.9377 18.9929 86.3717 19.1469C86.9247 19.3569 87.5267 19.5809 87.5267 20.3019C87.5267 20.9249 87.0437 21.4359 86.1477 21.4359Z" fill="#8C8C8C"/>
</svg>
