<?xml version="1.0" encoding="UTF-8"?>
<svg id="Layer_2" data-name="Layer 2" xmlns="http://www.w3.org/2000/svg" xmlns:xlink="http://www.w3.org/1999/xlink" viewBox="0 0 46.31 44.23">
  <defs>
    <style>
      .cls-1 {
        fill: #fff;
      }

      .cls-2 {
        fill: url(#linear-gradient);
      }
    </style>
    <linearGradient id="linear-gradient" x1="23.16" y1="45.61" x2="23.16" y2="-1.71" gradientUnits="userSpaceOnUse">
      <stop offset="0" stop-color="#f15822"/>
      <stop offset=".62" stop-color="#e5c262"/>
    </linearGradient>
  </defs>
  <path class="cls-2" d="m36.3,43.29c-.15,0-.3-.04-.44-.11l-12.71-6.68-12.71,6.68c-.14.07-.29.11-.44.11-.2,0-.39-.06-.55-.18-.29-.21-.44-.57-.37-.92l2.43-14.15L1.23,18.01c-.26-.25-.35-.62-.24-.97.11-.34.41-.59.76-.64l14.21-2.06L22.31,1.47c.16-.32.49-.52.84-.52s.69.2.84.52l6.35,12.88,14.21,2.06c.35.05.65.3.76.64.11.34.02.72-.24.97l-10.28,10.02,2.43,14.15c.06.35-.08.71-.37.92-.16.12-.36.18-.55.18Z"/>
  <path class="cls-1" d="m23.16,1.88l6.57,13.32,14.7,2.14-10.64,10.37,2.51,14.64-13.15-6.91-13.15,6.91,2.51-14.64L1.88,17.34l14.7-2.14L23.16,1.88m0-1.88c-.72,0-1.37.41-1.69,1.05l-6.14,12.43-13.72,1.99c-.71.1-1.3.6-1.52,1.28-.22.68-.04,1.43.48,1.93l9.93,9.68-2.34,13.66c-.12.71.17,1.42.75,1.84.33.24.72.36,1.11.36.3,0,.6-.07.88-.22l12.27-6.45,12.27,6.45c.28.14.58.22.88.22.39,0,.78-.12,1.11-.36.58-.42.87-1.14.75-1.84l-2.34-13.66,9.93-9.68c.51-.5.7-1.25.48-1.93-.22-.68-.81-1.18-1.52-1.28l-13.72-1.99L24.84,1.05c-.32-.64-.97-1.05-1.69-1.05h0Z"/>
</svg>