<?xml version="1.0" encoding="utf-8"?>
<!-- Generator: Adobe Illustrator 28.0.0, SVG Export Plug-In . SVG Version: 6.00 Build 0)  -->
<svg version="1.1" id="Layer_1" xmlns="http://www.w3.org/2000/svg" xmlns:xlink="http://www.w3.org/1999/xlink" x="0px" y="0px"
	 viewBox="0 0 595.3 841.9" style="enable-background:new 0 0 595.3 841.9;" xml:space="preserve">
<style type="text/css">
	.st0{fill:#CCCCCC;}
	.st1{fill:#EDEFEF;}
	.st2{fill:#FFFFFF;}
	.st3{fill:#FFDB43;}
	.st4{fill:#FF5856;}
	.st5{fill:#CFE4FF;}
	.st6{fill:#FFB800;}
	.st7{fill:#FBFAF6;}
	.st8{fill:#A8C7E9;}
	.st9{fill:#00BCF4;}
	.st10{fill:#0099BC;}
	.st11{fill:#4379BC;}
</style>
<rect x="0" class="st0" width="596.5" height="847.3"/>
<path class="st1" d="M422.9,453l-1.4-0.9l-1.6-0.8l-1.6-1l-2.6-2.4l-2.5-3l-2.6,1.7l-3.6-0.2l-6.6-1.5l-3,1.2l-1,2.6l0.1,7.7
	l-0.6,3.6l0.1,1.8l1,1.3l1.4,0.2l1.3-0.6l2.4-1.7l1.3-0.1l1.4,0.5l1.3,1.1l1,2l0.1,1.2l-0.1,1.6l0.2,1.6l0.9,0.9l0.3-1.5l0.6-1.2
	l3.9-4.5l1.2-1.1l1.3-0.4l-0.3,0.8l-0.2,2.6h0.5l0.8-3.2l0.4-0.8l0.5-0.4l1.4-0.6l5.4-5L422.9,453z M417.8,368.5l-1.3,0.4l-0.5,1.1
	l0.8,1l3.5,1.4l0.8,0.7l0.8-0.2l4.8-2.9l0.2-0.3l0.4-1.1L417.8,368.5z M251.5,79.8l-0.4-0.4v-0.5l-0.2-0.2l-0.3-0.2l-0.5,0.7
	l-1.3,0.4l-1,0.6l-0.9,0.8l1.2,0.6l0.9-0.5l0.9-0.4l1,0.3l0.7-0.1L251.5,79.8z M594.8,541.9l-2.6,2.1l-3.3,1.5l-20.5,6l-7.7,0.5
	l-31.2-3.3l-3.6-1l-6.5-3.2l-5.3-3.5l-3.1-0.9l-3.4-3.5l-19.1-12.1l-8.8-3l-4-2.2l1.4,1.8l5.4,1.7l1.7,1.8l-3-1.1L471,522l-2.7-1.3
	l-1.3-1l-1-2.5l-1.2-0.8l-2.8-1l-1.8-0.5l-0.5-0.2l-4.5-2.1l-7.4-5.3l1.3,1.3l1.2,1.4l0.9,0.6l1.5,0.5l1.4,1.2l0.5,1.3l-1.4,1h-3.6
	l-6.9-2.5l-3.5-0.8l-3.6,0.7h-1.8l-0.8-1l-0.5-2.1l-1.3-1.4l-1.3-1.1l-0.8-1.1l1-3.1l4,0.5l8,2.6l0.4-0.1l0.2-0.1l0.5-0.5l-2-0.7
	l-4.2-2.1l-2-0.5l-1.9-1l-1.6-2.1l-1.6-1.8l-1.9,0.3l0-14.3l0.3-2.5l-0.3-1l-2.8-4.4l-1.1-1.4l-1.4-1l-3.5-1.6l-1.3-0.9h-0.5
	l-0.5,1.1l-0.9,0.5l-1-0.2l-1-0.6l-2.4,1.9l0.2,0.8l1.4,1.6l0.5,1.7l-0.6,1.9l-1.3,1.5l-1.4,0.6l-2.9,0.9l-6.2,3.8l-3.5,0.8
	l-1.7-0.6l-1.1-1.2l-2-3.3l-0.5-1.5l0.4-1.6l1-1.3l1.3-0.5l0.5-0.8l0.7-10l-0.5-1.5l-1.6-1.1l-13.5,6.7l-3.6,0.3l-3.5-0.8l-6.4-2.8
	L364,464l-11.8-11.7l-1.1-0.6l-0.8-0.8l-7.5-10.8l-1.9-3.7l-0.8-3.2l-0.3-1.8l-1.2-3.8l-0.3-1.8v-4.1l-0.3-2l-0.8-1.7l0.4-0.2
	l0.7-0.8l0.5-0.4l0.5-2.3l4.4-8l1.8-2.5l1.6-1.1l3.3-1.3l1.6-1.3l3.9-1.7l1.1-0.3l0.8-0.7l1.8-2.3l0.4-0.6l0.5-0.5l1-0.3l0.9,0
	l0.8,0.4l0.8,0.1l1.1-0.8l7.2-7.5l2.8-1.5l7.5-2.5l0.8-0.5l0.6-0.5l0.5-0.6l0.2-0.9l0.1-1.1l0.3-1l1.6-0.9l0.6-1l0.4-1.2l0.1-1
	l0.3-0.7l0.7-0.4l5.5-1.8l1.3-0.9l1.4-1.6l0.8-1.8l0.6-4l0.7-1.4l1.3-1.1l2.7-1.9l1.4-1.4l0.8-0.4h0.8l0.6-0.3l0.2-1.3l0.1-1.2
	l0.3-0.6l0.5-0.5l0.7-0.8l2.3-3.9l1-2.4l-0.3-1.1l-0.5-1l0.9-2.3l2.1-3.5l2.8-2.8l1.9-2.6l1-3.3l0.4-4.6l0.6-1.9l1.5-1.6l3.3-2.7
	l1.9-3.5l1.3-1.4l2.1-0.1v-0.7l-1.2-0.2l-1.1-0.5l-1.7-1.3l-4.5-4.4l-1.6-2.8l-0.6-3.7l0.2-1.9l0.8-3.3l0.4-3.4l1.3-3.5l0.8-1.6
	l-1.8-0.5l-1.2-1.5l-0.7-2.1l-0.2-2.4l0.4-2.3l0.7-2.1l0.1-1.9l-1.3-1.6l-3.3-1.4l-7.4-1.2l-3.3-1.6l-1-1.4l-1.1-2.5l-0.5-2.5l1.1-1
	l0.3-0.2l-0.4-0.5l-0.8-0.4l-0.8-0.2l-5.7,0.9l-1.7-0.1l-1.6-0.9l-5.9-5.5l-1.1-1.3l-2.2-6.7l-1-0.9l-1.1-0.7l-1.3-1.5l-1.8-2.8
	l-0.3-0.9l-0.5-2.2l-0.4-1l-0.4-0.7l-1.5-1.7l-1-1.9l-0.5-2.2l-0.5-9.2l0.4-4.5l0.8-4.2l1.2-4l1.5-3.8l1.9-3l2.5-2.2l12.2-6.1l7.1-2
	l2.1-2.2l4.1-11l6.4-10.1l2.1-4.9l1-1.6l4.8-5.3l4.9-3.2l0.7-1.2l0.4-0.3l0.6-1.1l0.4-1.2l-0.5-0.5l-0.4-0.3l-0.6-0.7l-0.5-1
	l-0.4-0.8l-0.2-1l-0.1-2.2l-0.2-1l-0.5-1l-1.4-2.1l-0.3-0.7l-0.2-0.9l-0.8-1.5l-0.2-1.2l0.2-1.1l0.9-1.2l0.1-0.9l-0.8-1.8l-1.4-0.8
	l-1.7,0.3l-3.1,2.4l-4.1,0.4l-1.8,0.8l-0.7,1l0.1,0.7l0.3,0.7l-0.2,1.2l-0.7,0.8l-4.7,3.9l-0.2,0.5l-0.3,0.9l-0.8,0.4l-0.9,0.2
	l-0.8,0.3l-5.2,4.7l-2.8,1.7l-3.4,0.7l-3.8-0.3l-1.7,0.4l-1.5,1.3l-1.7,3.6L381,154l-0.3,1.5l-1.3,2.2l-3.1,2.1l-3.5,1.6l-2.7,0.7
	l-3.9-0.4l-2.9-1.9l-2.2-2.9l-1.8-3.9l-1.2,2.2l-0.8,0.8l-1.1-0.6l-2.5-0.1l-1.2-0.5l0.4-1.5l1.4-1.9l0.8-0.7l2.7-0.9l1.4-0.2
	l0.8,0.4l-0.6,1.5l1.1,0.9l1.1-0.2l0.9-0.8l0.8-2.1l1.9-1.9l0.4-1.2l-2.8-3.9l-0.8-0.6l-3.1-1.5l-3.8-3.9l-3.1-5.2l-0.6-5l3.5-3.5
	l0.6,1.5l0.5-1.2l-0.3-1l-1.3-2l-1.6,0.4l-2.5-0.1l-2.1-0.8l-0.6-1.7l1.5-1.3l2.6-0.7l2.3,0.3l0.5,1.7l1.1-0.8l1.2-0.5l2.6-0.7
	l-1.6-1.3l-6.1-2.2l-2.7-2.4l-5.8-0.9l-1.3-2l-0.7-0.2l-4.4,2l-1.5,0.1l-8-1.8l-1.2,0.2l-0.3,0.2l-0.4,0.5l-0.5,0.5l-0.8,0.2l-2,1.4
	v0.6h1l1.7-0.5l0.8-0.1l5.2,2.1l0,1.7L330,116l-1,1.4l-1.8,1.5l-1.6,0.3l-3.6-0.5l-0.7-0.3l-0.5-1.5l-0.5-0.3l-0.4-0.7l-1.3-2.8
	l-0.2-0.8l1.7-2.5l3.1-1.3l2.5-2l0-4.6l-0.2-1l0-0.3l-7-0.1l-0.8-0.3l-0.7-0.6l-0.8-0.5l-1,0.2l-1.8,0.7l-3.6,0.1l-1.4,0.3l-1.7,0.9
	l-3,2.1l-1.5,0.3l-1.6-1l-1.2,1.2l-1.8,1.1l-1.9,0.9l-2.4,0.5l-0.9,0.5l-0.9,0.2l-0.9-0.5l-1.1-0.5l-1.1,0.8l-2,2.1l-3.1,1.2
	l-10.8,0.2l-1.5,0.8l-1.7,2.8l-1,0.6l-9,3.7l-0.8,0.6l-2.3,2.4l-0.8,0.4l-1.1,0.7l-2.6,4.8l-2.5,3.1l-1.8,1.7l-3.1,1.4l-3.4,2.9
	l-1.8,0.6h-7l-2,0.4l-5.8,2.4l-1.6,0.7l-8.6,3.6l-2.8,0.3l-2.9-0.3l-1.2-0.6l-1.1-0.8l-1.1-0.5l-1.2,0.5l-1.5-0.8l-1.9-0.2l-3.7,0.2
	l-1.6-0.8l-1.4-1.6l-1.5-1l-11.5,5.7l-1.6,1.5l-1.9,1l-11.6,2.8l-3.4-0.5l-4.6-1.4l-3-2.2l1.5-2.9l-1.4-1.3l0.3-2l1-2.3l0.6-2.1
	l-0.8,0.7l-1.5,1.7l-0.8,0.4l-3.9,0.4l-0.6-0.7l-0.7-0.6l-0.8-0.6l-0.9-0.5l-1-0.2l-0.8,0.2L144,136l-0.8,0.2l-3.7-0.7l-2.7-2.1
	l-2.4-2.6l-2.9-2.3l-1.4,0.5l-1.4,0.8l-0.7-0.4l-0.7-0.2l-1.6-0.1l-1.1-0.2l-0.5-0.7l-0.3-1.2l-0.6-0.9l-0.1-0.4l-0.2-0.1h-1.1
	l-2.1,1.2l-0.7,0.2l-0.8-0.2l-1.5-0.9l-0.8-0.3l-0.4,0.1l-0.3,0.2l-0.6,0.7l-0.5,0.3l-0.3-0.2l-0.3-0.4l-0.5-0.2l-0.7-0.2l-1.5-0.9
	l-0.8-0.3l-0.8,0.1l-1.6,0.5l-0.9,0.1v0.6l2.4,2.1l3.2,3.4l0.4,0.8l0.2,1.1l-0.3,1l-0.6,1.3l-0.7,1.1l-0.5,0.5l-1.2,0.6l-3.5,2.9
	l-0.7,1l-0.8,0.8l-1.9-0.1l-2.1-0.5l-1.3-0.6l-2.3,1.3l-7.3,2.2l-2.2,0.1l-3.2-0.3l-2.4-0.9l0-1.7l-0.8-1.1l-1.4-1.1l-1.4-0.9
	l-1.1-0.4l-12.3-0.7l-1.7-0.4l-1.6-0.9l-1.4-0.5l-1.2,0.5l-1.3-1.7l-0.9-3.9l-1-0.7l-0.7-0.2l-0.4-0.4l-0.2-0.7l0-1.1l-0.5-0.1
	l-3-2.3l-3.3-1.1l-3.8,0.1l-3.6,0.9l-2.7,1.4l-0.8,0.8l-1.2,1.4l-3.3,2.5l-0.6,0.6l-1,1.9l0,1.6l0.3,1.7l-0.1,2.1l-1.7,2.5l-3.2,1.9
	l-13.1,5L0,152v689.9h595.3V541.6L594.8,541.9z M592.8,11.6l-0.8-0.1l-0.9,0.2l-0.9,0.7l-0.5,0.9l0.5,0.9l-2.9,2.6l0.2,1l0.8,1
	l0.2,0.9l0.1,1.3l0.2,0.6l-0.1,0.4l-0.7,0.8L585,25l-6.8,3.1l-3.5,0.5l-2.6-1.5l-0.1-1l-1-0.7l-2.3-1.1l-0.8-0.9l-2.3-4.1l-2-4.7
	l-0.4-1.9l-0.9-0.1l-1,0.1l-0.5-1.2l-1,1.8l0.3,2.6l0.1,2.5l-1.7,1.5l-1-0.1l-1.3-0.4l-1.1-0.1l-0.5,0.9l-0.4,1.6l-1,1.3l-2.5,1.8
	l-2.6-1l-2.2,1.8l-2.2,2.4l-2.5,1l0.9,1.1l-0.1,1.4l-0.5,1.7l-0.5,2.8l-1.9,3.9l-0.2,0.2l0,0.1l0.1,0.8l0.2,0.9l0.7,1.1l0.2,0.5
	l-0.1,0.9l-0.4,1.9l-0.2,0.1l-0.6,2.8l0.2,0.3l-0.4,0.4l-1.2,0.8l-0.1-0.4l-1.4,0.7l0,1.3l0.8,1.4l1,1.2l0.7,1.2l0.2,1.2l0.1,1.3
	l0.4,1.5l0.8,1.7l1.2,2.1l1.4,1.8l1.4,0.7l3.3,0.1l1.2,0.6l1.4,1.5l3.4,5.7l1.9,1.7l3.2,0.2l6.8-1.2l6.7-0.2l6.6,0.8l2.6,1.2
	l2.1,2.3l0.3,0.8l0.5,2.1l0.5,0.9l0.8,0.4l0.8-0.2l1.2-0.6l8.3,1.2V12.7L592.8,11.6z M505,155.6l-1.1-1.7l-3.1-3l-0.5,1.1l-0.5,0.1
	l-0.6-0.3l-0.7-0.2l-0.4-0.2l-0.8-0.9l-0.5-0.2l-0.4,0.1l-0.6,0.5l-0.4,0.1l-1,0.8l0.2,1.6l0.6,1.7l0.4,0.7l2,2.4l2.9,2l2.8,0.4
	l1.9-2.7L505,155.6z M441.1,359l-0.4-0.6l0.2-1.1l0.5-0.7l0.3-0.6l1.8-0.3l-0.9-1l-1.5-0.7l-2.1-0.7l-0.4-0.1l-2.4,2.8l0,1.5
	l-0.1,1.1l-0.5,0.9l-1.1,0.8l-0.6,0.1l-0.4-0.2l-0.4-0.4l-0.5-0.1l-0.4,0.4l-1,2.3l-1.7,2.1l-0.8,1.4l-0.3,1.6l0.6,0.8l1.4-0.7
	l2.1-1.8l9.3-4.7l0.5-1l-0.5-0.6L441.1,359z M403.6,120.9l-0.4-0.6l-0.2-0.4l-0.5,0.2l-0.1,0.3l-0.4,0.3l-0.3,0.5l0.5,0.9l0.6-0.1
	l0,0.1l0.3-0.1l0.8,0.1h0.5L403.6,120.9z M529.9,39l-1.5-0.7l-1.2-0.7l-0.6-0.6l-0.7,0.1l-0.7,0.3l-0.8,0.3l-1.1-0.1l0.5,1l0.7,0.8
	l1,0.2l1.2-0.6l1,0.7l1.3,0.6l1.3-0.1l0.9-1.1L529.9,39z M551.7,285.1l0-0.1l0.2-0.2l-0.2-0.2l-0.7-0.2l-3.8-0.4l-0.9-0.2l-1.8,0
	l-0.6,0.5l0.8,0.4l1.6,0.4l3.1,1.4h0.3l0.4,0.3l0.7,0.2l0.8-0.3l0.2-0.9L551.7,285.1z M507.1,35.6l-0.5-0.8l-0.6-1.9l-0.9-0.7
	l-1.4,0.2l-0.5,0.7l0.5,1.1l0.9,1.3l1.4,1l1.1,0.1L507.1,35.6z M572.3,249.1l-0.5-0.6h-0.6l-0.5,0.1l-0.5,0.3l-0.1,0.6l0.4,0.6
	l0.5,0.4h1.3l0.3-0.3L572.3,249.1z"/>
<path class="st2" d="M465.1,584.4l-2,2.7l-2.1,2.8l-5.7,3.8l-46.8,22.3l-2.2,2.4l-3.3,7.6l-2.7,2.7l-3,1.8l-2.8,2.2l-1.6,0.5
	l-1.5-0.6l-1.5-0.8l-1.5-0.2l-1.8,2l-0.7,7.7l-1.1,3.2l-3.5,3.2l-1.4,3.3l-1,1.4l-1.2,1.2l-1.3,1l-4.5,1.8l-9.2-0.2l-4.2,3.4
	l-5.5,9.8l-5.2,5.8l-1.3,2.2l-0.9,6.3l0.1,1.6l6.1,16.3l2.5,10l2.6,5.4l0.1,1.8l-0.5,3.6l0.4,3.4l2.1,6.7l0,3.2l-1.3,3.8l-5,10.5
	l-7.5,8.5l-8.6,13.9l-10.2,13.2l-2.1,1.2l-6,0.4l-2.4,0.6l-18.3,9.7c-1.3-5.8-2.6-11.6-3.9-17.4c-4-17.9-8-35.8-12-53.7
	c-3.9-17.6-7.8-35.2-11.7-52.8c-3.8-17.2-7.6-34.5-11.4-51.8l-0.9-1.8l-1.1-1.4c-14.7-10.6-29.4-21.2-44-31.8l-10.1-6.4l-2.4-2.5
	l-1-3.2c-0.6-7.9-1.2-15.8-1.9-23.6l-1.1-3.1c-5.4-8.4-10.7-16.7-16.1-25.1l-1.8-1.1l-1.7,0.4l-1.7-0.1l-1.7-0.5l-1.6-0.8l-9.1-6.5
	l-3-1l-3.9-0.4l-3-0.9l-2.1-2.3l-1.2-4.5l-0.1-13.3l-1.2-3.8c-3.8-6.7-7.7-13.4-11.5-20l-0.7-2.5l-0.8-5.1l-2.4-4.6l-0.6-1.7
	l-1.1-5.4l-0.4-3.8l1.7-9.9l0.2-7.2l0.3-0.8l0.8-1.9l5.1-5.3l2-2.6l2.2-2.4l3.2-1.6l5.2-0.9l1.6-0.8l1-1.2l0.7-1.6l3.1-11.7l1.6-3.4
	l3.2-2.4l7.1-3.1l1.2-0.9l2.2-1.6l7.8-3.5l4.1-3.6l1.9-1.2l0.6-0.7l0.4-0.7l0.6-1.7l0.5-0.9l2.9-1.9l0.6-1.1l-2.1-3.3l0.2-1.5l1-1.5
	l2.6-2.8l0.8-1l0.2-1.3l-1.5-10l-0.2-3.7l0.8-3.8l2-5.3l1.4-7.3l0.6-2l0.5-1.5l3.9-4.3l5-7.6l0.8-1.9l-2.8-2.2l-3.4-1.1l-3.1-1.5
	l-1.9-3.6l-0.5-4.1l0.2-3.6l0.9-3.5l2.9-7.1l0-3l-1.1-11.5l-1.4-3.3l-4-6.5l-1-3.5l-0.4-4.3l0.5-8l2.1-7.5l0.3-5.6l1.7-7.4l0.9-1.7
	l0.8-1.9l-0.2-1.8l-0.6-1.9l-0.4-2l0.4-4.2l3.9-10.9l0.1-0.3l0.3-1.6l0.1-4.2l0-0.1l-0.1-1.8l-0.5-1.3l-0.2-0.5v0l-1.3-0.8l-1.6-0.4
	l-1.6-0.9l-7.1-0.9l-3.4-1.4l0.2-3.5l1.9-2.4l2.4-1.5l5.3-2l9.9-6l1.8-2l1.9-3.5l0.7-3.6l0,0l-1.6-2.1v0l-2.9-1.5l0.5-1.6l2.5-1.2
	l3.2-0.4l3.1,0.2l2.8-0.6l5.7-2.3l1.5-1.1l0.1-1.2l-2.8-4.3l-0.3-1l0.1-1.2l-0.2-2.7c2.5-1,4.9-2,7.4-3l2-0.4h7l1.8-0.6l3.4-2.9h0
	l3.1-1.4l1.8-1.7l2.5-3.1l2.5-4.8l1.1-0.7l0.8-0.4l2.3-2.4l0.9-0.6l9-3.7l1-0.6l1.7-2.8l1.5-0.8h0l10.8-0.2l3.1-1.2l2-2.1l1.1-0.8
	l1.1,0.5l0.8,0.5h0l0.9-0.2l0.9-0.4l0.5-0.1l1.9-0.4l1.9-0.9l1.7-1.2l1.2-1.2l1.7,1l1.5-0.2l3-2.1l1.7-0.9l1.4-0.3l3.6-0.1l1.8-0.7
	l1-0.2l0.9,0.5l0.7,0.7l0.8,0.3l7,0.1v0l0,0.3l0.2,1l0,4.6v0l-2.5,2l-3.1,1.3l-1.7,2.5l0.3,0.8l1.3,2.8l0.4,0.7l0.5,0.3l0.5,1.4
	l0.7,0.3l3.6,0.5l1.6-0.3l1.8-1.5l1-1.4l0.9-1.9l0-1.7h0l-5.2-2.1l-0.8,0.1l-1.7,0.6h-1v-0.7l2-1.4l0.8-0.2l0.5-0.5v0l0.4-0.5
	l0.3-0.2l1.2-0.2l8,1.8l1.5-0.1l4.4-2l0.7,0.2l1.3,2h0l0.1,0l5.7,0.9l2.7,2.4l6.1,2.2l0.8,0.7l0.7,0.6l-2.6,0.7l-1.2,0.5l-1.1,0.8
	l-0.4-1.7v0l-2.3-0.3l-2.6,0.7l-1.5,1.3l0.6,1.7l2.1,0.8l2.5,0.1l1.6-0.4l1.3,2l0.1,0.2l0.2,0.8l-0.5,1.2l-0.6-1.5l-3.5,3.5l0.7,5
	l1.1,1.9l1.9,3.2l3.8,3.8l3,1.5l0.9,0.6l2.8,3.9l-0.4,1.2l-1.9,1.9v0l-0.8,2.1l0,0l-0.8,0.8l-1.1,0.2l-1.1-0.9l0.6-1.5l0,0l-0.8-0.4
	l-1.4,0.2l-2.6,0.8l-0.8,0.6h0l-1.4,1.9l-0.4,1.6l1.2,0.5l2.6,0.1l0.7,0.4l0.4,0.2l0.8-0.8l1.2-2.2l1.8,3.9l2.2,2.9l2.9,1.9l3.9,0.4
	l2.7-0.7h0l1.9-0.9l0.1,0l1.6-0.8l3-2.1h0l1.3-2.2v0l0.3-1.5l0.8-2.2l1.7-3.6l1.5-1.3l1.7-0.4l3.8,0.3l3.4-0.6l2.8-1.7l5.3-4.7
	l0.8-0.3l0.9-0.1l0.8-0.4l0.3-0.9l0.2-0.5l4.7-3.9v0l0.7-0.8l0.2-1.1l-0.3-0.7l-0.1-0.7l0.8-1l1.8-0.8l4.1-0.4l3.2-2.4l1.7-0.3
	l1.5,0.7l0.8,1.8l-0.1,0.9l-0.9,1.2l-0.2,1.1l0.2,1.1l0.8,1.4l0,0.2l0.1,0.8l0.2,0.5l0.1,0.2l1.4,2.1l0.5,1l0.2,1l0,0.1l0.1,2v0
	l0.2,0.8l0,0.2l0.4,0.8l0.5,1l0.6,0.7h0l0.4,0.3l0.5,0.6l-0.4,1.2l-0.6,1.1l-0.3,0.3l-0.7,1.2l-4.9,3.2l-4.8,5.3l-1,1.6l-2.1,5
	l-0.5,0.8l-5.9,9.2l-4.1,11l-2,2.2l-7.1,2l-6.4,3.2l-5.8,2.9l-2.4,2.2l-1.9,3l-1.5,3.7l-1.2,4l-0.8,4.2l-0.4,4.5l0.5,9.2l0.6,2.2
	l1,1.9l1.5,1.7l0.4,0.7l0.4,1l0.5,2.2l0.3,0.9l1.8,2.7l1.3,1.5l1.1,0.6l0.2,0.1l0.8,0.8l2.2,6.7l1.1,1.3l5.9,5.5l1.6,0.9l1.7,0.1
	l5.7-1l0.8,0.2l0.8,0.5l0.4,0.5l-0.3,0.3l-1.1,1l0.4,2.5l1.1,2.5l1,1.4l3.3,1.6l7.4,1.1l3.3,1.4l1.3,1.6l-0.1,1.9l-0.7,2.1l-0.4,2.3
	l0.2,2.4l0.7,2.1l1.2,1.5l1.8,0.5l-0.8,1.6l-1.3,3.5l-0.4,3.4l-0.8,3.3l-0.2,1.9l0.6,3.7l1.6,2.8l4.5,4.4l1.7,1.3l1.1,0.5l1.2,0.2
	v0.7l-2.1,0.1l-1.3,1.4l-1.9,3.5l-3.3,2.7l-1.5,1.6l-0.6,1.9l-0.3,4.7l-1.1,3.3l-1.9,2.6l-2.9,2.8l-2.1,3.5l-0.9,2.3l0.5,1l0.3,1.1
	l-1,2.4l-2.3,3.9l-0.7,0.8l-0.5,0.5l-0.3,0.6L407,354l-0.2,1.3l-0.6,0.3h-0.8l-0.8,0.5l-1.4,1.4l-2.6,1.9l-0.5,0.5l-0.8,0.7
	l-0.6,1.4l-0.6,4l-0.8,1.8l-1.4,1.6l-1.3,0.9l-5.5,1.8l-0.8,0.5l-0.3,0.7l-0.1,1l-0.4,1.2l-0.6,1l-1.6,0.9l-0.3,1l-0.1,1.1l-0.2,0.9
	l-0.5,0.6l-0.6,0.5l-0.8,0.5l-7.5,2.5l-2.8,1.5l-7.2,7.5l-1.1,0.8l-0.8,0l-0.8-0.4l-0.9,0l-1,0.4l-0.5,0.5l-0.3,0.6l-1.8,2.3
	l-0.8,0.7l-1.1,0.3l-3.9,1.7l-1.6,1.3l-3.3,1.3l-1.6,1.1l-1.8,2.5l-4.4,8l-0.5,2.3l-0.6,0.4l-0.7,0.8l-0.4,0.2l0.8,1.7l0.3,2l0,4.1
	l0.1,0.5l0.2,1.3l1.2,3.8l0.3,1.8l0.8,3.2l1.8,3.7l7.5,10.8l0.8,0.8l1.2,0.6L364,464l3.1,1.8l6.4,2.8l3.5,0.8l2.5-0.2l1-0.1
	l13.5-6.7l1.6,1.1l0.5,1.5l-0.7,10l-0.5,0.8l-1.3,0.5l-1,1.3l-0.4,1.6l0.5,1.5l2,3.3l1.1,1.2l1.7,0.5l3.5-0.8l6.2-3.8l2.9-0.9
	l1.4-0.6l1.3-1.5l0.6-1.9l-0.5-1.7l-1.4-1.6l-0.2-0.9l2.4-1.9l1,0.6l1,0.2l0.9-0.5l0.5-1.1h0.5l1.3,0.9l3.5,1.6l1.4,1l1.1,1.4
	l2.8,4.4l0.3,1l-0.3,2.5l0,14.3l1.9-0.3l1.6,1.8l1.6,2.1l1.9,1l2,0.5l1.9,1l2.3,1.2l1.1,0.4l1,0.3l-0.5,0.5l-0.2,0.1l-0.4,0.1
	l-1.4-0.5l-1.3-0.4l-5.3-1.8l-4-0.5l-1,3.1l0.8,1.1l1.3,1.1l0.5,0.5l0.8,0.9l0.6,2.1l0.8,1h1.8l3.6-0.7l2.1,0.5l1.4,0.3l6.9,2.5h3.6
	l1.4-0.9l-0.5-1.3l-1.4-1.2l-1.5-0.5l-0.9-0.6l-1.1-1.4l-1.3-1.3l7.4,5.3l4.5,2.1l0.5,0.2l0.1,4.4l-2.3,9.3l-0.2,1.5l0,5.4l-1.5,6.5
	l0.5,7.8l0.1,2.3l-1.2,10.2l0,3.2l0,2.1l1.4,3l0.3,0.7l5.5,5.4l1.9,3.5L465.1,584.4z"/>
<polygon class="st3" points="374.7,213.5 374.4,217.9 374.9,227.1 375.4,229.3 376.4,231.2 377.9,232.9 378.4,233.6 378.7,234.6 
	379.1,236.8 379.5,237.7 381.3,240.5 382.6,242 383.7,242.6 383.9,242.8 381.9,264.7 233.7,338.7 196.2,336.6 196.3,336.4 
	197.7,329.1 198.4,327.1 198.8,325.6 202.7,321.3 207.6,313.7 208.4,311.8 205.6,309.6 202.2,308.5 199.1,307 197.2,303.4 
	196.7,299.3 196.9,295.7 197.8,292.2 200.7,285.1 200.7,282.1 199.6,270.7 198.2,267.4 194.2,260.8 193.2,257.3 192.9,253 
	193.4,245 195.4,237.6 195.7,232 197.4,224.6 198.4,222.9 199.1,221 198.9,219.1 198.3,217.2 197.9,215.3 198.3,211.1 202.1,200.2 
	202.2,199.9 215.7,190.3 264.2,163.3 329.2,127.7 362.3,151.6 361.5,152.4 360.4,152.6 359.3,151.7 359.9,150.1 359.9,150.1 
	359.1,149.7 357.7,149.9 355,150.8 354.2,151.4 354.2,151.4 352.9,153.4 352.4,154.9 353.6,155.4 356.2,155.5 356.9,155.8 
	357.2,156.1 358,155.3 359.3,153 361,156.9 363.2,159.8 366.1,161.7 370,162.1 372.7,161.4 372.7,161.4 374.6,160.6 390.1,171.9 
	388.2,193.4 382.5,196.3 380,198.5 378.2,201.5 376.7,205.2 375.5,209.2 "/>
<path class="st4" d="M465.1,584.4l-2,2.7l-2.1,2.8l-5.7,3.8l-46.8,22.3l-2.2,2.4l-3.3,7.6l-2.7,2.7l-3,1.8l-2.8,2.2l-1.6,0.5
	l-1.5-0.6l-1.5-0.8l-1.5-0.2l-1.8,2l-0.7,7.7l-1.1,3.2l-3.5,3.2l-1.4,3.3l-1,1.4l-1.2,1.2l-1.3,1l-4.5,1.8l-9.2-0.2l-4.2,3.4
	l-5.5,9.8l-5.2,5.8l-1.3,2.2l-0.9,6.3l0.1,1.6l6.1,16.3l2.5,10l2.6,5.4l0.1,1.8l-0.5,3.6l0.4,3.4l2.1,6.7l0,3.2l-1.3,3.8l-5,10.5
	l-7.5,8.5l-8.6,13.9l-10.2,13.2l-2.1,1.2l-6,0.4l-2.4,0.6l-18.3,9.7c-1.3-5.8-2.6-11.6-3.9-17.4c-4-17.9-8-35.8-12-53.7
	c-3.9-17.6-7.8-35.2-11.7-52.8c-3.8-17.2-7.6-34.5-11.4-51.8l-0.9-1.8l-1.1-1.4c-14.7-10.6-29.4-21.2-44-31.8l-10.1-6.4l-2.4-2.5
	l-1-3.2c-0.6-7.9-1.2-15.8-1.9-23.6l-1.1-3.1c-5.4-8.4-10.7-16.7-16.1-25.1l-1.8-1.1l-1.7,0.4l-1.7-0.1l-1.7-0.5l-1.6-0.8l-9.1-6.5
	l-3-1l-3.9-0.4l-3-0.9l-2.1-2.3l-1.2-4.5l-0.1-13.3l-1.2-3.8c-3.8-6.7-7.7-13.4-11.5-20l-0.7-2.5l-0.8-5.1l-2.4-4.6l-0.6-1.7
	l-1.1-5.4l-0.4-3.8l1.7-9.9l0.2-7.2l0.3-0.8l0.8-1.9l5.1-5.3l2-2.6l2.2-2.4l3.2-1.6l5.2-0.9l1.6-0.8l1-1.2l0.7-1.6l3.1-11.7l1.6-3.4
	l3.2-2.4l7.1-3.1l1.2-0.9l139.5,9.2l29.4,63.1l33,39.1l84,50.8l0.1,2.3l-1.2,10.2l0,3.2l0,2.1l1.4,3l0.3,0.7l5.5,5.4l1.9,3.5
	L465.1,584.4z"/>
<path class="st5" d="M431.2,311.3v0.7l-2.1,0.1l-1.3,1.4l-1.9,3.5l-3.3,2.7l-1.5,1.6l-0.6,1.9l-0.3,4.7l-1.1,3.3l-1.9,2.6l-2.9,2.8
	l-2.1,3.5l-0.9,2.3l0.5,1l0.3,1.1l-1,2.4l-2.3,3.9l-0.7,0.8l-0.5,0.5l-0.3,0.6L407,354l-0.2,1.3l-0.6,0.3h-0.8l-0.8,0.5l-1.4,1.4
	l-2.6,1.9l-1.3,1.1l-0.6,1.4l-0.6,4l-0.8,1.8l-1.4,1.6l-1.3,0.9l-5.5,1.8l-0.8,0.5l-0.3,0.7l-0.1,1l-0.4,1.2l-0.6,1l-1.6,0.9l-0.3,1
	l-0.1,1.1l-0.2,0.9l-0.5,0.6l-0.6,0.5l-0.8,0.5l-7.5,2.5l-2.8,1.5l-7.2,7.5l-1.1,0.8l-0.8,0l-0.8-0.4l-0.9,0l-1,0.4l-0.5,0.5
	l-0.3,0.6l-1.8,2.3l-0.8,0.7l-1.1,0.3l-3.9,1.7l-1.6,1.3l-3.3,1.3l-1.6,1.1l-1.8,2.5l-4.4,8l-0.5,2.3l-0.6,0.4l-0.7,0.8l-0.4,0.2
	l0.8,1.7l0.3,2l0,4.1l0.3,1.8l1.2,3.8l0.3,1.8l0.8,3.2l1.8,3.7l7.5,10.8l0.8,0.8l1.2,0.6L364,464l3.1,1.8l6.4,2.8l3.5,0.8l3.6-0.3
	l13.5-6.7l1.6,1.1l0.5,1.5l-0.7,10l-0.5,0.8l-1.3,0.5l-1,1.3l-0.4,1.6l0.5,1.5l2,3.3l1.1,1.2l1.7,0.5l3.5-0.8l6.2-3.8l2.9-0.9
	l1.4-0.6l1.3-1.5l0.6-1.9l-0.5-1.7l-1.4-1.6l-0.2-0.9l2.4-1.9l1,0.6l1,0.2l0.9-0.5l0.5-1.1h0.5l1.3,0.9l3.5,1.6l1.4,1l1.1,1.4
	l2.8,4.4l0.3,1l-0.3,2.5l0,14.3c-8.2-0.4-18,5.9-18,5.9s-12.2-6.6-23-11.2c-10.8-4.6-19.4-11.1-29.4-20.1c-10-9-14.1-5.4-17.7-11.4
	c-3.6-6-13.9-12.2-13.9-12.2s-4.6-4.3-8.6-17.7c-4-13.4,0-31.2,0-31.2l1.3-6.2c3.8-1.1,11.5-11.6,17.9-16.5c6.3-4.9,29.1-15,33.2-18
	c4.1-3,5.2-8.4,10.1-14.7c4.9-6.3,8.9-18.5,10.1-38.7c0.4-7,0.1-13-0.7-18.3c-1.5-10-4.6-17.1-7.2-21.7c-4-7.1-5.7-14.5-13-25.8
	s-22-25.6-22-25.6l-4.9-5.5l-0.1-0.1c-7.5-9.6,1.2-21.7-2.3-28.3c-5-9.4-19.5-1.8-24.6-6.2s-4.2-14-4.2-14l0-15l32.4-35.1l5.7,0.9
	l2.7,2.4l6.1,2.2l0.8,0.7l0.7,0.6l-2.6,0.7l-1.2,0.5l-1.1,0.8l-0.4-1.7v0l-2.3-0.3l-2.6,0.7l-1.5,1.3l0.6,1.7l2.1,0.8l2.5,0.1
	l1.6-0.4l1.3,2l0.1,0.2l0.2,0.8l-0.5,1.2l-0.6-1.5l-3.5,3.5l0.7,5l1.1,1.9l1.9,3.2l3.8,3.8l3,1.5l0.9,0.6l2.8,3.9l-0.4,1.2l-1.9,1.9
	v0l-0.8,2.1l-0.9,0.8l-1.1,0.2l-1.1-0.9l0.6-1.5l0,0l-0.8-0.4l-1.4,0.2l-2.6,0.8l-0.8,0.6h0l-1.4,1.9l-0.4,1.6l1.2,0.5l2.6,0.1
	l0.7,0.4l0.4,0.2l0.8-0.8l1.2-2.2l1.8,3.9l2.2,2.9l2.9,1.9l3.9,0.4l2.7-0.7h0l1.9-0.9l1.6-0.8l3-2.1h0l1.3-2.2v0l0.3-1.5l0.8-2.2
	l1.7-3.6l1.5-1.3l1.7-0.4l3.8,0.3l3.4-0.6l2.8-1.7l5.3-4.7l0.8-0.3l0.9-0.1l0.8-0.4l0.3-0.9l0.2-0.5l4.7-3.9v0l0.7-0.8l0.2-1.1
	l-0.3-0.7l-0.1-0.7l0.8-1l1.8-0.8l4.1-0.4l3.2-2.4l1.7-0.3l1.5,0.7l0.8,1.8l-0.1,0.9l-0.9,1.2l-0.2,1.1l0.2,1.1l0.8,1.4l0,0.2
	l0.1,0.8l0.2,0.5l0.1,0.2l1.4,2.1l0.5,1l0.2,1l0,0.1l0.1,2v0l0.2,0.8l0,0.2l0.4,0.8l0.5,1l0.6,0.7h0l0.4,0.3l0.5,0.6l-0.4,1.2
	l-0.6,1.1l-0.3,0.3l-0.7,1.2l-4.9,3.2l-4.8,5.3l-1,1.6l-2.1,5l-0.5,0.8l-5.9,9.2l-4.1,11l-2,2.2l-7.1,2l-12.2,6.1l-2.4,2.2l-1.9,3
	l-1.5,3.7l-1.2,4l-0.8,4.2l-0.4,4.5l0.5,9.2l0.6,2.2l1,1.9l1.5,1.7l0.4,0.7l0.4,1l0.5,2.2l0.3,0.9l1.8,2.7l1.3,1.5l1.1,0.6l1,0.9
	l2.2,6.7l1.1,1.3l5.9,5.5l1.6,0.9l1.7,0.1l5.7-1l0.8,0.2l0.8,0.5l0.4,0.5l-0.3,0.3l-1.1,1l0.4,2.5l1.1,2.5l1,1.4l3.3,1.6l7.4,1.1
	l3.3,1.4l1.3,1.6l-0.1,1.9l-0.7,2.1l-0.4,2.3l0.2,2.4l0.7,2.1l1.2,1.5l1.8,0.5l-0.8,1.6l-1.3,3.5l-0.4,3.4l-0.8,3.3l-0.2,1.9
	l0.6,3.7l1.6,2.8l4.5,4.4l1.7,1.3l1.1,0.5L431.2,311.3z"/>
<path class="st6" d="M465.1,584.4l-2,2.7l-20.4-13.7l-14.9-9.1c0,0-12.1-8.5-19.4-17.2s-20.5-22.9-28.8-14.4c0,0-5.1,4.3-4.4,15.2
	c0.8,10.8,4.4,27.4-2.4,33.3c-6.7,5.9-1.4-5.5-12.4-25.1c-11-19.5-29.8-51.5-35.5-57.1s-3.9-25.4-10.3-28.6
	c-6.3-3.2-17.9,1.1-22-2.3c0,0-1.9-2.5,0.8-4.1c2.7-1.6,3.4-0.8,6.6-3c1.3-0.9,2.2-1.7,2.8-2.3c1-1,2.1-1.7,3.5-2.2l6.2-2.1
	c2.6-0.9,3.9-3.8,2.8-6.3l-3.6-8.1l-3.5-5.1c0,0-20.1-15-47.1-14.1c-31.2,1-44.6,14.1-44.6,14.1l-16.9,3.2c0,0-5.9,1.4-11.5,0
	c-5.5-1.4-7.4-2.6-10.4-2.8c-3-0.2-14.4-6.6-14.4-6.6l-8.4-1.6h-22.1l0.8-1.9l5.1-5.3l2-2.6l2.2-2.4l3.2-1.6l5.2-0.9l1.6-0.8l1-1.2
	l0.7-1.6l3.1-11.7l1.6-3.4l3.2-2.4l7.1-3.1l3.4-2.4l7.8-3.5l4.1-3.6l1.9-1.2l0.6-0.7l0.4-0.7l0.6-1.7l0.5-0.9l2.9-1.9l0.6-1.1
	l-0.1-0.1l-2-3.2l0.2-1.5l1-1.5l2.6-2.8l0.8-1l0.2-1.3l0,0l-1.5-10l-0.2-3.7l0.8-3.8l2-5.3l1.4-7.3l0.6-2l0.3-0.3
	c2.1-0.3,3.2-0.5,5.7-0.7c11.5-0.7,13.6-1.9,16.4-4.1c1.3-1,1.4-2.9,1.1-4.7c-0.4-2.3-1.5-4.3-3.2-6c-2-2-4.9-5.2-5-7
	c-0.1-2.9,7.3-5.5,12.4-5c3.3,0.4,3.8,3.4,3.7,5.6c0,1.3,0.4,2.5,1.3,3.4c1.4,1.4,2.5,3.3,3.4,5.5c1.1,2.8,1,6-0.1,8.7
	c-1.1,2.5-2.3,4.7-3.6,6.5c-1,1.4-1.6,3.1-1.3,4.8c0.2,1.3,0.9,2.3,2.1,2.9c4.2,0.4,9-3.3,14-8.3c0.8-0.9,2.1-1.2,3.2-1
	c0.6,0.1,1.2,0.1,1.9,0c6.1-2.1,9.1-5.4,8.4-9.9c-0.1-0.9-0.6-1.6-1.3-2.2c-2.6-2.2-9.5-8.4-10.5-12.3c-1.2-4.8,4.1-16.9,13.3-16.6
	c9.1,0.3-2.6,12.7,1.1,16.6c3.7,3.9,11.6-7.1,15.3-12.4c2.5-3.6,0-7.5-1.9-9.6c-0.9-1-0.6-2.6,0.5-3.3c1-0.6,2.6-1.3,4.8-2.1
	c8.5-3,19.3,4.2,27.5,3.4s19.9-12.6,24.2-20.1c4.3-7.4,15-21.8,23.6-26.9c4.6-2.8,10.5,2.8,10.5,2.8l38.9,48.9l-5,75.9l-0.8,0.7
	l-0.6,1.4l-0.6,4l-0.8,1.8l-1.4,1.6l-1.3,0.9l-5.5,1.8l-0.8,0.5l-0.3,0.7l-0.1,1l-0.4,1.2l-0.6,1l-1.6,0.9l-0.3,1l-0.1,1.1l-0.2,0.9
	l-0.5,0.6l-0.6,0.5l-0.8,0.5l-7.5,2.5l-2.8,1.5l-7.2,7.5l-1.1,0.8l-0.8,0l-0.8-0.4l-0.9,0l-1,0.4l-0.5,0.5l-0.3,0.6l-1.8,2.3
	l-0.8,0.7l-1.1,0.3l-3.9,1.7l-1.6,1.3l-3.3,1.3l-1.6,1.1l-1.8,2.5l-4.4,8l-0.5,2.3l-0.6,0.4l-0.7,0.8l-0.4,0.2l0.8,1.7l0.3,2l0,4.1
	l0.3,1.8l1.2,3.8l0.3,1.8l0.8,3.2l1.8,3.7l7.5,10.8l0.8,0.8l1.2,0.6L364,464l3.1,1.8l6.4,2.8l3.5,0.8l3.6-0.3l13.5-6.7l1.6,1.1
	l0.5,1.5l-0.7,10l-0.5,0.8l-1.3,0.5l-1,1.3l-0.4,1.6l0.5,1.5l2,3.3l1.1,1.2l1.7,0.5l3.5-0.8l6.2-3.8l2.9-0.9l1.4-0.6l1.3-1.5
	l0.6-1.9l-0.5-1.7l-1.4-1.6l-0.2-0.9l2.4-1.9l1,0.6l1,0.2l0.9-0.5l0.5-1.1h0.5l1.3,0.9l3.5,1.6l1.4,1l1.1,1.4l2.8,4.4l0.3,1
	l-0.3,2.5l0,14.3l1.9-0.3l1.6,1.8l1.6,2.1l1.9,1l2,0.5l1.9,1l0.5,1.7l-5.3-1.8l-4-0.5l-1,3.1l0.8,1.1l1.3,1.1l0.5,0.5l0.8,0.9
	l0.6,2.1l0.8,1h1.8l3.6-0.7l2.1,0.5l1.4,0.3l6.9,2.5h3.6l1.4-0.9l-0.5-1.3l-1.4-1.2l-1.5-0.5l-0.9-0.6l-1.1-1.4l-1.3-1.3l7.4,5.3
	l4.5,2.1l0.5,0.2l0.1,4.4l-2.3,9.3l-0.2,1.5l0,5.4l-1.5,6.5l0.6,10.1l-1.2,10.2l0,3.2l0,2.1l1.4,3l0.3,0.7l5.5,5.4l1.9,3.5
	L465.1,584.4z"/>
<path class="st3" d="M428.1,148.2L428.1,148.2l0.6-1.1L428.1,148.2z M428.2,145.1l-0.6-0.7L428.2,145.1L428.2,145.1z M417.4,158.3
	l-1,1.6l-2.1,5l2.1-5L417.4,158.3l4.8-5.3l4.9-3.2v0l-4.9,3.2L417.4,158.3z M426.6,142.4l-0.2-0.8l-0.1-2.1l0.1,2.1L426.6,142.4z
	 M423.7,133.8l0.1,0.8l0.2,0.5l-0.2-0.5L423.7,133.8z M422.9,129.9l0.9-1.2l0.1-0.9l-0.8-1.8h0l0.8,1.8l-0.1,0.9L422.9,129.9z
	 M363.1,149.5l1.9-1.9L363.1,149.5L363.1,149.5z M362.3,151.6L362.3,151.6l-0.9,0.8L362.3,151.6z M353.1,133.4l1.9,3.2l3.8,3.8
	l-3.8-3.8L353.1,133.4z M355.9,123.2l-0.2-0.8L355.9,123.2l-0.5,1.2L355.9,123.2z M352.9,153.4l1.4-1.9h0L352.9,153.4z M353.9,116.3
	l-2.3-0.3L353.9,116.3L353.9,116.3z M341.9,107.2l1.3,2h0L341.9,107.2L341.9,107.2z M325.5,100.9l0-0.3L325.5,100.9l0.2,1l0,4.6
	l0-4.6L325.5,100.9z M320,109.9l3.1-1.3l2.5-2v0l-2.5,2L320,109.9z M209.3,159.4L209.3,159.4l-2.9-1.5L209.3,159.4z M201.7,190.3
	L201.7,190.3l-1.3-0.8L201.7,190.3z M197.3,188.3l1.6,0.9l1.6,0.4l-1.6-0.4L197.3,188.3z M441.1,359l-0.5-0.6l0.2-1.1l0.5-0.6
	l0.3-0.6l1.8-0.3l-0.9-1l-1.5-0.7l-2.1-0.7l-0.4-0.1l-2.4,2.8l0,1.5l-0.1,1.1l-0.5,0.9l-1.1,0.8l-0.6,0.2l-0.4-0.3l-0.4-0.3
	l-0.5-0.1l-0.4,0.3l-1,2.3l-1.7,2.1l-0.8,1.4l-0.3,1.6l0.6,0.8l1.4-0.7l2.2-1.8l9.3-4.7l0.5-1l-0.5-0.6L441.1,359z M422.9,453
	l-1.4-0.9l-1.6-0.8l-1.6-1l-2.6-2.4l-2.4-3l-2.6,1.7l-3.6-0.2l-6.6-1.5l-3,1.2l-1,2.6l0.1,7.7l-0.6,3.6l0.1,1.8l1,1.3l1.4,0.2
	l1.3-0.6l2.4-1.8l1.3-0.1l1.4,0.5l1.3,1.1l1,2l0.1,1.1l-0.1,1.6l0.2,1.6l0.9,0.9l0.3-1.5l0.6-1.2l3.9-4.5l1.2-1.1l1.3-0.5l-0.3,0.9
	l-0.2,2.6h0.5l0.8-3.2l0.4-0.8l0.5-0.5l1.4-0.6l5.5-5L422.9,453z M417.8,368.5l-1.4,0.4L416,370l0.8,1l3.5,1.4l0.8,0.6l0.8-0.1
	l4.8-2.9l0.2-0.3l0.4-1.1L417.8,368.5z M403.6,120.9l-0.4-0.6l-0.2-0.4l-0.4,0.2l-0.1,0.3l-0.4,0.3l-0.3,0.5l0.5,0.9l0.6-0.1l0,0.1
	l0.3-0.1l0.8,0.1h0.5L403.6,120.9z M251.5,79.8l-0.4-0.4v-0.4l-0.2-0.2l-0.3-0.1l-0.5,0.7l-1.3,0.4l-1,0.6l-0.9,0.8l1.2,0.6l0.9-0.5
	l0.9-0.4l1,0.3l0.7-0.1L251.5,79.8z"/>
<polygon class="st7" points="186.9,186 187,182.5 186.9,186 "/>
<polygon class="st7" points="202.4,192.2 202.6,193.9 202.4,192.2 201.9,190.8 "/>
<polygon class="st7" points="196.6,176.6 206.5,170.6 196.6,176.7 191.3,178.6 "/>
<polygon class="st7" points="210.9,161.5 210.9,161.5 210.2,165.1 "/>
<polygon class="st7" points="218.5,154.3 224.2,152 218.5,154.3 215.7,154.9 "/>
<polygon class="st7" points="222.9,145.4 225.8,149.7 222.9,145.4 222.7,144.3 "/>
<polygon class="st7" points="238.9,137 240.7,136.4 238.9,137 231.9,137 229.9,137.4 231.9,137 "/>
<polygon class="st7" points="247.2,132 249,130.3 247.2,132 244.1,133.4 "/>
<polygon class="st7" points="258.3,118.7 259.1,118.2 258.3,118.8 "/>
<polygon class="st7" points="283.1,110.2 286.3,108.9 283.1,110.2 272.3,110.3 "/>
<polygon class="st7" points="288.3,106.8 289.4,106 288.3,106.8 "/>
<polygon class="st7" points="292.3,106.8 293.1,106.3 292.3,106.8 291.4,107 "/>
<polygon class="st7" points="300.4,102.6 300.4,102.6 299.2,103.8 "/>
<polygon class="st7" points="303.5,103.3 306.5,101.2 303.5,103.3 302,103.5 "/>
<polygon class="st7" points="320.3,116.7 320.7,116.9 320.7,116.9 "/>
<polygon class="st7" points="325.4,100.6 318.4,100.4 317.6,100.1 318.4,100.4 325.4,100.6 "/>
<polygon class="st7" points="325,108.7 325.5,108.2 325.5,108.3 325,108.7 324.2,108.9 "/>
<polygon class="st7" points="325.5,119.2 327.1,118.9 325.5,119.2 321.9,118.8 321.2,118.4 321.9,118.7 "/>
<polygon class="st7" points="330.8,112.5 330.9,114.1 330.8,112.5 "/>
<polygon class="st7" points="354.3,120.2 352.7,120.6 354.3,120.2 "/>
<polygon class="st7" points="356.2,155.5 356.9,155.8 356.2,155.5 353.6,155.4 "/>
<polygon class="st7" points="358.5,115.4 357.7,114.7 351.6,112.5 357.7,114.7 "/>
<polygon class="st7" points="359.3,153 359.3,153 358,155.3 "/>
<polygon class="st7" points="359.9,150.1 359.9,150.1 359.3,151.7 359.3,151.7 "/>
<polygon class="st7" points="361.8,142 362.7,142.6 362.7,142.6 361.8,142 358.8,140.5 "/>
<polygon class="st7" points="376.2,159.8 379.3,157.6 376.3,159.8 372.7,161.4 "/>
<polygon class="st7" points="379.3,157.6 380.6,155.5 379.3,157.6 "/>
<polygon class="st7" points="403.7,139.3 404.4,138.9 403.7,139.3 402.7,139.5 "/>
<polygon class="st7" points="405,137.5 409.7,133.6 409.7,133.6 "/>
<polygon class="st7" points="410.1,130.3 410.3,131 410.3,131 "/>
<polygon class="st7" points="410.4,132.8 410.6,131.7 410.3,131 410.6,131.7 "/>
<path class="st5" d="M378.4,294.7c0,0-13.2-5.9-16.7-14.1l0.7-9l7.6-2.5l5,3l-0.1,13h3.6l5.6,2.7L378.4,294.7z"/>
<path class="st0" d="M317.2,443v-6.8h-16.7c0,0-5.8,5-13.4,6.8s-7.6,1.9-7.6,1.9s-19.2-11.1-34.1-12.4l-17,3l-17.1-3.6l-6,1.9
	l-7.4,2l-7.6,14.4l-6.3-2.6l-18.4,3.6l-4.7-2.9l-6.3,5.1l4,6.4l3.7,6.4h5.8l0.3,1.7h9.4l4.7,7.4h2.7l2.3-2.1l1.1,0.6l-0.4,7.8
	l1.9,1.1l4.3-2.1l0.6,5.1l1.3,0.9l4.6-2.7l2.7,6.1l5,1.9l2.3,1.1l6.7-2.7l7.3,4.3l2.4-9.3l6.3-3.6h1.7l0.6,5.1l1.9-1l1.9-4.9l4-8.8
	l3.9-1.6l-5-12.3l-15.4-4.4l-1.3-3.8h1.6l16.1,4l-3.9-4l-2.7-2.9l-1.9-1.3l0.8-1.7l-1.6-3.1l1.6-2.4l7.2,0.1l3.7-1.7h2.3l1.3,5.6
	l-0.9,2.1l7.8,10l23.5-2.6l9-8l10.3-0.6l7.1-1.9L317.2,443z"/>
<polygon class="st0" points="180.5,429.4 176.6,432.5 168.9,430 160.5,432.5 154.9,427.3 140.8,427.3 134.3,428.4 128.9,425 
	137.2,423 145.5,420.2 150.9,419.2 158.3,417.1 164.3,416.4 170.6,416.4 175.6,420.2 175.6,426 "/>
<path class="st2" d="M366.1,298l-3.1-2.5h-5.5c0,0-1.9,4.1,0.6,8.3C358.1,303.8,362,300.2,366.1,298z"/>
<polygon class="st8" points="418.6,543.8 417.5,541.6 415.9,534.6 411,537.1 411,543.8 "/>
<polygon class="st8" points="413.7,499 418.6,489.4 412.6,492.5 408.3,499 "/>
<path class="st9" d="M353.9,116.3L353.9,116.3l-2.3-0.3l-2.6,0.7l-1.5,1.3l0.6,1.7l2.1,0.8l2.5,0.1l1.6-0.4l1.3,2l0.1,0.2l0.2,0.8
	l-0.5,1.2l-0.6-1.5l-3.5,3.5c0,0-14.5-4.2-22,1.2c-7.5,5.4-3,11.5-3,15.4c0,2.1-1.9,4.1-3.7,5.6c-1.5,1.2-3.3,2-5.2,2.6
	c-4.8,1.4-6.3,7.9-6.3,7.9l-1.5-0.1c-0.9-0.1-1.8-0.6-2.3-1.4l-4.2-6.3c-1.2-1.8-3.7-2.1-5.3-0.6l-8.8,8.2c-1,0.9-1.5,2.1-1.5,3.4
	v1.7c0,0.9-8.9,6.6-8.9,6.6l-2.4,1.7c-0.5,0.3-0.3,1,0.3,1.1c10.7,2.2,7.5-1.4,8.6,11.4c1.2,13.3-8.2,17.1-13.8,17.8
	c-5.6,0.7-12.6-1.2-13.3-4.4c-0.5-2.5,5-5.4,7.7-6.6c0.9-0.4,1.6-1.2,2-2.2l2.1-5.8c0.4-1,0.3-2.1-0.2-3l-3.6-7.4
	c-0.4-0.8-1.1-1.2-2-1.2h-9.1c-1.8,0-3.6,0.4-5.3,1.2l-11.6,5.8l-6.6,3.9c-1.2,0.7-2,1.8-2.3,3.1l-3.9,15.6
	c-0.3,1.2-0.9,2.3-1.9,3.2c-9.6,9.2-25.3,10.3-25.3,10.3l0.4-4.2l3.9-10.9l0.3-1.9l0.1-4.2l0-0.1l-0.1-1.8l-0.5-1.3l-0.2-0.5v0
	l-1.3-0.8l-1.6-0.4l-1.6-0.9l-7.1-0.9l-3.4-1.4l0.2-3.5l1.9-2.4l2.4-1.5l5.3-2l9.9-6l1.8-2l1.9-3.5l0.7-3.6l0,0l-1.6-2.1v0l-2.9-1.5
	l0.5-1.6l2.5-1.2l3.2-0.4l3.1,0.2l2.8-0.6l5.7-2.3l1.5-1.1l0.1-1.2l-2.8-4.3l-0.3-1l0.1-1.2l-0.2-2.7c2.5-1,4.9-2,7.4-3l2-0.4h7
	l1.8-0.6l3.4-2.9h0l3.1-1.4l1.8-1.7l2.5-3.1l2.5-4.8l1.1-0.7l0.8-0.4l2.3-2.4l0.9-0.6l9-3.7l1-0.6l1.7-2.8l1.5-0.8h0l10.8-0.2
	l3.1-1.2l2-2.1l1.1-0.8l1.1,0.5l0.8,0.5h0l0.9-0.2l0.9-0.4l0.5-0.1l1.9-0.4l1.9-0.9l1.7-1.2l1.2-1.2l1.7,1l1.5-0.2l3-2.1l1.7-0.9
	l1.4-0.3l3.6-0.1l1.8-0.7l1-0.2l0.9,0.5l0.7,0.7l0.8,0.3l7,0.1v0l0,0.3l0.2,1l0,4.6v0l-2.5,2l-3.1,1.3l-1.7,2.5l0.3,0.8l1.3,2.8
	l0.4,0.7l0.5,0.3l0.5,1.4l0.7,0.3l3.6,0.5l1.6-0.3l1.8-1.5l1-1.4l0.9-1.9l0-1.7h0l-5.2-2.1l-0.8,0.1l-1.7,0.6h-1v-0.7l2-1.4l0.8-0.2
	l0.5-0.5v0l0.4-0.5l0.3-0.2l1.2-0.2l8,1.8l1.5-0.1l4.4-2l0.7,0.2l1.3,2h0l5.8,0.9l2.7,2.4l6.1,2.2l0.8,0.7l0.7,0.6l-2.6,0.7
	l-1.2,0.5l-1.1,0.8L353.9,116.3z"/>
<path class="st0" d="M305.8,113.4c0,0-1.2,1.8-2.4,1.9c-8.8,1.6,1.8,9.8,4.6,4.5c1.3,5.5,8-0.4,7.2-2.7c0,0-2.8-1.1-3.7-0.5
	s-3.3-0.3-3.9-1.1S307.8,113.1,305.8,113.4z"/>
<path class="st9" d="M426.4,141.6c-4.3,1-8.6,4.2-12.1,6.7c-20.4,14.2-13.3,26.2-24.1,23.6c-10.8-2.5-2.5-7.4-5-11.2
	c-2.5-3.8-10.5,0-10.5,0l0-0.1l1.6-0.8l3-2.1h0l1.3-2.2v0l0.3-1.5l0.8-2.2l1.7-3.6l1.5-1.3l1.7-0.4l3.8,0.3l3.4-0.6l2.8-1.7l5.3-4.7
	l0.8-0.3l0.9-0.1l0.8-0.4l0.3-0.9l0.2-0.5l4.7-3.9v0l0.7-0.8l0.2-1.1l-0.3-0.7l-0.1-0.7l0.8-1l1.8-0.8l4.1-0.4l3.2-2.4l1.7-0.3
	l1.5,0.7l0.8,1.8l-0.1,0.9l-0.9,1.2l-0.2,1.1l0.2,1.1l0.8,1.4l0,0.2l0.1,0.8l0.2,0.5l0.1,0.2l1.4,2.1l0.5,1l0.2,1l0,0.1L426.4,141.6
	z"/>
<path class="st2" d="M221.4,394.9c0.1,0.8,0.8,1.4,1.6,1.5c0.8,0.1,1.6-0.1,2.4-0.4c1.1-0.3,2.2-0.7,2.8-1.6c0.6-0.8,0.6-2,1.2-2.8
	c0.1-0.1,0.2-0.3,0.1-0.4c0-0.1-0.1-0.1-0.2-0.2c-0.9-0.4-1.9,0.1-2.6,0.6c-0.8,0.5-1.5,1.2-2.4,1.5c-0.6,0.2-1.2,0.1-1.8,0.3
	C222.1,393.6,221.3,394.3,221.4,394.9L221.4,394.9z"/>
<path class="st2" d="M232.1,379c0.1,1.1,0,2.2-0.2,3.3c-9-1.4-18.1-2.8-27.1-1.7c-1.1,0.1-2.3,0.3-3.2-0.4c-0.5-0.4-0.8-1-1.1-1.6
	c-0.7-1.5-1.4-2.9-2.1-4.3c-0.3-0.7-0.7-1.4-1.2-1.9c-0.4-0.4-0.9-0.6-1.5-0.9c-1.1-0.4-2.2-0.7-3.3-0.9l-2-3.2l0.2-1.5l1-1.5
	l2.6-2.8l0.8-1l0.2-1.3l0,0c1.9-0.1,3.4-0.2,3.7-0.2c0.2,0,0.5,0,0.7,0.1c0.4,0.2,0.7,0.7,0.9,1.1c0.8,1.5,1.6,3,2.6,4.3
	c2.3,2.8,5.6,4.5,8.9,6.1c1.9,1,3.9,2,5.9,2.6c1.8,0.5,3.6,0.9,5.4,1.3c1.8,0.5,3.5,1.2,5.2,1.9c0.9,0.4,1.7,0.7,2.6,1
	c0.3,0.1,0.7,0.3,0.9,0.6C232.1,378.4,232.1,378.7,232.1,379z"/>
<path class="st2" d="M243.5,350.7c2-0.3,4.2,0,6.1-0.6c2.3-0.7,3.8-2.8,5.7-4.2c0.3-0.2,0.7-0.4,1.1-0.4c0.4,0,0.8,0.4,1.1,0.7
	c1,1,2,2.1,1.9,3.5c0,0.5-0.3,1-0.5,1.5c-2,4-5.4,7.2-9.4,9.1c-1.7,0.8-3.6,1.4-5.5,1.3s-3.8-0.9-5-2.4c-0.9-1.3-1.2-3-1-4.6
	C238.1,354.6,238.5,351.5,243.5,350.7z"/>
<path class="st2" d="M246.5,388.3c-1.1,1.1-0.9,3.4-0.7,3.9c0.4,0.9,0.7,1.3,1.2,2.1c0.6,0.8,1.2,1.6,2.2,1.9c0.5,0.2,1,0.2,1.5,0.2
	c1.1,0,2.2,0.1,3.4,0c1.7-0.2,3.3-0.7,5-1.2c4.3-1.1,7.5-0.9,12.1-1.9c1.3-0.3,3.6-0.8,4.8-1.4c0.9-0.4,2.5-1.2,3.2-1.9
	c1.7-1.5,2.7-6.3,1.9-7.8c-0.3-0.6-1.4-0.7-1.6-0.7c-1.2-0.1-4.2,0-4.8,0c-1.4,0.2-2.6,1-3.9,1.7c-2.4,1.2-5.1,1.5-7.8,1.9
	c-1.5,0.2-3.1,0.4-4.6,0.1c-0.9-0.2-1.8-0.5-2.7-0.7c0,0,0,0,0,0c-1.4-0.3-2.9-0.1-4.1,0.6C249.9,386,247.6,387.3,246.5,388.3z"/>
<path class="st2" d="M281.4,351.7c-1,0.5-2.1-0.1-2.2-1.2c-0.2-2.2-0.8-3.3-1.4-5.2c-2.2-7.4,8.2-7.5,11.8-7.8
	c1.8-0.1,3.7-0.2,5.2,0.7c1,0.6,1.8,1.6,2.9,2c1,0.4,4.2,1.1,5.3,0.8c8.3-2.3,12.9-9.5,20.5-13.5c1.7-0.9,3.5-1.7,5.4-1.6
	c1.9,0,3.9,1.1,4.5,2.9c0.4,1.3,0,2.8-0.7,3.9s-1.8,2.1-2.9,2.9c-5.3,4.3-10.7,8.4-16.3,12.3c-0.8,0.6-1.7,1.2-2.3,2
	c-0.5,0.7-0.7,1.5-1,2.4l-2.6,8.8c-0.3,0.9-0.8,1.6-1.6,2c-2.1,1-3.5-1.1-3.6-2.9c0-1.5,0.5-2.9,0.5-4.4c0-0.8-0.1-1.6-0.6-2.2
	c-0.5-0.6-1.5-0.8-2.1-0.3c-0.3,0.2-0.4,0.6-0.6,0.9c-0.7,1.6-1.4,3.2-2.1,4.8c-0.3,0.7-0.6,1.4-1.2,1.8c-0.5,0.4-1.1,0.5-1.7,0.6
	c-2.1,0.3-4.3,0.7-6.4,1c-1.9,0.3-3.8,0.6-5.6,1.5c-2.2,1.1-3.9,2.9-5.5,4.7c-2.4,2.6-4.8,5.4-8.7,5.8c-1.2,0.1-2.5-0.2-3.5-0.9
	c-0.2-0.1-0.5-0.3-0.5-0.5c-0.2-0.4,0.1-0.8,0.3-1.2c1.4-2.1,2.3-4.6,2.7-7.1c0.3-1.7,0.4-3.5,1.6-4.7c1-0.9,2.5-1.1,3.9-1.3
	c2.3-0.3,4.6-0.8,6.8-1.4c2.3-0.6,4.7-1.5,6.6-3c1.7-1.3,3-3.1,3.3-5.2c0.1-0.5-0.4-0.8-0.8-0.7
	C287.2,348.9,283.9,350.4,281.4,351.7z"/>
<path class="st2" d="M305.5,302.8c0,0.8,0.7,1.3,1.4,1c1.7-0.7,3-1.8,3.5-3.1c0.9-1.2,1.3-2.9,1.1-5.2c-0.7-0.8-1.7-1.2-3.3-0.9
	c-0.5,0.1-0.9,0.4-1.1,0.9C306.2,297.6,305.7,300.2,305.5,302.8z"/>
<path class="st2" d="M339.3,319c0.2,0.2,0.6,0.2,0.9,0c1.2-1,1.2-2.6,0.6-4.1c-1-2.4-2.4-3.1-3.6-2.6c-0.4,0.1-0.7,0.5-0.6,1
	C336.7,315.2,337.5,317.4,339.3,319z"/>
<path class="st5" d="M353.8,256c0.1-0.2,0.2-0.4,0.4-0.4c0.2-0.1,0.4-0.1,0.6-0.1c0.5,0,0.9,0.1,1.4,0.1c0.4,0.1,0.8,0.1,1.2,0.1
	c0.9-0.2,1.4-1,1.8-1.8c1.2-2.4,2.3-4.8,3.2-7.2c0.2-0.6,0.5-1.3,0.5-2c0-0.2-0.1-0.5-0.2-0.6c-0.3-0.3-0.9,0-1.2,0.3
	c-3.5,2.8-6.3,5.4-9.9,8.1c-0.6,0.4-1.2,1.2-1.4,1.9c-0.1,0.5,0.1,1.7,0.4,2.2c0.4,0.8,1.5,2.1,2.4,3.1c0.3,0.3,0.8,0.1,0.8-0.4
	C353.5,258,353.4,256.6,353.8,256z"/>
<path class="st9" d="M229.6,286.9c1-0.2,1.9,0.7,1.6,1.7c-0.6,2.6-2.6,5.3-4.9,6.3c-3.3,1.5-7.2,1.4-10.8,1.3c-1.3,0-2.5,0-3.8-0.1
	c-0.4,0-0.9-0.1-1.2-0.4c-0.2-0.2-0.4-0.6-0.4-0.9c-0.6-2.9,0.8-6.1,3.4-7.6c0.9-0.5,2-0.8,3.1-1.1c1-0.3,2.1-0.6,3.1-0.4
	c1.4,0.2,2.5,1,3.7,1.6C224.8,287.8,227.7,287.3,229.6,286.9z"/>
<path class="st9" d="M295.5,257.8c2.6-0.7,4.5-2.9,5.9-5.1c1.4-2.3,2.6-4.8,4.4-6.7c2.2-2.3,5.2-3.6,8-5.2c2.8-1.6,5.5-3.9,6.2-7
	c0.1-0.5,0.2-1.1,0-1.6c-0.3-0.8-1.2-1.1-2-1.3c-3.7-1-7.6,0-11,1.6c-2.3,1.1-4.6,2.4-6.1,4.5c-3.5,4.9-1.9,12.1-5.4,16.9"/>
<path class="st3" d="M427.7,482.4l0,14.3c-8.2-0.4-18,5.9-18,5.9s-12.2-6.6-23-11.2c-10.8-4.6-19.4-11.1-29.4-20.1
	c-10-9-14.1-5.4-17.7-11.4c-3.6-6-13.9-12.2-13.9-12.2s-4.6-4.3-8.6-17.7c-4-13.4,0-31.2,0-31.2l1.3-6.2
	c3.8-1.1,11.5-11.6,17.9-16.5c6.3-4.9,29.1-15,33.2-18c4.1-3,5.2-8.4,10.1-14.7c4.9-6.3,8.9-18.5,10.1-38.7c0.4-7,0.1-13-0.7-18.3
	l0,0c0,0,8.1,2.4,10.4,8.3c2.3,5.9,1.8,8.1,3.9,9c2.1,0.9,12.1-0.7,15,2.9s-0.7,8.8,7.3,10.4l-3.3,2.7l-1.5,1.6l-0.6,1.9l-0.3,4.7
	l-1.1,3.3l-1.9,2.6l-2.9,2.8l-2.1,3.5l-0.9,2.3l0.5,1l0.3,1.1l-1,2.4l-2.3,3.9l-0.7,0.8l-0.5,0.5l-0.3,0.6L407,354l-0.2,1.3
	l-0.6,0.3h-0.8l-0.8,0.5l-1.4,1.4l-2.6,1.9l-1.3,1.1l-0.6,1.4l-0.6,4l-0.8,1.8l-1.4,1.6l-1.3,0.9l-5.5,1.8l-0.8,0.5l-0.3,0.7l-0.1,1
	l-0.4,1.2l-0.6,1l-1.6,0.9l-0.3,1l-0.1,1.1l-0.2,0.9l-0.5,0.6l-0.6,0.5l-0.8,0.5l-7.5,2.5l-2.8,1.5l-7.2,7.5l-1.1,0.8l-0.8,0
	l-0.8-0.4l-0.9,0l-1,0.4l-0.5,0.5l-0.3,0.6l-1.8,2.3l-0.8,0.7l-1.1,0.3l-3.9,1.7l-1.6,1.3l-3.3,1.3l-1.6,1.1l-1.8,2.5l-4.4,8
	l-0.5,2.3l-0.6,0.4l-0.7,0.8l-0.4,0.2l0.8,1.7l0.3,2l0,4.1l0.3,1.8l1.2,3.8l0.3,1.8l0.8,3.2l1.8,3.7l7.5,10.8l0.8,0.8l1.2,0.6
	L364,464l3.1,1.8l6.4,2.8l3.5,0.8l3.6-0.3l13.5-6.7l1.6,1.1l0.5,1.5l-0.7,10l-0.5,0.8l-1.3,0.5l-1,1.3l-0.4,1.6l0.5,1.5l2,3.3
	l1.1,1.2l1.7,0.5l3.5-0.8l6.2-3.8l2.9-0.9l1.4-0.6l1.3-1.5l0.6-1.9l-0.5-1.7l-1.4-1.6l-0.2-0.9l2.4-1.9l1,0.6l1,0.2l0.9-0.5l0.5-1.1
	h0.5l1.3,0.9l3.5,1.6l1.4,1l1.1,1.4l2.8,4.4l0.3,1L427.7,482.4z"/>
<path class="st10" d="M297.6,123.1c-2.2,5.9-5.5,11.9-9.2,15.2c-1.4,0.9-24.7,11.4-25.2,12.3c-11.1,0.8-12.7,2.7-20.9,8.6
	c-8.3,6-7.9,4.8-16.3,8.1c-8.4,3.3-6,6.5-9.4,5.9c-3.5-0.6-10-2.6-10-2.6l1.8-2l1.9-3.5l0.7-3.6l0,0l-1.6-2.1v0l-2.9-1.5l0.5-1.6
	l2.5-1.2l3.2-0.4l3.1,0.2l2.8-0.6l5.7-2.3l1.5-1.1l0.1-1.2l-2.8-4.3l-0.3-1l0.1-1.2l-0.2-2.7c2.5-1,4.9-2,7.4-3l2-0.4h7l1.8-0.6
	l3.4-2.9h0l3.1-1.4l1.8-1.7l2.5-3.1l2.5-4.8l1.1-0.7l0.8-0.4l2.3-2.4l0.9-0.6l9-3.7l1-0.6l1.7-2.8l1.5-0.8h0l10.8-0.2l3.1-1.2l2-2.1
	l1.1-0.8l1.1,0.5l0.8,0.5h0l0.9-0.2l0.9-0.4l0.5-0.1c-1.6,2.3-1.5,3.8-1.5,3.8S298.1,121.2,297.6,123.1z"/>
<path class="st9" d="M331.9,215.8c-1.2,1.7-1,4,0.4,5.4c1.9,1.9,3.6,1.5,5.6,0.7c2.5-0.9,6.4-4.3,8.3-8.4s6.3-5.4,12.4-6.3
	c6.1-0.9,2.7-5.5,1.1-11.5c-0.9-3.4-5,0.1-11.5-1c-1-0.2-2.2,0.6-2,1.6c0.6,4.1-1.4,11.2-10.1,15.8
	C334,213.4,332.7,214.7,331.9,215.8z"/>
<path class="st2" d="M323.3,396.8l4-8.4l-8.7,4.2l-8-2l-0.9,9C309.7,399.6,316,399.9,323.3,396.8z"/>
<g>
	<circle class="st3" cx="35.7" cy="736.7" r="6"/>
</g>
<g>
	<circle class="st6" cx="35.7" cy="754.8" r="6"/>
</g>
<g>
	<circle class="st4" cx="35.7" cy="772.8" r="6"/>
</g>
<g>
	<circle class="st2" cx="35.7" cy="718.6" r="6"/>
</g>
<g>
	<g>
		<circle class="st5" cx="35.7" cy="700.5" r="6"/>
	</g>
</g>
<g>
	<circle class="st9" cx="35.7" cy="682.4" r="6"/>
</g>
<g>
	<circle class="st10" cx="35.7" cy="664.3" r="6"/>
</g>
<g>
	<g>
		<g>
			<path class="st11" d="M52.5,667.9v-8.8H54v8.8H52.5z M53.4,664.3v-1.4h5v1.4H53.4z M58,667.9v-8.8h1.5v8.8H58z"/>
			<path class="st11" d="M63.3,668c-0.5,0-0.9-0.1-1.1-0.2s-0.5-0.3-0.6-0.6s-0.2-0.5-0.3-0.9s-0.1-0.7-0.1-1v-3.8h1.5v4
				c0,0.4,0.1,0.7,0.3,0.8s0.4,0.2,0.7,0.2s0.5,0,0.8-0.1s0.5-0.2,0.7-0.4c0.2-0.2,0.4-0.4,0.5-0.6l0.1,0.8h-0.3v-4.7h1.5v6.3h-1.1
				l-0.3-1.2h0.4c-0.2,0.3-0.5,0.5-0.7,0.7s-0.6,0.3-0.9,0.5C63.9,668,63.6,668,63.3,668z"/>
			<path class="st11" d="M68.4,667.9v-6.3h1.1l0.3,1.2l-0.4,0c0.2-0.3,0.5-0.5,0.8-0.7c0.3-0.2,0.6-0.3,0.9-0.5
				c0.3-0.1,0.6-0.2,1-0.2c0.4,0,0.8,0.1,1.1,0.2c0.3,0.2,0.4,0.3,0.6,0.6c0.1,0.2,0.2,0.5,0.2,0.9s0.1,0.6,0.1,1v3.8h-1.5v-4
				c0-0.4-0.1-0.7-0.3-0.8c-0.2-0.1-0.4-0.2-0.6-0.2c-0.3,0-0.7,0.1-1,0.3c-0.3,0.2-0.6,0.5-0.8,0.8l-0.1-0.8h0.3v4.7L68.4,667.9
				L68.4,667.9z M76.4,667.9v-4c0-0.4-0.1-0.7-0.3-0.8c-0.2-0.1-0.4-0.2-0.6-0.2c-0.4,0-0.7,0.1-1,0.3c-0.3,0.2-0.6,0.5-0.8,0.8
				l-0.3-1.3c0.2-0.3,0.5-0.5,0.7-0.7s0.6-0.3,0.9-0.5s0.6-0.2,1-0.2c0.4,0,0.8,0.1,1.1,0.2c0.3,0.2,0.4,0.3,0.6,0.6
				c0.1,0.2,0.2,0.5,0.2,0.9s0.1,0.6,0.1,1v3.8L76.4,667.9L76.4,667.9z"/>
			<path class="st11" d="M79.2,659.6c0-0.3,0.1-0.5,0.2-0.7s0.4-0.3,0.7-0.3c0.3,0,0.5,0.1,0.7,0.3c0.2,0.2,0.3,0.4,0.3,0.7
				s-0.1,0.5-0.3,0.7c-0.2,0.2-0.4,0.3-0.7,0.3c-0.3,0-0.5-0.1-0.7-0.3C79.3,660.1,79.2,659.8,79.2,659.6z M80.9,667.9h-1.5v-6.3
				h1.5V667.9z"/>
			<path class="st11" d="M85.1,668c-0.6,0-1.1-0.1-1.5-0.4s-0.8-0.7-1-1.2c-0.2-0.5-0.4-1.1-0.4-1.7s0.1-1.2,0.4-1.7s0.6-0.9,1-1.2
				s0.9-0.4,1.5-0.4c0.6,0,1.1,0.1,1.5,0.4c0.4,0.3,0.8,0.7,1,1.1c0.2,0.5,0.3,1.1,0.3,1.8c0,0.7-0.1,1.2-0.3,1.8
				c-0.2,0.5-0.6,0.9-1,1.2C86.1,667.9,85.6,668,85.1,668z M85.3,666.7c0.5,0,0.9-0.2,1.2-0.5s0.4-0.8,0.4-1.4
				c0-0.6-0.2-1.1-0.4-1.4c-0.3-0.4-0.7-0.5-1.2-0.5s-0.9,0.2-1.2,0.5c-0.3,0.4-0.5,0.8-0.5,1.4c0,0.6,0.2,1.1,0.5,1.4
				C84.4,666.5,84.8,666.7,85.3,666.7z M87.2,667.9l-0.4-1.4H87v-3.4h-0.1V659h1.5v8.8L87.2,667.9L87.2,667.9z"/>
		</g>
	</g>
</g>
<g>
	<g>
		<g>
			<path class="st11" d="M55.3,686.2c-0.5,0-0.9-0.1-1.4-0.2s-0.8-0.4-1.2-0.7c-0.4-0.3-0.7-0.7-0.9-1.2l1.2-0.7
				c0.3,0.5,0.6,0.9,1,1.1c0.4,0.2,0.8,0.3,1.3,0.3c0.5,0,0.8-0.1,1.1-0.3s0.4-0.5,0.4-0.9c0-0.2,0-0.4-0.2-0.6
				c-0.1-0.2-0.3-0.3-0.6-0.5c-0.3-0.1-0.7-0.3-1.2-0.4c-0.7-0.2-1.2-0.4-1.6-0.6s-0.7-0.5-0.8-0.9c-0.2-0.3-0.2-0.7-0.2-1.1
				c0-0.5,0.1-0.9,0.3-1.3s0.6-0.7,1-0.9s1-0.3,1.6-0.3c0.7,0,1.3,0.1,1.8,0.4s0.9,0.7,1.2,1.1l-1.2,0.8c-0.2-0.3-0.5-0.5-0.8-0.7
				c-0.3-0.1-0.6-0.2-0.9-0.2c-0.5,0-0.8,0.1-1,0.3c-0.2,0.2-0.4,0.4-0.4,0.8c0,0.3,0.1,0.5,0.3,0.7s0.7,0.4,1.4,0.6
				c0.7,0.2,1.3,0.4,1.7,0.6c0.4,0.2,0.7,0.5,0.9,0.9c0.2,0.3,0.3,0.8,0.3,1.2c0,0.5-0.1,0.9-0.4,1.3s-0.6,0.7-1.1,0.9
				C56.5,686.1,55.9,686.2,55.3,686.2z"/>
			<path class="st11" d="M61.6,686.1c-0.5,0-0.9-0.1-1.1-0.2s-0.5-0.3-0.6-0.6s-0.2-0.5-0.3-0.9s-0.1-0.7-0.1-1v-3.8H61v4
				c0,0.4,0.1,0.7,0.3,0.8s0.4,0.2,0.7,0.2s0.5,0,0.8-0.1s0.5-0.2,0.7-0.4c0.2-0.2,0.4-0.4,0.5-0.6l0.1,0.8h-0.3v-4.7h1.5v6.3H64
				l-0.3-1.2h0.4c-0.2,0.3-0.5,0.5-0.7,0.7c-0.3,0.2-0.6,0.3-0.9,0.5C62.2,686.1,61.9,686.1,61.6,686.1z"/>
			<path class="st11" d="M66.7,686v-8.8h1.5v4.1h-0.1v3.4h0.1l-0.4,1.4L66.7,686L66.7,686z M70,686.1c-0.6,0-1.1-0.1-1.5-0.4
				c-0.4-0.3-0.8-0.7-1-1.2s-0.4-1.1-0.4-1.8c0-0.7,0.1-1.3,0.3-1.8s0.6-0.9,1-1.1c0.4-0.3,0.9-0.4,1.5-0.4c0.6,0,1.1,0.1,1.5,0.4
				s0.8,0.7,1,1.2s0.4,1.1,0.4,1.7s-0.1,1.2-0.4,1.7s-0.6,0.9-1,1.2C71.1,686,70.6,686.1,70,686.1z M69.8,684.8
				c0.5,0,0.9-0.2,1.2-0.5c0.3-0.4,0.5-0.8,0.5-1.4c0-0.6-0.2-1-0.5-1.4c-0.3-0.4-0.7-0.5-1.2-0.5s-0.9,0.2-1.2,0.5
				s-0.5,0.8-0.5,1.4c0,0.6,0.2,1.1,0.5,1.4C68.9,684.6,69.3,684.8,69.8,684.8z"/>
			<path class="st11" d="M74.1,686v-8.8h1.5v8.8H74.1z M78.3,686v-4c0-0.4-0.1-0.7-0.3-0.8c-0.2-0.1-0.4-0.2-0.7-0.2
				c-0.2,0-0.5,0-0.8,0.2c-0.3,0.1-0.5,0.2-0.7,0.4s-0.4,0.4-0.5,0.6l-0.3-1.3c0.2-0.3,0.5-0.5,0.8-0.7c0.3-0.2,0.6-0.3,0.9-0.5
				c0.3-0.1,0.7-0.2,1-0.2c0.4,0,0.8,0.1,1.1,0.2c0.3,0.2,0.5,0.3,0.6,0.6c0.1,0.2,0.2,0.5,0.2,0.9s0.1,0.6,0.1,1v3.8L78.3,686
				L78.3,686z"/>
			<path class="st11" d="M83.3,686.1c-0.5,0-0.9-0.1-1.1-0.2s-0.5-0.3-0.6-0.6s-0.2-0.5-0.3-0.9c-0.1-0.3-0.1-0.7-0.1-1v-3.8h1.5v4
				c0,0.4,0.1,0.7,0.3,0.8s0.4,0.2,0.7,0.2s0.5,0,0.8-0.1s0.5-0.2,0.7-0.4c0.2-0.2,0.4-0.4,0.5-0.6l0.1,0.8h-0.3v-4.7h1.5v6.3h-1.1
				l-0.3-1.2h0.4c-0.2,0.3-0.5,0.5-0.7,0.7s-0.6,0.3-0.9,0.5C84,686.1,83.7,686.1,83.3,686.1z"/>
			<path class="st11" d="M88.5,686v-6.3h1.1l0.3,1.2l-0.4,0c0.2-0.3,0.5-0.5,0.8-0.7c0.3-0.2,0.6-0.3,0.9-0.5c0.3-0.1,0.6-0.2,1-0.2
				c0.4,0,0.8,0.1,1.1,0.2c0.3,0.2,0.4,0.3,0.6,0.6c0.1,0.2,0.2,0.5,0.2,0.9s0.1,0.6,0.1,1v3.8h-1.5v-4c0-0.4-0.1-0.7-0.3-0.8
				c-0.2-0.1-0.4-0.2-0.6-0.2c-0.3,0-0.7,0.1-1,0.3c-0.3,0.2-0.6,0.5-0.8,0.8l-0.1-0.8H90v4.7L88.5,686L88.5,686z M96.4,686v-4
				c0-0.4-0.1-0.7-0.3-0.8c-0.2-0.1-0.4-0.2-0.6-0.2c-0.4,0-0.7,0.1-1,0.3c-0.3,0.2-0.6,0.5-0.8,0.8l-0.3-1.3
				c0.2-0.3,0.5-0.5,0.7-0.7s0.6-0.3,0.9-0.5s0.6-0.2,1-0.2c0.4,0,0.8,0.1,1.1,0.2c0.3,0.2,0.4,0.3,0.6,0.6c0.1,0.2,0.2,0.5,0.2,0.9
				s0.1,0.6,0.1,1v3.8L96.4,686L96.4,686z"/>
			<path class="st11" d="M99.3,677.7c0-0.3,0.1-0.5,0.2-0.7s0.4-0.3,0.7-0.3c0.3,0,0.5,0.1,0.7,0.3c0.2,0.2,0.3,0.4,0.3,0.7
				s-0.1,0.5-0.3,0.7c-0.2,0.2-0.4,0.3-0.7,0.3c-0.3,0-0.5-0.1-0.7-0.3C99.4,678.2,99.3,677.9,99.3,677.7z M101,686h-1.5v-6.3h1.5
				V686z"/>
			<path class="st11" d="M105.1,686.1c-0.6,0-1.1-0.1-1.5-0.4s-0.8-0.7-1-1.2c-0.2-0.5-0.4-1.1-0.4-1.7s0.1-1.2,0.4-1.7
				s0.6-0.9,1-1.2s0.9-0.4,1.5-0.4c0.6,0,1.1,0.1,1.5,0.4c0.4,0.3,0.8,0.7,1,1.1c0.2,0.5,0.3,1.1,0.3,1.8c0,0.7-0.1,1.2-0.3,1.8
				c-0.2,0.5-0.6,0.9-1,1.2C106.2,686,105.7,686.1,105.1,686.1z M105.4,684.8c0.5,0,0.9-0.2,1.2-0.5s0.4-0.8,0.4-1.4
				c0-0.6-0.2-1.1-0.4-1.4c-0.3-0.4-0.7-0.5-1.2-0.5s-0.9,0.2-1.2,0.5c-0.3,0.4-0.5,0.8-0.5,1.4c0,0.6,0.2,1.1,0.5,1.4
				C104.5,684.6,104.9,684.8,105.4,684.8z M107.3,686l-0.4-1.4h0.1v-3.4h-0.1v-4.1h1.5v8.8L107.3,686L107.3,686z"/>
		</g>
	</g>
</g>
<g>
	<g>
		<g>
			<path class="st11" d="M55.3,704.3c-0.5,0-0.9-0.1-1.4-0.2s-0.8-0.4-1.2-0.7c-0.4-0.3-0.7-0.7-0.9-1.2l1.2-0.7
				c0.3,0.5,0.6,0.9,1,1.1c0.4,0.2,0.8,0.3,1.3,0.3c0.5,0,0.8-0.1,1.1-0.3s0.4-0.5,0.4-0.9c0-0.2,0-0.4-0.2-0.6
				c-0.1-0.2-0.3-0.3-0.6-0.5c-0.3-0.1-0.7-0.3-1.2-0.4c-0.7-0.2-1.2-0.4-1.6-0.6s-0.7-0.5-0.8-0.9c-0.2-0.3-0.2-0.7-0.2-1.1
				c0-0.5,0.1-0.9,0.3-1.3s0.6-0.7,1-0.9s1-0.3,1.6-0.3c0.7,0,1.3,0.1,1.8,0.4s0.9,0.7,1.2,1.1l-1.2,0.8c-0.2-0.3-0.5-0.5-0.8-0.7
				c-0.3-0.1-0.6-0.2-0.9-0.2c-0.5,0-0.8,0.1-1,0.3c-0.2,0.2-0.4,0.4-0.4,0.8c0,0.3,0.1,0.5,0.3,0.7s0.7,0.4,1.4,0.6
				c0.7,0.2,1.3,0.4,1.7,0.6c0.4,0.2,0.7,0.5,0.9,0.9c0.2,0.3,0.3,0.8,0.3,1.2c0,0.5-0.1,0.9-0.4,1.3s-0.6,0.7-1.1,0.9
				C56.5,704.2,55.9,704.3,55.3,704.3z"/>
			<path class="st11" d="M62.3,704.2c-0.6,0-1.2-0.1-1.6-0.4c-0.5-0.3-0.8-0.7-1.1-1.2c-0.3-0.5-0.4-1.1-0.4-1.7
				c0-0.7,0.1-1.2,0.4-1.8c0.3-0.5,0.6-0.9,1.1-1.2c0.5-0.3,1-0.4,1.6-0.4s1.2,0.1,1.7,0.4c0.5,0.3,0.8,0.7,1.1,1.2s0.4,1.1,0.4,1.7
				c0,0.1,0,0.2,0,0.2c0,0.1,0,0.2,0,0.2h-4.9v-1.2h3.8l-0.3,0.7c0-0.6-0.1-1.1-0.4-1.5c-0.3-0.4-0.7-0.6-1.3-0.6
				c-0.5,0-0.9,0.2-1.2,0.5c-0.3,0.3-0.5,0.7-0.5,1.2v0.7c0,0.5,0.2,1,0.5,1.3s0.7,0.5,1.2,0.5c0.5,0,0.8-0.1,1.1-0.3
				c0.3-0.2,0.5-0.5,0.7-0.7l1.1,0.7c-0.3,0.5-0.7,0.9-1.1,1.2S63,704.2,62.3,704.2z"/>
			<path class="st11" d="M66.6,704.1v-6.3h1.1l0.3,1.2l-0.4,0c0.2-0.3,0.5-0.5,0.8-0.7c0.3-0.2,0.6-0.3,0.9-0.5
				c0.3-0.1,0.6-0.2,1-0.2c0.4,0,0.8,0.1,1.1,0.2c0.3,0.2,0.4,0.3,0.6,0.6c0.1,0.2,0.2,0.5,0.2,0.9s0.1,0.6,0.1,1v3.8h-1.5v-4
				c0-0.4-0.1-0.7-0.3-0.8c-0.2-0.1-0.4-0.2-0.6-0.2c-0.3,0-0.7,0.1-1,0.3c-0.3,0.2-0.6,0.5-0.8,0.8l-0.1-0.8h0.3v4.7L66.6,704.1
				L66.6,704.1z M74.5,704.1v-4c0-0.4-0.1-0.7-0.3-0.8c-0.2-0.1-0.4-0.2-0.6-0.2c-0.4,0-0.7,0.1-1,0.3c-0.3,0.2-0.6,0.5-0.8,0.8
				l-0.3-1.3c0.2-0.3,0.5-0.5,0.7-0.7s0.6-0.3,0.9-0.5s0.6-0.2,1-0.2c0.4,0,0.8,0.1,1.1,0.2c0.3,0.2,0.4,0.3,0.6,0.6
				c0.1,0.2,0.2,0.5,0.2,0.9s0.1,0.6,0.1,1v3.8L74.5,704.1L74.5,704.1z"/>
			<path class="st11" d="M77.4,695.8c0-0.3,0.1-0.5,0.2-0.7s0.4-0.3,0.7-0.3c0.3,0,0.5,0.1,0.7,0.3c0.2,0.2,0.3,0.4,0.3,0.7
				s-0.1,0.5-0.3,0.7c-0.2,0.2-0.4,0.3-0.7,0.3c-0.3,0-0.5-0.1-0.7-0.3C77.4,696.2,77.4,696,77.4,695.8z M79.1,704.1h-1.5v-6.3h1.5
				V704.1z"/>
			<path class="st11" d="M84.2,701h-4v-1.4h4V701z"/>
			<path class="st11" d="M87.4,704.2c-0.5,0-0.9-0.1-1.2-0.3s-0.6-0.4-0.8-0.8c-0.2-0.3-0.3-0.7-0.3-1.1c0-0.4,0.1-0.8,0.3-1.1
				s0.5-0.6,0.8-0.8s0.8-0.3,1.2-0.3c0.6,0,1.1,0.1,1.5,0.4c0.4,0.3,0.6,0.7,0.8,1.2l-0.8,0v-1.6c0-0.3-0.1-0.5-0.3-0.7
				s-0.5-0.3-0.9-0.3c-0.2,0-0.5,0-0.8,0.1s-0.6,0.2-0.9,0.3l-0.5-1.1c0.4-0.2,0.8-0.3,1.2-0.4s0.8-0.1,1.2-0.1c0.6,0,1,0.1,1.4,0.3
				c0.4,0.2,0.6,0.5,0.8,0.8c0.2,0.3,0.3,0.8,0.3,1.2v4.2h-1.2l-0.3-1.2l0.7-0.2c-0.2,0.5-0.4,0.9-0.8,1.2S88,704.2,87.4,704.2z
				 M87.8,703c0.3,0,0.6-0.1,0.8-0.2s0.3-0.4,0.3-0.7c0-0.3-0.1-0.5-0.3-0.7c-0.2-0.2-0.5-0.2-0.8-0.2s-0.6,0.1-0.8,0.2
				s-0.3,0.4-0.3,0.7c0,0.3,0.1,0.5,0.3,0.7S87.4,703,87.8,703z"/>
			<path class="st11" d="M93,697.7l0.4,1.7v4.6h-1.5v-6.3L93,697.7L93,697.7z M93.2,700.2l-0.3-0.1v-1.1l0.1-0.2
				c0.1-0.2,0.2-0.3,0.4-0.5c0.2-0.2,0.4-0.3,0.7-0.5c0.3-0.1,0.5-0.2,0.8-0.2c0.1,0,0.2,0,0.4,0s0.2,0,0.3,0.1v1.4h-0.4
				c-0.6,0-1,0.1-1.3,0.3S93.3,699.8,93.2,700.2z"/>
			<path class="st11" d="M96.3,695.8c0-0.3,0.1-0.5,0.2-0.7s0.4-0.3,0.7-0.3c0.3,0,0.5,0.1,0.7,0.3c0.2,0.2,0.3,0.4,0.3,0.7
				s-0.1,0.5-0.3,0.7c-0.2,0.2-0.4,0.3-0.7,0.3c-0.3,0-0.5-0.1-0.7-0.3C96.4,696.2,96.3,696,96.3,695.8z M98,704.1h-1.5v-6.3H98
				V704.1z"/>
			<path class="st11" d="M102.2,704.2c-0.6,0-1.1-0.1-1.5-0.4s-0.8-0.7-1-1.2c-0.2-0.5-0.4-1.1-0.4-1.7s0.1-1.2,0.4-1.7
				s0.6-0.9,1-1.2s0.9-0.4,1.5-0.4c0.6,0,1.1,0.1,1.5,0.4c0.4,0.3,0.8,0.7,1,1.1c0.2,0.5,0.3,1.1,0.3,1.8c0,0.7-0.1,1.2-0.3,1.8
				c-0.2,0.5-0.6,0.9-1,1.2C103.2,704.1,102.7,704.2,102.2,704.2z M102.4,702.9c0.5,0,0.9-0.2,1.2-0.5s0.4-0.8,0.4-1.4
				c0-0.6-0.2-1.1-0.4-1.4c-0.3-0.4-0.7-0.5-1.2-0.5s-0.9,0.2-1.2,0.5c-0.3,0.4-0.5,0.8-0.5,1.4c0,0.6,0.2,1.1,0.5,1.4
				S101.9,702.9,102.4,702.9z M104.3,704.1l-0.4-1.4h0.1v-3.4H104v-4.1h1.5v8.8L104.3,704.1L104.3,704.1z"/>
			<path class="st11" d="M111.8,704.1l-2-6.3h1.5l1.3,4.8h-0.3l1.5-4.8h1.3l1.5,4.8h-0.3l1.3-4.8h1.5l-2,6.3h-1.3l-1.5-4.8h0.3
				l-1.5,4.8H111.8z"/>
			<path class="st11" d="M119.9,695.8c0-0.3,0.1-0.5,0.2-0.7s0.4-0.3,0.7-0.3c0.3,0,0.5,0.1,0.7,0.3c0.2,0.2,0.3,0.4,0.3,0.7
				s-0.1,0.5-0.3,0.7c-0.2,0.2-0.4,0.3-0.7,0.3c-0.3,0-0.5-0.1-0.7-0.3C119.9,696.2,119.9,696,119.9,695.8z M121.6,704.1H120v-6.3
				h1.5V704.1z"/>
			<path class="st11" d="M122.7,699.1v-1.4h3.9v1.4H122.7z M125.7,704.2c-0.6,0-1.1-0.2-1.4-0.5c-0.3-0.3-0.5-0.9-0.5-1.6v-4.3v-0.1
				l0.3-1.5h1.2v5.7c0,0.3,0.1,0.5,0.2,0.6c0.1,0.1,0.3,0.2,0.5,0.2c0.1,0,0.3,0,0.4,0c0.1,0,0.2,0,0.3-0.1v1.4
				c-0.1,0-0.3,0.1-0.4,0.1C126,704.2,125.9,704.2,125.7,704.2z"/>
			<path class="st11" d="M128,704.1v-8.8h1.5v8.8H128z M132.2,704.1v-4c0-0.4-0.1-0.7-0.3-0.8c-0.2-0.1-0.4-0.2-0.7-0.2
				c-0.2,0-0.5,0-0.8,0.2c-0.3,0.1-0.5,0.2-0.7,0.4s-0.4,0.4-0.5,0.6l-0.3-1.3c0.2-0.3,0.5-0.5,0.8-0.7c0.3-0.2,0.6-0.3,0.9-0.5
				c0.3-0.1,0.7-0.2,1-0.2c0.4,0,0.8,0.1,1.1,0.2c0.3,0.2,0.5,0.3,0.6,0.6c0.1,0.2,0.2,0.5,0.2,0.9s0.1,0.6,0.1,1v3.8L132.2,704.1
				L132.2,704.1z"/>
			<path class="st11" d="M139.9,704.1l-2-6.3h1.5l1.3,4.8h-0.3l1.5-4.8h1.3l1.5,4.8h-0.3l1.3-4.8h1.5l-2,6.3h-1.3l-1.5-4.8h0.3
				l-1.5,4.8H139.9z"/>
			<path class="st11" d="M150.1,704.2c-0.5,0-0.9-0.1-1.2-0.3s-0.6-0.4-0.8-0.8s-0.3-0.7-0.3-1.1c0-0.4,0.1-0.8,0.3-1.1
				c0.2-0.3,0.5-0.6,0.8-0.8s0.8-0.3,1.2-0.3c0.6,0,1.1,0.1,1.5,0.4c0.4,0.3,0.6,0.7,0.8,1.2l-0.8,0v-1.6c0-0.3-0.1-0.5-0.3-0.7
				s-0.5-0.3-0.9-0.3c-0.2,0-0.5,0-0.8,0.1s-0.6,0.2-0.9,0.3l-0.5-1.1c0.4-0.2,0.8-0.3,1.1-0.4s0.8-0.1,1.2-0.1c0.6,0,1,0.1,1.4,0.3
				c0.4,0.2,0.6,0.5,0.8,0.8c0.2,0.3,0.3,0.8,0.3,1.2v4.2H152l-0.3-1.2l0.7-0.2c-0.1,0.5-0.4,0.9-0.8,1.2S150.7,704.2,150.1,704.2z
				 M150.5,703c0.4,0,0.6-0.1,0.8-0.2c0.2-0.2,0.3-0.4,0.3-0.7c0-0.3-0.1-0.5-0.3-0.7c-0.2-0.2-0.5-0.2-0.8-0.2
				c-0.4,0-0.6,0.1-0.8,0.2c-0.2,0.2-0.3,0.4-0.3,0.7c0,0.3,0.1,0.5,0.3,0.7S150.1,703,150.5,703z"/>
			<path class="st11" d="M155.8,697.7l0.4,1.7v4.6h-1.5v-6.3L155.8,697.7L155.8,697.7z M155.9,700.2l-0.3-0.1v-1.1l0.1-0.2
				c0.1-0.2,0.2-0.3,0.4-0.5s0.4-0.3,0.7-0.5c0.3-0.1,0.5-0.2,0.8-0.2c0.1,0,0.2,0,0.4,0s0.2,0,0.3,0.1v1.4h-0.4
				c-0.6,0-1,0.1-1.3,0.3S156,699.8,155.9,700.2z"/>
			<path class="st11" d="M159.2,704.1v-6.3h1.1l0.3,1.2l-0.4,0c0.2-0.3,0.5-0.5,0.8-0.7c0.3-0.2,0.6-0.3,0.9-0.5
				c0.3-0.1,0.6-0.2,1-0.2c0.4,0,0.8,0.1,1.1,0.2c0.3,0.2,0.4,0.3,0.6,0.6s0.2,0.5,0.2,0.9s0.1,0.6,0.1,1v3.8h-1.5v-4
				c0-0.4-0.1-0.7-0.3-0.8c-0.2-0.1-0.4-0.2-0.6-0.2c-0.4,0-0.7,0.1-1,0.3c-0.3,0.2-0.6,0.5-0.8,0.8l-0.1-0.8h0.3v4.7L159.2,704.1
				L159.2,704.1z M167.2,704.1v-4c0-0.4-0.1-0.7-0.3-0.8c-0.2-0.1-0.4-0.2-0.6-0.2c-0.4,0-0.7,0.1-1,0.3c-0.3,0.2-0.6,0.5-0.8,0.8
				l-0.3-1.3c0.2-0.3,0.5-0.5,0.7-0.7s0.6-0.3,0.9-0.5s0.6-0.2,1-0.2c0.4,0,0.8,0.1,1.1,0.2c0.3,0.2,0.4,0.3,0.6,0.6
				s0.2,0.5,0.2,0.9s0.1,0.6,0.1,1v3.8L167.2,704.1L167.2,704.1z"/>
			<path class="st11" d="M174.9,704.1l-2-6.3h1.5l1.3,4.8h-0.3l1.5-4.8h1.3l1.5,4.8h-0.3l1.3-4.8h1.5l-2,6.3H179l-1.5-4.8h0.3
				l-1.5,4.8H174.9z"/>
			<path class="st11" d="M183,695.8c0-0.3,0.1-0.5,0.2-0.7s0.4-0.3,0.7-0.3c0.3,0,0.5,0.1,0.7,0.3c0.2,0.2,0.3,0.4,0.3,0.7
				s-0.1,0.5-0.3,0.7c-0.2,0.2-0.4,0.3-0.7,0.3c-0.3,0-0.5-0.1-0.7-0.3C183.1,696.2,183,696,183,695.8z M184.7,704.1h-1.5v-6.3h1.5
				V704.1z"/>
			<path class="st11" d="M190.1,697.6c0.4,0,0.8,0.1,1.1,0.2c0.3,0.2,0.5,0.3,0.6,0.6c0.1,0.2,0.2,0.5,0.2,0.9s0.1,0.6,0.1,1v3.8
				h-1.5v-4c0-0.4-0.1-0.7-0.3-0.8c-0.2-0.1-0.4-0.2-0.7-0.2c-0.2,0-0.5,0-0.8,0.2c-0.3,0.1-0.5,0.2-0.7,0.4s-0.4,0.4-0.5,0.6
				l-0.1-0.8h0.3v4.7h-1.5v-6.3h1.1l0.3,1.2l-0.4,0c0.2-0.3,0.5-0.5,0.8-0.7c0.3-0.2,0.6-0.3,0.9-0.5
				C189.4,697.6,189.7,697.6,190.1,697.6z"/>
			<path class="st11" d="M193.1,699.1v-1.4h3.9v1.4H193.1z M196,704.2c-0.6,0-1.1-0.2-1.4-0.5s-0.5-0.9-0.5-1.6v-4.3v-0.1l0.3-1.5
				h1.2v5.7c0,0.3,0.1,0.5,0.2,0.6s0.3,0.2,0.5,0.2c0.1,0,0.3,0,0.4,0c0.1,0,0.2,0,0.3-0.1v1.4c-0.1,0-0.3,0.1-0.4,0.1
				C196.4,704.2,196.2,704.2,196,704.2z"/>
			<path class="st11" d="M201.1,704.2c-0.6,0-1.2-0.1-1.6-0.4c-0.5-0.3-0.8-0.7-1.1-1.2c-0.3-0.5-0.4-1.1-0.4-1.7
				c0-0.7,0.1-1.2,0.4-1.8c0.3-0.5,0.6-0.9,1.1-1.2c0.5-0.3,1-0.4,1.6-0.4s1.2,0.1,1.7,0.4c0.5,0.3,0.8,0.7,1.1,1.2
				c0.3,0.5,0.4,1.1,0.4,1.7c0,0.1,0,0.2,0,0.2c0,0.1,0,0.2,0,0.2h-4.9v-1.2h3.8l-0.3,0.7c0-0.6-0.1-1.1-0.4-1.5
				c-0.3-0.4-0.7-0.6-1.3-0.6c-0.5,0-0.9,0.2-1.2,0.5c-0.3,0.3-0.4,0.7-0.4,1.2v0.7c0,0.5,0.1,1,0.4,1.3s0.7,0.5,1.2,0.5
				c0.5,0,0.9-0.1,1.1-0.3s0.5-0.5,0.7-0.7l1.1,0.7c-0.3,0.5-0.7,0.9-1.1,1.2S201.8,704.2,201.1,704.2z"/>
			<path class="st11" d="M206.5,697.7l0.4,1.7v4.6h-1.5v-6.3L206.5,697.7L206.5,697.7z M206.6,700.2l-0.3-0.1v-1.1l0.1-0.2
				c0.1-0.2,0.2-0.3,0.4-0.5s0.4-0.3,0.7-0.5c0.3-0.1,0.5-0.2,0.8-0.2c0.1,0,0.2,0,0.4,0s0.2,0,0.3,0.1v1.4h-0.4
				c-0.6,0-1,0.1-1.3,0.3S206.7,699.8,206.6,700.2z"/>
		</g>
	</g>
</g>
<g>
	<g>
		<g>
			<path class="st11" d="M55.3,722.4c-0.5,0-0.9-0.1-1.4-0.2s-0.8-0.4-1.2-0.7c-0.4-0.3-0.7-0.7-0.9-1.2l1.2-0.7
				c0.3,0.5,0.6,0.9,1,1.1c0.4,0.2,0.8,0.3,1.3,0.3c0.5,0,0.8-0.1,1.1-0.3s0.4-0.5,0.4-0.9c0-0.2,0-0.4-0.2-0.6
				c-0.1-0.2-0.3-0.3-0.6-0.5c-0.3-0.1-0.7-0.3-1.2-0.4c-0.7-0.2-1.2-0.4-1.6-0.6s-0.7-0.5-0.8-0.9c-0.2-0.3-0.2-0.7-0.2-1.1
				c0-0.5,0.1-0.9,0.3-1.3s0.6-0.7,1-0.9s1-0.3,1.6-0.3c0.7,0,1.3,0.1,1.8,0.4s0.9,0.7,1.2,1.1l-1.2,0.8c-0.2-0.3-0.5-0.5-0.8-0.7
				c-0.3-0.1-0.6-0.2-0.9-0.2c-0.5,0-0.8,0.1-1,0.3c-0.2,0.2-0.4,0.4-0.4,0.8c0,0.3,0.1,0.5,0.3,0.7s0.7,0.4,1.4,0.6
				c0.7,0.2,1.3,0.4,1.7,0.6c0.4,0.2,0.7,0.5,0.9,0.9c0.2,0.3,0.3,0.8,0.3,1.2c0,0.5-0.1,0.9-0.4,1.3s-0.6,0.7-1.1,0.9
				C56.5,722.2,55.9,722.4,55.3,722.4z"/>
			<path class="st11" d="M62.3,722.3c-0.6,0-1.2-0.1-1.6-0.4c-0.5-0.3-0.8-0.7-1.1-1.2c-0.3-0.5-0.4-1.1-0.4-1.7
				c0-0.7,0.1-1.2,0.4-1.8c0.3-0.5,0.6-0.9,1.1-1.2c0.5-0.3,1-0.4,1.6-0.4s1.2,0.1,1.7,0.4c0.5,0.3,0.8,0.7,1.1,1.2s0.4,1.1,0.4,1.7
				c0,0.1,0,0.2,0,0.2c0,0.1,0,0.2,0,0.2h-4.9v-1.2h3.8l-0.3,0.7c0-0.6-0.1-1.1-0.4-1.5c-0.3-0.4-0.7-0.6-1.3-0.6
				c-0.5,0-0.9,0.2-1.2,0.5c-0.3,0.3-0.5,0.7-0.5,1.2v0.7c0,0.5,0.2,1,0.5,1.3s0.7,0.5,1.2,0.5c0.5,0,0.8-0.1,1.1-0.3
				c0.3-0.2,0.5-0.5,0.7-0.7l1.1,0.7c-0.3,0.5-0.7,0.9-1.1,1.2S63,722.3,62.3,722.3z"/>
			<path class="st11" d="M66.6,722.2v-6.3h1.1L68,717l-0.4,0c0.2-0.3,0.5-0.5,0.8-0.7c0.3-0.2,0.6-0.3,0.9-0.5
				c0.3-0.1,0.6-0.2,1-0.2c0.4,0,0.8,0.1,1.1,0.2c0.3,0.2,0.4,0.3,0.6,0.6c0.1,0.2,0.2,0.5,0.2,0.9s0.1,0.6,0.1,1v3.8h-1.5v-4
				c0-0.4-0.1-0.7-0.3-0.8c-0.2-0.1-0.4-0.2-0.6-0.2c-0.3,0-0.7,0.1-1,0.3c-0.3,0.2-0.6,0.5-0.8,0.8l-0.1-0.8h0.3v4.7L66.6,722.2
				L66.6,722.2z M74.5,722.2v-4c0-0.4-0.1-0.7-0.3-0.8c-0.2-0.1-0.4-0.2-0.6-0.2c-0.4,0-0.7,0.1-1,0.3c-0.3,0.2-0.6,0.5-0.8,0.8
				l-0.3-1.3c0.2-0.3,0.5-0.5,0.7-0.7s0.6-0.3,0.9-0.5s0.6-0.2,1-0.2c0.4,0,0.8,0.1,1.1,0.2c0.3,0.2,0.4,0.3,0.6,0.6
				c0.1,0.2,0.2,0.5,0.2,0.9s0.1,0.6,0.1,1v3.8L74.5,722.2L74.5,722.2z"/>
			<path class="st11" d="M77.4,713.8c0-0.3,0.1-0.5,0.2-0.7s0.4-0.3,0.7-0.3c0.3,0,0.5,0.1,0.7,0.3c0.2,0.2,0.3,0.4,0.3,0.7
				s-0.1,0.5-0.3,0.7c-0.2,0.2-0.4,0.3-0.7,0.3c-0.3,0-0.5-0.1-0.7-0.3C77.4,714.3,77.4,714.1,77.4,713.8z M79.1,722.2h-1.5v-6.3
				h1.5V722.2z"/>
			<path class="st11" d="M86,722.3c-0.5,0-0.9-0.1-1.2-0.3s-0.6-0.4-0.8-0.8c-0.2-0.3-0.3-0.7-0.3-1.1c0-0.4,0.1-0.8,0.3-1.1
				s0.5-0.6,0.8-0.8s0.8-0.3,1.2-0.3c0.6,0,1.1,0.1,1.5,0.4c0.4,0.3,0.6,0.7,0.8,1.2l-0.8,0V718c0-0.3-0.1-0.5-0.3-0.7
				s-0.5-0.3-0.9-0.3c-0.2,0-0.5,0-0.8,0.1s-0.6,0.2-0.9,0.3l-0.5-1.1c0.4-0.2,0.8-0.3,1.2-0.4s0.8-0.1,1.2-0.1c0.6,0,1,0.1,1.4,0.3
				c0.4,0.2,0.6,0.5,0.8,0.8c0.2,0.3,0.3,0.8,0.3,1.2v4.2h-1.2l-0.3-1.2l0.7-0.2c-0.2,0.5-0.4,0.9-0.8,1.2S86.6,722.3,86,722.3z
				 M86.3,721.1c0.3,0,0.6-0.1,0.8-0.2s0.3-0.4,0.3-0.7c0-0.3-0.1-0.5-0.3-0.7c-0.2-0.2-0.5-0.2-0.8-0.2s-0.6,0.1-0.8,0.2
				s-0.3,0.4-0.3,0.7c0,0.3,0.1,0.5,0.3,0.7C85.7,721,86,721.1,86.3,721.1z"/>
			<path class="st11" d="M91.6,715.8l0.4,1.7v4.6h-1.5v-6.3L91.6,715.8L91.6,715.8z M91.7,718.3l-0.3-0.1V717l0.1-0.2
				c0.1-0.2,0.2-0.3,0.4-0.5c0.2-0.2,0.4-0.3,0.7-0.5c0.3-0.1,0.5-0.2,0.8-0.2c0.1,0,0.2,0,0.4,0s0.2,0,0.3,0.1v1.4h-0.4
				c-0.6,0-1,0.1-1.3,0.3S91.9,717.9,91.7,718.3z"/>
			<path class="st11" d="M94.9,713.8c0-0.3,0.1-0.5,0.2-0.7s0.4-0.3,0.7-0.3c0.3,0,0.5,0.1,0.7,0.3c0.2,0.2,0.3,0.4,0.3,0.7
				s-0.1,0.5-0.3,0.7c-0.2,0.2-0.4,0.3-0.7,0.3c-0.3,0-0.5-0.1-0.7-0.3C95,714.3,94.9,714.1,94.9,713.8z M96.6,722.2h-1.5v-6.3h1.5
				V722.2z"/>
			<path class="st11" d="M100.8,722.3c-0.6,0-1.1-0.1-1.5-0.4s-0.8-0.7-1-1.2c-0.2-0.5-0.4-1.1-0.4-1.7s0.1-1.2,0.4-1.7
				s0.6-0.9,1-1.2s0.9-0.4,1.5-0.4c0.6,0,1.1,0.1,1.5,0.4c0.4,0.3,0.8,0.7,1,1.1c0.2,0.5,0.3,1.1,0.3,1.8c0,0.7-0.1,1.2-0.3,1.8
				c-0.2,0.5-0.6,0.9-1,1.2C101.8,722.2,101.3,722.3,100.8,722.3z M101,721c0.5,0,0.9-0.2,1.2-0.5s0.4-0.8,0.4-1.4
				c0-0.6-0.2-1.1-0.4-1.4c-0.3-0.4-0.7-0.5-1.2-0.5s-0.9,0.2-1.2,0.5c-0.3,0.4-0.5,0.8-0.5,1.4c0,0.6,0.2,1.1,0.5,1.4
				S100.5,721,101,721z M102.9,722.2l-0.4-1.4h0.1v-3.4h-0.1v-4.1h1.5v8.8L102.9,722.2L102.9,722.2z"/>
			<path class="st11" d="M110.3,722.2l-2-6.3h1.5l1.3,4.8h-0.3l1.5-4.8h1.3l1.5,4.8h-0.3l1.3-4.8h1.5l-2,6.3h-1.3l-1.5-4.8h0.3
				l-1.5,4.8H110.3z"/>
			<path class="st11" d="M118.5,713.8c0-0.3,0.1-0.5,0.2-0.7s0.4-0.3,0.7-0.3c0.3,0,0.5,0.1,0.7,0.3c0.2,0.2,0.3,0.4,0.3,0.7
				s-0.1,0.5-0.3,0.7c-0.2,0.2-0.4,0.3-0.7,0.3c-0.3,0-0.5-0.1-0.7-0.3C118.5,714.3,118.5,714.1,118.5,713.8z M120.2,722.2h-1.5
				v-6.3h1.5V722.2z"/>
			<path class="st11" d="M121.3,717.2v-1.4h3.9v1.4H121.3z M124.2,722.3c-0.6,0-1.1-0.2-1.4-0.5c-0.3-0.3-0.5-0.9-0.5-1.6v-4.3v-0.1
				l0.3-1.5h1.2v5.7c0,0.3,0.1,0.5,0.2,0.6c0.1,0.1,0.3,0.2,0.5,0.2c0.1,0,0.3,0,0.4,0c0.1,0,0.2,0,0.3-0.1v1.4
				c-0.1,0-0.3,0.1-0.4,0.1C124.6,722.3,124.4,722.3,124.2,722.3z"/>
			<path class="st11" d="M126.6,722.2v-8.8h1.5v8.8H126.6z M130.8,722.2v-4c0-0.4-0.1-0.7-0.3-0.8c-0.2-0.1-0.4-0.2-0.7-0.2
				c-0.2,0-0.5,0-0.8,0.2c-0.3,0.1-0.5,0.2-0.7,0.4s-0.4,0.4-0.5,0.6l-0.3-1.3c0.2-0.3,0.5-0.5,0.8-0.7c0.3-0.2,0.6-0.3,0.9-0.5
				c0.3-0.1,0.7-0.2,1-0.2c0.4,0,0.8,0.1,1.1,0.2c0.3,0.2,0.5,0.3,0.6,0.6c0.1,0.2,0.2,0.5,0.2,0.9s0.1,0.6,0.1,1v3.8L130.8,722.2
				L130.8,722.2z"/>
			<path class="st11" d="M140,722.3c-0.6,0-1.2-0.1-1.7-0.4s-0.9-0.7-1.1-1.2c-0.3-0.5-0.4-1.1-0.4-1.7c0-0.7,0.1-1.2,0.4-1.7
				c0.3-0.5,0.6-0.9,1.1-1.2c0.5-0.3,1.1-0.4,1.7-0.4s1.2,0.2,1.7,0.5c0.5,0.3,0.9,0.8,1.1,1.3l-1.4,0.6c-0.1-0.3-0.3-0.6-0.6-0.8
				s-0.6-0.3-0.9-0.3c-0.5,0-0.9,0.2-1.2,0.5c-0.3,0.3-0.5,0.8-0.5,1.4c0,0.6,0.2,1,0.5,1.4c0.3,0.3,0.7,0.5,1.2,0.5
				c0.3,0,0.6-0.1,0.9-0.3s0.4-0.4,0.6-0.8l1.4,0.6c-0.2,0.6-0.6,1-1.1,1.4C141.2,722.1,140.6,722.3,140,722.3z"/>
			<path class="st11" d="M146.6,722.3c-0.6,0-1.2-0.1-1.7-0.4c-0.5-0.3-0.9-0.7-1.1-1.2s-0.4-1.1-0.4-1.7s0.1-1.2,0.4-1.7
				s0.7-0.9,1.1-1.2c0.5-0.3,1.1-0.4,1.7-0.4c0.7,0,1.2,0.1,1.7,0.4s0.9,0.7,1.1,1.2c0.3,0.5,0.4,1.1,0.4,1.7s-0.1,1.2-0.4,1.7
				s-0.7,0.9-1.1,1.2C147.9,722.2,147.3,722.3,146.6,722.3z M146.7,720.8c0.5,0,0.9-0.2,1.3-0.5c0.3-0.3,0.5-0.8,0.5-1.3
				s-0.2-1-0.5-1.3c-0.3-0.3-0.7-0.5-1.3-0.5s-0.9,0.2-1.3,0.5c-0.3,0.3-0.5,0.8-0.5,1.3s0.2,1,0.5,1.3
				C145.7,720.7,146.1,720.8,146.7,720.8z"/>
			<path class="st11" d="M152.5,722.2c-0.2,0-0.5-0.1-0.7-0.2s-0.4-0.3-0.5-0.5c-0.1-0.2-0.2-0.5-0.2-0.9v-7.3h1.5v6.8
				c0,0.3,0.1,0.5,0.2,0.6s0.3,0.1,0.5,0.1v1.3c-0.1,0-0.2,0.1-0.4,0.1C152.8,722.2,152.6,722.2,152.5,722.2z"/>
			<path class="st11" d="M157,722.3c-0.6,0-1.1-0.1-1.5-0.4s-0.8-0.7-1-1.2c-0.2-0.5-0.4-1.1-0.4-1.7s0.1-1.2,0.4-1.7s0.6-0.9,1-1.2
				s0.9-0.4,1.5-0.4c0.6,0,1.1,0.1,1.5,0.4c0.4,0.3,0.8,0.7,1,1.1c0.2,0.5,0.4,1.1,0.4,1.8c0,0.7-0.1,1.2-0.4,1.8
				c-0.2,0.5-0.6,0.9-1,1.2C158.1,722.2,157.6,722.3,157,722.3z M157.2,721c0.5,0,0.9-0.2,1.2-0.5c0.3-0.4,0.4-0.8,0.4-1.4
				c0-0.6-0.1-1.1-0.4-1.4s-0.7-0.5-1.2-0.5c-0.5,0-0.9,0.2-1.2,0.5s-0.5,0.8-0.5,1.4c0,0.6,0.1,1.1,0.5,1.4
				C156.4,720.8,156.8,721,157.2,721z M159.2,722.2l-0.4-1.4h0.1v-3.4h-0.1v-4.1h1.5v8.8L159.2,722.2L159.2,722.2z"/>
			<path class="st11" d="M166.6,722.2l-2-6.3h1.5l1.3,4.8h-0.3l1.5-4.8h1.3l1.5,4.8h-0.3l1.3-4.8h1.5l-2,6.3h-1.3l-1.5-4.8h0.3
				l-1.5,4.8H166.6z"/>
			<path class="st11" d="M174.7,713.8c0-0.3,0.1-0.5,0.2-0.7s0.4-0.3,0.7-0.3c0.3,0,0.5,0.1,0.7,0.3c0.2,0.2,0.3,0.4,0.3,0.7
				s-0.1,0.5-0.3,0.7c-0.2,0.2-0.4,0.3-0.7,0.3c-0.3,0-0.5-0.1-0.7-0.3C174.8,714.3,174.7,714.1,174.7,713.8z M176.4,722.2h-1.5
				v-6.3h1.5V722.2z"/>
			<path class="st11" d="M181.7,715.7c0.4,0,0.8,0.1,1.1,0.2c0.3,0.2,0.5,0.3,0.6,0.6c0.1,0.2,0.2,0.5,0.2,0.9s0.1,0.6,0.1,1v3.8
				h-1.5v-4c0-0.4-0.1-0.7-0.3-0.8c-0.2-0.1-0.4-0.2-0.7-0.2c-0.2,0-0.5,0-0.8,0.2c-0.3,0.1-0.5,0.2-0.7,0.4s-0.4,0.4-0.5,0.6
				l-0.1-0.8h0.3v4.7H178v-6.3h1.1l0.3,1.2l-0.4,0c0.2-0.3,0.5-0.5,0.8-0.7c0.3-0.2,0.6-0.3,0.9-0.5
				C181,715.7,181.4,715.7,181.7,715.7z"/>
			<path class="st11" d="M184.7,717.2v-1.4h3.9v1.4H184.7z M187.7,722.3c-0.6,0-1.1-0.2-1.4-0.5s-0.5-0.9-0.5-1.6v-4.3v-0.1l0.3-1.5
				h1.2v5.7c0,0.3,0.1,0.5,0.2,0.6s0.3,0.2,0.5,0.2c0.1,0,0.3,0,0.4,0c0.1,0,0.2,0,0.3-0.1v1.4c-0.1,0-0.3,0.1-0.4,0.1
				C188,722.3,187.9,722.3,187.7,722.3z"/>
			<path class="st11" d="M192.7,722.3c-0.6,0-1.2-0.1-1.6-0.4c-0.5-0.3-0.8-0.7-1.1-1.2c-0.3-0.5-0.4-1.1-0.4-1.7
				c0-0.7,0.1-1.2,0.4-1.8c0.3-0.5,0.6-0.9,1.1-1.2c0.5-0.3,1-0.4,1.6-0.4s1.2,0.1,1.7,0.4c0.5,0.3,0.8,0.7,1.1,1.2
				c0.3,0.5,0.4,1.1,0.4,1.7c0,0.1,0,0.2,0,0.2c0,0.1,0,0.2,0,0.2h-4.9v-1.2h3.8l-0.3,0.7c0-0.6-0.1-1.1-0.4-1.5
				c-0.3-0.4-0.7-0.6-1.3-0.6c-0.5,0-0.9,0.2-1.2,0.5c-0.3,0.3-0.4,0.7-0.4,1.2v0.7c0,0.5,0.1,1,0.4,1.3s0.7,0.5,1.2,0.5
				c0.5,0,0.9-0.1,1.1-0.3s0.5-0.5,0.7-0.7l1.1,0.7c-0.3,0.5-0.7,0.9-1.1,1.2S193.4,722.3,192.7,722.3z"/>
			<path class="st11" d="M198.1,715.8l0.4,1.7v4.6H197v-6.3L198.1,715.8L198.1,715.8z M198.2,718.3l-0.3-0.1V717l0.1-0.2
				c0.1-0.2,0.2-0.3,0.4-0.5s0.4-0.3,0.7-0.5c0.3-0.1,0.5-0.2,0.8-0.2c0.1,0,0.2,0,0.4,0s0.2,0,0.3,0.1v1.4h-0.4
				c-0.6,0-1,0.1-1.3,0.3S198.4,717.9,198.2,718.3z"/>
		</g>
	</g>
</g>
<g>
	<g>
		<g>
			<path class="st11" d="M51.7,740.2l3.2-8.8h1.9l3.1,8.8h-1.5l-2.7-7.8H56l-2.8,7.8H51.7z M53.4,736.9H58v1.4h-4.6V736.9z"/>
			<path class="st11" d="M61.9,733.9l0.4,1.7v4.6h-1.5v-6.3L61.9,733.9L61.9,733.9z M62,736.3l-0.3-0.1v-1.1l0.1-0.2
				c0.1-0.2,0.2-0.3,0.4-0.5s0.4-0.3,0.7-0.5c0.3-0.1,0.5-0.2,0.8-0.2c0.1,0,0.2,0,0.4,0c0.1,0,0.2,0,0.3,0.1v1.4H64
				c-0.6,0-1,0.1-1.3,0.3S62.2,736,62,736.3z"/>
			<path class="st11" d="M65.2,731.9c0-0.3,0.1-0.5,0.2-0.7s0.4-0.3,0.7-0.3c0.3,0,0.5,0.1,0.7,0.3c0.2,0.2,0.3,0.4,0.3,0.7
				s-0.1,0.5-0.3,0.7c-0.2,0.2-0.4,0.3-0.7,0.3c-0.3,0-0.5-0.1-0.7-0.3C65.3,732.4,65.2,732.2,65.2,731.9z M66.9,740.2h-1.5v-6.3
				h1.5V740.2z"/>
			<path class="st11" d="M71.1,740.4c-0.6,0-1.1-0.1-1.5-0.4s-0.8-0.7-1-1.2c-0.2-0.5-0.4-1.1-0.4-1.7s0.1-1.2,0.4-1.7
				s0.6-0.9,1-1.2s0.9-0.4,1.5-0.4c0.6,0,1.1,0.1,1.5,0.4c0.4,0.3,0.8,0.7,1,1.1c0.2,0.5,0.3,1.1,0.3,1.8c0,0.7-0.1,1.2-0.3,1.8
				c-0.2,0.5-0.6,0.9-1,1.2C72.1,740.2,71.6,740.4,71.1,740.4z M71.3,739c0.5,0,0.9-0.2,1.2-0.5s0.4-0.8,0.4-1.4
				c0-0.6-0.2-1.1-0.4-1.4c-0.3-0.4-0.7-0.5-1.2-0.5s-0.9,0.2-1.2,0.5c-0.3,0.4-0.5,0.8-0.5,1.4c0,0.6,0.2,1.1,0.5,1.4
				C70.4,738.8,70.8,739,71.3,739z M73.2,740.2l-0.4-1.4H73v-3.4h-0.1v-4.1h1.5v8.8L73.2,740.2L73.2,740.2z"/>
			<path class="st11" d="M80.7,740.2l-2-6.3h1.5l1.3,4.8h-0.3l1.5-4.8H84l1.5,4.8h-0.3l1.3-4.8H88l-2,6.3h-1.3l-1.5-4.8h0.3
				l-1.5,4.8H80.7z"/>
			<path class="st11" d="M88.8,731.9c0-0.3,0.1-0.5,0.2-0.7s0.4-0.3,0.7-0.3c0.3,0,0.5,0.1,0.7,0.3c0.2,0.2,0.3,0.4,0.3,0.7
				s-0.1,0.5-0.3,0.7c-0.2,0.2-0.4,0.3-0.7,0.3c-0.3,0-0.5-0.1-0.7-0.3C88.8,732.4,88.8,732.2,88.8,731.9z M90.5,740.2H89v-6.3h1.5
				V740.2z"/>
			<path class="st11" d="M91.6,735.3v-1.4h3.9v1.4H91.6z M94.6,740.4c-0.6,0-1.1-0.2-1.4-0.5c-0.3-0.3-0.5-0.9-0.5-1.6V734v-0.1
				l0.3-1.5h1.2v5.7c0,0.3,0.1,0.5,0.2,0.6c0.1,0.1,0.3,0.2,0.5,0.2c0.1,0,0.3,0,0.4,0c0.1,0,0.2,0,0.3-0.1v1.4
				c-0.1,0-0.3,0.1-0.4,0.1C94.9,740.3,94.8,740.4,94.6,740.4z"/>
			<path class="st11" d="M96.9,740.2v-8.8h1.5v8.8H96.9z M101.1,740.2v-4c0-0.4-0.1-0.7-0.3-0.8c-0.2-0.1-0.4-0.2-0.7-0.2
				c-0.2,0-0.5,0-0.8,0.2c-0.3,0.1-0.5,0.2-0.7,0.4s-0.4,0.4-0.5,0.6l-0.3-1.3c0.2-0.3,0.5-0.5,0.8-0.7c0.3-0.2,0.6-0.3,0.9-0.5
				c0.3-0.1,0.7-0.2,1-0.2c0.4,0,0.8,0.1,1.1,0.2c0.3,0.2,0.5,0.3,0.6,0.6c0.1,0.2,0.2,0.5,0.2,0.9s0.1,0.6,0.1,1v3.8L101.1,740.2
				L101.1,740.2z"/>
			<path class="st11" d="M108.8,740.2l-2-6.3h1.5l1.3,4.8h-0.3l1.5-4.8h1.3l1.5,4.8h-0.3l1.3-4.8h1.5l-2,6.3h-1.3l-1.5-4.8h0.3
				l-1.5,4.8H108.8z"/>
			<path class="st11" d="M119,740.4c-0.5,0-0.9-0.1-1.2-0.3s-0.6-0.4-0.8-0.8c-0.2-0.3-0.3-0.7-0.3-1.1c0-0.4,0.1-0.8,0.3-1.1
				s0.5-0.6,0.8-0.8s0.8-0.3,1.2-0.3c0.6,0,1.1,0.1,1.5,0.4c0.4,0.3,0.6,0.7,0.8,1.2l-0.8,0v-1.6c0-0.3-0.1-0.5-0.3-0.7
				s-0.5-0.3-0.9-0.3c-0.2,0-0.5,0-0.8,0.1s-0.6,0.2-0.9,0.3l-0.5-1.1c0.4-0.2,0.8-0.3,1.2-0.4s0.8-0.1,1.2-0.1c0.6,0,1,0.1,1.4,0.3
				c0.4,0.2,0.6,0.5,0.8,0.8c0.2,0.3,0.3,0.8,0.3,1.2v4.2h-1.2l-0.3-1.2l0.7-0.2c-0.2,0.5-0.4,0.9-0.8,1.2S119.6,740.4,119,740.4z
				 M119.4,739.2c0.3,0,0.6-0.1,0.8-0.2s0.3-0.4,0.3-0.7c0-0.3-0.1-0.5-0.3-0.7c-0.2-0.2-0.5-0.2-0.8-0.2s-0.6,0.1-0.8,0.2
				s-0.3,0.4-0.3,0.7c0,0.3,0.1,0.5,0.3,0.7S119,739.2,119.4,739.2z"/>
			<path class="st11" d="M124.7,733.9l0.4,1.7v4.6h-1.5v-6.3L124.7,733.9L124.7,733.9z M124.8,736.3l-0.3-0.1v-1.1l0.1-0.2
				c0.1-0.2,0.2-0.3,0.4-0.5c0.2-0.2,0.4-0.3,0.7-0.5c0.3-0.1,0.5-0.2,0.8-0.2c0.1,0,0.2,0,0.4,0s0.2,0,0.3,0.1v1.4h-0.4
				c-0.6,0-1,0.1-1.3,0.3S124.9,736,124.8,736.3z"/>
			<path class="st11" d="M128.1,740.2v-6.3h1.1l0.3,1.2l-0.4,0c0.2-0.3,0.5-0.5,0.8-0.7c0.3-0.2,0.6-0.3,0.9-0.5
				c0.3-0.1,0.6-0.2,1-0.2c0.4,0,0.8,0.1,1.1,0.2c0.3,0.2,0.4,0.3,0.6,0.6s0.2,0.5,0.2,0.9s0.1,0.6,0.1,1v3.8h-1.5v-4
				c0-0.4-0.1-0.7-0.3-0.8c-0.2-0.1-0.4-0.2-0.6-0.2c-0.4,0-0.7,0.1-1,0.3c-0.3,0.2-0.6,0.5-0.8,0.8l-0.1-0.8h0.3v4.7L128.1,740.2
				L128.1,740.2z M136.1,740.2v-4c0-0.4-0.1-0.7-0.3-0.8c-0.2-0.1-0.4-0.2-0.6-0.2c-0.4,0-0.7,0.1-1,0.3c-0.3,0.2-0.6,0.5-0.8,0.8
				l-0.3-1.3c0.2-0.3,0.5-0.5,0.7-0.7s0.6-0.3,0.9-0.5s0.6-0.2,1-0.2c0.4,0,0.8,0.1,1.1,0.2c0.3,0.2,0.4,0.3,0.6,0.6
				s0.2,0.5,0.2,0.9s0.1,0.6,0.1,1v3.8L136.1,740.2L136.1,740.2z"/>
			<path class="st11" d="M143.8,740.2l-2-6.3h1.5l1.3,4.8h-0.3l1.5-4.8h1.3l1.5,4.8h-0.3l1.3-4.8h1.5l-2,6.3h-1.3l-1.5-4.8h0.3
				l-1.5,4.8H143.8z"/>
			<path class="st11" d="M151.9,731.9c0-0.3,0.1-0.5,0.2-0.7s0.4-0.3,0.7-0.3c0.3,0,0.5,0.1,0.7,0.3c0.2,0.2,0.3,0.4,0.3,0.7
				s-0.1,0.5-0.3,0.7c-0.2,0.2-0.4,0.3-0.7,0.3c-0.3,0-0.5-0.1-0.7-0.3C152,732.4,151.9,732.2,151.9,731.9z M153.6,740.2h-1.5v-6.3
				h1.5V740.2z"/>
			<path class="st11" d="M158.9,733.8c0.4,0,0.8,0.1,1.1,0.2c0.3,0.2,0.5,0.3,0.6,0.6c0.1,0.2,0.2,0.5,0.2,0.9s0.1,0.6,0.1,1v3.8
				h-1.5v-4c0-0.4-0.1-0.7-0.3-0.8c-0.2-0.1-0.4-0.2-0.7-0.2c-0.2,0-0.5,0-0.8,0.2c-0.3,0.1-0.5,0.2-0.7,0.4s-0.4,0.4-0.5,0.6
				l-0.1-0.8h0.3v4.7h-1.5v-6.3h1.1l0.3,1.2l-0.4,0c0.2-0.3,0.5-0.5,0.8-0.7c0.3-0.2,0.6-0.3,0.9-0.5
				C158.3,733.8,158.6,733.8,158.9,733.8z"/>
			<path class="st11" d="M162,735.3v-1.4h3.9v1.4H162z M164.9,740.4c-0.6,0-1.1-0.2-1.4-0.5s-0.5-0.9-0.5-1.6V734v-0.1l0.3-1.5h1.2
				v5.7c0,0.3,0.1,0.5,0.2,0.6s0.3,0.2,0.5,0.2c0.1,0,0.3,0,0.4,0c0.1,0,0.2,0,0.3-0.1v1.4c-0.1,0-0.3,0.1-0.4,0.1
				C165.3,740.3,165.1,740.4,164.9,740.4z"/>
			<path class="st11" d="M170,740.4c-0.6,0-1.2-0.1-1.6-0.4c-0.5-0.3-0.8-0.7-1.1-1.2c-0.3-0.5-0.4-1.1-0.4-1.7
				c0-0.7,0.1-1.2,0.4-1.8c0.3-0.5,0.6-0.9,1.1-1.2c0.5-0.3,1-0.4,1.6-0.4s1.2,0.1,1.7,0.4c0.5,0.3,0.8,0.7,1.1,1.2
				c0.3,0.5,0.4,1.1,0.4,1.7c0,0.1,0,0.2,0,0.2c0,0.1,0,0.2,0,0.2h-4.9v-1.2h3.8l-0.3,0.7c0-0.6-0.1-1.1-0.4-1.5
				c-0.3-0.4-0.7-0.6-1.3-0.6c-0.5,0-0.9,0.2-1.2,0.5c-0.3,0.3-0.4,0.7-0.4,1.2v0.7c0,0.5,0.1,1,0.4,1.3s0.7,0.5,1.2,0.5
				c0.5,0,0.9-0.1,1.1-0.3s0.5-0.5,0.7-0.7l1.1,0.7c-0.3,0.5-0.7,0.9-1.1,1.2S170.7,740.4,170,740.4z"/>
			<path class="st11" d="M175.4,733.9l0.4,1.7v4.6h-1.5v-6.3L175.4,733.9L175.4,733.9z M175.5,736.3l-0.3-0.1v-1.1l0.1-0.2
				c0.1-0.2,0.2-0.3,0.4-0.5s0.4-0.3,0.7-0.5c0.3-0.1,0.5-0.2,0.8-0.2c0.1,0,0.2,0,0.4,0s0.2,0,0.3,0.1v1.4h-0.4
				c-0.6,0-1,0.1-1.3,0.3S175.6,736,175.5,736.3z"/>
		</g>
	</g>
</g>
<g>
	<g>
		<g>
			<path class="st11" d="M51.7,758.3l3.2-8.8h1.9l3.1,8.8h-1.5l-2.7-7.8H56l-2.8,7.8H51.7z M53.4,755H58v1.4h-4.6V755z"/>
			<path class="st11" d="M61.9,752l0.4,1.7v4.6h-1.5V752L61.9,752L61.9,752z M62,754.4l-0.3-0.1v-1.1l0.1-0.2
				c0.1-0.2,0.2-0.3,0.4-0.5s0.4-0.3,0.7-0.5c0.3-0.1,0.5-0.2,0.8-0.2c0.1,0,0.2,0,0.4,0c0.1,0,0.2,0,0.3,0.1v1.4H64
				c-0.6,0-1,0.1-1.3,0.3S62.2,754,62,754.4z"/>
			<path class="st11" d="M65.2,750c0-0.3,0.1-0.5,0.2-0.7s0.4-0.3,0.7-0.3c0.3,0,0.5,0.1,0.7,0.3c0.2,0.2,0.3,0.4,0.3,0.7
				s-0.1,0.5-0.3,0.7c-0.2,0.2-0.4,0.3-0.7,0.3c-0.3,0-0.5-0.1-0.7-0.3C65.3,750.5,65.2,750.3,65.2,750z M66.9,758.3h-1.5V752h1.5
				V758.3z"/>
			<path class="st11" d="M71.1,758.5c-0.6,0-1.1-0.1-1.5-0.4s-0.8-0.7-1-1.2c-0.2-0.5-0.4-1.1-0.4-1.7s0.1-1.2,0.4-1.7
				s0.6-0.9,1-1.2s0.9-0.4,1.5-0.4c0.6,0,1.1,0.1,1.5,0.4c0.4,0.3,0.8,0.7,1,1.1c0.2,0.5,0.3,1.1,0.3,1.8c0,0.7-0.1,1.2-0.3,1.8
				c-0.2,0.5-0.6,0.9-1,1.2C72.1,758.3,71.6,758.5,71.1,758.5z M71.3,757.1c0.5,0,0.9-0.2,1.2-0.5s0.4-0.8,0.4-1.4
				c0-0.6-0.2-1.1-0.4-1.4c-0.3-0.4-0.7-0.5-1.2-0.5s-0.9,0.2-1.2,0.5c-0.3,0.4-0.5,0.8-0.5,1.4c0,0.6,0.2,1.1,0.5,1.4
				C70.4,756.9,70.8,757.1,71.3,757.1z M73.2,758.3l-0.4-1.4H73v-3.4h-0.1v-4.1h1.5v8.8L73.2,758.3L73.2,758.3z"/>
			<path class="st11" d="M80.7,758.3l-2-6.3h1.5l1.3,4.8h-0.3l1.5-4.8H84l1.5,4.8h-0.3l1.3-4.8H88l-2,6.3h-1.3l-1.5-4.8h0.3
				l-1.5,4.8H80.7z"/>
			<path class="st11" d="M88.8,750c0-0.3,0.1-0.5,0.2-0.7s0.4-0.3,0.7-0.3c0.3,0,0.5,0.1,0.7,0.3c0.2,0.2,0.3,0.4,0.3,0.7
				s-0.1,0.5-0.3,0.7c-0.2,0.2-0.4,0.3-0.7,0.3c-0.3,0-0.5-0.1-0.7-0.3C88.8,750.5,88.8,750.3,88.8,750z M90.5,758.3H89V752h1.5
				V758.3z"/>
			<path class="st11" d="M91.6,753.4V752h3.9v1.4H91.6z M94.6,758.5c-0.6,0-1.1-0.2-1.4-0.5c-0.3-0.3-0.5-0.9-0.5-1.6v-4.3V752
				l0.3-1.5h1.2v5.7c0,0.3,0.1,0.5,0.2,0.6c0.1,0.1,0.3,0.2,0.5,0.2c0.1,0,0.3,0,0.4,0c0.1,0,0.2,0,0.3-0.1v1.4
				c-0.1,0-0.3,0.1-0.4,0.1C94.9,758.4,94.8,758.5,94.6,758.5z"/>
			<path class="st11" d="M96.9,758.3v-8.8h1.5v8.8H96.9z M101.1,758.3v-4c0-0.4-0.1-0.7-0.3-0.8c-0.2-0.1-0.4-0.2-0.7-0.2
				c-0.2,0-0.5,0-0.8,0.2c-0.3,0.1-0.5,0.2-0.7,0.4s-0.4,0.4-0.5,0.6l-0.3-1.3c0.2-0.3,0.5-0.5,0.8-0.7c0.3-0.2,0.6-0.3,0.9-0.5
				c0.3-0.1,0.7-0.2,1-0.2c0.4,0,0.8,0.1,1.1,0.2c0.3,0.2,0.5,0.3,0.6,0.6c0.1,0.2,0.2,0.5,0.2,0.9s0.1,0.6,0.1,1v3.8L101.1,758.3
				L101.1,758.3z"/>
			<path class="st11" d="M110.3,758.5c-0.7,0-1.2-0.1-1.7-0.4c-0.5-0.3-0.8-0.7-1.1-1.2c-0.3-0.5-0.4-1.1-0.4-1.7
				c0-0.7,0.1-1.2,0.4-1.7c0.3-0.5,0.6-0.9,1.1-1.2c0.5-0.3,1.1-0.4,1.7-0.4s1.2,0.2,1.7,0.5c0.5,0.3,0.9,0.8,1.1,1.3l-1.4,0.6
				c-0.1-0.3-0.3-0.6-0.6-0.8s-0.6-0.3-0.9-0.3c-0.5,0-0.9,0.2-1.2,0.5s-0.5,0.8-0.5,1.4c0,0.6,0.2,1,0.5,1.4
				c0.3,0.3,0.7,0.5,1.2,0.5c0.3,0,0.6-0.1,0.9-0.3s0.4-0.4,0.6-0.8l1.4,0.6c-0.2,0.6-0.6,1-1.1,1.4
				C111.5,758.3,110.9,758.5,110.3,758.5z"/>
			<path class="st11" d="M117,758.5c-0.6,0-1.2-0.1-1.7-0.4c-0.5-0.3-0.9-0.7-1.2-1.2s-0.4-1.1-0.4-1.7s0.1-1.2,0.4-1.7
				c0.3-0.5,0.7-0.9,1.2-1.2c0.5-0.3,1.1-0.4,1.7-0.4c0.7,0,1.2,0.1,1.7,0.4s0.9,0.7,1.2,1.2c0.3,0.5,0.4,1.1,0.4,1.7
				s-0.1,1.2-0.4,1.7s-0.7,0.9-1.2,1.2C118.2,758.3,117.6,758.5,117,758.5z M117,757c0.5,0,0.9-0.2,1.3-0.5s0.5-0.8,0.5-1.3
				s-0.2-1-0.5-1.3c-0.3-0.3-0.7-0.5-1.3-0.5s-0.9,0.2-1.3,0.5s-0.5,0.8-0.5,1.3s0.2,1,0.5,1.3C116,756.8,116.4,757,117,757z"/>
			<path class="st11" d="M122.8,758.4c-0.2,0-0.5-0.1-0.7-0.2s-0.4-0.3-0.5-0.5c-0.1-0.2-0.2-0.5-0.2-0.9v-7.3h1.5v6.8
				c0,0.3,0.1,0.5,0.2,0.6s0.3,0.1,0.5,0.1v1.3c-0.1,0-0.2,0.1-0.4,0.1C123.1,758.4,122.9,758.4,122.8,758.4z"/>
			<path class="st11" d="M127.3,758.5c-0.6,0-1.1-0.1-1.5-0.4s-0.8-0.7-1-1.2c-0.2-0.5-0.4-1.1-0.4-1.7s0.1-1.2,0.4-1.7
				s0.6-0.9,1-1.2s0.9-0.4,1.5-0.4c0.6,0,1,0.1,1.5,0.4c0.4,0.3,0.8,0.7,1,1.1c0.2,0.5,0.4,1.1,0.4,1.8c0,0.7-0.1,1.2-0.4,1.8
				c-0.2,0.5-0.6,0.9-1,1.2C128.4,758.3,127.9,758.5,127.3,758.5z M127.6,757.1c0.5,0,0.9-0.2,1.2-0.5c0.3-0.4,0.4-0.8,0.4-1.4
				c0-0.6-0.1-1.1-0.4-1.4s-0.7-0.5-1.2-0.5s-0.9,0.2-1.2,0.5c-0.3,0.4-0.5,0.8-0.5,1.4c0,0.6,0.2,1.1,0.5,1.4
				C126.7,756.9,127.1,757.1,127.6,757.1z M129.5,758.3l-0.4-1.4h0.1v-3.4h-0.1v-4.1h1.5v8.8L129.5,758.3L129.5,758.3z"/>
			<path class="st11" d="M136.9,758.3l-2-6.3h1.5l1.3,4.8h-0.3l1.5-4.8h1.3l1.5,4.8h-0.3l1.3-4.8h1.5l-2,6.3h-1.3l-1.5-4.8h0.3
				l-1.5,4.8H136.9z"/>
			<path class="st11" d="M145,750c0-0.3,0.1-0.5,0.2-0.7s0.4-0.3,0.7-0.3c0.3,0,0.5,0.1,0.7,0.3c0.2,0.2,0.3,0.4,0.3,0.7
				s-0.1,0.5-0.3,0.7c-0.2,0.2-0.4,0.3-0.7,0.3c-0.3,0-0.5-0.1-0.7-0.3C145.1,750.5,145,750.3,145,750z M146.7,758.3h-1.5V752h1.5
				V758.3z"/>
			<path class="st11" d="M152,751.8c0.4,0,0.8,0.1,1.1,0.2c0.3,0.2,0.5,0.3,0.6,0.6c0.1,0.2,0.2,0.5,0.2,0.9s0.1,0.6,0.1,1v3.8h-1.5
				v-4c0-0.4-0.1-0.7-0.3-0.8c-0.2-0.1-0.4-0.2-0.7-0.2c-0.2,0-0.5,0-0.8,0.2c-0.3,0.1-0.5,0.2-0.7,0.4s-0.4,0.4-0.5,0.6l-0.1-0.8
				h0.3v4.7h-1.5V752h1.1l0.3,1.2l-0.4,0c0.2-0.3,0.5-0.5,0.8-0.7c0.3-0.2,0.6-0.3,0.9-0.5C151.3,751.9,151.7,751.8,152,751.8z"/>
			<path class="st11" d="M155,753.4V752h3.9v1.4H155z M158,758.5c-0.6,0-1.1-0.2-1.4-0.5s-0.5-0.9-0.5-1.6v-4.3V752l0.3-1.5h1.2v5.7
				c0,0.3,0.1,0.5,0.2,0.6s0.3,0.2,0.5,0.2c0.1,0,0.3,0,0.4,0c0.1,0,0.2,0,0.3-0.1v1.4c-0.1,0-0.3,0.1-0.4,0.1
				C158.4,758.4,158.2,758.5,158,758.5z"/>
			<path class="st11" d="M163.1,758.5c-0.6,0-1.2-0.1-1.6-0.4c-0.5-0.3-0.8-0.7-1.1-1.2c-0.3-0.5-0.4-1.1-0.4-1.7
				c0-0.7,0.1-1.2,0.4-1.8c0.3-0.5,0.6-0.9,1.1-1.2c0.5-0.3,1-0.4,1.6-0.4s1.2,0.1,1.7,0.4c0.5,0.3,0.8,0.7,1.1,1.2
				c0.3,0.5,0.4,1.1,0.4,1.7c0,0.1,0,0.2,0,0.2c0,0.1,0,0.2,0,0.2h-4.9v-1.2h3.8l-0.3,0.7c0-0.6-0.1-1.1-0.4-1.5
				c-0.3-0.4-0.7-0.6-1.3-0.6c-0.5,0-0.9,0.2-1.2,0.5c-0.3,0.3-0.4,0.7-0.4,1.2v0.7c0,0.5,0.1,1,0.4,1.3s0.7,0.5,1.2,0.5
				c0.5,0,0.9-0.1,1.1-0.3s0.5-0.5,0.7-0.7l1.1,0.7c-0.3,0.5-0.7,0.9-1.1,1.2S163.8,758.5,163.1,758.5z"/>
			<path class="st11" d="M168.4,752l0.4,1.7v4.6h-1.5V752L168.4,752L168.4,752z M168.6,754.4l-0.3-0.1v-1.1l0.1-0.2
				c0.1-0.2,0.2-0.3,0.4-0.5s0.4-0.3,0.7-0.5c0.3-0.1,0.5-0.2,0.8-0.2c0.1,0,0.2,0,0.4,0s0.2,0,0.3,0.1v1.4h-0.4
				c-0.6,0-1,0.1-1.3,0.3S168.7,754,168.6,754.4z"/>
		</g>
	</g>
</g>
<g>
	<g>
		<g>
			<path class="st11" d="M55.3,776.6c-0.5,0-0.9-0.1-1.4-0.2s-0.8-0.4-1.2-0.7c-0.4-0.3-0.7-0.7-0.9-1.2l1.2-0.7
				c0.3,0.5,0.6,0.9,1,1.1c0.4,0.2,0.8,0.3,1.3,0.3c0.5,0,0.8-0.1,1.1-0.3s0.4-0.5,0.4-0.9c0-0.2,0-0.4-0.2-0.6
				c-0.1-0.2-0.3-0.3-0.6-0.5c-0.3-0.1-0.7-0.3-1.2-0.4c-0.7-0.2-1.2-0.4-1.6-0.6s-0.7-0.5-0.8-0.9c-0.2-0.3-0.2-0.7-0.2-1.1
				c0-0.5,0.1-0.9,0.3-1.3s0.6-0.7,1-0.9s1-0.3,1.6-0.3c0.7,0,1.3,0.1,1.8,0.4s0.9,0.7,1.2,1.1l-1.2,0.8c-0.2-0.3-0.5-0.5-0.8-0.7
				c-0.3-0.1-0.6-0.2-0.9-0.2c-0.5,0-0.8,0.1-1,0.3c-0.2,0.2-0.4,0.4-0.4,0.8c0,0.3,0.1,0.5,0.3,0.7s0.7,0.4,1.4,0.6
				c0.7,0.2,1.3,0.4,1.7,0.6c0.4,0.2,0.7,0.5,0.9,0.9c0.2,0.3,0.3,0.8,0.3,1.2c0,0.5-0.1,0.9-0.4,1.3s-0.6,0.7-1.1,0.9
				C56.5,776.5,55.9,776.6,55.3,776.6z"/>
			<path class="st11" d="M61.5,776.6c-0.5,0-0.9-0.1-1.2-0.3s-0.6-0.4-0.8-0.8c-0.2-0.3-0.3-0.7-0.3-1.1c0-0.4,0.1-0.8,0.3-1.1
				c0.2-0.3,0.5-0.6,0.8-0.8s0.8-0.3,1.2-0.3c0.6,0,1.1,0.1,1.5,0.4c0.4,0.3,0.6,0.7,0.8,1.2l-0.8,0v-1.6c0-0.3-0.1-0.5-0.3-0.7
				s-0.5-0.3-0.9-0.3c-0.2,0-0.5,0-0.8,0.1s-0.6,0.2-0.9,0.3l-0.5-1.1c0.4-0.2,0.8-0.3,1.2-0.4s0.8-0.1,1.2-0.1c0.6,0,1,0.1,1.4,0.3
				c0.4,0.2,0.6,0.5,0.8,0.8c0.2,0.3,0.3,0.8,0.3,1.2v4.2h-1.2l-0.3-1.2l0.7-0.2c-0.2,0.5-0.4,0.9-0.8,1.2S62.1,776.6,61.5,776.6z
				 M61.8,775.4c0.3,0,0.6-0.1,0.8-0.2s0.3-0.4,0.3-0.7c0-0.3-0.1-0.5-0.3-0.7c-0.2-0.2-0.5-0.2-0.8-0.2s-0.6,0.1-0.8,0.2
				s-0.3,0.4-0.3,0.7c0,0.3,0.1,0.5,0.3,0.7C61.2,775.3,61.5,775.4,61.8,775.4z"/>
			<path class="st11" d="M66,776.4v-8.8h1.5v8.8H66z M70.2,776.4v-4c0-0.4-0.1-0.7-0.3-0.8c-0.2-0.1-0.4-0.2-0.7-0.2
				c-0.2,0-0.5,0-0.8,0.2c-0.3,0.1-0.5,0.2-0.7,0.4s-0.4,0.4-0.5,0.6l-0.3-1.3c0.2-0.3,0.5-0.5,0.8-0.7c0.3-0.2,0.6-0.3,0.9-0.5
				c0.3-0.1,0.7-0.2,1-0.2c0.4,0,0.8,0.1,1.1,0.2c0.3,0.2,0.5,0.3,0.6,0.6c0.1,0.2,0.2,0.5,0.2,0.9s0.1,0.6,0.1,1v3.8L70.2,776.4
				L70.2,776.4z"/>
			<path class="st11" d="M75.1,776.6c-0.5,0-0.9-0.1-1.2-0.3s-0.6-0.4-0.8-0.8c-0.2-0.3-0.3-0.7-0.3-1.1c0-0.4,0.1-0.8,0.3-1.1
				s0.5-0.6,0.8-0.8s0.8-0.3,1.2-0.3c0.6,0,1.1,0.1,1.5,0.4c0.4,0.3,0.6,0.7,0.8,1.2l-0.8,0v-1.6c0-0.3-0.1-0.5-0.3-0.7
				s-0.5-0.3-0.9-0.3c-0.2,0-0.5,0-0.8,0.1s-0.6,0.2-0.9,0.3l-0.5-1.1c0.4-0.2,0.8-0.3,1.2-0.4s0.8-0.1,1.2-0.1c0.6,0,1,0.1,1.4,0.3
				c0.4,0.2,0.6,0.5,0.8,0.8c0.2,0.3,0.3,0.8,0.3,1.2v4.2H77l-0.3-1.2l0.7-0.2c-0.2,0.5-0.4,0.9-0.8,1.2S75.7,776.6,75.1,776.6z
				 M75.5,775.4c0.3,0,0.6-0.1,0.8-0.2s0.3-0.4,0.3-0.7c0-0.3-0.1-0.5-0.3-0.7c-0.2-0.2-0.5-0.2-0.8-0.2s-0.6,0.1-0.8,0.2
				s-0.3,0.4-0.3,0.7c0,0.3,0.1,0.5,0.3,0.7C74.9,775.3,75.1,775.4,75.5,775.4z"/>
			<path class="st11" d="M80.8,770.1l0.4,1.7v4.6h-1.5v-6.3L80.8,770.1L80.8,770.1z M80.9,772.5l-0.3-0.1v-1.1l0.1-0.2
				c0.1-0.2,0.2-0.3,0.4-0.5c0.2-0.2,0.4-0.3,0.7-0.5c0.3-0.1,0.5-0.2,0.8-0.2c0.1,0,0.2,0,0.4,0s0.2,0,0.3,0.1v1.4h-0.4
				c-0.6,0-1,0.1-1.3,0.3S81,772.1,80.9,772.5z"/>
			<path class="st11" d="M84.1,768.1c0-0.3,0.1-0.5,0.2-0.7s0.4-0.3,0.7-0.3c0.3,0,0.5,0.1,0.7,0.3c0.2,0.2,0.3,0.4,0.3,0.7
				s-0.1,0.5-0.3,0.7c-0.2,0.2-0.4,0.3-0.7,0.3c-0.3,0-0.5-0.1-0.7-0.3C84.2,768.6,84.1,768.4,84.1,768.1z M85.8,776.4h-1.5v-6.3
				h1.5V776.4z"/>
			<path class="st11" d="M89.3,776.6c-0.5,0-0.9-0.1-1.2-0.3s-0.6-0.4-0.8-0.8c-0.2-0.3-0.3-0.7-0.3-1.1c0-0.4,0.1-0.8,0.3-1.1
				s0.5-0.6,0.8-0.8s0.8-0.3,1.2-0.3c0.6,0,1.1,0.1,1.5,0.4c0.4,0.3,0.6,0.7,0.8,1.2l-0.8,0v-1.6c0-0.3-0.1-0.5-0.3-0.7
				s-0.5-0.3-0.9-0.3c-0.2,0-0.5,0-0.8,0.1s-0.6,0.2-0.9,0.3l-0.5-1.1c0.4-0.2,0.8-0.3,1.2-0.4s0.8-0.1,1.2-0.1c0.6,0,1,0.1,1.4,0.3
				c0.4,0.2,0.6,0.5,0.8,0.8c0.2,0.3,0.3,0.8,0.3,1.2v4.2h-1.2l-0.3-1.2l0.7-0.2c-0.2,0.5-0.4,0.9-0.8,1.2S89.9,776.6,89.3,776.6z
				 M89.7,775.4c0.3,0,0.6-0.1,0.8-0.2s0.3-0.4,0.3-0.7c0-0.3-0.1-0.5-0.3-0.7c-0.2-0.2-0.5-0.2-0.8-0.2s-0.6,0.1-0.8,0.2
				s-0.3,0.4-0.3,0.7c0,0.3,0.1,0.5,0.3,0.7C89.1,775.3,89.3,775.4,89.7,775.4z"/>
			<path class="st11" d="M97.6,769.9c0.4,0,0.8,0.1,1.1,0.2c0.3,0.2,0.5,0.3,0.6,0.6c0.1,0.2,0.2,0.5,0.2,0.9s0.1,0.6,0.1,1v3.8H98
				v-4c0-0.4-0.1-0.7-0.3-0.8c-0.2-0.1-0.4-0.2-0.7-0.2c-0.2,0-0.5,0-0.8,0.2c-0.3,0.1-0.5,0.2-0.7,0.4s-0.4,0.4-0.5,0.6l-0.1-0.8
				h0.3v4.7h-1.5v-6.3h1.1l0.3,1.2l-0.4,0c0.2-0.3,0.5-0.5,0.8-0.7c0.3-0.2,0.6-0.3,0.9-0.5C96.9,770,97.2,769.9,97.6,769.9z"/>
		</g>
	</g>
</g>
</svg>
