<?xml version="1.0" encoding="utf-8"?>
<!-- Generator: Adobe Illustrator 27.3.1, SVG Export Plug-In . SVG Version: 6.00 Build 0)  -->
<svg version="1.1" id="Layer_1" xmlns="http://www.w3.org/2000/svg" xmlns:xlink="http://www.w3.org/1999/xlink" x="0px" y="0px"
	 viewBox="0 0 28.35 28.35" style="enable-background:new 0 0 28.35 28.35;" xml:space="preserve">
<style type="text/css">
	.st0{fill-rule:evenodd;clip-rule:evenodd;fill:#FFFFFF;}
	.st1{fill:#FFFFFF;}
	.st2{fill:#C92127;}
	.st3{fill:#010101;}
</style>
<g>
	<circle class="st0" cx="14.17" cy="14.17" r="13.18"/>
	<g>
		<g>
			<path class="st1" d="M14.53,6.73c1.66,0.17,2.94,1.58,2.94,3.28c0,1.81-1.48,3.29-3.29,3.29s-3.29-1.48-3.29-3.29
				s1.48-3.29,3.29-3.29C14.29,6.71,14.42,6.71,14.53,6.73z M14.7,13.06c1.69-0.28,2.83-1.88,2.55-3.58
				c-0.24-1.41-1.38-2.44-2.73-2.58c-0.28-0.03-0.56-0.03-0.84,0.03c-0.33,0.06-0.66,0.17-0.93,0.32c1.49,0.5,2.29,1.27,2.34,2.06
				c0.03,0.49-0.2,0.84-0.5,1.13l2.11-0.15c0.06,0,0.08,0.07,0,0.08l-5.02,1.45c0.52,0.71,1.31,1.17,2.19,1.27
				C14.12,13.11,14.42,13.11,14.7,13.06z M13.32,10.07c0.28-1.03-0.04-2.12-0.79-2.69c-1.02,0.64-1.62,1.85-1.41,3.14
				c0.07,0.42,0.22,0.81,0.43,1.14C12.35,11.44,13.06,11.01,13.32,10.07z"/>
			<path class="st2" d="M17.25,9.49c0.28,1.69-0.85,3.29-2.55,3.58c-0.28,0.04-0.57,0.06-0.84,0.03c-0.88-0.1-1.67-0.56-2.19-1.27
				l5.02-1.45c0.07-0.01,0.06-0.08,0-0.08l-2.11,0.14c0.29-0.29,0.53-0.64,0.5-1.13c-0.06-0.78-0.85-1.56-2.34-2.06
				c0.29-0.15,0.6-0.26,0.93-0.32c0.28-0.04,0.57-0.06,0.84-0.03C15.85,7.05,17.01,8.08,17.25,9.49z M11.11,10.52
				c0.07,0.42,0.22,0.81,0.43,1.14c0.79-0.22,1.51-0.64,1.76-1.59c0.28-1.03-0.04-2.12-0.79-2.69C11.5,8.02,10.9,9.24,11.11,10.52z"
				/>
		</g>
		<g>
			<g>
				<polygon class="st3" points="21.51,17.66 21.51,16.57 20.43,16.57 20.43,17.66 19.83,17.66 19.83,15.08 20.43,15.08 
					20.43,16.11 21.51,16.11 21.51,15.08 22.11,15.08 22.11,17.66 				"/>
				<path class="st3" d="M8.67,15.08v1.62c0,0.18,0.03,0.33,0.08,0.46s0.13,0.22,0.22,0.31c0.1,0.08,0.21,0.14,0.35,0.18
					c0.14,0.04,0.29,0.06,0.46,0.06c0.17,0,0.32-0.01,0.45-0.06s0.24-0.1,0.33-0.18c0.08-0.08,0.15-0.18,0.21-0.31
					c0.06-0.13,0.07-0.28,0.07-0.46v-1.62h-0.56v1.6c0,0.17-0.04,0.29-0.13,0.39c-0.08,0.1-0.21,0.15-0.39,0.15
					c-0.17,0-0.29-0.06-0.38-0.15c-0.08-0.1-0.13-0.22-0.13-0.39v-1.6H8.67z"/>
				<path class="st3" d="M6.96,17.66v-2.09h-0.7v-0.49h2.01v0.24c0,0.14-0.11,0.25-0.25,0.25H7.56v2.09H6.96z"/>
				<rect x="16.52" y="15.08" class="st3" width="0.6" height="2.58"/>
				<path class="st3" d="M14.54,16.46l0.01,0.03l0.77,0.98c0.1,0.13,0.24,0.2,0.4,0.2h0.47l-1.09-1.38l-0.01-0.01l0.01-0.01
					l0.89-1.16h-0.61l-0.82,1.12l-0.01,0.03V16.2v-1.09h-0.6v2.58h0.6v-1.16L14.54,16.46z"/>
				<path class="st3" d="M13.18,17.66c-0.18,0-0.35-0.1-0.43-0.25l-0.47-0.75h-0.29v1h-0.6v-2.58h1.06c0.28,0,0.49,0.07,0.64,0.21
					c0.15,0.14,0.22,0.33,0.22,0.57c0,0.13-0.03,0.24-0.1,0.36c-0.06,0.13-0.17,0.21-0.33,0.29l-0.03,0.01l0.73,1.13
					C13.57,17.66,13.18,17.66,13.18,17.66z M11.98,16.26h0.35c0.13,0,0.22-0.03,0.28-0.1c0.06-0.07,0.1-0.15,0.1-0.26
					c0-0.11-0.03-0.2-0.1-0.26c-0.06-0.07-0.15-0.1-0.28-0.1h-0.35V16.26z"/>
				<path class="st3" d="M17.61,17.55v-0.49c0.2,0.08,0.43,0.18,0.68,0.18c0.29,0,0.43-0.1,0.43-0.29c0-0.22-0.2-0.25-0.6-0.42
					c-0.26-0.13-0.53-0.31-0.53-0.74c0-0.5,0.39-0.74,0.92-0.74c0.28,0,0.52,0.07,0.66,0.11v0.49c-0.14-0.06-0.38-0.14-0.61-0.14
					c-0.26,0-0.39,0.1-0.39,0.26c0,0.18,0.15,0.22,0.42,0.33c0.33,0.17,0.74,0.25,0.74,0.82c0,0.5-0.4,0.78-0.93,0.78
					C18.08,17.7,17.82,17.65,17.61,17.55z"/>
			</g>
			<g>
				<path class="st3" d="M18.54,21.02v-2.58h1.62v0.24c0,0.14-0.11,0.25-0.25,0.25h-0.77v0.56h0.86v0.43h-0.86v0.63h1.02v0.49h-1.62
					V21.02z"/>
				<path class="st3" d="M12.66,21.02v-2.58h0.29c0.17,0,0.31,0.14,0.31,0.31v1.81h0.95v0.46H12.66z"/>
				<rect x="8.97" y="18.45" class="st3" width="0.6" height="2.58"/>
				<path class="st3" d="M11.89,21.02c-0.18,0-0.35-0.1-0.43-0.25L11,20h-0.29v1h-0.6v-2.58h1.06c0.28,0,0.49,0.07,0.64,0.21
					c0.15,0.14,0.22,0.33,0.22,0.57c0,0.13-0.03,0.24-0.1,0.36c-0.06,0.13-0.17,0.21-0.33,0.29l-0.03,0.01l0.73,1.13h-0.4V21.02z
					 M10.71,19.63h0.35c0.13,0,0.22-0.03,0.28-0.1c0.06-0.07,0.1-0.15,0.1-0.26s-0.03-0.2-0.1-0.26c-0.06-0.07-0.15-0.1-0.28-0.1
					h-0.35V19.63z"/>
				<path class="st3" d="M7.65,18.45H6.97l-0.98,2.58h0.43c0.11,0,0.21-0.07,0.24-0.17l0.1-0.31h1.05l0.15,0.47H8.6L7.65,18.45z
					 M6.92,20.09l0.24-0.66c0.06-0.15,0.1-0.31,0.14-0.42h0.01c0.03,0.11,0.08,0.26,0.14,0.42l0.22,0.66H6.92z"/>
				<path class="st3" d="M20.64,20.92v-0.5c0.2,0.08,0.43,0.18,0.68,0.18c0.29,0,0.43-0.1,0.43-0.29c0-0.22-0.2-0.25-0.6-0.42
					c-0.26-0.13-0.53-0.31-0.53-0.74c0-0.5,0.39-0.74,0.92-0.74c0.28,0,0.52,0.07,0.66,0.11v0.49c-0.14-0.06-0.38-0.14-0.61-0.14
					c-0.26,0-0.39,0.1-0.39,0.26c0,0.18,0.15,0.22,0.42,0.33c0.33,0.17,0.74,0.25,0.74,0.82c0,0.5-0.4,0.78-0.93,0.78
					C21.1,21.06,20.85,21.01,20.64,20.92z"/>
				<path class="st3" d="M15.73,18.45h0.36c0.18,0,0.33,0.08,0.43,0.24l0.73,1.16c0.08,0.13,0.18,0.29,0.24,0.42h0.01
					c-0.01-0.11-0.01-0.28-0.01-0.39v-1.42H18v2.58h-0.66l-0.88-1.39c-0.08-0.13-0.17-0.28-0.22-0.39h-0.01
					c0,0.11,0.01,0.25,0.01,0.36v1.42h-0.52C15.73,21.03,15.73,18.45,15.73,18.45z"/>
				<rect x="14.58" y="18.45" class="st3" width="0.6" height="2.58"/>
			</g>
		</g>
	</g>
</g>
</svg>
