<svg width="16" height="16" viewBox="0 0 16 16" fill="none" xmlns="http://www.w3.org/2000/svg">
<path d="M12.3601 6.0001L5.92014 2.30677C5.57167 2.10554 5.17614 2.00012 4.77374 2.00123C4.37134 2.00233 3.97639 2.10992 3.62903 2.31306C3.28166 2.5162 2.99425 2.80765 2.79597 3.15782C2.5977 3.50798 2.49563 3.90439 2.50014 4.30677V11.7201C2.50014 12.3248 2.74036 12.9047 3.16794 13.3323C3.59552 13.7599 4.17545 14.0001 4.78014 14.0001C5.18043 13.9994 5.57354 13.8937 5.92014 13.6934L12.3601 10.0001C12.7062 9.79983 12.9935 9.51208 13.1932 9.16572C13.3929 8.81937 13.4981 8.42658 13.4981 8.02677C13.4981 7.62695 13.3929 7.23416 13.1932 6.88781C12.9935 6.54145 12.7062 6.25371 12.3601 6.05343V6.0001ZM11.6935 8.79343L5.25348 12.5401C5.10913 12.6219 4.94605 12.6649 4.78014 12.6649C4.61423 12.6649 4.45115 12.6219 4.30681 12.5401C4.16287 12.457 4.04335 12.3375 3.96027 12.1935C3.87718 12.0496 3.83345 11.8863 3.83348 11.7201V4.2801C3.83345 4.1139 3.87718 3.95062 3.96027 3.80667C4.04335 3.66273 4.16287 3.5432 4.30681 3.4601C4.45175 3.37954 4.61434 3.33603 4.78014 3.33343C4.94583 3.33683 5.10823 3.38029 5.25348 3.4601L11.6935 7.1801C11.8375 7.26316 11.957 7.38268 12.0402 7.52662C12.1233 7.67057 12.1671 7.83387 12.1671 8.0001C12.1671 8.16633 12.1233 8.32963 12.0402 8.47357C11.957 8.61752 11.8375 8.73703 11.6935 8.8201V8.79343Z" fill="#347EFF"/>
</svg>
