<svg width="28" height="18" viewBox="0 0 28 18" fill="none" xmlns="http://www.w3.org/2000/svg">
<path d="M26.9361 2.81647C26.6289 1.71529 25.7292 0.847059 24.588 0.550588C22.5033 0 14.1642 0 14.1642 0C14.1642 0 5.82522 0 3.74046 0.529412C2.62128 0.825882 1.6996 1.71529 1.39237 2.81647C0.84375 4.82824 0.84375 9 0.84375 9C0.84375 9 0.84375 13.1929 1.39237 15.1835C1.6996 16.2847 2.59933 17.1529 3.74046 17.4494C5.84717 18 14.1642 18 14.1642 18C14.1642 18 22.5033 18 24.588 17.4706C25.7292 17.1741 26.6289 16.3059 26.9361 15.2047C27.4847 13.1929 27.4847 9.02118 27.4847 9.02118C27.4847 9.02118 27.5067 4.82824 26.9361 2.81647Z" fill="#8C8C8C"/>
<path d="M11.5078 5.146V12.8542L18.4424 9.00011L11.5078 5.146Z" fill="white"/>
</svg>
