<svg width="47" height="50" viewBox="0 0 47 50" fill="none" xmlns="http://www.w3.org/2000/svg">
<g id="Frame" clip-path="url(#clip0_74_1160)">
<g id="Group 39552">
<path id="Vector" d="M16.3338 14.6836C14.6129 15.3857 13.4168 17.3786 12.276 18.702C11.1438 20.0154 9.46978 21.4464 8.91457 23.1452C7.94866 26.0998 10.3032 28.5485 12.5547 30.1717C14.9134 31.8722 17.6666 33.3083 18.7206 36.1548C19.1891 37.4196 19.3138 38.7944 19.1235 40.1238C19.037 40.7276 18.8827 41.3267 18.6623 41.8973C18.5303 42.2387 18.3755 42.5733 18.1981 42.8946C16.9758 45.1075 14.8947 45.0648 21.9615 38.6516C19.9318 40.4937 18.6001 43.0611 16.5812 44.8929C18.2569 43.3723 19.6614 41.5125 21.1203 39.8042C22.1395 38.6111 23.27 37.4411 23.9031 35.9954C24.9315 33.6473 24.8255 30.7983 23.4556 28.5992C21.8823 26.0737 18.9196 24.876 16.7171 22.9809C14.6486 21.2009 13.0014 18.2142 14.9103 15.7262C13.1811 17.7324 11.4515 19.7387 9.72227 21.7446C10.0839 21.3576 10.4641 21.1249 10.9532 20.9252C11.1706 20.8364 11.6873 20.1167 11.7637 20.0298C12.4057 19.3009 13.0413 18.5662 13.6752 17.8308C14.3093 17.0953 14.9418 16.3585 15.5679 15.6165C15.747 15.4047 16.0966 14.7803 16.3338 14.6836Z" fill="#3BAEFF"/>
<path id="Vector_2" d="M0 48.0173C9.9238 42.2434 22.5101 43.0508 31.5648 50.0461C31.6725 50.1292 36.9353 43.7971 36.9451 43.8047C27.8904 36.8094 15.3038 36.002 5.38026 41.776C5.118 41.9286 4.7221 42.4984 4.56976 42.6714C3.92778 43.4003 3.29222 44.135 2.65832 44.8704C2.02415 45.6059 1.39166 46.3427 0.765579 47.0847C0.555491 47.3332 0.27091 47.8595 0 48.0173Z" fill="#3BAEFF"/>
<path id="Vector_3" d="M25.8868 23.5749C27.7795 25.4426 29.6723 27.3106 31.565 29.1783C31.4241 29.0392 37.1738 23.1623 36.9453 22.9369C35.0525 21.0692 33.1598 19.2012 31.267 17.3335C31.4079 17.4725 25.658 23.3492 25.8868 23.5749Z" fill="#3BAEFF"/>
<path id="Vector_4" d="M26.9131 33.6199C29.738 34.7679 32.1684 36.5172 34.1239 38.8099C34.0851 38.7646 36.6396 35.955 36.8461 35.7155C37.0592 35.4683 39.6247 32.7098 39.5041 32.5686C37.5486 30.2758 35.1182 28.5265 32.2933 27.3785C32.0721 27.2886 29.808 30.1984 29.5711 30.473C29.3468 30.7332 27.0869 33.6905 26.9131 33.6199Z" fill="#3BAEFF"/>
<path id="Vector_5" d="M9.36106 9.24138C11.5016 11.4369 13.6418 13.6324 15.7823 15.8279C15.6071 15.6482 21.4234 9.85408 21.1625 9.58657C19.022 7.39104 16.8818 5.19552 14.7413 3C14.9165 3.17979 9.10019 8.97386 9.36106 9.24138Z" fill="#3BAEFF"/>
</g>
</g>
<defs>
<clipPath id="clip0_74_1160">
<rect width="47" height="50" fill="white"/>
</clipPath>
</defs>
</svg>
