<svg width="22" height="23" viewBox="0 0 22 23" fill="none" xmlns="http://www.w3.org/2000/svg">
<path d="M6.24559 0.696777C6.44883 0.696777 6.64375 0.777514 6.78746 0.921226C6.93117 1.06494 7.01191 1.25985 7.01191 1.46309V2.8961H15.241V1.47294C15.241 1.26971 15.3218 1.07479 15.4655 0.931078C15.6092 0.787367 15.8041 0.70663 16.0074 0.70663C16.2106 0.70663 16.4055 0.787367 16.5492 0.931078C16.6929 1.07479 16.7737 1.26971 16.7737 1.47294V2.8961H19.7404C20.3209 2.8961 20.8776 3.12663 21.2882 3.537C21.6988 3.94736 21.9296 4.50398 21.9299 5.08448V20.4031C21.9296 20.9836 21.6988 21.5402 21.2882 21.9506C20.8776 22.361 20.3209 22.5915 19.7404 22.5915H2.22463C1.64413 22.5915 1.0874 22.361 0.676825 21.9506C0.26625 21.5402 0.0354465 20.9836 0.0351563 20.4031L0.0351562 5.08448C0.0354465 4.50398 0.26625 3.94736 0.676825 3.537C1.0874 3.12663 1.64413 2.8961 2.22463 2.8961H5.47928V1.462C5.47957 1.25895 5.56043 1.06431 5.70411 0.920839C5.84779 0.777363 6.04254 0.696777 6.24559 0.696777ZM1.56779 9.17222V20.4031C1.56779 20.4894 1.58478 20.5748 1.61779 20.6545C1.65079 20.7342 1.69918 20.8066 1.76017 20.8676C1.82116 20.9286 1.89357 20.9769 1.97327 21.01C2.05296 21.043 2.13837 21.06 2.22463 21.06H19.7404C19.8267 21.06 19.9121 21.043 19.9918 21.01C20.0715 20.9769 20.1439 20.9286 20.2049 20.8676C20.2659 20.8066 20.3142 20.7342 20.3472 20.6545C20.3803 20.5748 20.3972 20.4894 20.3972 20.4031V9.18755L1.56779 9.17222ZM7.33376 16.7007V18.5245H5.50883V16.7007H7.33376ZM11.8944 16.7007V18.5245H10.0706V16.7007H11.8944ZM16.4562 16.7007V18.5245H14.6313V16.7007H16.4562ZM7.33376 12.347V14.1708H5.50883V12.347H7.33376ZM11.8944 12.347V14.1708H10.0706V12.347H11.8944ZM16.4562 12.347V14.1708H14.6313V12.347H16.4562ZM5.47928 4.42764H2.22463C2.13837 4.42764 2.05296 4.44463 1.97327 4.47764C1.89357 4.51065 1.82116 4.55903 1.76017 4.62002C1.69918 4.68101 1.65079 4.75342 1.61779 4.83312C1.58478 4.91281 1.56779 4.99822 1.56779 5.08448V7.64069L20.3972 7.65601V5.08448C20.3972 4.99822 20.3803 4.91281 20.3472 4.83312C20.3142 4.75342 20.2659 4.68101 20.2049 4.62002C20.1439 4.55903 20.0715 4.51065 19.9918 4.47764C19.9121 4.44463 19.8267 4.42764 19.7404 4.42764H16.7737V5.44465C16.7737 5.64789 16.6929 5.8428 16.5492 5.98651C16.4055 6.13023 16.2106 6.21096 16.0074 6.21096C15.8041 6.21096 15.6092 6.13023 15.4655 5.98651C15.3218 5.8428 15.241 5.64789 15.241 5.44465V4.42764H7.01191V5.43479C7.01191 5.63803 6.93117 5.83295 6.78746 5.97666C6.64375 6.12037 6.44883 6.20111 6.24559 6.20111C6.04235 6.20111 5.84744 6.12037 5.70373 5.97666C5.56001 5.83295 5.47928 5.63803 5.47928 5.43479V4.42764Z" fill="white"/>
</svg>
