<svg width="848" height="153" viewBox="0 0 848 153" fill="none" xmlns="http://www.w3.org/2000/svg">
<g clip-path="url(#clip0_74_1151)">
<path d="M52.819 57.6676V8.29834H73.3998V74.7396H52.819V60.7448C51.7003 60.9492 50.0611 61.1288 47.9022 61.2827C45.7411 61.4366 43.2397 61.5656 40.3936 61.6674C40.0377 64.4873 39.5935 67.1021 39.0603 69.5109C38.5264 71.9197 37.9797 73.8675 37.4211 75.3552L18.8982 71.8186C19.3551 70.5376 19.7866 69.0499 20.1934 67.3578C20.5995 65.6665 20.9562 63.8974 21.2605 62.0521H8.22571V45.4411C12.4949 45.4411 16.8261 45.4411 21.2224 45.4411C25.6172 45.4411 29.76 45.4018 33.647 45.3256C37.5348 45.2487 40.9268 45.1333 43.823 44.9794C46.72 44.8262 48.8033 44.5946 50.0738 44.2876L52.819 57.6676ZM30.5601 31.9834H49.3881V42.6724H10.665V10.3752H49.0838V21.2951H30.5601V22.9864H48.398V30.292H30.5601V31.9834ZM78.4295 68.7414V10.3752H99.3917V46.7484C102.746 46.7484 105.998 46.3388 109.149 45.518C112.299 44.6987 114.967 43.7754 117.153 42.7494L120.659 55.2837V8.29834H141.545V74.9704H120.659V65.9735C119.083 66.3839 117.114 66.7807 114.751 67.1647C112.388 67.5494 109.911 67.8708 107.32 68.1258C104.728 68.383 102.262 68.5754 99.9256 68.7029C97.5873 68.8319 95.6572 68.8704 94.1324 68.8183L78.4295 68.7414ZM146.271 48.2867C149.421 46.4927 151.835 43.9549 153.513 40.6733C155.19 37.3924 156.359 33.2402 157.019 28.2152H148.253V10.2213H187.433V28.2159H178.21C178.007 30.6262 177.74 33.0358 177.41 35.4446C177.079 37.8549 176.634 40.1867 176.077 42.4423C178.413 42.6475 180.776 43.0843 183.165 43.749C185.553 44.4158 187.663 45.3905 189.492 46.6715V8.29834H210.378V74.9704H189.491V55.2837L184.918 72.8943H184.841C183.672 72.1248 182.122 71.4074 180.191 70.7413C178.259 70.0759 176.265 69.5244 174.207 69.0884C172.149 68.6539 170.331 68.4094 168.757 68.3574L170.891 57.1305C168.858 60.9243 166.28 64.1411 163.154 66.7815C160.028 69.4218 156.229 71.2294 151.758 72.2025L146.271 48.2867ZM280.809 19.219V8.29834H301.39V74.7396H280.809V58.6679H275.854C275.397 62.5644 273.644 65.6657 270.595 67.9726C267.545 70.2803 263.073 71.4338 257.179 71.4338C252.758 71.4338 249.035 70.7677 246.011 69.4347C242.987 68.1016 240.726 66.2949 239.228 64.0128C237.728 61.7323 236.952 59.1817 236.903 56.361V24.063C236.903 21.2943 237.639 18.7694 239.114 16.4881C240.587 14.2075 242.836 12.4 245.859 11.0662C248.882 9.7332 252.655 9.06707 257.179 9.06707C262.362 9.06707 266.427 10.0033 269.375 11.8742C272.322 13.7458 274.279 16.1939 275.245 19.2182L280.809 19.219ZM257.865 49.5933V30.9076C257.865 30.7032 257.826 30.4723 257.75 30.2151C257.674 29.9593 257.356 29.8303 256.797 29.8303C256.289 29.8303 255.997 29.9593 255.921 30.2151C255.845 30.4723 255.807 30.7024 255.807 30.9076V49.594C255.807 49.7479 255.845 49.9539 255.921 50.2089C255.997 50.4661 256.289 50.5936 256.797 50.5936C257.356 50.5936 257.675 50.4661 257.75 50.2089C257.826 49.9531 257.865 49.7472 257.865 49.5933ZM276.007 36.5203V41.3651H280.809V36.5203H276.007ZM322.809 48.209C317.676 48.209 313.61 47.2222 310.612 45.2487C307.614 43.276 306.115 40.622 306.115 37.2891V29.3694C306.115 27.7814 306.432 26.551 307.068 25.6781C307.703 24.8068 308.579 24.1663 309.698 23.7552H306.038V11.5279H313.356V8.29834H331.651V11.5279H338.739V23.7552H335.462C336.477 24.1663 337.278 24.7932 337.863 25.6389C338.446 26.4853 338.739 27.6773 338.739 29.2148V37.2898C338.739 40.6227 337.367 43.2767 334.623 45.2495C331.881 47.223 327.941 48.209 322.809 48.209ZM369.536 50.0557H360.769C363.869 50.7226 366.283 52.2352 368.012 54.5927C369.738 56.9517 370.604 59.5913 370.604 62.5131C370.604 65.0773 370.019 67.3329 368.85 69.2808C367.68 71.2294 366.079 72.7412 364.048 73.8177C362.014 74.895 359.702 75.4329 357.111 75.4329H320.065C317.524 75.4329 315.237 74.8822 313.204 73.78C311.171 72.6771 309.557 71.1539 308.364 69.2053C307.169 67.2575 306.572 65.0275 306.572 62.5146C306.674 60.2076 307.36 58.0931 308.63 56.1709C309.9 54.2479 311.552 52.6848 313.585 51.48C315.617 50.2752 317.777 49.6725 320.065 49.6725H355.815V36.3672H353.452V47.9789H340.417V8.99088H353.452V17.6808H355.815V8.29834H369.536V50.0557ZM323.114 33.9833V28.2929C323.114 28.0884 323.088 27.9217 323.037 27.7927C322.986 27.6652 322.782 27.6003 322.428 27.6003C322.072 27.6003 321.868 27.6652 321.818 27.7927C321.767 27.9217 321.742 28.0884 321.742 28.2929V33.9833C321.742 34.8041 321.767 35.342 321.818 35.5985C321.868 35.8557 322.072 35.9832 322.428 35.9832C322.783 35.9832 322.986 35.8557 323.037 35.5985C323.088 35.342 323.114 34.8041 323.114 33.9833ZM325.782 61.8975H351.394C351.546 61.8975 351.699 61.8726 351.851 61.8205C352.003 61.77 352.08 61.5648 352.08 61.2057C352.08 60.8474 352.003 60.6422 351.851 60.5909C351.699 60.5403 351.546 60.5132 351.394 60.5132H325.782C325.578 60.5132 325.413 60.5396 325.286 60.5909C325.159 60.6422 325.096 60.8481 325.096 61.2057C325.096 61.5656 325.159 61.77 325.286 61.8205C325.413 61.8726 325.578 61.8975 325.782 61.8975ZM9.06399 89.3372H65.9256V107.176H47.0228V143.932H27.9668V107.176H9.06399V89.3372ZM88.7954 130.244V143.932H69.7401V89.3372H96.3414C115.169 89.3372 123.4 97.1799 123.4 109.637C123.4 117.557 120.657 123.17 114.712 126.554L123.629 143.932H104.041L97.9432 130.244C97.4093 130.244 96.8761 130.244 96.3422 130.244H88.7954ZM103.583 109.714C103.583 107.099 101.982 105.485 96.3414 105.485H88.7954V114.097H96.3414C102.135 114.096 103.583 112.405 103.583 109.714ZM166.012 135.628H148.634L146.195 143.932H125.92L144.289 89.3372H170.28L188.65 143.932H168.451L166.012 135.628ZM152.674 121.863H161.972L157.323 106.177L152.674 121.863ZM219.675 89.3372H240.713L222.343 143.932H196.352L177.983 89.3372H198.943L209.309 127.092L219.675 89.3372ZM243.08 89.3372H290.337V106.254H262.134V111.099H289.117V121.864H262.134V127.016H290.337V143.933H243.08V89.3372ZM294.99 89.3372H314.045V126.247H339.503V143.932H294.99V89.3372ZM357.418 89.3372H414.279V107.176H395.377V143.932H376.322V107.176H357.419L357.418 89.3372ZM446.144 88.5677C463.981 88.5677 476.176 99.4099 476.176 116.634C476.176 135.165 464.361 144.701 446.144 144.701C429.3 144.701 415.961 135.165 415.961 116.634C415.961 99.1798 429.3 88.5677 446.144 88.5677ZM446.144 127.246C452.776 127.246 456.739 123.325 456.739 116.635C456.739 110.33 452.7 106.024 446.144 106.024C439.742 106.024 435.473 110.253 435.473 116.635C435.474 123.247 439.743 127.246 446.144 127.246ZM494.092 89.3372H550.953V107.176H532.05V143.932H512.996V107.176H494.092L494.092 89.3372ZM609.725 89.3372V119.095C609.725 136.627 598.749 144.701 582.055 144.701C566.278 144.701 554.617 136.55 554.617 119.095V89.3372H573.671V119.557C573.671 124.402 577.635 127.016 582.132 127.016C586.476 127.016 590.669 124.402 590.669 119.557V89.3372H609.725ZM670.704 89.3372V143.932H651.878L633.203 116.942V143.932H614.148V89.3372H633.509L651.421 116.019V89.3372H670.704ZM694.412 143.932H675.358V89.3372H694.412V143.932ZM751.047 107.099H731.915C731.686 104.639 728.561 103.64 724.217 103.64C719.034 103.64 717.128 104.409 717.128 106.331C717.128 108.022 719.491 108.099 724.751 108.484C746.855 110.022 751.733 115.712 751.733 127.169C751.733 138.935 742.206 144.702 724.674 144.702C707.447 144.702 698.148 137.935 697.539 126.093H716.594C716.746 128.4 718.957 129.63 724.674 129.63C731.152 129.63 732.296 129.015 732.296 126.939C732.296 125.323 729.247 125.17 724.75 124.862C704.703 123.325 698.148 117.942 698.148 106.639C698.148 95.9502 708.058 88.5684 724.216 88.5684C741.976 88.5677 750.589 95.5655 751.047 107.099ZM774.679 143.932H755.624V89.3372H774.679V143.932ZM817.136 135.628H799.758L797.319 143.932H777.044L795.413 89.3372H821.405L839.774 143.932H819.575L817.136 135.628ZM803.798 121.863H813.097L808.447 106.177L803.798 121.863Z" fill="#3BAEFF"/>
<path d="M369.536 8.29837V50.0557H360.769C363.869 50.7226 366.283 52.2352 368.012 54.5927C369.738 56.9517 370.604 59.5913 370.604 62.5131C370.604 65.078 370.019 67.3329 368.85 69.2808C367.681 71.2294 366.079 72.7412 364.048 73.8177C362.014 74.895 359.702 75.4329 357.111 75.4329H320.065C317.524 75.4329 315.237 74.8822 313.204 73.78C311.171 72.6771 309.557 71.154 308.364 69.2054C307.169 67.2575 306.572 65.0275 306.572 62.5146C306.674 60.2084 307.36 58.0931 308.63 56.1709C309.9 54.2479 311.552 52.6848 313.585 51.48C315.618 50.2753 317.777 49.6725 320.065 49.6725H355.815V36.3672H353.452V47.9789H340.417V8.9909H353.452V17.68H355.815V8.29837H369.536ZM325.782 61.8975H351.394C351.546 61.8975 351.699 61.8726 351.851 61.8206C352.003 61.77 352.08 61.5648 352.08 61.2057C352.08 60.8474 352.004 60.6422 351.851 60.5909C351.699 60.5404 351.546 60.5132 351.394 60.5132H325.782C325.578 60.5132 325.413 60.5396 325.286 60.5909C325.159 60.6422 325.096 60.8481 325.096 61.2057C325.096 61.5656 325.159 61.77 325.286 61.8206C325.413 61.8726 325.578 61.8975 325.782 61.8975ZM331.652 8.29837V11.5279H338.741V23.7552H335.463C336.479 24.1664 337.28 24.7933 337.864 25.6389C338.448 26.4854 338.741 27.6773 338.741 29.2148V37.2898C338.741 40.6228 337.369 43.2767 334.624 45.2495C331.881 47.223 327.942 48.2097 322.809 48.2097C317.676 48.2097 313.61 47.223 310.613 45.2495C307.614 43.2767 306.115 40.6228 306.115 37.2898V29.3694C306.115 27.7807 306.432 26.551 307.068 25.6782C307.703 24.8068 308.579 24.1664 309.698 23.7552H306.039V11.5279H313.357V8.29837H331.652ZM322.428 35.9825C322.783 35.9825 322.986 35.855 323.037 35.5977C323.087 35.3412 323.114 34.8033 323.114 33.9826V28.2921C323.114 28.087 323.088 27.921 323.037 27.792C322.986 27.6645 322.782 27.5996 322.428 27.5996C322.072 27.5996 321.868 27.6645 321.818 27.792C321.767 27.921 321.742 28.087 321.742 28.2921V33.9826C321.742 34.8033 321.767 35.3412 321.818 35.5977C321.868 35.855 322.072 35.9825 322.428 35.9825ZM301.39 8.29837V74.7396H280.809V58.6679H275.854C275.397 62.5644 273.644 65.6657 270.595 67.9727C267.546 70.2804 263.073 71.4338 257.179 71.4338C252.758 71.4338 249.035 70.7677 246.011 69.4347C242.987 68.1017 240.726 66.2949 239.228 64.0128C237.728 61.7323 236.952 59.1817 236.903 56.361V24.063C236.903 21.2944 237.639 18.7694 239.114 16.4881C240.587 14.2076 242.836 12.4 245.86 11.0662C248.883 9.73323 252.656 9.0671 257.18 9.0671C262.363 9.0671 266.428 10.0033 269.376 11.8742C272.322 13.7459 274.28 16.1939 275.246 19.2183H280.811V8.29837H301.39ZM256.797 50.5929C257.355 50.5929 257.674 50.4654 257.749 50.2081C257.826 49.9524 257.864 49.7472 257.864 49.5933V30.9076C257.864 30.7032 257.826 30.4724 257.749 30.2151C257.673 29.9594 257.355 29.8304 256.797 29.8304C256.288 29.8304 255.997 29.9594 255.92 30.2151C255.844 30.4724 255.806 30.7024 255.806 30.9076V49.5941C255.806 49.7479 255.845 49.9539 255.92 50.2089C255.997 50.4661 256.289 50.5929 256.797 50.5929ZM276.007 41.3651H280.809V36.5204H276.007V41.3651ZM210.377 8.29837V74.9705H189.491V55.2837L184.918 72.8944H184.842C183.672 72.1249 182.123 71.4074 180.192 70.7406C178.26 70.0752 176.266 69.5237 174.208 69.0877C172.15 68.6531 170.332 68.4087 168.758 68.3567L170.892 57.1297C168.859 60.9236 166.281 64.1403 163.155 66.7807C160.029 69.4211 156.229 71.2286 151.759 72.2018L146.27 48.2867C149.421 46.4927 151.835 43.9549 153.512 40.6733C155.188 37.3924 156.357 33.241 157.018 28.2152H148.251V10.2213H187.431V28.216H178.208C178.004 30.6263 177.738 33.0358 177.408 35.4446C177.077 37.8549 176.632 40.1867 176.074 42.4424C178.411 42.6476 180.774 43.0844 183.163 43.749C185.55 44.4159 187.661 45.3906 189.49 46.6715V8.29837H210.377ZM141.545 8.29837V74.9705H120.659V65.9735C119.083 66.3839 117.114 66.7807 114.751 67.1647C112.388 67.5495 109.911 67.8708 107.32 68.1266C104.728 68.3838 102.263 68.5762 99.9257 68.7037C98.2581 68.7957 96.7976 68.8417 95.5443 68.8417C95.0403 68.8417 94.5699 68.8342 94.1325 68.8199L78.4295 68.7422V10.3752H99.3917V46.7485C102.746 46.7485 105.998 46.3388 109.149 45.518C112.299 44.6988 114.967 43.7754 117.153 42.7494L120.66 55.2837V8.29837H141.545ZM73.3999 8.29837V74.7396H52.819V60.7448C51.7003 60.9492 50.0619 61.1288 47.9023 61.2827C45.7411 61.4366 43.2398 61.5656 40.3937 61.6674C40.0377 64.4874 39.5935 67.1021 39.0603 69.5109C38.5264 71.9197 37.9798 73.8675 37.4212 75.3552L18.8983 71.8186C19.3552 70.5376 19.7859 69.0499 20.1935 67.3578C20.5995 65.6665 20.9562 63.8974 21.2606 62.0522H8.22575V45.4411C12.4949 45.4411 16.8261 45.4411 21.2224 45.4411C25.6172 45.4411 29.76 45.4019 33.6471 45.3257C37.5348 45.2487 40.9268 45.1333 43.8231 44.9794C46.72 44.8263 48.8034 44.5947 50.0739 44.2876L52.8183 57.6676V8.29837H73.3999ZM49.0838 10.3752V21.2951H30.5609V22.9865H48.3988V30.2921H30.5602V31.9842H49.3881V42.6732H10.6651V10.3752H49.0838ZM724.217 88.5677C741.976 88.5677 750.59 95.5647 751.047 107.099H731.915C731.686 104.638 728.561 103.639 724.217 103.639C719.034 103.639 717.128 104.408 717.128 106.33C717.128 108.021 719.491 108.098 724.751 108.483C746.855 110.021 751.733 115.711 751.733 127.169C751.733 138.934 742.206 144.701 724.674 144.701C707.448 144.701 698.149 137.934 697.54 126.092H716.595C716.747 128.399 718.957 129.629 724.674 129.629C731.153 129.629 732.297 129.014 732.297 126.938C732.297 125.323 729.248 125.169 724.751 124.862C704.704 123.324 698.149 117.941 698.149 106.638C698.148 95.9495 708.058 88.5677 724.217 88.5677ZM446.144 88.5677C463.98 88.5677 476.176 99.4099 476.176 116.634C476.176 135.166 464.361 144.701 446.144 144.701C429.3 144.701 415.961 135.165 415.961 116.634C415.961 99.1798 429.3 88.5677 446.144 88.5677ZM446.144 127.246C452.776 127.246 456.739 123.325 456.739 116.635C456.739 110.33 452.7 106.024 446.144 106.024C439.742 106.024 435.473 110.253 435.473 116.635C435.474 123.247 439.743 127.246 446.144 127.246ZM821.405 89.3372L839.774 143.932H819.575L817.135 135.628H799.758L797.318 143.932H777.043L795.412 89.3372H821.405ZM803.798 121.863H813.096L808.446 106.177L803.798 121.863ZM774.679 89.3372V143.932H755.624V89.3372H774.679ZM694.413 89.3372V143.932H675.358V89.3372H694.413ZM670.704 89.3372V143.932H651.878L633.203 116.942V143.932H614.148V89.3372H633.509L651.421 116.019V89.3372H670.704ZM609.725 89.3372V119.095C609.725 136.627 598.749 144.701 582.056 144.701C566.278 144.701 554.617 136.55 554.617 119.095V89.3372H573.672V119.556C573.672 124.401 577.636 127.016 582.133 127.016C586.477 127.016 590.669 124.401 590.669 119.556V89.3372H609.725ZM550.954 89.3372V107.176H532.051V143.932H512.997V107.176H494.093V89.3372H550.954ZM414.279 89.3372V107.176H395.377V143.932H376.322V107.176H357.419V89.3372H414.279ZM314.045 89.3372V126.247H339.503V143.932H294.99V89.3372H314.045ZM290.337 89.3372V106.254H262.134V111.099H289.117V121.864H262.134V127.016H290.337V143.933H243.08V89.3379L290.337 89.3372ZM240.712 89.3372L222.343 143.932H196.351L177.982 89.3372H198.943L209.309 127.092L219.675 89.3372H240.712ZM170.281 89.3372L188.65 143.932H168.451L166.011 135.628H148.633L146.194 143.932H125.919L144.288 89.3372H170.281ZM152.674 121.863H161.972L157.323 106.177L152.674 121.863ZM96.3415 89.3372C115.169 89.3372 123.4 97.1799 123.4 109.637C123.4 117.557 120.657 123.17 114.712 126.554L123.629 143.932H104.041L97.9433 130.244C97.4093 130.244 96.8762 130.244 96.3422 130.244H88.7962V143.932H69.7402V89.3372H96.3415ZM88.7955 114.097H96.3415C102.135 114.097 103.583 112.405 103.583 109.713C103.583 107.099 101.982 105.484 96.3415 105.484H88.7955V114.097ZM65.9256 89.3372V107.176H47.0229V143.932H27.9668V107.176H9.06403V89.3372H65.9256ZM369.536 0H355.815C354.643 0 353.529 0.247442 352.52 0.692536H340.417C339.029 0.692536 337.722 1.0388 336.576 1.65062C335.203 0.614079 333.499 0 331.652 0H313.357C310.999 0 308.873 1.00033 307.374 2.60418C305.874 1.00033 303.748 0 301.39 0H280.809C277.567 0 274.762 1.89278 273.422 4.64331C269.148 2.03612 263.83 0.768731 257.179 0.768731C251.536 0.768731 246.619 1.67476 242.565 3.46268C238.059 5.44976 234.579 8.30817 232.221 11.9579C229.87 15.5964 228.677 19.6701 228.677 24.063V56.361C228.677 56.41 228.678 56.4591 228.679 56.5089C228.757 60.9221 230 64.9905 232.374 68.6003C234.751 72.2199 238.233 75.061 242.719 77.039C246.771 78.8262 251.637 79.7322 257.18 79.7322C263.48 79.7322 268.609 78.6383 272.749 76.3993C273.119 78.2408 274.093 79.8605 275.455 81.0396H243.081C242.678 81.0396 242.281 81.069 241.894 81.1256C241.506 81.069 241.112 81.0396 240.714 81.0396H219.676C215.979 81.0396 212.736 83.5283 211.749 87.123L209.31 96.0061L206.872 87.123C206.455 85.6075 205.639 84.2888 204.555 83.2696H210.379C214.922 83.2696 218.605 79.5542 218.605 74.9712V8.29837C218.605 3.7154 214.922 0 210.379 0H189.491C187.488 0 185.652 0.722712 184.226 1.92296H148.253C147.804 1.92296 147.364 1.95917 146.934 2.02933C145.491 0.764959 143.607 0 141.545 0H120.659C116.116 0 112.433 3.7154 112.433 8.29837V35.7682C111.06 36.3227 109.448 36.8508 107.617 37.3442V10.3752C107.617 5.79226 103.935 2.07685 99.3917 2.07685H78.8431C77.3931 0.784573 75.4877 0 73.3999 0H52.819C50.7319 0 48.8258 0.784573 47.3758 2.07685H10.6651C6.1222 2.07685 2.43931 5.79226 2.43931 10.3752V39.544C0.932501 41.0475 0 43.1342 0 45.4411V62.0507C0 66.6336 3.68289 70.349 8.22575 70.349H10.8019C10.4632 72.2516 10.7907 74.2304 11.7561 75.9346C12.9511 78.0439 15.0023 79.5195 17.3683 79.9714L22.9566 81.0381H9.06403C4.52117 81.0381 0.838279 84.7535 0.838279 89.3364V107.176C0.838279 111.759 4.52117 115.474 9.06403 115.474H19.7411V143.931C19.7411 148.514 23.4239 152.23 27.9668 152.23H47.0221C51.565 152.23 55.2479 148.514 55.2479 143.931V115.474H61.5137V143.931C61.5137 148.514 65.1965 152.23 69.7394 152.23H88.7947C92.2398 152.23 95.1906 150.093 96.4155 147.061L96.5367 147.333C97.864 150.313 100.801 152.23 104.039 152.23H123.628C124.014 152.23 124.397 152.203 124.773 152.149C125.15 152.203 125.532 152.23 125.919 152.23H146.194C149.837 152.23 153.046 149.813 154.081 146.289L154.775 143.925H159.87L160.564 146.289C161.599 149.813 164.807 152.23 168.451 152.23H188.65C190.012 152.23 191.33 151.89 192.5 151.265C193.66 151.885 194.976 152.23 196.351 152.23H222.343C225.866 152.23 229 149.965 230.132 146.599L234.853 132.566V143.932C234.853 148.515 238.536 152.231 243.079 152.231H290.336C291.144 152.231 291.924 152.113 292.662 151.894C293.401 152.113 294.18 152.231 294.989 152.231H339.502C344.045 152.231 347.728 148.515 347.728 143.932V126.247C347.728 121.664 344.045 117.948 339.502 117.948H322.27V89.3372C322.27 87.1758 321.45 85.2069 320.108 83.7298H351.353C350.011 85.2069 349.191 87.1751 349.191 89.3372V107.176C349.191 111.759 352.874 115.475 357.417 115.475H368.095V143.932C368.095 148.515 371.778 152.231 376.321 152.231H395.375C399.918 152.231 403.601 148.515 403.601 143.932V115.475H407.75C407.739 115.86 407.734 116.246 407.734 116.634C407.734 138.385 423.169 152.999 446.143 152.999C469.741 152.999 484.4 139.065 484.4 116.634C484.4 105.854 480.595 96.6488 473.395 90.0146C466.476 83.6392 457.053 80.2693 446.143 80.2693C437.189 80.2693 428.862 82.7973 422.291 87.452C421.444 83.7773 418.178 81.0381 414.278 81.0381H368.103C371.362 79.2607 373.979 76.7523 375.885 73.5786C377.838 70.3219 378.828 66.5997 378.828 62.5123C378.828 59.3673 378.2 56.3972 376.955 53.6391C377.471 52.5543 377.76 51.339 377.76 50.0557V8.29837C377.762 3.7154 374.079 0 369.536 0ZM151.752 80.5017C152.327 80.5017 152.91 80.4406 153.494 80.3131C157.727 79.3912 161.561 77.847 164.94 75.7067C166.026 76.2801 167.237 76.609 168.49 76.6497C169.578 76.6852 170.934 76.8738 172.522 77.2088C174.233 77.5716 175.92 78.0371 177.533 78.5931C179.203 79.1702 180.014 79.6251 180.348 79.8446C181.239 80.4308 182.23 80.8344 183.264 81.0381H177.982C176.62 81.0381 175.301 81.3783 174.132 82.0037C172.971 81.3828 171.656 81.0381 170.281 81.0381H147.156C147.577 80.642 147.956 80.2014 148.287 79.7247C149.354 80.2271 150.534 80.5017 151.752 80.5017ZM95.5443 77.1393C96.9419 77.1393 98.5669 77.0888 100.374 76.9892C102.816 76.8557 105.425 76.6528 108.124 76.3849C109.599 76.2393 111.056 76.0719 112.483 75.8833C112.934 80.037 116.422 83.2688 120.659 83.2688H138.677C137.705 84.1832 136.946 85.3404 136.499 86.6696L130.978 103.079C129.731 97.0622 126.7 92.0281 122.032 88.3059C115.985 83.4838 107.342 81.0388 96.3415 81.0388H78.7556C79.9528 80.0023 80.8509 78.624 81.3018 77.0541L93.9822 77.1167C94.4712 77.1318 94.9962 77.1393 95.5443 77.1393ZM43.4155 81.0388C44.1371 80.2648 44.7204 79.3407 45.113 78.2951C45.1541 78.1849 45.1953 78.0741 45.2364 77.9609C45.7352 79.1551 46.5032 80.2067 47.4641 81.0388H43.4155ZM306.746 81.0388C307.077 80.7522 307.385 80.4391 307.668 80.1026C308.168 80.4338 308.685 80.7461 309.22 81.0388H306.746ZM446.144 118.948C443.921 118.948 443.699 118.279 443.699 116.635C443.699 115.067 444.065 114.322 446.144 114.322C448.027 114.322 448.513 114.797 448.513 116.635C448.513 118.598 448.338 118.948 446.144 118.948ZM724.217 80.2693C714.71 80.2693 707.31 82.402 701.858 85.8044C700.543 82.9874 697.704 81.0388 694.413 81.0388H675.359C674.551 81.0388 673.77 81.1565 673.032 81.3753C672.295 81.1565 671.514 81.0388 670.706 81.0388H651.423C646.999 81.0388 643.39 84.5619 643.204 88.9789L640.321 84.6841C638.792 82.4043 636.24 81.0388 633.511 81.0388H614.149C613.383 81.0388 612.641 81.1444 611.937 81.3421C611.234 81.1444 610.492 81.0388 609.725 81.0388H590.67C586.127 81.0388 582.444 84.7542 582.444 89.3372V118.699C582.351 118.71 582.247 118.717 582.133 118.717C582.049 118.717 581.971 118.714 581.898 118.709V89.3372C581.898 84.7542 578.216 81.0388 573.673 81.0388H554.617C553.988 81.0388 553.375 81.1105 552.786 81.2455C552.197 81.1105 551.584 81.0388 550.955 81.0388H494.093C489.55 81.0388 485.867 84.7542 485.867 89.3372V107.176C485.867 111.759 489.55 115.475 494.093 115.475H504.771V143.932C504.771 148.515 508.454 152.231 512.997 152.231H532.051C536.594 152.231 540.277 148.515 540.277 143.932V115.475H546.392V119.095C546.392 132.677 552.2 140.542 557.072 144.748C563.325 150.146 571.964 152.999 582.057 152.999C591.923 152.999 600.018 150.606 606.152 145.881C607.021 149.523 610.272 152.231 614.149 152.231H633.205C637.748 152.231 641.43 148.515 641.43 143.932V143.329L645.134 148.682C646.673 150.906 649.191 152.231 651.879 152.231H670.706C671.514 152.231 672.295 152.113 673.032 151.894C673.77 152.113 674.551 152.231 675.359 152.231H694.413C697.621 152.231 700.401 150.378 701.757 147.675C707.622 151.21 715.32 153 724.674 153C734.74 153 742.506 151.315 748.373 147.853C749.76 150.458 752.487 152.231 755.625 152.231H774.679C775.082 152.231 775.478 152.201 775.865 152.145C776.253 152.201 776.647 152.231 777.045 152.231H797.32C800.962 152.231 804.172 149.813 805.207 146.29L805.901 143.926H810.995L811.689 146.29C812.724 149.813 815.933 152.231 819.576 152.231H839.774C842.427 152.231 844.915 150.94 846.46 148.766C848.005 146.591 848.416 143.798 847.563 141.265L829.194 86.6696C828.061 83.3028 824.928 81.0388 821.405 81.0388H795.413C791.888 81.0388 788.757 83.3035 787.624 86.6696L782.905 100.695V89.3372C782.905 84.7542 779.222 81.0388 774.679 81.0388H755.625C752.201 81.0388 749.265 83.1496 748.027 86.1514C742.126 82.2481 734.123 80.2693 724.217 80.2693Z" fill="#222221"/>
<path d="M369.536 8.29836V50.0557H360.769C363.869 50.7226 366.283 52.2352 368.012 54.5927C369.738 56.9517 370.604 59.5913 370.604 62.5131C370.604 65.078 370.019 67.3329 368.85 69.2808C367.681 71.2294 366.079 72.7412 364.048 73.8177C362.014 74.895 359.702 75.4329 357.111 75.4329H320.065C317.524 75.4329 315.237 74.8822 313.204 73.78C311.171 72.6771 309.557 71.154 308.364 69.2054C307.169 67.2575 306.572 65.0275 306.572 62.5146C306.674 60.2084 307.36 58.0931 308.63 56.1709C309.9 54.2479 311.552 52.6848 313.585 51.48C315.618 50.2753 317.777 49.6725 320.065 49.6725H355.815V36.3672H353.452V47.9789H340.417V8.9909H353.452V17.68H355.815V8.29836H369.536ZM325.782 61.8975H351.394C351.546 61.8975 351.699 61.8726 351.851 61.8206C352.003 61.77 352.08 61.5648 352.08 61.2057C352.08 60.8474 352.004 60.6422 351.851 60.5909C351.699 60.5404 351.546 60.5132 351.394 60.5132H325.782C325.578 60.5132 325.413 60.5396 325.286 60.5909C325.159 60.6422 325.096 60.8482 325.096 61.2057C325.096 61.5656 325.159 61.77 325.286 61.8206C325.413 61.8726 325.578 61.8975 325.782 61.8975ZM331.652 8.29836V11.5279H338.741V23.7552H335.463C336.479 24.1664 337.28 24.7933 337.864 25.6389C338.448 26.4854 338.741 27.6773 338.741 29.2148V37.2898C338.741 40.6228 337.369 43.2767 334.624 45.2495C331.881 47.223 327.942 48.2097 322.809 48.2097C317.676 48.2097 313.61 47.223 310.613 45.2495C307.614 43.2767 306.115 40.6228 306.115 37.2898V29.3694C306.115 27.7807 306.432 26.551 307.068 25.6782C307.703 24.8068 308.579 24.1664 309.698 23.7552H306.039V11.5279H313.357V8.29836H331.652ZM322.428 35.9825C322.783 35.9825 322.986 35.855 323.037 35.5977C323.087 35.3412 323.114 34.8033 323.114 33.9826V28.2921C323.114 28.087 323.088 27.921 323.037 27.792C322.986 27.6645 322.782 27.5996 322.428 27.5996C322.072 27.5996 321.868 27.6645 321.818 27.792C321.767 27.921 321.742 28.087 321.742 28.2921V33.9826C321.742 34.8033 321.767 35.3412 321.818 35.5977C321.868 35.855 322.072 35.9825 322.428 35.9825ZM301.39 8.29836V74.7396H280.809V58.6679H275.854C275.397 62.5644 273.644 65.6657 270.595 67.9727C267.546 70.2804 263.073 71.4338 257.179 71.4338C252.758 71.4338 249.035 70.7677 246.011 69.4347C242.987 68.1017 240.726 66.2949 239.228 64.0128C237.728 61.7323 236.952 59.1817 236.903 56.361V24.063C236.903 21.2944 237.639 18.7694 239.114 16.4881C240.587 14.2076 242.836 12.4 245.86 11.0662C248.883 9.73323 252.656 9.06709 257.18 9.06709C262.363 9.06709 266.428 10.0033 269.376 11.8742C272.322 13.7459 274.28 16.1939 275.246 19.2183H280.811V8.29836H301.39ZM256.797 50.5929C257.355 50.5929 257.674 50.4654 257.749 50.2081C257.826 49.9524 257.864 49.7472 257.864 49.5933V30.9076C257.864 30.7032 257.826 30.4724 257.749 30.2151C257.673 29.9594 257.355 29.8304 256.797 29.8304C256.288 29.8304 255.997 29.9594 255.92 30.2151C255.844 30.4724 255.806 30.7024 255.806 30.9076V49.5941C255.806 49.748 255.845 49.9539 255.92 50.2089C255.997 50.4661 256.289 50.5929 256.797 50.5929ZM276.007 41.3651H280.809V36.5204H276.007V41.3651ZM210.377 8.29836V74.9705H189.491V55.2837L184.918 72.8944H184.842C183.672 72.1249 182.123 71.4074 180.192 70.7406C178.26 70.0752 176.266 69.5237 174.208 69.0877C172.15 68.6531 170.332 68.4087 168.758 68.3567L170.892 57.1297C168.859 60.9236 166.281 64.1403 163.155 66.7807C160.029 69.4211 156.229 71.2287 151.759 72.2018L146.27 48.2867C149.421 46.4927 151.835 43.9549 153.512 40.6733C155.188 37.3924 156.357 33.241 157.018 28.2152H148.251V10.2213H187.431V28.216H178.208C178.004 30.6263 177.738 33.0358 177.408 35.4446C177.077 37.8549 176.632 40.1867 176.074 42.4424C178.411 42.6476 180.774 43.0844 183.163 43.749C185.55 44.4159 187.661 45.3906 189.49 46.6715V8.29836H210.377ZM141.545 8.29836V74.9705H120.659V65.9735C119.083 66.3839 117.114 66.7807 114.751 67.1647C112.388 67.5495 109.911 67.8708 107.32 68.1266C104.728 68.3838 102.263 68.5762 99.9257 68.7037C98.2581 68.7957 96.7976 68.8417 95.5443 68.8417C95.0403 68.8417 94.57 68.8342 94.1325 68.8199L78.4295 68.7422V10.3752H99.3917V46.7485C102.746 46.7485 105.998 46.3388 109.149 45.518C112.299 44.6988 114.967 43.7754 117.153 42.7494L120.66 55.2837V8.29836H141.545ZM73.3999 8.29836V74.7396H52.819V60.7448C51.7003 60.9492 50.0619 61.1288 47.9023 61.2827C45.7412 61.4366 43.2398 61.5656 40.3937 61.6674C40.0377 64.4874 39.5935 67.1021 39.0604 69.5109C38.5264 71.9197 37.9798 73.8675 37.4212 75.3552L18.8983 71.8186C19.3552 70.5376 19.7859 69.05 20.1935 67.3578C20.5995 65.6665 20.9562 63.8974 21.2606 62.0522H8.22576V45.4411C12.4949 45.4411 16.8262 45.4411 21.2224 45.4411C25.6172 45.4411 29.76 45.4019 33.6471 45.3257C37.5348 45.2487 40.9268 45.1333 43.8231 44.9794C46.72 44.8263 48.8034 44.5947 50.0739 44.2876L52.8183 57.6676V8.29836H73.3999ZM49.0838 10.3752V21.2951H30.5609V22.9865H48.3988V30.2921H30.5602V31.9842H49.3882V42.6732H10.6651V10.3752H49.0838ZM724.217 88.5677C741.976 88.5677 750.59 95.5647 751.047 107.099H731.915C731.686 104.638 728.561 103.639 724.217 103.639C719.034 103.639 717.128 104.408 717.128 106.33C717.128 108.021 719.491 108.098 724.751 108.483C746.855 110.021 751.733 115.711 751.733 127.169C751.733 138.934 742.206 144.701 724.674 144.701C707.448 144.701 698.149 137.934 697.54 126.092H716.595C716.747 128.399 718.957 129.629 724.674 129.629C731.153 129.629 732.297 129.014 732.297 126.938C732.297 125.323 729.248 125.169 724.751 124.862C704.704 123.324 698.149 117.941 698.149 106.638C698.148 95.9495 708.058 88.5677 724.217 88.5677ZM446.144 88.5677C463.98 88.5677 476.176 99.4099 476.176 116.634C476.176 135.166 464.361 144.701 446.144 144.701C429.3 144.701 415.961 135.165 415.961 116.634C415.961 99.1798 429.3 88.5677 446.144 88.5677ZM446.144 127.246C452.776 127.246 456.739 123.325 456.739 116.635C456.739 110.33 452.7 106.024 446.144 106.024C439.742 106.024 435.473 110.253 435.473 116.635C435.474 123.247 439.743 127.246 446.144 127.246ZM821.405 89.3372L839.774 143.932H819.575L817.135 135.628H799.758L797.318 143.932H777.043L795.412 89.3372H821.405ZM803.798 121.863H813.096L808.446 106.177L803.798 121.863ZM774.679 89.3372V143.932H755.624V89.3372H774.679ZM694.413 89.3372V143.932H675.358V89.3372H694.413ZM670.704 89.3372V143.932H651.878L633.203 116.942V143.932H614.148V89.3372H633.509L651.421 116.019V89.3372H670.704ZM609.725 89.3372V119.095C609.725 136.627 598.749 144.701 582.056 144.701C566.278 144.701 554.617 136.55 554.617 119.095V89.3372H573.672V119.556C573.672 124.401 577.636 127.016 582.133 127.016C586.477 127.016 590.669 124.401 590.669 119.556V89.3372H609.725ZM550.954 89.3372V107.176H532.051V143.932H512.997V107.176H494.093V89.3372H550.954ZM414.279 89.3372V107.176H395.377V143.932H376.322V107.176H357.419V89.3372H414.279ZM314.045 89.3372V126.247H339.503V143.932H294.99V89.3372H314.045ZM290.337 89.3372V106.254H262.134V111.099H289.117V121.864H262.134V127.016H290.337V143.933H243.08V89.338L290.337 89.3372ZM240.712 89.3372L222.343 143.932H196.351L177.982 89.3372H198.943L209.309 127.092L219.675 89.3372H240.712ZM170.281 89.3372L188.65 143.932H168.451L166.011 135.628H148.633L146.194 143.932H125.919L144.288 89.3372H170.281ZM152.674 121.863H161.973L157.323 106.177L152.674 121.863ZM96.3415 89.3372C115.169 89.3372 123.4 97.1799 123.4 109.637C123.4 117.557 120.657 123.17 114.712 126.554L123.629 143.932H104.041L97.9433 130.244C97.4093 130.244 96.8762 130.244 96.3422 130.244H88.7962V143.932H69.7402V89.3372H96.3415ZM88.7955 114.097H96.3415C102.135 114.097 103.583 112.405 103.583 109.713C103.583 107.099 101.982 105.484 96.3415 105.484H88.7955V114.097ZM65.9257 89.3372V107.176H47.0229V143.932H27.9668V107.176H9.06404V89.3372H65.9257ZM369.536 0.754395H355.815C354.696 0.754395 353.635 1.00259 352.681 1.44693H340.417C338.983 1.44693 337.644 1.85355 336.506 2.55967C335.199 1.43411 333.504 0.754395 331.652 0.754395H313.357C310.91 0.754395 308.738 1.94031 307.374 3.77274C306.009 1.94031 303.837 0.754395 301.39 0.754395H280.809C277.564 0.754395 274.801 2.8403 273.767 5.75529C273.633 5.66627 273.497 5.57801 273.36 5.49125C269.152 2.82069 263.86 1.52388 257.179 1.52388C251.64 1.52388 246.824 2.40879 242.865 4.15446C238.494 6.08195 235.123 8.84606 232.848 12.3706C230.577 15.8846 229.425 19.8195 229.425 24.0638V56.361C229.425 56.4055 229.425 56.4508 229.427 56.4953C229.502 60.7621 230.703 64.6948 232.997 68.1832C235.293 71.6805 238.666 74.4288 243.019 76.3472C246.975 78.0922 251.74 78.9778 257.18 78.9778C263.847 78.9778 269.161 77.7353 273.345 75.1892C273.521 78.2159 275.466 80.7635 278.152 81.794H243.081C242.678 81.794 242.281 81.8264 241.895 81.8883C241.507 81.8257 241.113 81.794 240.715 81.794H219.677C216.316 81.794 213.368 84.0564 212.47 87.3245L209.311 98.832L206.151 87.3245C205.556 85.1563 204.058 83.431 202.137 82.5152H210.38C214.51 82.5152 217.857 79.1377 217.857 74.9712V8.29836C217.857 4.13183 214.51 0.754395 210.38 0.754395H189.491C187.575 0.754395 185.827 1.48163 184.504 2.67735H148.253C147.723 2.67735 147.205 2.73318 146.706 2.83879C145.364 1.54727 143.546 0.754395 141.545 0.754395H120.659C116.529 0.754395 113.181 4.13183 113.181 8.29836V36.2744C111.555 36.9662 109.575 37.6165 107.282 38.2132C107.145 38.2487 107.007 38.2841 106.869 38.3173V10.3752C106.869 6.20868 103.521 2.83125 99.391 2.83125H78.5522C77.2114 1.54425 75.3972 0.754395 73.3999 0.754395H52.819C50.8217 0.754395 49.0075 1.54425 47.666 2.83125H10.6651C6.53499 2.83125 3.18711 6.20868 3.18711 10.3752V39.8676C1.68853 41.2467 0.747803 43.233 0.747803 45.4411V62.0507C0.747803 66.2172 4.09568 69.5946 8.22576 69.5946H11.7516C11.1437 71.5832 11.3762 73.7438 12.4052 75.5604C13.4917 77.4781 15.356 78.8194 17.5074 79.2298L30.9281 81.7925H9.06404C4.93396 81.7925 1.58608 85.1699 1.58608 89.3364V107.176C1.58608 111.342 4.93396 114.72 9.06404 114.72H20.4889V143.931C20.4889 148.098 23.8367 151.475 27.9668 151.475H47.0221C51.1522 151.475 54.5001 148.098 54.5001 143.931V114.72H62.2615V143.931C62.2615 148.098 65.6093 151.475 69.7394 151.475H88.7947C92.6362 151.475 95.8008 148.554 96.2241 144.793L97.2179 147.024C98.4248 149.733 101.094 151.475 104.039 151.475H123.627C124.014 151.475 124.397 151.445 124.773 151.386C125.149 151.445 125.532 151.475 125.918 151.475H146.193C149.505 151.475 152.422 149.278 153.363 146.075L154.216 143.171H160.428L161.28 146.075C162.221 149.278 165.138 151.475 168.45 151.475H188.649C190.025 151.475 191.353 151.094 192.5 150.399C193.636 151.088 194.96 151.475 196.35 151.475H222.342C225.546 151.475 228.393 149.417 229.423 146.356L235.6 127.996V143.931C235.6 148.098 238.948 151.475 243.078 151.475H290.335C291.147 151.475 291.93 151.345 292.662 151.103C293.394 151.345 294.176 151.475 294.988 151.475H339.501C343.631 151.475 346.979 148.098 346.979 143.931V126.246C346.979 122.08 343.631 118.702 339.501 118.702H321.521V89.3364C321.521 86.5987 320.076 84.2013 317.913 82.8796C318.618 82.9429 319.336 82.9746 320.063 82.9746H353.395C351.316 84.3144 349.938 86.6629 349.938 89.3364V107.176C349.938 111.342 353.285 114.72 357.416 114.72H368.841V143.931C368.841 148.098 372.189 151.475 376.319 151.475H395.374C399.504 151.475 402.852 148.098 402.852 143.931V114.72H408.526C408.496 115.353 408.48 115.992 408.48 116.634C408.48 137.933 423.615 152.244 446.141 152.244C469.278 152.244 483.651 138.599 483.651 116.634C483.651 106.07 479.929 97.0584 472.889 90.5706C466.11 84.3242 456.86 81.023 446.141 81.023C436.888 81.023 428.323 83.7652 421.735 88.7918C421.458 84.8795 418.225 81.7917 414.276 81.7917H364.517C365.555 81.4379 366.557 81.0056 367.522 80.4942C370.767 78.7749 373.365 76.3163 375.244 73.1863C377.125 70.0495 378.079 66.4586 378.079 62.5108C378.079 59.3522 377.423 56.3768 376.122 53.6233C376.689 52.5603 377.011 51.345 377.011 50.0535V8.29836C377.014 4.13183 373.666 0.754395 369.536 0.754395ZM151.752 79.7473C152.275 79.7473 152.805 79.6915 153.336 79.5761C157.64 78.6391 161.52 77.0466 164.915 74.8286C165.993 75.4804 167.229 75.8546 168.514 75.8969C169.645 75.9338 171.045 76.1269 172.675 76.4717C174.416 76.8406 176.133 77.3151 177.775 77.8802C179.522 78.4837 180.393 78.9748 180.756 79.2132C181.826 79.9163 183.053 80.3305 184.32 80.4195C184.898 80.9777 185.565 81.4432 186.297 81.7925H177.982C176.606 81.7925 175.279 82.1742 174.132 82.8698C172.995 82.1802 171.671 81.7925 170.281 81.7925H144.741C146.12 81.1339 147.267 80.0634 148.026 78.7372C149.14 79.3859 150.421 79.7473 151.752 79.7473ZM95.5443 76.385C96.9285 76.385 98.54 76.3352 100.333 76.2356C102.764 76.1028 105.363 75.9006 108.051 75.6336C109.794 75.4616 111.511 75.2586 113.182 75.027C113.212 79.1672 116.548 82.5137 120.66 82.5137H141.098C139.304 83.3684 137.875 84.93 137.208 86.9118L130.697 106.261C129.697 96.9415 123.835 81.7925 96.3415 81.7925H76.0583C78.4093 80.8902 80.1921 78.8262 80.7185 76.2959L93.9934 76.3616C94.4787 76.3774 94.9992 76.385 95.5443 76.385ZM41.3179 81.7932C42.6954 80.9445 43.8059 79.6455 44.4131 78.028C44.7369 77.165 45.0487 76.2137 45.3523 75.1598C45.5176 78.1993 47.4663 80.7589 50.1606 81.7932H41.3179ZM304.048 81.7932C305.453 81.2546 306.654 80.3003 307.507 79.0804C308.19 79.5662 308.909 80.0144 309.663 80.4232C310.664 80.9664 311.704 81.4228 312.778 81.794L304.048 81.7932ZM446.144 119.702C443.461 119.702 442.951 118.624 442.951 116.635C442.951 115.042 443.338 113.568 446.144 113.568C448.445 113.568 449.261 114.37 449.261 116.635C449.261 118.937 448.811 119.702 446.144 119.702ZM724.217 81.0237C714.419 81.0237 706.91 83.3231 701.506 86.9412C700.514 83.9493 697.713 81.7932 694.413 81.7932H675.359C674.547 81.7932 673.764 81.9237 673.032 82.1659C672.3 81.9245 671.518 81.7932 670.706 81.7932H651.423C647.292 81.7932 643.945 85.1707 643.945 89.3372V91.4269L639.702 85.1073C638.311 83.035 635.992 81.7932 633.511 81.7932H614.149C613.379 81.7932 612.637 81.9109 611.937 82.1289C611.238 81.9109 610.496 81.7932 609.725 81.7932H590.67C586.54 81.7932 583.192 85.1707 583.192 89.3372V119.285C582.978 119.374 582.62 119.472 582.133 119.472C581.689 119.472 581.36 119.402 581.151 119.333V89.3372C581.151 85.1707 577.803 81.7932 573.673 81.7932H554.617C553.986 81.7932 553.372 81.8724 552.786 82.0211C552.2 81.8724 551.587 81.7932 550.955 81.7932H494.093C489.963 81.7932 486.615 85.1707 486.615 89.3372V107.176C486.615 111.343 489.963 114.72 494.093 114.72H505.519V143.932C505.519 148.099 508.867 151.476 512.997 151.476H532.051C536.181 151.476 539.529 148.099 539.529 143.932V114.72H547.139V119.095C547.139 129.618 550.742 138.291 557.559 144.176C563.673 149.455 572.145 152.246 582.057 152.246C592.359 152.246 600.716 149.531 606.693 144.514C606.987 148.409 610.213 151.477 614.149 151.477H633.205C637.335 151.477 640.683 148.099 640.683 143.933V140.931L645.747 148.251C647.146 150.273 649.436 151.477 651.879 151.477H670.706C671.518 151.477 672.3 151.346 673.032 151.104C673.764 151.346 674.547 151.477 675.359 151.477H694.413C697.621 151.477 700.357 149.439 701.419 146.577C707.248 150.339 715.065 152.246 724.674 152.246C735.013 152.246 742.871 150.455 748.695 146.774C749.808 149.532 752.491 151.477 755.624 151.477H774.679C775.082 151.477 775.478 151.444 775.864 151.383C776.251 151.445 776.645 151.477 777.043 151.477H797.318C800.63 151.477 803.547 149.279 804.488 146.076L805.341 143.172H811.552L812.404 146.076C813.345 149.279 816.262 151.477 819.574 151.477H839.774C842.185 151.477 844.448 150.304 845.852 148.327C847.257 146.35 847.63 143.811 846.855 141.508L828.486 86.9133C827.456 83.8527 824.608 81.794 821.405 81.794H795.413C792.209 81.794 789.362 83.8527 788.332 86.9133L782.157 105.266V89.3387C782.157 85.1722 778.81 81.7947 774.679 81.7947H755.625C752.194 81.7947 749.304 84.1251 748.423 87.3018C743.309 83.637 735.653 81.0237 724.217 81.0237Z" fill="white"/>
<path d="M369.536 8.29834V50.0557H360.769C363.869 50.7226 366.283 52.2352 368.012 54.5927C369.738 56.9517 370.604 59.5913 370.604 62.5131C370.604 65.0773 370.019 67.3329 368.85 69.2808C367.68 71.2294 366.079 72.7412 364.048 73.8177C362.014 74.895 359.702 75.4329 357.111 75.4329H320.065C317.524 75.4329 315.237 74.8822 313.204 73.78C311.171 72.6771 309.557 71.1539 308.364 69.2053C307.169 67.2575 306.572 65.0275 306.572 62.5146C306.674 60.2084 307.36 58.0931 308.63 56.1709C309.9 54.2479 311.552 52.6848 313.585 51.48C315.617 50.2752 317.777 49.6725 320.065 49.6725H355.815V36.3672H353.452V47.9789H340.417V8.99088H353.452V17.6808H355.815V8.29834H369.536ZM325.781 61.8975H351.393C351.546 61.8975 351.699 61.8726 351.851 61.8205C352.003 61.77 352.08 61.5648 352.08 61.2057C352.08 60.8474 352.003 60.6422 351.851 60.5909C351.699 60.5403 351.546 60.5132 351.393 60.5132H325.781C325.578 60.5132 325.413 60.5396 325.286 60.5909C325.159 60.6422 325.096 60.8481 325.096 61.2057C325.096 61.5656 325.159 61.77 325.286 61.8205C325.413 61.8726 325.578 61.8975 325.781 61.8975ZM331.652 8.29834V11.5279H338.74V23.7552H335.462C336.478 24.1663 337.279 24.7932 337.864 25.6389C338.447 26.4853 338.74 27.6773 338.74 29.2148V37.2898C338.74 40.6227 337.368 43.2767 334.623 45.2495C331.88 47.223 327.941 48.2097 322.808 48.2097C317.675 48.2097 313.61 47.223 310.612 45.2495C307.613 43.2767 306.114 40.6227 306.114 37.2898V29.3694C306.114 27.7806 306.432 26.551 307.067 25.6781C307.702 24.8068 308.578 24.1663 309.697 23.7552H306.037V11.5279H313.355V8.29834H331.652ZM322.428 35.9824C322.783 35.9824 322.986 35.855 323.037 35.5977C323.087 35.3412 323.114 34.8033 323.114 33.9825V28.2921C323.114 28.0877 323.088 27.921 323.037 27.792C322.986 27.6645 322.782 27.5996 322.428 27.5996C322.072 27.5996 321.868 27.6645 321.818 27.792C321.767 27.921 321.742 28.0877 321.742 28.2921V33.9825C321.742 34.8033 321.767 35.3412 321.818 35.5977C321.868 35.855 322.072 35.9824 322.428 35.9824ZM301.39 8.29834V74.7396H280.808V58.6679H275.853C275.397 62.5644 273.643 65.6657 270.594 67.9726C267.545 70.2803 263.072 71.4338 257.178 71.4338C252.757 71.4338 249.034 70.7677 246.01 69.4347C242.986 68.1017 240.725 66.2949 239.227 64.0128C237.727 61.7323 236.952 59.1817 236.902 56.361V24.063C236.902 21.2943 237.638 18.7694 239.113 16.4881C240.586 14.2075 242.835 12.4 245.859 11.067C248.881 9.73396 252.655 9.06707 257.178 9.06707C262.362 9.06707 266.427 10.0033 269.375 11.8742C272.321 13.7458 274.279 16.1939 275.245 19.2182H280.809V8.29834H301.39ZM256.797 50.5929C257.355 50.5929 257.674 50.4654 257.749 50.2081C257.826 49.9524 257.864 49.7472 257.864 49.5933V30.9076C257.864 30.7032 257.826 30.4723 257.749 30.2151C257.673 29.9593 257.355 29.8303 256.797 29.8303C256.288 29.8303 255.997 29.9593 255.92 30.2151C255.844 30.4723 255.806 30.7024 255.806 30.9076V49.594C255.806 49.7479 255.845 49.9539 255.92 50.2089C255.997 50.4661 256.289 50.5929 256.797 50.5929ZM276.007 41.3651H280.809V36.5203H276.007V41.3651ZM210.377 8.29834V74.9704H189.491V55.2837L184.918 72.8943H184.841C183.672 72.1248 182.122 71.4074 180.191 70.7405C178.259 70.0752 176.265 69.5237 174.207 69.0877C172.149 68.6531 170.331 68.4087 168.757 68.3566L170.891 57.1297C168.858 60.9236 166.28 64.1403 163.154 66.7807C160.028 69.4211 156.229 71.2286 151.758 72.2018L146.269 48.2867C149.42 46.4927 151.834 43.9549 153.512 40.6733C155.188 37.3924 156.357 33.2402 157.018 28.2152H148.251V10.2213H187.431V28.2159H178.208C178.004 30.6262 177.737 33.0358 177.408 35.4446C177.077 37.8549 176.632 40.1867 176.074 42.4423C178.41 42.6483 180.773 43.0843 183.163 43.7497C185.55 44.4166 187.661 45.3913 189.49 46.6723V8.29834H210.377ZM141.545 8.29834V74.9704H120.659V65.9735C119.083 66.3839 117.114 66.7807 114.751 67.1647C112.388 67.5494 109.911 67.8708 107.32 68.1258C104.728 68.383 102.262 68.5754 99.9256 68.7029C98.2573 68.7949 96.7961 68.841 95.5428 68.841C95.0395 68.841 94.5692 68.8334 94.1324 68.8191L78.4295 68.7414V10.3752H99.3917V46.7484C102.746 46.7484 105.998 46.3388 109.149 45.518C112.299 44.6988 114.967 43.7754 117.153 42.7494L120.66 55.2837V8.29834H141.545ZM73.3998 8.29834V74.7396H52.819V60.7448C51.7003 60.9492 50.0611 61.1288 47.9022 61.2827C45.7411 61.4366 43.2397 61.5656 40.3936 61.6674C40.0377 64.4873 39.5935 67.1021 39.0603 69.5109C38.5264 71.9197 37.9797 73.8683 37.4211 75.3552L18.8982 71.8186C19.3551 70.5376 19.7866 69.0499 20.1934 67.3578C20.5995 65.6665 20.9562 63.8974 21.2605 62.0521H8.2257V45.4411C12.4949 45.4411 16.8261 45.4411 21.2224 45.4411C25.6172 45.4411 29.76 45.4019 33.647 45.3257C37.5348 45.2487 40.9268 45.1333 43.823 44.9794C46.72 44.8262 48.8033 44.5946 50.0738 44.2876L52.8182 57.6676V8.29834H73.3998ZM49.0837 10.3752V21.2951H30.5601V22.9865H48.398V30.292H30.5601V31.9841H49.3881V42.6732H10.665V10.3752H49.0837ZM724.217 88.5677C741.976 88.5677 750.59 95.5655 751.047 107.099H731.915C731.686 104.639 728.561 103.64 724.217 103.64C719.034 103.64 717.128 104.409 717.128 106.331C717.128 108.022 719.491 108.099 724.75 108.484C746.854 110.022 751.732 115.712 751.732 127.169C751.732 138.935 742.206 144.702 724.674 144.702C707.447 144.702 698.148 137.935 697.539 126.093H716.595C716.747 128.4 718.957 129.63 724.674 129.63C731.153 129.63 732.297 129.015 732.297 126.939C732.297 125.323 729.248 125.17 724.75 124.862C704.704 123.325 698.149 117.942 698.149 106.639C698.148 95.9502 708.057 88.5677 724.217 88.5677ZM446.144 88.5677C463.981 88.5677 476.176 99.4099 476.176 116.634C476.176 135.165 464.361 144.701 446.144 144.701C429.3 144.701 415.961 135.165 415.961 116.634C415.961 99.1798 429.3 88.5677 446.144 88.5677ZM446.144 127.246C452.776 127.246 456.739 123.325 456.739 116.635C456.739 110.33 452.7 106.024 446.144 106.024C439.742 106.024 435.473 110.253 435.473 116.635C435.474 123.247 439.742 127.246 446.144 127.246ZM821.405 89.3372L839.774 143.932H819.575L817.135 135.628H799.758L797.318 143.932H777.043L795.412 89.3372H821.405ZM803.798 121.863H813.097L808.447 106.177L803.798 121.863ZM774.679 89.3372V143.932H755.624V89.3372H774.679ZM694.412 89.3372V143.932H675.358V89.3372H694.412ZM670.704 89.3372V143.932H651.878L633.203 116.942V143.932H614.148V89.3372H633.509L651.421 116.019V89.3372H670.704ZM609.725 89.3372V119.095C609.725 136.627 598.749 144.701 582.055 144.701C566.278 144.701 554.617 136.55 554.617 119.095V89.3372H573.671V119.557C573.671 124.402 577.635 127.016 582.132 127.016C586.476 127.016 590.669 124.402 590.669 119.557V89.3372H609.725ZM550.954 89.3372V107.176H532.051V143.932H512.997V107.176H494.093V89.3372H550.954ZM414.279 89.3372V107.176H395.377V143.932H376.321V107.176H357.418V89.3372H414.279ZM314.045 89.3372V126.247H339.503V143.932H294.99V89.3372H314.045ZM290.337 89.3372V106.254H262.134V111.099H289.117V121.864H262.134V127.016H290.337V143.933H243.08V89.3379L290.337 89.3372ZM240.712 89.3372L222.343 143.932H196.351L177.982 89.3372H198.943L209.309 127.092L219.675 89.3372H240.712ZM170.28 89.3372L188.65 143.932H168.451L166.011 135.628H148.633L146.194 143.932H125.919L144.288 89.3372H170.28ZM152.674 121.863H161.972L157.323 106.177L152.674 121.863ZM96.3414 89.3372C115.169 89.3372 123.4 97.1799 123.4 109.637C123.4 117.557 120.657 123.171 114.712 126.554L123.629 143.932H104.041L97.9432 130.244C97.4093 130.244 96.8761 130.244 96.3422 130.244H88.7962V143.932H69.7401V89.3372H96.3414ZM88.7954 114.096H96.3414C102.135 114.096 103.583 112.405 103.583 109.713C103.583 107.099 101.982 105.484 96.3414 105.484H88.7954V114.096ZM65.9256 89.3372V107.176H47.0228V143.932H27.9668V107.176H9.06398V89.3372H65.9256ZM370.284 7.54395H369.536H355.815H355.067V8.29834V16.9264H354.2V8.99088V8.23648H353.452H340.417H339.669V8.99088V47.9789V48.7333H340.417H353.452H354.2V47.9789V37.1216H355.067V48.9166H324.696C329.07 48.6925 332.549 47.6681 335.058 45.8635C337.997 43.7505 339.488 40.8657 339.488 37.2898V29.2155C339.488 27.5294 339.148 26.1813 338.478 25.2089C338.306 24.96 338.116 24.7268 337.911 24.5103H338.74H339.488V23.7559V11.5279V10.7735H338.74H332.4V8.29834V7.54395H331.652H313.357H312.609V8.29834V10.7735H306.039H305.291V11.5279V23.7552V24.5096H306.039H307.087C306.861 24.7329 306.654 24.9735 306.466 25.2315C305.738 26.2304 305.368 27.623 305.368 29.3687V37.2898C305.368 40.8792 306.995 43.7701 310.204 45.8809C312.928 47.6748 316.525 48.6933 320.914 48.9166H320.065C317.654 48.9166 315.346 49.5593 313.207 50.8275C311.084 52.0851 309.335 53.741 308.008 55.7507C306.667 57.7792 305.932 60.0432 305.825 62.4791C305.824 65.1565 306.464 67.5411 307.727 69.6006C308.983 71.6518 310.707 73.2806 312.849 74.4431C314.982 75.5996 317.409 76.1865 320.064 76.1865H357.11C359.812 76.1865 362.263 75.6139 364.394 74.4854C366.539 73.3492 368.253 71.7295 369.488 69.6716C370.723 67.612 371.349 65.204 371.349 62.5131C371.349 59.4427 370.428 56.6265 368.611 54.1446C367.599 52.7633 366.355 51.649 364.894 50.8101H369.534H370.282V50.0557V8.29834V7.54395H370.284ZM302.138 7.54395H301.39H280.808H280.061V8.29834V18.4646H275.777C274.706 15.5187 272.688 13.0888 269.772 11.2367C266.716 9.29716 262.479 8.31343 257.178 8.31343C252.572 8.31343 248.664 9.00748 245.56 10.376C242.413 11.7633 240.033 13.6817 238.486 16.0769C236.939 18.4714 236.154 21.1585 236.154 24.0637V56.361C236.207 59.3265 237.031 62.0371 238.604 64.4292C240.175 66.8222 242.567 68.7391 245.711 70.125C248.814 71.4934 252.672 72.1875 257.178 72.1875C263.21 72.1875 267.875 70.9721 271.043 68.5754C274.072 66.2836 275.907 63.2064 276.505 59.4216H280.061V74.7396V75.494H280.808H301.39H302.138V74.7396V8.29834V7.54395ZM256.593 30.5968C256.64 30.59 256.707 30.5847 256.797 30.5847C256.928 30.5847 257.018 30.5938 257.079 30.6036C257.104 30.7175 257.117 30.8194 257.117 30.9076V49.594C257.117 49.6152 257.114 49.6831 257.08 49.8204C257.019 49.8302 256.928 49.8392 256.797 49.8392C256.706 49.8392 256.639 49.8339 256.592 49.8271C256.557 49.6831 256.554 49.6152 256.554 49.594V30.9076C256.554 30.8186 256.567 30.7145 256.593 30.5968ZM276.755 37.2747H280.061V40.6107H276.755V37.2747ZM211.125 7.54395H210.377H189.491H188.744V8.29834V45.2925C187.133 44.3321 185.329 43.5702 183.364 43.0217C181.233 42.4288 179.098 42.0108 177.005 41.7762C177.474 39.7605 177.859 37.6693 178.15 35.5472C178.448 33.3692 178.698 31.1596 178.894 28.9696H187.433H188.18V28.2152V10.2213V9.4669H187.433H148.253H147.505V10.2213V28.2159V28.9703H148.253H156.159C155.495 33.5088 154.382 37.3268 152.849 40.3278C151.247 43.4608 148.911 45.9179 145.904 47.6296L145.417 47.9072L145.543 48.4572L151.032 72.3723L151.198 73.0965L151.918 72.9396C156.489 71.9445 160.431 70.0676 163.636 67.3601C165.805 65.5284 167.731 63.4033 169.394 61.0148L168.024 68.2148L167.86 69.0824L168.735 69.111C170.255 69.1608 172.045 69.4015 174.055 69.8262C176.067 70.2524 178.051 70.8009 179.951 71.455C181.814 72.0984 183.323 72.7955 184.433 73.5265L184.619 73.6487H184.842H184.919H185.496L185.642 73.0852L188.745 61.1393V74.9704V75.7248H189.493H210.379H211.127V74.9704V8.29834V7.54395H211.125ZM142.293 7.54395H141.545H120.659H119.911V8.29834V49.8339L117.872 42.5449L117.633 41.6917L116.837 42.0659C114.701 43.0685 112.052 43.9843 108.962 44.7878C106.123 45.5271 103.158 45.9299 100.139 45.9873V10.3752V9.6208H99.3917H78.4295H77.6817V10.3752V68.7414V69.492L78.4257 69.4958L94.1287 69.5735C94.552 69.5878 95.0305 69.5954 95.5428 69.5954C96.8051 69.5954 98.2939 69.5486 99.9667 69.4566C102.302 69.3291 104.801 69.1344 107.393 68.8772C109.975 68.6222 112.491 68.297 114.871 67.91C116.802 67.5962 118.493 67.2696 119.912 66.9354V74.9704V75.7248H120.66H141.546H142.293V74.9704V8.29834L142.293 7.54395ZM74.1476 7.54395H73.3998H52.819H52.0712V8.29834V50.2986L50.8067 44.1345L50.6504 43.3725L49.9003 43.5536C48.6755 43.8501 46.6183 44.0756 43.7849 44.2257C40.9036 44.3789 37.4884 44.4951 33.6328 44.5713C29.7413 44.6482 25.5663 44.6867 21.2224 44.6867H8.2257H7.47791V45.4411V62.0506V62.805H8.2257H20.3729C20.1074 64.3085 19.8038 65.7759 19.4666 67.179C19.065 68.847 18.6365 70.3218 18.1946 71.5621L17.8977 72.3942L18.7591 72.5586L37.282 76.0952L37.8982 76.2129L38.1203 75.6215C38.6901 74.1044 39.2517 72.103 39.7901 69.6746C40.2859 67.434 40.7107 64.9883 41.0532 62.3969C43.6196 62.2996 45.9385 62.1781 47.9546 62.034C49.6266 61.9148 51.0056 61.7783 52.0712 61.6274V74.7388V75.4932H52.819H73.3998H74.1476V74.7388V8.29834V7.54395ZM49.8315 9.6208H49.0837H10.665H9.91721V10.3752V42.6732V43.4276H10.665H49.3881H50.1359V42.6732V31.9834V31.229H49.3881H31.3079V31.0457H48.398H49.1458V30.2913V22.9865V22.2321H48.398H31.3079V22.0495H49.0837H49.8315V21.2951V10.3752V9.6208ZM724.217 87.8133C707.927 87.8133 697.401 95.2026 697.401 106.638C697.401 118.787 705.054 124.107 724.694 125.614L725.126 125.643C728.137 125.848 731.548 126.079 731.548 126.938C731.548 128.104 731.548 128.874 724.674 128.874C718.34 128.874 717.427 127.36 717.341 126.042L717.294 125.337H716.594H697.538H696.751L696.792 126.131C697.434 138.592 707.335 145.455 724.674 145.455C733.62 145.455 740.518 143.95 745.177 140.984C750.023 137.898 752.48 133.249 752.48 127.168C752.48 114.075 745.496 109.17 724.802 107.73L723.999 107.672C719.864 107.374 717.876 107.192 717.876 106.33C717.876 105.324 718.644 104.393 724.217 104.393C726.717 104.393 730.946 104.754 731.17 107.169L731.234 107.853H731.915H751.047H751.825L751.794 107.069C751.552 100.948 749.115 96.1788 744.554 92.8934C739.873 89.5228 733.031 87.8133 724.217 87.8133ZM446.144 87.8133C427.933 87.8133 415.213 99.6649 415.213 116.634C415.213 134.142 427.355 145.455 446.144 145.455C455.466 145.455 463.193 142.939 468.489 138.18C474.086 133.15 476.924 125.901 476.924 116.634C476.924 108.03 473.96 100.751 468.353 95.5851C462.835 90.5012 455.156 87.8133 446.144 87.8133ZM446.144 126.492C440.024 126.492 436.221 122.715 436.221 116.635C436.221 110.647 440.116 106.778 446.144 106.778C452.126 106.778 455.991 110.647 455.991 116.635C455.991 122.899 452.403 126.492 446.144 126.492ZM821.94 88.5828H821.404H795.412H794.876L794.704 89.095L776.335 143.69L776 144.687H777.044H797.319H797.877L798.036 144.146L800.317 136.382H816.578L818.859 144.146L819.018 144.687H819.576H839.774H840.817L840.482 143.69L822.113 89.095L821.94 88.5828ZM804.801 121.109L808.446 108.81L812.091 121.109H804.801ZM775.426 88.5828H774.679H755.624H754.876V89.3372V143.932V144.687H755.624H774.679H775.426V143.932V89.3372V88.5828ZM695.16 88.5828H694.412H675.358H674.61V89.3372V143.932V144.687H675.358H694.412H695.16V143.932V89.3372V88.5828ZM671.452 88.5828H670.704H651.421H650.673V89.3372V113.56L634.128 88.914L633.906 88.5828H633.509H614.148H613.4V89.3372V143.932V144.687H614.148H633.203H633.951V143.932V119.341L651.265 144.364L651.488 144.687H651.877H670.704H671.451V143.933V89.3379L671.452 88.5828ZM610.472 88.5828H609.725H590.669H589.922V89.3372V119.557C589.922 123.959 586.003 126.262 582.133 126.262C578.293 126.262 574.42 124.189 574.42 119.557V89.3372V88.5828H573.672H554.617H553.87V89.3372V119.095C553.87 135.601 564.407 145.455 582.056 145.455C590.832 145.455 597.758 143.298 602.639 139.043C607.837 134.513 610.473 127.801 610.473 119.094V89.3364L610.472 88.5828ZM551.702 88.5828H550.954H494.092H493.344V89.3372V107.176V107.931H494.092H512.248V143.932V144.687H512.996H532.05H532.798V143.932V107.931H550.953H551.701V107.176V89.3372L551.702 88.5828ZM415.027 88.5828H414.279H357.418H356.67V89.3372V107.176V107.931H357.418H375.573V143.932V144.687H376.321H395.377H396.124V143.932V107.931H414.279H415.027V107.176V89.3372V88.5828ZM314.793 88.5828H314.045H294.99H294.242V89.3372V143.932V144.687H294.99H339.503H340.251V143.932V126.247V125.492H339.503H314.793V89.3372V88.5828ZM291.085 88.5828H290.337H243.08H242.332V89.3372V143.932V144.687H243.08H290.337H291.085V143.932V127.016V126.261H290.337H262.882V122.617H289.117H289.865V121.863V111.098V110.343H289.117H262.882V107.007H290.337H291.085V106.253V89.3364V88.5828ZM241.756 88.5828H240.713H219.675H219.106L218.954 89.1357L209.309 124.267L199.663 89.1357L199.511 88.5828H198.942H177.981H176.938L177.273 89.5793L195.642 144.174L195.814 144.687H196.35H222.342H222.878L223.05 144.174L241.42 89.5793L241.756 88.5828ZM170.817 88.5828H170.28H144.289H143.752L143.58 89.095L125.212 143.69L124.877 144.687H125.92H146.195H146.753L146.912 144.146L149.193 136.382H165.454L167.735 144.146L167.893 144.687H168.452H188.652H189.695L189.36 143.69L170.989 89.0943L170.817 88.5828ZM153.678 121.109L157.323 108.81L160.968 121.109H153.678ZM96.3414 88.5828H69.7401H68.9923V89.3372V143.932V144.687H69.7401H88.7954H89.5432V143.932V130.999H96.3414H97.4586L103.358 144.241L103.556 144.686H104.04H123.628H124.858L124.293 143.584L115.701 126.841C121.383 123.336 124.147 117.7 124.147 109.636C124.148 100.032 119.323 88.5828 96.3414 88.5828ZM89.5432 106.239H96.3414C102.049 106.239 102.835 107.909 102.835 109.713C102.835 111.469 102.334 113.342 96.3414 113.342H89.5432V106.239ZM66.6734 88.5828H65.9256H9.06398H8.31618V89.3372V107.176V107.931H9.06398H27.219V143.932V144.687H27.9668H47.0221H47.7699V143.932V107.931H65.9256H66.6734V107.176V89.3372V88.5828Z" fill="#222221"/>
</g>
<defs>
<clipPath id="clip0_74_1151">
<rect width="848" height="153" fill="white"/>
</clipPath>
</defs>
</svg>
