<?xml version="1.0" encoding="UTF-8"?>
<svg id="Layer_1" data-name="Layer 1" xmlns="http://www.w3.org/2000/svg" viewBox="0 0 25.37 23.87">
  <defs>
    <style>
      .cls-1 {
        fill: #347eff;
      }
    </style>
  </defs>
  <path class="cls-1" d="m9.44,17.63c0,2.77-1.84,3.15-3.14,3.15s-3.1-.98-3.1-3.15v-4.73H0v4.73c0,2.9,2.06,6.24,6.37,6.24s6.24-3.47,6.24-6.24h12.76v-3.15h-15.93v3.15Z"/>
  <path class="cls-1" d="m12.64,1.82c-2.63,0-4.76,2.12-4.76,4.74s2.13,4.74,4.76,4.74c.56,0,1.09-.1,1.58-.27v1.87h3.17v-4.76h7.97v-3.15h-8.24c-.65-1.84-2.42-3.16-4.49-3.16Zm0,6.31c-.87,0-1.58-.71-1.58-1.58s.71-1.58,1.58-1.58,1.58.71,1.58,1.58-.71,1.58-1.58,1.58Z"/>
  <path class="cls-1" d="m23.79,12.88c.87,0,1.58-.71,1.58-1.58s-.71-1.58-1.58-1.58-1.58.71-1.58,1.58.71,1.58,1.58,1.58Z"/>
  <path class="cls-1" d="m23.79,3.15c.87,0,1.58-.71,1.58-1.58s-.71-1.58-1.58-1.58-1.58.71-1.58,1.58.71,1.58,1.58,1.58Z"/>
  <path class="cls-1" d="m20.62,3.15c.87,0,1.58-.71,1.58-1.58s-.71-1.58-1.58-1.58-1.58.71-1.58,1.58.71,1.58,1.58,1.58Z"/>
</svg>